<svg xmlns="http://www.w3.org/2000/svg" xmlns:xlink="http://www.w3.org/1999/xlink" contentStyleType="text/css" height="799px" preserveAspectRatio="none" style="width:1813px;height:799px;background:#FFFFFF;" version="1.1" viewBox="0 0 1813 799" width="1813px" zoomAndPan="magnify"><defs/><g><!--cluster DICOM-Header--><g id="cluster_DICOM-Header"><path d="M8.5,6 L125.3281,6 A3.75,3.75 0 0 1 127.8281,8.5 L134.8281,28.2969 L1803.5,28.2969 A2.5,2.5 0 0 1 1806,30.7969 L1806,789.5 A2.5,2.5 0 0 1 1803.5,792 L8.5,792 A2.5,2.5 0 0 1 6,789.5 L6,8.5 A2.5,2.5 0 0 1 8.5,6 " fill="none" style="stroke:#000000;stroke-width:1.5;"/><line style="stroke:#000000;stroke-width:1.5;" x1="6" x2="134.8281" y1="28.2969" y2="28.2969"/><text fill="#000000" font-family="sans-serif" font-size="14" font-weight="bold" lengthAdjust="spacing" textLength="115.8281" x="10" y="20.9951">DICOM-Header</text></g><!--class Studie--><g id="elem_Studie"><rect codeLine="7" fill="#E0FFFF" height="284.4219" id="Studie" rx="2.5" ry="2.5" style="stroke:#181818;stroke-width:0.5;" width="436.7783" x="21.5" y="283"/><ellipse cx="188.5317" cy="303.1328" fill="#ADD1B2" rx="11" ry="11" style="stroke:#181818;stroke-width:1.0;"/><path d="M191.5005,308.7734 Q190.9224,309.0703 190.2817,309.2109 Q189.6411,309.3672 188.938,309.3672 Q186.438,309.3672 185.1099,307.7266 Q183.7974,306.0703 183.7974,302.9453 Q183.7974,299.8203 185.1099,298.1641 Q186.438,296.5078 188.938,296.5078 Q189.6411,296.5078 190.2817,296.6641 Q190.938,296.8203 191.5005,297.1172 L191.5005,299.8359 Q190.8755,299.2578 190.2817,298.9922 Q189.688,298.7109 189.063,298.7109 Q187.7192,298.7109 187.0317,299.7891 Q186.3442,300.8516 186.3442,302.9453 Q186.3442,305.0391 187.0317,306.1172 Q187.7192,307.1797 189.063,307.1797 Q189.688,307.1797 190.2817,306.9141 Q190.8755,306.6328 191.5005,306.0547 L191.5005,308.7734 Z " fill="#000000"/><text fill="#000000" font-family="sans-serif" font-size="12" font-style="italic" lengthAdjust="spacing" textLength="98.2148" x="207.0317" y="299.1387">&#171;ImagingStudy&#187;</text><text fill="#000000" font-family="sans-serif" font-size="14" lengthAdjust="spacing" textLength="44.6387" x="233.8198" y="314.9639">Studie</text><line style="stroke:#181818;stroke-width:0.5;" x1="22.5" x2="457.2783" y1="323.2656" y2="323.2656"/><ellipse cx="32.5" cy="336.9141" fill="none" rx="3" ry="3" style="stroke:#038048;stroke-width:1.0;"/><text fill="#000000" font-family="sans-serif" font-size="14" lengthAdjust="spacing" textLength="144.7441" x="41.5" y="340.2607">Status: Coding [1..1]</text><ellipse cx="32.5" cy="353.2109" fill="none" rx="3" ry="3" style="stroke:#038048;stroke-width:1.0;"/><text fill="#000000" font-family="sans-serif" font-size="14" lengthAdjust="spacing" textLength="181.1592" x="41.5" y="356.5576">Modalit&#228;ten: Coding [0..*]</text><ellipse cx="32.5" cy="369.5078" fill="none" rx="3" ry="3" style="stroke:#038048;stroke-width:1.0;"/><text fill="#000000" font-family="sans-serif" font-size="14" lengthAdjust="spacing" textLength="345.2764" x="41.5" y="372.8545">Personen-Identifikation: Reference(Patient) [1..1]</text><ellipse cx="32.5" cy="385.8047" fill="none" rx="3" ry="3" style="stroke:#038048;stroke-width:1.0;"/><text fill="#000000" font-family="sans-serif" font-size="14" lengthAdjust="spacing" textLength="393.4492" x="41.5" y="389.1514">Versorgungsstellenkontakt: Reference(Encounter) [0..1]</text><ellipse cx="32.5" cy="402.1016" fill="none" rx="3" ry="3" style="stroke:#038048;stroke-width:1.0;"/><text fill="#000000" font-family="sans-serif" font-size="14" lengthAdjust="spacing" textLength="166.2568" x="41.5" y="405.4482">Beginn: dateTime [0..1]</text><ellipse cx="32.5" cy="418.3984" fill="none" rx="3" ry="3" style="stroke:#038048;stroke-width:1.0;"/><text fill="#000000" font-family="sans-serif" font-size="14" lengthAdjust="spacing" textLength="410.7783" x="41.5" y="421.7451">Anfordernde Ma&#223;nahme: Reference(ServiceRequest) [0..*]</text><ellipse cx="32.5" cy="434.6953" fill="none" rx="3" ry="3" style="stroke:#038048;stroke-width:1.0;"/><text fill="#000000" font-family="sans-serif" font-size="14" lengthAdjust="spacing" textLength="345.0781" x="41.5" y="438.042">Quelle zum PACS Bild: Reference(Endpoint) [0..*]</text><ellipse cx="32.5" cy="450.9922" fill="none" rx="3" ry="3" style="stroke:#038048;stroke-width:1.0;"/><text fill="#000000" font-family="sans-serif" font-size="14" lengthAdjust="spacing" textLength="335.8018" x="41.5" y="454.3389">Anzahl an enhaltenen Serien: unsignedInt [0..1]</text><ellipse cx="32.5" cy="467.2891" fill="none" rx="3" ry="3" style="stroke:#038048;stroke-width:1.0;"/><text fill="#000000" font-family="sans-serif" font-size="14" lengthAdjust="spacing" textLength="397.5303" x="41.5" y="470.6357">Anzahl an enthaltenen SOP Instanzen: unsignedInt [0..1]</text><ellipse cx="32.5" cy="483.5859" fill="none" rx="3" ry="3" style="stroke:#038048;stroke-width:1.0;"/><text fill="#000000" font-family="sans-serif" font-size="14" lengthAdjust="spacing" textLength="352.1807" x="41.5" y="486.9326">Bildgebungsprozedur: Reference(Procedure) [0..*]</text><ellipse cx="32.5" cy="499.8828" fill="none" rx="3" ry="3" style="stroke:#038048;stroke-width:1.0;"/><text fill="#000000" font-family="sans-serif" font-size="14" lengthAdjust="spacing" textLength="297.1992" x="41.5" y="503.2295">Extension: Bildgebungsgrund: string [0..1]</text><ellipse cx="32.5" cy="516.1797" fill="none" rx="3" ry="3" style="stroke:#038048;stroke-width:1.0;"/><text fill="#000000" font-family="sans-serif" font-size="14" lengthAdjust="spacing" textLength="357.7656" x="41.5" y="519.5264">Indikation: Reference(Condition|Observation) [0..*]</text><ellipse cx="32.5" cy="532.4766" fill="none" rx="3" ry="3" style="stroke:#038048;stroke-width:1.0;"/><text fill="#000000" font-family="sans-serif" font-size="14" lengthAdjust="spacing" textLength="245.8682" x="41.5" y="535.8232">Studien-Beschreibung: string [0..1]</text><ellipse cx="32.5" cy="548.7734" fill="none" rx="3" ry="3" style="stroke:#038048;stroke-width:1.0;"/><text fill="#000000" font-family="sans-serif" font-size="14" lengthAdjust="spacing" textLength="235.4092" x="41.5" y="552.1201">DICOM-Serien: DICOM-Serie [0..*]</text><line style="stroke:#181818;stroke-width:0.5;" x1="22.5" x2="457.2783" y1="559.4219" y2="559.4219"/></g><!--class DICOMSerie--><g id="elem_DICOMSerie"><rect codeLine="24" fill="#F1F1F1" height="276.1563" id="DICOMSerie" rx="2.5" ry="2.5" style="stroke:#181818;stroke-width:0.5;" width="669.1934" x="608.5" y="287"/><ellipse cx="897.0757" cy="303" fill="#ADD1B2" rx="11" ry="11" style="stroke:#181818;stroke-width:1.0;"/><path d="M900.0444,308.6406 Q899.4663,308.9375 898.8257,309.0781 Q898.1851,309.2344 897.4819,309.2344 Q894.9819,309.2344 893.6538,307.5938 Q892.3413,305.9375 892.3413,302.8125 Q892.3413,299.6875 893.6538,298.0313 Q894.9819,296.375 897.4819,296.375 Q898.1851,296.375 898.8257,296.5313 Q899.4819,296.6875 900.0444,296.9844 L900.0444,299.7031 Q899.4194,299.125 898.8257,298.8594 Q898.2319,298.5781 897.6069,298.5781 Q896.2632,298.5781 895.5757,299.6563 Q894.8882,300.7188 894.8882,302.8125 Q894.8882,304.9063 895.5757,305.9844 Q896.2632,307.0469 897.6069,307.0469 Q898.2319,307.0469 898.8257,306.7813 Q899.4194,306.5 900.0444,305.9219 L900.0444,308.6406 Z " fill="#000000"/><text fill="#000000" font-family="sans-serif" font-size="14" lengthAdjust="spacing" textLength="83.542" x="917.5757" y="307.8467">DICOMSerie</text><line style="stroke:#181818;stroke-width:0.5;" x1="609.5" x2="1276.6934" y1="319" y2="319"/><ellipse cx="619.5" cy="332.6484" fill="none" rx="3" ry="3" style="stroke:#038048;stroke-width:1.0;"/><text fill="#000000" font-family="sans-serif" font-size="14" lengthAdjust="spacing" textLength="138.8721" x="628.5" y="335.9951">Serien-UID: id [1..1]</text><ellipse cx="619.5" cy="348.9453" fill="none" rx="3" ry="3" style="stroke:#038048;stroke-width:1.0;"/><text fill="#000000" font-family="sans-serif" font-size="14" lengthAdjust="spacing" textLength="244.6104" x="628.5" y="352.292">Serien-Nummer: unsignedInt [0..1]</text><ellipse cx="619.5" cy="365.2422" fill="none" rx="3" ry="3" style="stroke:#038048;stroke-width:1.0;"/><text fill="#000000" font-family="sans-serif" font-size="14" lengthAdjust="spacing" textLength="165.5801" x="628.5" y="368.5889">Modalit&#228;t: Coding [1..1]</text><ellipse cx="619.5" cy="381.5391" fill="none" rx="3" ry="3" style="stroke:#038048;stroke-width:1.0;"/><text fill="#000000" font-family="sans-serif" font-size="14" lengthAdjust="spacing" textLength="231.2188" x="628.5" y="384.8857">Serienbeschreibung: string [0..1]</text><ellipse cx="619.5" cy="397.8359" fill="none" rx="3" ry="3" style="stroke:#038048;stroke-width:1.0;"/><text fill="#000000" font-family="sans-serif" font-size="14" lengthAdjust="spacing" textLength="422.1533" x="628.5" y="401.1826">Anzahl an in Serie enthaltenen Instanzen: unsignedInt [0..1]</text><ellipse cx="619.5" cy="414.1328" fill="none" rx="3" ry="3" style="stroke:#038048;stroke-width:1.0;"/><text fill="#000000" font-family="sans-serif" font-size="14" lengthAdjust="spacing" textLength="263.9014" x="628.5" y="417.4795">K&#246;rperregion(bodySite): Coding [0..1]</text><ellipse cx="619.5" cy="430.4297" fill="none" rx="3" ry="3" style="stroke:#038048;stroke-width:1.0;"/><text fill="#000000" font-family="sans-serif" font-size="14" lengthAdjust="spacing" textLength="180.79" x="628.5" y="433.7764">K&#246;rperseite: Coding [0..1]</text><ellipse cx="619.5" cy="446.7266" fill="none" rx="3" ry="3" style="stroke:#038048;stroke-width:1.0;"/><text fill="#000000" font-family="sans-serif" font-size="14" lengthAdjust="spacing" textLength="166.2568" x="628.5" y="450.0732">Beginn: dateTime [0..1]</text><ellipse cx="619.5" cy="463.0234" fill="none" rx="3" ry="3" style="stroke:#038048;stroke-width:1.0;"/><text fill="#000000" font-family="sans-serif" font-size="14" lengthAdjust="spacing" textLength="367.418" x="628.5" y="466.3701">Funktion des Ausf&#252;hrenden: CodeableConcept [0..1]</text><ellipse cx="619.5" cy="479.3203" fill="none" rx="3" ry="3" style="stroke:#038048;stroke-width:1.0;"/><text fill="#000000" font-family="sans-serif" font-size="14" lengthAdjust="spacing" textLength="227.9102" x="628.5" y="482.667">Akteur: Reference(Device) [1..1]</text><ellipse cx="619.5" cy="495.6172" fill="none" rx="3" ry="3" style="stroke:#038048;stroke-width:1.0;"/><text fill="#000000" font-family="sans-serif" font-size="14" lengthAdjust="spacing" textLength="320.3252" x="628.5" y="498.9639">Extension: Kontrastmittelgabe: boolean [0..1]</text><ellipse cx="619.5" cy="511.9141" fill="none" rx="3" ry="3" style="stroke:#038048;stroke-width:1.0;"/><text fill="#000000" font-family="sans-serif" font-size="14" lengthAdjust="spacing" textLength="643.1934" x="628.5" y="515.2607">Extension: Kontrastmitteldetails: Reference(MII_PR_Medikation_MedicationStatement) [0..*]</text><ellipse cx="619.5" cy="528.2109" fill="none" rx="3" ry="3" style="stroke:#038048;stroke-width:1.0;"/><text fill="#000000" font-family="sans-serif" font-size="14" lengthAdjust="spacing" textLength="383.0244" x="628.5" y="531.5576">Extension: Modalit&#228;ten(DX,CR,MG,CT,MR,PT,NM) [0..1]</text><ellipse cx="619.5" cy="544.5078" fill="none" rx="3" ry="3" style="stroke:#038048;stroke-width:1.0;"/><text fill="#000000" font-family="sans-serif" font-size="14" lengthAdjust="spacing" textLength="229.8037" x="628.5" y="547.8545">DICOM-Instanzen: Instance [0..*]</text><line style="stroke:#181818;stroke-width:0.5;" x1="609.5" x2="1276.6934" y1="555.1563" y2="555.1563"/></g><!--class DICOMInstanz--><g id="elem_DICOMInstanz"><rect codeLine="41" fill="#F1F1F1" height="178.375" id="DICOMInstanz" rx="2.5" ry="2.5" style="stroke:#181818;stroke-width:0.5;" width="362.7656" x="1427.5" y="336"/><ellipse cx="1555.4482" cy="352" fill="#ADD1B2" rx="11" ry="11" style="stroke:#181818;stroke-width:1.0;"/><path d="M1558.417,357.6406 Q1557.8389,357.9375 1557.1982,358.0781 Q1556.5576,358.2344 1555.8545,358.2344 Q1553.3545,358.2344 1552.0264,356.5938 Q1550.7139,354.9375 1550.7139,351.8125 Q1550.7139,348.6875 1552.0264,347.0313 Q1553.3545,345.375 1555.8545,345.375 Q1556.5576,345.375 1557.1982,345.5313 Q1557.8545,345.6875 1558.417,345.9844 L1558.417,348.7031 Q1557.792,348.125 1557.1982,347.8594 Q1556.6045,347.5781 1555.9795,347.5781 Q1554.6357,347.5781 1553.9482,348.6563 Q1553.2607,349.7188 1553.2607,351.8125 Q1553.2607,353.9063 1553.9482,354.9844 Q1554.6357,356.0469 1555.9795,356.0469 Q1556.6045,356.0469 1557.1982,355.7813 Q1557.792,355.5 1558.417,354.9219 L1558.417,357.6406 Z " fill="#000000"/><text fill="#000000" font-family="sans-serif" font-size="14" lengthAdjust="spacing" textLength="98.3691" x="1575.9482" y="356.8467">DICOMInstanz</text><line style="stroke:#181818;stroke-width:0.5;" x1="1428.5" x2="1789.2656" y1="368" y2="368"/><ellipse cx="1438.5" cy="381.6484" fill="none" rx="3" ry="3" style="stroke:#038048;stroke-width:1.0;"/><text fill="#000000" font-family="sans-serif" font-size="14" lengthAdjust="spacing" textLength="177.625" x="1447.5" y="384.9951">SOP-Instanz UID: id [1..1]</text><ellipse cx="1438.5" cy="397.9453" fill="none" rx="3" ry="3" style="stroke:#038048;stroke-width:1.0;"/><text fill="#000000" font-family="sans-serif" font-size="14" lengthAdjust="spacing" textLength="178.3838" x="1447.5" y="401.292">SOP-Klasse: Coding [1..1]</text><ellipse cx="1438.5" cy="414.2422" fill="none" rx="3" ry="3" style="stroke:#038048;stroke-width:1.0;"/><text fill="#000000" font-family="sans-serif" font-size="14" lengthAdjust="spacing" textLength="250.5645" x="1447.5" y="417.5889">Instanz-Nummer: unsignedInt [0..1]</text><ellipse cx="1438.5" cy="430.5391" fill="none" rx="3" ry="3" style="stroke:#038048;stroke-width:1.0;"/><text fill="#000000" font-family="sans-serif" font-size="14" lengthAdjust="spacing" textLength="123.4707" x="1447.5" y="433.8857">Titel: String [0..1]</text><ellipse cx="1438.5" cy="446.8359" fill="none" rx="3" ry="3" style="stroke:#038048;stroke-width:1.0;"/><text fill="#000000" font-family="sans-serif" font-size="14" lengthAdjust="spacing" textLength="218.2715" x="1447.5" y="450.1826">Extension: Bildtyp: string [0..1]</text><ellipse cx="1438.5" cy="463.1328" fill="none" rx="3" ry="3" style="stroke:#038048;stroke-width:1.0;"/><text fill="#000000" font-family="sans-serif" font-size="14" lengthAdjust="spacing" textLength="316.4492" x="1447.5" y="466.4795">Extension: Schichtdicke: Quantity[mm] [0..1]</text><ellipse cx="1438.5" cy="479.4297" fill="none" rx="3" ry="3" style="stroke:#038048;stroke-width:1.0;"/><text fill="#000000" font-family="sans-serif" font-size="14" lengthAdjust="spacing" textLength="336.7656" x="1447.5" y="482.7764">Extension: Pixelabstand(x): Quantity[mm] [0..1]</text><ellipse cx="1438.5" cy="495.7266" fill="none" rx="3" ry="3" style="stroke:#038048;stroke-width:1.0;"/><text fill="#000000" font-family="sans-serif" font-size="14" lengthAdjust="spacing" textLength="336.7656" x="1447.5" y="499.0732">Extension: Pixelabstand(y): Quantity[mm] [0..1]</text><line style="stroke:#181818;stroke-width:0.5;" x1="1428.5" x2="1789.2656" y1="506.375" y2="506.375"/></g><!--class Modalit?tMR--><g id="elem_Modalit&#228;tMR"><rect codeLine="52" fill="#FFFFE0" height="162.0781" id="Modalit&#228;tMR" rx="2.5" ry="2.5" style="stroke:#181818;stroke-width:0.5;" width="394.9971" x="215.5" y="41"/><ellipse cx="365.1216" cy="57" fill="#ADD1B2" rx="11" ry="11" style="stroke:#181818;stroke-width:1.0;"/><path d="M368.0903,62.6406 Q367.5122,62.9375 366.8716,63.0781 Q366.231,63.2344 365.5278,63.2344 Q363.0278,63.2344 361.6997,61.5938 Q360.3872,59.9375 360.3872,56.8125 Q360.3872,53.6875 361.6997,52.0313 Q363.0278,50.375 365.5278,50.375 Q366.231,50.375 366.8716,50.5313 Q367.5278,50.6875 368.0903,50.9844 L368.0903,53.7031 Q367.4653,53.125 366.8716,52.8594 Q366.2778,52.5781 365.6528,52.5781 Q364.3091,52.5781 363.6216,53.6563 Q362.9341,54.7188 362.9341,56.8125 Q362.9341,58.9063 363.6216,59.9844 Q364.3091,61.0469 365.6528,61.0469 Q366.2778,61.0469 366.8716,60.7813 Q367.4653,60.5 368.0903,59.9219 L368.0903,62.6406 Z " fill="#000000"/><text fill="#000000" font-family="sans-serif" font-size="14" lengthAdjust="spacing" textLength="87.2539" x="385.6216" y="61.8467">Modalit&#228;tMR</text><line style="stroke:#181818;stroke-width:0.5;" x1="216.5" x2="609.4971" y1="73" y2="73"/><ellipse cx="226.5" cy="86.6484" fill="none" rx="3" ry="3" style="stroke:#038048;stroke-width:1.0;"/><text fill="#000000" font-family="sans-serif" font-size="14" lengthAdjust="spacing" textLength="267.5039" x="235.5" y="89.9951">Scansequenz: CodeableConcept [0..1]</text><ellipse cx="226.5" cy="102.9453" fill="none" rx="3" ry="3" style="stroke:#038048;stroke-width:1.0;"/><text fill="#000000" font-family="sans-serif" font-size="14" lengthAdjust="spacing" textLength="368.9971" x="235.5" y="106.292">Scansequenz Untervariante: CodeableConcept [0..1]</text><ellipse cx="226.5" cy="119.2422" fill="none" rx="3" ry="3" style="stroke:#038048;stroke-width:1.0;"/><text fill="#000000" font-family="sans-serif" font-size="14" lengthAdjust="spacing" textLength="297.8486" x="235.5" y="122.5889">Magnetische Feldst&#228;rke: Quantity[T] [0..1]</text><ellipse cx="226.5" cy="135.5391" fill="none" rx="3" ry="3" style="stroke:#038048;stroke-width:1.0;"/><text fill="#000000" font-family="sans-serif" font-size="14" lengthAdjust="spacing" textLength="235.7031" x="235.5" y="138.8857">Echozeit (TE): Quantity[ms] [0..1]</text><ellipse cx="226.5" cy="151.8359" fill="none" rx="3" ry="3" style="stroke:#038048;stroke-width:1.0;"/><text fill="#000000" font-family="sans-serif" font-size="14" lengthAdjust="spacing" textLength="281.9346" x="235.5" y="155.1826">Repetitionszeit (TR): Quantity[ms] [0..1]</text><ellipse cx="226.5" cy="168.1328" fill="none" rx="3" ry="3" style="stroke:#038048;stroke-width:1.0;"/><text fill="#000000" font-family="sans-serif" font-size="14" lengthAdjust="spacing" textLength="268.5771" x="235.5" y="171.4795">Inversionszeit (TI): Quantity[ms] [0..1]</text><ellipse cx="226.5" cy="184.4297" fill="none" rx="3" ry="3" style="stroke:#038048;stroke-width:1.0;"/><text fill="#000000" font-family="sans-serif" font-size="14" lengthAdjust="spacing" textLength="224.7314" x="235.5" y="187.7764">Kippwinkel: Quantity[deg] [0..1]</text><line style="stroke:#181818;stroke-width:0.5;" x1="216.5" x2="609.4971" y1="195.0781" y2="195.0781"/></g><!--class Modalit?tCT--><g id="elem_Modalit&#228;tCT"><rect codeLine="62" fill="#FFFFE0" height="129.4844" id="Modalit&#228;tCT" rx="2.5" ry="2.5" style="stroke:#181818;stroke-width:0.5;" width="318.0996" x="45" y="647"/><ellipse cx="157.9126" cy="663" fill="#ADD1B2" rx="11" ry="11" style="stroke:#181818;stroke-width:1.0;"/><path d="M160.8813,668.6406 Q160.3032,668.9375 159.6626,669.0781 Q159.022,669.2344 158.3188,669.2344 Q155.8188,669.2344 154.4907,667.5938 Q153.1782,665.9375 153.1782,662.8125 Q153.1782,659.6875 154.4907,658.0313 Q155.8188,656.375 158.3188,656.375 Q159.022,656.375 159.6626,656.5313 Q160.3188,656.6875 160.8813,656.9844 L160.8813,659.7031 Q160.2563,659.125 159.6626,658.8594 Q159.0688,658.5781 158.4438,658.5781 Q157.1001,658.5781 156.4126,659.6563 Q155.7251,660.7188 155.7251,662.8125 Q155.7251,664.9063 156.4126,665.9844 Q157.1001,667.0469 158.4438,667.0469 Q159.0688,667.0469 159.6626,666.7813 Q160.2563,666.5 160.8813,665.9219 L160.8813,668.6406 Z " fill="#000000"/><text fill="#000000" font-family="sans-serif" font-size="14" lengthAdjust="spacing" textLength="83.7744" x="178.4126" y="667.8467">Modalit&#228;tCT</text><line style="stroke:#181818;stroke-width:0.5;" x1="46" x2="362.0996" y1="679" y2="679"/><ellipse cx="56" cy="692.6484" fill="none" rx="3" ry="3" style="stroke:#038048;stroke-width:1.0;"/><text fill="#000000" font-family="sans-serif" font-size="14" lengthAdjust="spacing" textLength="255.165" x="65" y="695.9951">CTDI Volumen: Quantity[mGy] [0..1]</text><ellipse cx="56" cy="708.9453" fill="none" rx="3" ry="3" style="stroke:#038048;stroke-width:1.0;"/><text fill="#000000" font-family="sans-serif" font-size="14" lengthAdjust="spacing" textLength="167.5625" x="65" y="712.292">KVP: Quantity[kV] [0..1]</text><ellipse cx="56" cy="725.2422" fill="none" rx="3" ry="3" style="stroke:#038048;stroke-width:1.0;"/><text fill="#000000" font-family="sans-serif" font-size="14" lengthAdjust="spacing" textLength="248.8281" x="65" y="728.5889">Expositionszeit: Quantity[ms] [0..1]</text><ellipse cx="56" cy="741.5391" fill="none" rx="3" ry="3" style="stroke:#038048;stroke-width:1.0;"/><text fill="#000000" font-family="sans-serif" font-size="14" lengthAdjust="spacing" textLength="225.7705" x="65" y="744.8857">Exposition: Quantity[mAs] [0..1]</text><ellipse cx="56" cy="757.8359" fill="none" rx="3" ry="3" style="stroke:#038048;stroke-width:1.0;"/><text fill="#000000" font-family="sans-serif" font-size="14" lengthAdjust="spacing" textLength="292.0996" x="65" y="761.1826">R&#246;ntgenr&#246;hrenstrom: Quantity[mA] [0..1]</text><line style="stroke:#181818;stroke-width:0.5;" x1="46" x2="362.0996" y1="768.4844" y2="768.4844"/></g><!--class Modalit?tDX--><g id="elem_Modalit&#228;tDX"><rect codeLine="70" fill="#FFFFE0" height="113.1875" id="Modalit&#228;tDX" rx="2.5" ry="2.5" style="stroke:#181818;stroke-width:0.5;" width="318.0996" x="513" y="655"/><ellipse cx="624.8906" cy="671" fill="#ADD1B2" rx="11" ry="11" style="stroke:#181818;stroke-width:1.0;"/><path d="M627.8594,676.6406 Q627.2813,676.9375 626.6406,677.0781 Q626,677.2344 625.2969,677.2344 Q622.7969,677.2344 621.4688,675.5938 Q620.1563,673.9375 620.1563,670.8125 Q620.1563,667.6875 621.4688,666.0313 Q622.7969,664.375 625.2969,664.375 Q626,664.375 626.6406,664.5313 Q627.2969,664.6875 627.8594,664.9844 L627.8594,667.7031 Q627.2344,667.125 626.6406,666.8594 Q626.0469,666.5781 625.4219,666.5781 Q624.0781,666.5781 623.3906,667.6563 Q622.7031,668.7188 622.7031,670.8125 Q622.7031,672.9063 623.3906,673.9844 Q624.0781,675.0469 625.4219,675.0469 Q626.0469,675.0469 626.6406,674.7813 Q627.2344,674.5 627.8594,673.9219 L627.8594,676.6406 Z " fill="#000000"/><text fill="#000000" font-family="sans-serif" font-size="14" lengthAdjust="spacing" textLength="85.8184" x="645.3906" y="675.8467">Modalit&#228;tDX</text><line style="stroke:#181818;stroke-width:0.5;" x1="514" x2="830.0996" y1="687" y2="687"/><ellipse cx="524" cy="700.6484" fill="none" rx="3" ry="3" style="stroke:#038048;stroke-width:1.0;"/><text fill="#000000" font-family="sans-serif" font-size="14" lengthAdjust="spacing" textLength="167.5625" x="533" y="703.9951">KVP: Quantity[kV] [0..1]</text><ellipse cx="524" cy="716.9453" fill="none" rx="3" ry="3" style="stroke:#038048;stroke-width:1.0;"/><text fill="#000000" font-family="sans-serif" font-size="14" lengthAdjust="spacing" textLength="248.8281" x="533" y="720.292">Expositionszeit: Quantity[ms] [0..1]</text><ellipse cx="524" cy="733.2422" fill="none" rx="3" ry="3" style="stroke:#038048;stroke-width:1.0;"/><text fill="#000000" font-family="sans-serif" font-size="14" lengthAdjust="spacing" textLength="225.7705" x="533" y="736.5889">Exposition: Quantity[mAs] [0..1]</text><ellipse cx="524" cy="749.5391" fill="none" rx="3" ry="3" style="stroke:#038048;stroke-width:1.0;"/><text fill="#000000" font-family="sans-serif" font-size="14" lengthAdjust="spacing" textLength="292.0996" x="533" y="752.8857">R&#246;ntgenr&#246;hrenstrom: Quantity[mA] [0..1]</text><line style="stroke:#181818;stroke-width:0.5;" x1="514" x2="830.0996" y1="760.1875" y2="760.1875"/></g><!--class Modalit?tCR--><g id="elem_Modalit&#228;tCR"><rect codeLine="77" fill="#FFFFE0" height="113.1875" id="Modalit&#228;tCR" rx="2.5" ry="2.5" style="stroke:#181818;stroke-width:0.5;" width="318.0996" x="981" y="655"/><ellipse cx="1093.3247" cy="671" fill="#ADD1B2" rx="11" ry="11" style="stroke:#181818;stroke-width:1.0;"/><path d="M1096.2935,676.6406 Q1095.7153,676.9375 1095.0747,677.0781 Q1094.4341,677.2344 1093.731,677.2344 Q1091.231,677.2344 1089.9028,675.5938 Q1088.5903,673.9375 1088.5903,670.8125 Q1088.5903,667.6875 1089.9028,666.0313 Q1091.231,664.375 1093.731,664.375 Q1094.4341,664.375 1095.0747,664.5313 Q1095.731,664.6875 1096.2935,664.9844 L1096.2935,667.7031 Q1095.6685,667.125 1095.0747,666.8594 Q1094.481,666.5781 1093.856,666.5781 Q1092.5122,666.5781 1091.8247,667.6563 Q1091.1372,668.7188 1091.1372,670.8125 Q1091.1372,672.9063 1091.8247,673.9844 Q1092.5122,675.0469 1093.856,675.0469 Q1094.481,675.0469 1095.0747,674.7813 Q1095.6685,674.5 1096.2935,673.9219 L1096.2935,676.6406 Z " fill="#000000"/><text fill="#000000" font-family="sans-serif" font-size="14" lengthAdjust="spacing" textLength="84.9502" x="1113.8247" y="675.8467">Modalit&#228;tCR</text><line style="stroke:#181818;stroke-width:0.5;" x1="982" x2="1298.0996" y1="687" y2="687"/><ellipse cx="992" cy="700.6484" fill="none" rx="3" ry="3" style="stroke:#038048;stroke-width:1.0;"/><text fill="#000000" font-family="sans-serif" font-size="14" lengthAdjust="spacing" textLength="167.5625" x="1001" y="703.9951">KVP: Quantity[kV] [0..1]</text><ellipse cx="992" cy="716.9453" fill="none" rx="3" ry="3" style="stroke:#038048;stroke-width:1.0;"/><text fill="#000000" font-family="sans-serif" font-size="14" lengthAdjust="spacing" textLength="248.8281" x="1001" y="720.292">Expositionszeit: Quantity[ms] [0..1]</text><ellipse cx="992" cy="733.2422" fill="none" rx="3" ry="3" style="stroke:#038048;stroke-width:1.0;"/><text fill="#000000" font-family="sans-serif" font-size="14" lengthAdjust="spacing" textLength="225.7705" x="1001" y="736.5889">Exposition: Quantity[mAs] [0..1]</text><ellipse cx="992" cy="749.5391" fill="none" rx="3" ry="3" style="stroke:#038048;stroke-width:1.0;"/><text fill="#000000" font-family="sans-serif" font-size="14" lengthAdjust="spacing" textLength="292.0996" x="1001" y="752.8857">R&#246;ntgenr&#246;hrenstrom: Quantity[mA] [0..1]</text><line style="stroke:#181818;stroke-width:0.5;" x1="982" x2="1298.0996" y1="760.1875" y2="760.1875"/></g><!--class Modalit?tMG--><g id="elem_Modalit&#228;tMG"><rect codeLine="84" fill="#FFFFE0" height="129.4844" id="Modalit&#228;tMG" rx="2.5" ry="2.5" style="stroke:#181818;stroke-width:0.5;" width="318.0996" x="1449" y="647"/><ellipse cx="1559.6123" cy="663" fill="#ADD1B2" rx="11" ry="11" style="stroke:#181818;stroke-width:1.0;"/><path d="M1562.5811,668.6406 Q1562.0029,668.9375 1561.3623,669.0781 Q1560.7217,669.2344 1560.0186,669.2344 Q1557.5186,669.2344 1556.1904,667.5938 Q1554.8779,665.9375 1554.8779,662.8125 Q1554.8779,659.6875 1556.1904,658.0313 Q1557.5186,656.375 1560.0186,656.375 Q1560.7217,656.375 1561.3623,656.5313 Q1562.0186,656.6875 1562.5811,656.9844 L1562.5811,659.7031 Q1561.9561,659.125 1561.3623,658.8594 Q1560.7686,658.5781 1560.1436,658.5781 Q1558.7998,658.5781 1558.1123,659.6563 Q1557.4248,660.7188 1557.4248,662.8125 Q1557.4248,664.9063 1558.1123,665.9844 Q1558.7998,667.0469 1560.1436,667.0469 Q1560.7686,667.0469 1561.3623,666.7813 Q1561.9561,666.5 1562.5811,665.9219 L1562.5811,668.6406 Z " fill="#000000"/><text fill="#000000" font-family="sans-serif" font-size="14" lengthAdjust="spacing" textLength="88.375" x="1580.1123" y="667.8467">Modalit&#228;tMG</text><line style="stroke:#181818;stroke-width:0.5;" x1="1450" x2="1766.0996" y1="679" y2="679"/><ellipse cx="1460" cy="692.6484" fill="none" rx="3" ry="3" style="stroke:#038048;stroke-width:1.0;"/><text fill="#000000" font-family="sans-serif" font-size="14" lengthAdjust="spacing" textLength="167.5625" x="1469" y="695.9951">KVP: Quantity[kV] [0..1]</text><ellipse cx="1460" cy="708.9453" fill="none" rx="3" ry="3" style="stroke:#038048;stroke-width:1.0;"/><text fill="#000000" font-family="sans-serif" font-size="14" lengthAdjust="spacing" textLength="248.8281" x="1469" y="712.292">Expositionszeit: Quantity[ms] [0..1]</text><ellipse cx="1460" cy="725.2422" fill="none" rx="3" ry="3" style="stroke:#038048;stroke-width:1.0;"/><text fill="#000000" font-family="sans-serif" font-size="14" lengthAdjust="spacing" textLength="225.7705" x="1469" y="728.5889">Exposition: Quantity[mAs] [0..1]</text><ellipse cx="1460" cy="741.5391" fill="none" rx="3" ry="3" style="stroke:#038048;stroke-width:1.0;"/><text fill="#000000" font-family="sans-serif" font-size="14" lengthAdjust="spacing" textLength="292.0996" x="1469" y="744.8857">R&#246;ntgenr&#246;hrenstrom: Quantity[mA] [0..1]</text><ellipse cx="1460" cy="757.8359" fill="none" rx="3" ry="3" style="stroke:#038048;stroke-width:1.0;"/><text fill="#000000" font-family="sans-serif" font-size="14" lengthAdjust="spacing" textLength="263.6074" x="1469" y="761.1826">Blickposition: CodeableConcept [0..1]</text><line style="stroke:#181818;stroke-width:0.5;" x1="1450" x2="1766.0996" y1="768.4844" y2="768.4844"/></g><!--class Modalit?tNM--><g id="elem_Modalit&#228;tNM"><rect codeLine="92" fill="#FFFFE0" height="145.7813" id="Modalit&#228;tNM" rx="2.5" ry="2.5" style="stroke:#181818;stroke-width:0.5;" width="364.8711" x="760.5" y="49"/><ellipse cx="894.686" cy="65" fill="#ADD1B2" rx="11" ry="11" style="stroke:#181818;stroke-width:1.0;"/><path d="M897.6548,70.6406 Q897.0767,70.9375 896.436,71.0781 Q895.7954,71.2344 895.0923,71.2344 Q892.5923,71.2344 891.2642,69.5938 Q889.9517,67.9375 889.9517,64.8125 Q889.9517,61.6875 891.2642,60.0313 Q892.5923,58.375 895.0923,58.375 Q895.7954,58.375 896.436,58.5313 Q897.0923,58.6875 897.6548,58.9844 L897.6548,61.7031 Q897.0298,61.125 896.436,60.8594 Q895.8423,60.5781 895.2173,60.5781 Q893.8735,60.5781 893.186,61.6563 Q892.4985,62.7188 892.4985,64.8125 Q892.4985,66.9063 893.186,67.9844 Q893.8735,69.0469 895.2173,69.0469 Q895.8423,69.0469 896.436,68.7813 Q897.0298,68.5 897.6548,67.9219 L897.6548,70.6406 Z " fill="#000000"/><text fill="#000000" font-family="sans-serif" font-size="14" lengthAdjust="spacing" textLength="87.999" x="915.186" y="69.8467">Modalit&#228;tNM</text><line style="stroke:#181818;stroke-width:0.5;" x1="761.5" x2="1124.3711" y1="81" y2="81"/><ellipse cx="771.5" cy="94.6484" fill="none" rx="3" ry="3" style="stroke:#038048;stroke-width:1.0;"/><text fill="#000000" font-family="sans-serif" font-size="14" lengthAdjust="spacing" textLength="294.4717" x="780.5" y="97.9951">Radiopharmakon: CodeableConcept [0..1]</text><ellipse cx="771.5" cy="110.9453" fill="none" rx="3" ry="3" style="stroke:#038048;stroke-width:1.0;"/><text fill="#000000" font-family="sans-serif" font-size="14" lengthAdjust="spacing" textLength="257.1338" x="780.5" y="114.292">Radionuklid: CodeableConcept [0..1]</text><ellipse cx="771.5" cy="127.2422" fill="none" rx="3" ry="3" style="stroke:#038048;stroke-width:1.0;"/><text fill="#000000" font-family="sans-serif" font-size="14" lengthAdjust="spacing" textLength="284.5938" x="780.5" y="130.5889">Tracer Expositionszeit: Quantity[s] [0..1]</text><ellipse cx="771.5" cy="143.5391" fill="none" rx="3" ry="3" style="stroke:#038048;stroke-width:1.0;"/><text fill="#000000" font-family="sans-serif" font-size="14" lengthAdjust="spacing" textLength="304.8555" x="780.5" y="146.8857">Skalierungseinheit: CodeableConcept [0..1]</text><ellipse cx="771.5" cy="159.8359" fill="none" rx="3" ry="3" style="stroke:#038048;stroke-width:1.0;"/><text fill="#000000" font-family="sans-serif" font-size="14" lengthAdjust="spacing" textLength="338.8711" x="780.5" y="163.1826">Gesamte Radionukliddosis: Quantity[MBq] [0..1]</text><ellipse cx="771.5" cy="176.1328" fill="none" rx="3" ry="3" style="stroke:#038048;stroke-width:1.0;"/><text fill="#000000" font-family="sans-serif" font-size="14" lengthAdjust="spacing" textLength="225.7979" x="780.5" y="179.4795">Halbwertszeit: Quantity[s] [0..1]</text><line style="stroke:#181818;stroke-width:0.5;" x1="761.5" x2="1124.3711" y1="186.7813" y2="186.7813"/></g><!--class Modalit?tPT--><g id="elem_Modalit&#228;tPT"><rect codeLine="101" fill="#FFFFE0" height="162.0781" id="Modalit&#228;tPT" rx="2.5" ry="2.5" style="stroke:#181818;stroke-width:0.5;" width="364.8711" x="1275.5" y="41"/><ellipse cx="1412.4648" cy="57" fill="#ADD1B2" rx="11" ry="11" style="stroke:#181818;stroke-width:1.0;"/><path d="M1415.4336,62.6406 Q1414.8555,62.9375 1414.2148,63.0781 Q1413.5742,63.2344 1412.8711,63.2344 Q1410.3711,63.2344 1409.043,61.5938 Q1407.7305,59.9375 1407.7305,56.8125 Q1407.7305,53.6875 1409.043,52.0313 Q1410.3711,50.375 1412.8711,50.375 Q1413.5742,50.375 1414.2148,50.5313 Q1414.8711,50.6875 1415.4336,50.9844 L1415.4336,53.7031 Q1414.8086,53.125 1414.2148,52.8594 Q1413.6211,52.5781 1412.9961,52.5781 Q1411.6523,52.5781 1410.9648,53.6563 Q1410.2773,54.7188 1410.2773,56.8125 Q1410.2773,58.9063 1410.9648,59.9844 Q1411.6523,61.0469 1412.9961,61.0469 Q1413.6211,61.0469 1414.2148,60.7813 Q1414.8086,60.5 1415.4336,59.9219 L1415.4336,62.6406 Z " fill="#000000"/><text fill="#000000" font-family="sans-serif" font-size="14" lengthAdjust="spacing" textLength="82.4414" x="1432.9648" y="61.8467">Modalit&#228;tPT</text><line style="stroke:#181818;stroke-width:0.5;" x1="1276.5" x2="1639.3711" y1="73" y2="73"/><ellipse cx="1286.5" cy="86.6484" fill="none" rx="3" ry="3" style="stroke:#038048;stroke-width:1.0;"/><text fill="#000000" font-family="sans-serif" font-size="14" lengthAdjust="spacing" textLength="294.4717" x="1295.5" y="89.9951">Radiopharmakon: CodeableConcept [0..1]</text><ellipse cx="1286.5" cy="102.9453" fill="none" rx="3" ry="3" style="stroke:#038048;stroke-width:1.0;"/><text fill="#000000" font-family="sans-serif" font-size="14" lengthAdjust="spacing" textLength="257.1338" x="1295.5" y="106.292">Radionuklid: CodeableConcept [0..1]</text><ellipse cx="1286.5" cy="119.2422" fill="none" rx="3" ry="3" style="stroke:#038048;stroke-width:1.0;"/><text fill="#000000" font-family="sans-serif" font-size="14" lengthAdjust="spacing" textLength="284.5938" x="1295.5" y="122.5889">Tracer Expositionszeit: Quantity[s] [0..1]</text><ellipse cx="1286.5" cy="135.5391" fill="none" rx="3" ry="3" style="stroke:#038048;stroke-width:1.0;"/><text fill="#000000" font-family="sans-serif" font-size="14" lengthAdjust="spacing" textLength="304.8555" x="1295.5" y="138.8857">Skalierungseinheit: CodeableConcept [0..1]</text><ellipse cx="1286.5" cy="151.8359" fill="none" rx="3" ry="3" style="stroke:#038048;stroke-width:1.0;"/><text fill="#000000" font-family="sans-serif" font-size="14" lengthAdjust="spacing" textLength="338.8711" x="1295.5" y="155.1826">Gesamte Radionukliddosis: Quantity[MBq] [0..1]</text><ellipse cx="1286.5" cy="168.1328" fill="none" rx="3" ry="3" style="stroke:#038048;stroke-width:1.0;"/><text fill="#000000" font-family="sans-serif" font-size="14" lengthAdjust="spacing" textLength="225.7979" x="1295.5" y="171.4795">Halbwertszeit: Quantity[s] [0..1]</text><ellipse cx="1286.5" cy="184.4297" fill="none" rx="3" ry="3" style="stroke:#038048;stroke-width:1.0;"/><text fill="#000000" font-family="sans-serif" font-size="14" lengthAdjust="spacing" textLength="160.3301" x="1295.5" y="187.7764">Serientyp: String [0..1]</text><line style="stroke:#181818;stroke-width:0.5;" x1="1276.5" x2="1639.3711" y1="195.0781" y2="195.0781"/></g><!--link DICOMSerie to DICOMInstanz--><g id="link_DICOMSerie_DICOMInstanz"><path codeLine="112" d="M1277.95,425 C1329.45,425 1380.9,425 1427.35,425 " fill="none" id="DICOMSerie-DICOMInstanz" style="stroke:#181818;stroke-width:1.0;"/><text fill="#000000" font-family="sans-serif" font-size="13" lengthAdjust="spacing" textLength="119.0186" x="1293.15" y="438.0669">ISt.series.instance</text><text fill="#000000" font-family="sans-serif" font-size="13" lengthAdjust="spacing" textLength="24.8066" x="1286.0888" y="421.8908">1..1</text><text fill="#000000" font-family="sans-serif" font-size="13" lengthAdjust="spacing" textLength="23.0356" x="1396.2072" y="421.7454">0..*</text></g><!--link Modalit?tMR to DICOMSerie--><g id="link_Modalit&#228;tMR_DICOMSerie"><path codeLine="113" d="M610.68,199 C653.12,199 685.5,199 685.5,199 C685.5,199 685.5,239.78 685.5,286.7 " fill="none" id="Modalit&#228;tMR-DICOMSerie" style="stroke:#181818;stroke-width:1.0;"/><text fill="#000000" font-family="sans-serif" font-size="13" lengthAdjust="spacing" textLength="24.8066" x="618.2299" y="198.5655">0..1</text><text fill="#000000" font-family="sans-serif" font-size="13" lengthAdjust="spacing" textLength="24.8066" x="646.7785" y="275.7928">1..1</text></g><!--link DICOMSerie to Modalit?tCT--><g id="link_DICOMSerie_Modalit&#228;tCT"><path codeLine="114" d="M682.67,563.01 C682.67,609.58 682.67,650 682.67,650 C682.67,650 502.35,650 363.06,650 " fill="none" id="DICOMSerie-Modalit&#228;tCT" style="stroke:#181818;stroke-width:1.0;"/><text fill="#000000" font-family="sans-serif" font-size="13" lengthAdjust="spacing" textLength="24.8066" x="643.7937" y="583.0338">1..1</text><text fill="#000000" font-family="sans-serif" font-size="13" lengthAdjust="spacing" textLength="24.8066" x="371.3628" y="643.7162">0..1</text></g><!--link DICOMSerie to Modalit?tDX--><g id="link_DICOMSerie_Modalit&#228;tDX"><path codeLine="115" d="M756.83,563.21 C756.83,595.55 756.83,628.24 756.83,654.66 " fill="none" id="DICOMSerie-Modalit&#228;tDX" style="stroke:#181818;stroke-width:1.0;"/><text fill="#000000" font-family="sans-serif" font-size="13" lengthAdjust="spacing" textLength="24.8066" x="722.0093" y="583.2448">1..1</text><text fill="#000000" font-family="sans-serif" font-size="13" lengthAdjust="spacing" textLength="24.8066" x="741.7492" y="643.8821">0..1</text></g><!--link DICOMSerie to Modalit?tCR--><g id="link_DICOMSerie_Modalit&#228;tCR"><path codeLine="116" d="M1079.83,563.21 C1079.83,595.55 1079.83,628.24 1079.83,654.66 " fill="none" id="DICOMSerie-Modalit&#228;tCR" style="stroke:#181818;stroke-width:1.0;"/><text fill="#000000" font-family="sans-serif" font-size="13" lengthAdjust="spacing" textLength="24.8066" x="1062.6734" y="583.2448">1..1</text><text fill="#000000" font-family="sans-serif" font-size="13" lengthAdjust="spacing" textLength="24.8066" x="1047.0774" y="643.8821">0..1</text></g><!--link DICOMSerie to Modalit?tMG--><g id="link_DICOMSerie_Modalit&#228;tMG"><path codeLine="117" d="M1178.67,563.22 C1178.67,611.1 1178.67,653 1178.67,653 C1178.67,653 1326.56,653 1448.74,653 " fill="none" id="DICOMSerie-Modalit&#228;tMG" style="stroke:#181818;stroke-width:1.0;"/><text fill="#000000" font-family="sans-serif" font-size="13" lengthAdjust="spacing" textLength="24.8066" x="1166.9187" y="583.2553">1..1</text><text fill="#000000" font-family="sans-serif" font-size="13" lengthAdjust="spacing" textLength="24.8066" x="1415.9276" y="646.6547">0..1</text></g><!--link Modalit?tNM to DICOMSerie--><g id="link_Modalit&#228;tNM_DICOMSerie"><path codeLine="119" d="M943,195.35 C943,222.93 943,255.28 943,286.85 " fill="none" id="Modalit&#228;tNM-DICOMSerie" style="stroke:#181818;stroke-width:1.0;"/><text fill="#000000" font-family="sans-serif" font-size="13" lengthAdjust="spacing" textLength="24.8066" x="917.9369" y="214.8865">0..1</text><text fill="#000000" font-family="sans-serif" font-size="13" lengthAdjust="spacing" textLength="24.8066" x="918.3605" y="275.951">1..1</text></g><!--link Modalit?tPT to DICOMSerie--><g id="link_Modalit&#228;tPT_DICOMSerie"><path codeLine="120" d="M1288.25,203.13 C1288.25,254.77 1288.25,312 1288.25,312 C1288.25,312 1284.41,312 1277.54,312 " fill="none" id="Modalit&#228;tPT-DICOMSerie" style="stroke:#181818;stroke-width:1.0;"/><text fill="#000000" font-family="sans-serif" font-size="13" lengthAdjust="spacing" textLength="24.8066" x="1248.1046" y="223.0929">0..1</text><text fill="#000000" font-family="sans-serif" font-size="13" lengthAdjust="spacing" textLength="24.8066" x="1285.6692" y="306.2424">1..1</text></g><!--link Studie to DICOMSerie--><g id="link_Studie_DICOMSerie"><path codeLine="122" d="M458.58,425 C506.14,425 557.51,425 608.41,425 " fill="none" id="Studie-DICOMSerie" style="stroke:#181818;stroke-width:1.0;"/><text fill="#000000" font-family="sans-serif" font-size="13" lengthAdjust="spacing" textLength="59.814" x="473.49" y="438.0669">ISt.series</text><text fill="#000000" font-family="sans-serif" font-size="13" lengthAdjust="spacing" textLength="24.8066" x="466.1628" y="421.8161">1..1</text><text fill="#000000" font-family="sans-serif" font-size="13" lengthAdjust="spacing" textLength="23.0356" x="577.2967" y="421.8908">0..*</text></g><!--SRC=[xLVDRjiu4BxxAOZq4k_QHdDOO14K1HmxJOrKYIkhGHP5KD3YH28aaIf99N7QFCjUzXbosfjVR8Uo75DPMJ7s5c1lCkUR_s-6j4wuoAcY6Vd41PX53aGg4ykEVXASIGOQSdBmsrldrASYiQU_kuSfH23O4GsJICb2i95CfI9lRcDkeDF9yPn6GFR6az6vr_y8b87Q8pywX8GfrPhCJC4ua7Vl9XcDk8ZixyNxz-JD9nx5PhIWeWJ_Ya1g2dr8Hf8XZ7mz60mEhag99nbDkLd-PK1iv6y7WrzMyX_N75BsGAQWj1GW-XC6ml1hdb339QhuS0qAH0ZxKpn1MTSrlrQ_iEegAaIajO4q1P58OMXYN0F78iGY653TCeBAn15WQkY8KGC1py2LhSqFnRLKM1p1W7Xq-QUWSGQkwHce6nw23zyBqARRbE7dmiP5xekCJ8UZ6JdYAQj7ntB9HLrvAEvfd18iD8YOfbX440ITSLlDGcWU2M0JOToWNHspKJgVaedGXehx5jrri3Qu2EQsdhcIzy0ALMk5ag4zWrgmntVeIfTTS_GZXSGx9DgeTUkV-Pe8rj3jaSHZU_ZpVAwnkYMWvcx5Jj4_0Xt62hZrrkHdnUvrqPnV6sCFdIVEb_ALkE9sgTZ_CXaV4ivSybMIioBBG6qjwMO2ckPZPMF-GWgRblAg_RNUxjxNq-MZoa4fvBmK-tF95ZDS1TtQP5Og5LG30fhaRNFpeH29xHV1JKM6XRvU_etfuVIiTW3GUGhOu13onYY7YO4wuSPWnwis-WxRJd7M5TKcumQ7Fw9p37WkPGfOi0RpMpKP6CfJxJhs9fDlK_-R1skEbfzX-Mct7cGWckVTyU8kmVtnPM_azxoJtYZeUNvl6lJElEw_-UhqTFKPjl2r0gyPUpvTgvCcsgBurEf24o4hnPTO7I0hqaESmUTKVRO4y0Ph8hI3ceKn3sE3HKqmeCy5nVLl5b-pxEg5tatv7QHqRiDb-tVT_wwxsAhhr7dJGy-lBi0_SA7BstNHGogqNV_YlfNZ3evyiPVH3LKSVKEhbaUn1uRZbW3o0PFH68YgrIjeJZcCSNjpG_Q3urgMkX7kGuvUBBTrfUNle3KHDxWd7AL9Yz8fp_DRBXBBdYSCW-Ybge-2fggFWl64NCYqoEoWR7oUBEfEBwQEDBcugdCnbtgJzFRGDq0NCwo3_EMZCFZgKij7k_AG-ZAhmTr4ILEcuykcJ5zL2YF_rQVWdRoY5F0sJd5_RgnkNINDoPvvJSdwb76PnrHbD97jDtS95KMISjQA2nGDGRLKgbw3MO81WhBFIE0YBg4jraz0qyo06mr3FzgnxnrzhtduIDFvBIZJ5aTppQR1_pLhZQDysPRt__DNmaC7LxppqDwppuyzqbTzicUVE7krLmq-W6Pce2rI3tZr5cfIBrRg-EbUrar8re0S1RiYnvSxszpPktVIsJMbCszNv3JeTAh_y5jANDfm2_mF]--></g></svg>