<svg xmlns="http://www.w3.org/2000/svg" xmlns:xlink="http://www.w3.org/1999/xlink" contentStyleType="text/css" data-diagram-type="CLASS" height="962px" preserveAspectRatio="none" style="width:1970px;height:962px;background:#FFFFFF;" version="1.1" viewBox="0 0 1970 962" width="1970px" zoomAndPan="magnify"><defs/><g><!--cluster DICOM-Header--><g class="cluster" data-entity="DICOM-Header" data-source-line="6" data-uid="ent0002" id="cluster_DICOM-Header"><path d="M8.5,6 L125.3281,6 A3.75,3.75 0 0 1 127.8281,8.5 L134.8281,28.2969 L1960.5,28.2969 A2.5,2.5 0 0 1 1963,30.7969 L1963,952.5 A2.5,2.5 0 0 1 1960.5,955 L8.5,955 A2.5,2.5 0 0 1 6,952.5 L6,8.5 A2.5,2.5 0 0 1 8.5,6" fill="none" style="stroke:#000000;stroke-width:1.5;"/><line style="stroke:#000000;stroke-width:1.5;" x1="6" x2="134.8281" y1="28.2969" y2="28.2969"/><text fill="#000000" font-family="sans-serif" font-size="14" font-weight="bold" lengthAdjust="spacing" textLength="115.8281" x="10" y="20.9951">DICOM-Header</text></g><!--class Studie--><g class="entity" data-entity="Studie" data-source-line="7" data-uid="ent0003" id="entity_Studie"><rect fill="#E0FFFF" height="284.4219" rx="2.5" ry="2.5" style="stroke:#181818;stroke-width:0.5;" width="436.7783" x="21.5" y="41"/><ellipse cx="188.5317" cy="61.1328" fill="#ADD1B2" rx="11" ry="11" style="stroke:#181818;stroke-width:1;"/><path d="M191.5005,66.7734 Q190.9224,67.0703 190.2817,67.2109 Q189.6411,67.3672 188.938,67.3672 Q186.438,67.3672 185.1099,65.7266 Q183.7974,64.0703 183.7974,60.9453 Q183.7974,57.8203 185.1099,56.1641 Q186.438,54.5078 188.938,54.5078 Q189.6411,54.5078 190.2817,54.6641 Q190.938,54.8203 191.5005,55.1172 L191.5005,57.8359 Q190.8755,57.2578 190.2817,56.9922 Q189.688,56.7109 189.063,56.7109 Q187.7192,56.7109 187.0317,57.7891 Q186.3442,58.8516 186.3442,60.9453 Q186.3442,63.0391 187.0317,64.1172 Q187.7192,65.1797 189.063,65.1797 Q189.688,65.1797 190.2817,64.9141 Q190.8755,64.6328 191.5005,64.0547 L191.5005,66.7734 Z " fill="#000000"/><text fill="#000000" font-family="sans-serif" font-size="12" font-style="italic" lengthAdjust="spacing" textLength="98.2148" x="207.0317" y="57.1387">&#171;ImagingStudy&#187;</text><text fill="#000000" font-family="sans-serif" font-size="14" lengthAdjust="spacing" textLength="44.6387" x="233.8198" y="72.9639">Studie</text><line style="stroke:#181818;stroke-width:0.5;" x1="22.5" x2="457.2783" y1="81.2656" y2="81.2656"/><ellipse cx="32.5" cy="94.9141" fill="none" rx="3" ry="3" style="stroke:#038048;stroke-width:1;"/><text fill="#000000" font-family="sans-serif" font-size="14" lengthAdjust="spacing" textLength="144.7441" x="41.5" y="98.2607">Status: Coding [1..1]</text><ellipse cx="32.5" cy="111.2109" fill="none" rx="3" ry="3" style="stroke:#038048;stroke-width:1;"/><text fill="#000000" font-family="sans-serif" font-size="14" lengthAdjust="spacing" textLength="181.1592" x="41.5" y="114.5576">Modalit&#228;ten: Coding [0..*]</text><ellipse cx="32.5" cy="127.5078" fill="none" rx="3" ry="3" style="stroke:#038048;stroke-width:1;"/><text fill="#000000" font-family="sans-serif" font-size="14" lengthAdjust="spacing" textLength="345.2764" x="41.5" y="130.8545">Personen-Identifikation: Reference(Patient) [1..1]</text><ellipse cx="32.5" cy="143.8047" fill="none" rx="3" ry="3" style="stroke:#038048;stroke-width:1;"/><text fill="#000000" font-family="sans-serif" font-size="14" lengthAdjust="spacing" textLength="393.4492" x="41.5" y="147.1514">Versorgungsstellenkontakt: Reference(Encounter) [0..1]</text><ellipse cx="32.5" cy="160.1016" fill="none" rx="3" ry="3" style="stroke:#038048;stroke-width:1;"/><text fill="#000000" font-family="sans-serif" font-size="14" lengthAdjust="spacing" textLength="166.2568" x="41.5" y="163.4482">Beginn: dateTime [0..1]</text><ellipse cx="32.5" cy="176.3984" fill="none" rx="3" ry="3" style="stroke:#038048;stroke-width:1;"/><text fill="#000000" font-family="sans-serif" font-size="14" lengthAdjust="spacing" textLength="410.7783" x="41.5" y="179.7451">Anfordernde Ma&#223;nahme: Reference(ServiceRequest) [0..*]</text><ellipse cx="32.5" cy="192.6953" fill="none" rx="3" ry="3" style="stroke:#038048;stroke-width:1;"/><text fill="#000000" font-family="sans-serif" font-size="14" lengthAdjust="spacing" textLength="345.0781" x="41.5" y="196.042">Quelle zum PACS Bild: Reference(Endpoint) [0..*]</text><ellipse cx="32.5" cy="208.9922" fill="none" rx="3" ry="3" style="stroke:#038048;stroke-width:1;"/><text fill="#000000" font-family="sans-serif" font-size="14" lengthAdjust="spacing" textLength="335.8018" x="41.5" y="212.3389">Anzahl an enhaltenen Serien: unsignedInt [0..1]</text><ellipse cx="32.5" cy="225.2891" fill="none" rx="3" ry="3" style="stroke:#038048;stroke-width:1;"/><text fill="#000000" font-family="sans-serif" font-size="14" lengthAdjust="spacing" textLength="397.5303" x="41.5" y="228.6357">Anzahl an enthaltenen SOP Instanzen: unsignedInt [0..1]</text><ellipse cx="32.5" cy="241.5859" fill="none" rx="3" ry="3" style="stroke:#038048;stroke-width:1;"/><text fill="#000000" font-family="sans-serif" font-size="14" lengthAdjust="spacing" textLength="354.0879" x="41.5" y="244.9326">Bildgebungsprozedur: Reference(Procedure) [0..1]</text><ellipse cx="32.5" cy="257.8828" fill="none" rx="3" ry="3" style="stroke:#038048;stroke-width:1;"/><text fill="#000000" font-family="sans-serif" font-size="14" lengthAdjust="spacing" textLength="297.1992" x="41.5" y="261.2295">Extension: Bildgebungsgrund: string [0..1]</text><ellipse cx="32.5" cy="274.1797" fill="none" rx="3" ry="3" style="stroke:#038048;stroke-width:1;"/><text fill="#000000" font-family="sans-serif" font-size="14" lengthAdjust="spacing" textLength="357.7656" x="41.5" y="277.5264">Indikation: Reference(Condition|Observation) [0..*]</text><ellipse cx="32.5" cy="290.4766" fill="none" rx="3" ry="3" style="stroke:#038048;stroke-width:1;"/><text fill="#000000" font-family="sans-serif" font-size="14" lengthAdjust="spacing" textLength="245.8682" x="41.5" y="293.8232">Studien-Beschreibung: string [0..1]</text><ellipse cx="32.5" cy="306.7734" fill="none" rx="3" ry="3" style="stroke:#038048;stroke-width:1;"/><text fill="#000000" font-family="sans-serif" font-size="14" lengthAdjust="spacing" textLength="235.4092" x="41.5" y="310.1201">DICOM-Serien: DICOM-Serie [0..*]</text><line style="stroke:#181818;stroke-width:0.5;" x1="22.5" x2="457.2783" y1="317.4219" y2="317.4219"/></g><!--class DICOMSerie--><g class="entity" data-entity="DICOMSerie" data-source-line="24" data-uid="ent0004" id="entity_DICOMSerie"><rect fill="#F1F1F1" height="276.1563" rx="2.5" ry="2.5" style="stroke:#181818;stroke-width:0.5;" width="563.5576" x="371" y="405"/><ellipse cx="606.7578" cy="421" fill="#ADD1B2" rx="11" ry="11" style="stroke:#181818;stroke-width:1;"/><path d="M609.7266,426.6406 Q609.1484,426.9375 608.5078,427.0781 Q607.8672,427.2344 607.1641,427.2344 Q604.6641,427.2344 603.3359,425.5938 Q602.0234,423.9375 602.0234,420.8125 Q602.0234,417.6875 603.3359,416.0313 Q604.6641,414.375 607.1641,414.375 Q607.8672,414.375 608.5078,414.5313 Q609.1641,414.6875 609.7266,414.9844 L609.7266,417.7031 Q609.1016,417.125 608.5078,416.8594 Q607.9141,416.5781 607.2891,416.5781 Q605.9453,416.5781 605.2578,417.6563 Q604.5703,418.7188 604.5703,420.8125 Q604.5703,422.9063 605.2578,423.9844 Q605.9453,425.0469 607.2891,425.0469 Q607.9141,425.0469 608.5078,424.7813 Q609.1016,424.5 609.7266,423.9219 L609.7266,426.6406 Z " fill="#000000"/><text fill="#000000" font-family="sans-serif" font-size="14" lengthAdjust="spacing" textLength="83.542" x="627.2578" y="425.8467">DICOMSerie</text><line style="stroke:#181818;stroke-width:0.5;" x1="372" x2="933.5576" y1="437" y2="437"/><ellipse cx="382" cy="450.6484" fill="none" rx="3" ry="3" style="stroke:#038048;stroke-width:1;"/><text fill="#000000" font-family="sans-serif" font-size="14" lengthAdjust="spacing" textLength="138.8721" x="391" y="453.9951">Serien-UID: id [1..1]</text><ellipse cx="382" cy="466.9453" fill="none" rx="3" ry="3" style="stroke:#038048;stroke-width:1;"/><text fill="#000000" font-family="sans-serif" font-size="14" lengthAdjust="spacing" textLength="244.6104" x="391" y="470.292">Serien-Nummer: unsignedInt [0..1]</text><ellipse cx="382" cy="483.2422" fill="none" rx="3" ry="3" style="stroke:#038048;stroke-width:1;"/><text fill="#000000" font-family="sans-serif" font-size="14" lengthAdjust="spacing" textLength="165.5801" x="391" y="486.5889">Modalit&#228;t: Coding [1..1]</text><ellipse cx="382" cy="499.5391" fill="none" rx="3" ry="3" style="stroke:#038048;stroke-width:1;"/><text fill="#000000" font-family="sans-serif" font-size="14" lengthAdjust="spacing" textLength="231.2188" x="391" y="502.8857">Serienbeschreibung: string [0..1]</text><ellipse cx="382" cy="515.8359" fill="none" rx="3" ry="3" style="stroke:#038048;stroke-width:1;"/><text fill="#000000" font-family="sans-serif" font-size="14" lengthAdjust="spacing" textLength="422.1533" x="391" y="519.1826">Anzahl an in Serie enthaltenen Instanzen: unsignedInt [0..1]</text><ellipse cx="382" cy="532.1328" fill="none" rx="3" ry="3" style="stroke:#038048;stroke-width:1;"/><text fill="#000000" font-family="sans-serif" font-size="14" lengthAdjust="spacing" textLength="263.9014" x="391" y="535.4795">K&#246;rperregion(bodySite): Coding [0..1]</text><ellipse cx="382" cy="548.4297" fill="none" rx="3" ry="3" style="stroke:#038048;stroke-width:1;"/><text fill="#000000" font-family="sans-serif" font-size="14" lengthAdjust="spacing" textLength="180.79" x="391" y="551.7764">K&#246;rperseite: Coding [0..1]</text><ellipse cx="382" cy="564.7266" fill="none" rx="3" ry="3" style="stroke:#038048;stroke-width:1;"/><text fill="#000000" font-family="sans-serif" font-size="14" lengthAdjust="spacing" textLength="166.2568" x="391" y="568.0732">Beginn: dateTime [0..1]</text><ellipse cx="382" cy="581.0234" fill="none" rx="3" ry="3" style="stroke:#038048;stroke-width:1;"/><text fill="#000000" font-family="sans-serif" font-size="14" lengthAdjust="spacing" textLength="365.5107" x="391" y="584.3701">Funktion des Ausf&#252;hrenden: CodeableConcept [0..*]</text><ellipse cx="382" cy="597.3203" fill="none" rx="3" ry="3" style="stroke:#038048;stroke-width:1;"/><text fill="#000000" font-family="sans-serif" font-size="14" lengthAdjust="spacing" textLength="227.9102" x="391" y="600.667">Akteur: Reference(Device) [1..1]</text><ellipse cx="382" cy="613.6172" fill="none" rx="3" ry="3" style="stroke:#038048;stroke-width:1;"/><text fill="#000000" font-family="sans-serif" font-size="14" lengthAdjust="spacing" textLength="320.3252" x="391" y="616.9639">Extension: Kontrastmittelgabe: boolean [0..1]</text><ellipse cx="382" cy="629.9141" fill="none" rx="3" ry="3" style="stroke:#038048;stroke-width:1;"/><text fill="#000000" font-family="sans-serif" font-size="14" lengthAdjust="spacing" textLength="537.5576" x="391" y="633.2607">Extension: Kontrastmitteldetails: Reference(Statement|Administration) [0..*]</text><ellipse cx="382" cy="646.2109" fill="none" rx="3" ry="3" style="stroke:#038048;stroke-width:1;"/><text fill="#000000" font-family="sans-serif" font-size="14" lengthAdjust="spacing" textLength="406.6084" x="391" y="649.5576">Extension: Modalit&#228;ten(DX,CR,MG,CT,MR,PT,NM,US) [0..1]</text><ellipse cx="382" cy="662.5078" fill="none" rx="3" ry="3" style="stroke:#038048;stroke-width:1;"/><text fill="#000000" font-family="sans-serif" font-size="14" lengthAdjust="spacing" textLength="229.8037" x="391" y="665.8545">DICOM-Instanzen: Instance [0..*]</text><line style="stroke:#181818;stroke-width:0.5;" x1="372" x2="933.5576" y1="673.1563" y2="673.1563"/></g><!--class DICOMInstanz--><g class="entity" data-entity="DICOMInstanz" data-source-line="41" data-uid="ent0005" id="entity_DICOMInstanz"><rect fill="#F1F1F1" height="178.375" rx="2.5" ry="2.5" style="stroke:#181818;stroke-width:0.5;" width="362.7656" x="21.5" y="761"/><ellipse cx="149.4482" cy="777" fill="#ADD1B2" rx="11" ry="11" style="stroke:#181818;stroke-width:1;"/><path d="M152.417,782.6406 Q151.8389,782.9375 151.1982,783.0781 Q150.5576,783.2344 149.8545,783.2344 Q147.3545,783.2344 146.0264,781.5938 Q144.7139,779.9375 144.7139,776.8125 Q144.7139,773.6875 146.0264,772.0313 Q147.3545,770.375 149.8545,770.375 Q150.5576,770.375 151.1982,770.5313 Q151.8545,770.6875 152.417,770.9844 L152.417,773.7031 Q151.792,773.125 151.1982,772.8594 Q150.6045,772.5781 149.9795,772.5781 Q148.6357,772.5781 147.9482,773.6563 Q147.2607,774.7188 147.2607,776.8125 Q147.2607,778.9063 147.9482,779.9844 Q148.6357,781.0469 149.9795,781.0469 Q150.6045,781.0469 151.1982,780.7813 Q151.792,780.5 152.417,779.9219 L152.417,782.6406 Z " fill="#000000"/><text fill="#000000" font-family="sans-serif" font-size="14" lengthAdjust="spacing" textLength="98.3691" x="169.9482" y="781.8467">DICOMInstanz</text><line style="stroke:#181818;stroke-width:0.5;" x1="22.5" x2="383.2656" y1="793" y2="793"/><ellipse cx="32.5" cy="806.6484" fill="none" rx="3" ry="3" style="stroke:#038048;stroke-width:1;"/><text fill="#000000" font-family="sans-serif" font-size="14" lengthAdjust="spacing" textLength="177.625" x="41.5" y="809.9951">SOP-Instanz UID: id [1..1]</text><ellipse cx="32.5" cy="822.9453" fill="none" rx="3" ry="3" style="stroke:#038048;stroke-width:1;"/><text fill="#000000" font-family="sans-serif" font-size="14" lengthAdjust="spacing" textLength="178.3838" x="41.5" y="826.292">SOP-Klasse: Coding [1..1]</text><ellipse cx="32.5" cy="839.2422" fill="none" rx="3" ry="3" style="stroke:#038048;stroke-width:1;"/><text fill="#000000" font-family="sans-serif" font-size="14" lengthAdjust="spacing" textLength="250.5645" x="41.5" y="842.5889">Instanz-Nummer: unsignedInt [0..1]</text><ellipse cx="32.5" cy="855.5391" fill="none" rx="3" ry="3" style="stroke:#038048;stroke-width:1;"/><text fill="#000000" font-family="sans-serif" font-size="14" lengthAdjust="spacing" textLength="123.4707" x="41.5" y="858.8857">Titel: String [0..1]</text><ellipse cx="32.5" cy="871.8359" fill="none" rx="3" ry="3" style="stroke:#038048;stroke-width:1;"/><text fill="#000000" font-family="sans-serif" font-size="14" lengthAdjust="spacing" textLength="299.8857" x="41.5" y="875.1826">Extension: Bildtyp: CodeableConcept [0..*]</text><ellipse cx="32.5" cy="888.1328" fill="none" rx="3" ry="3" style="stroke:#038048;stroke-width:1;"/><text fill="#000000" font-family="sans-serif" font-size="14" lengthAdjust="spacing" textLength="316.4492" x="41.5" y="891.4795">Extension: Schichtdicke: Quantity[mm] [0..1]</text><ellipse cx="32.5" cy="904.4297" fill="none" rx="3" ry="3" style="stroke:#038048;stroke-width:1;"/><text fill="#000000" font-family="sans-serif" font-size="14" lengthAdjust="spacing" textLength="336.7656" x="41.5" y="907.7764">Extension: Pixelabstand(x): Quantity[mm] [0..1]</text><ellipse cx="32.5" cy="920.7266" fill="none" rx="3" ry="3" style="stroke:#038048;stroke-width:1;"/><text fill="#000000" font-family="sans-serif" font-size="14" lengthAdjust="spacing" textLength="336.7656" x="41.5" y="924.0732">Extension: Pixelabstand(y): Quantity[mm] [0..1]</text><line style="stroke:#181818;stroke-width:0.5;" x1="22.5" x2="383.2656" y1="931.375" y2="931.375"/></g><!--class Modalit?tMR--><g class="entity" data-entity="Modalit&#228;tMR" data-source-line="52" data-uid="ent0006" id="entity_Modalit&#228;tMR"><rect fill="#FFFFE0" height="162.0781" rx="2.5" ry="2.5" style="stroke:#181818;stroke-width:0.5;" width="393.0898" x="1553.5" y="462"/><ellipse cx="1702.168" cy="478" fill="#ADD1B2" rx="11" ry="11" style="stroke:#181818;stroke-width:1;"/><path d="M1705.1367,483.6406 Q1704.5586,483.9375 1703.918,484.0781 Q1703.2773,484.2344 1702.5742,484.2344 Q1700.0742,484.2344 1698.7461,482.5938 Q1697.4336,480.9375 1697.4336,477.8125 Q1697.4336,474.6875 1698.7461,473.0313 Q1700.0742,471.375 1702.5742,471.375 Q1703.2773,471.375 1703.918,471.5313 Q1704.5742,471.6875 1705.1367,471.9844 L1705.1367,474.7031 Q1704.5117,474.125 1703.918,473.8594 Q1703.3242,473.5781 1702.6992,473.5781 Q1701.3555,473.5781 1700.668,474.6563 Q1699.9805,475.7188 1699.9805,477.8125 Q1699.9805,479.9063 1700.668,480.9844 Q1701.3555,482.0469 1702.6992,482.0469 Q1703.3242,482.0469 1703.918,481.7813 Q1704.5117,481.5 1705.1367,480.9219 L1705.1367,483.6406 Z " fill="#000000"/><text fill="#000000" font-family="sans-serif" font-size="14" lengthAdjust="spacing" textLength="87.2539" x="1722.668" y="482.8467">Modalit&#228;tMR</text><line style="stroke:#181818;stroke-width:0.5;" x1="1554.5" x2="1945.5898" y1="494" y2="494"/><ellipse cx="1564.5" cy="507.6484" fill="none" rx="3" ry="3" style="stroke:#038048;stroke-width:1;"/><text fill="#000000" font-family="sans-serif" font-size="14" lengthAdjust="spacing" textLength="265.5967" x="1573.5" y="510.9951">Scansequenz: CodeableConcept [0..*]</text><ellipse cx="1564.5" cy="523.9453" fill="none" rx="3" ry="3" style="stroke:#038048;stroke-width:1;"/><text fill="#000000" font-family="sans-serif" font-size="14" lengthAdjust="spacing" textLength="367.0898" x="1573.5" y="527.292">Scansequenz Untervariante: CodeableConcept [0..*]</text><ellipse cx="1564.5" cy="540.2422" fill="none" rx="3" ry="3" style="stroke:#038048;stroke-width:1;"/><text fill="#000000" font-family="sans-serif" font-size="14" lengthAdjust="spacing" textLength="297.8486" x="1573.5" y="543.5889">Magnetische Feldst&#228;rke: Quantity[T] [0..1]</text><ellipse cx="1564.5" cy="556.5391" fill="none" rx="3" ry="3" style="stroke:#038048;stroke-width:1;"/><text fill="#000000" font-family="sans-serif" font-size="14" lengthAdjust="spacing" textLength="235.7031" x="1573.5" y="559.8857">Echozeit (TE): Quantity[ms] [0..1]</text><ellipse cx="1564.5" cy="572.8359" fill="none" rx="3" ry="3" style="stroke:#038048;stroke-width:1;"/><text fill="#000000" font-family="sans-serif" font-size="14" lengthAdjust="spacing" textLength="281.9346" x="1573.5" y="576.1826">Repetitionszeit (TR): Quantity[ms] [0..1]</text><ellipse cx="1564.5" cy="589.1328" fill="none" rx="3" ry="3" style="stroke:#038048;stroke-width:1;"/><text fill="#000000" font-family="sans-serif" font-size="14" lengthAdjust="spacing" textLength="268.5771" x="1573.5" y="592.4795">Inversionszeit (TI): Quantity[ms] [0..1]</text><ellipse cx="1564.5" cy="605.4297" fill="none" rx="3" ry="3" style="stroke:#038048;stroke-width:1;"/><text fill="#000000" font-family="sans-serif" font-size="14" lengthAdjust="spacing" textLength="224.7314" x="1573.5" y="608.7764">Kippwinkel: Quantity[deg] [0..1]</text><line style="stroke:#181818;stroke-width:0.5;" x1="1554.5" x2="1945.5898" y1="616.0781" y2="616.0781"/></g><!--class Modalit?tCT--><g class="entity" data-entity="Modalit&#228;tCT" data-source-line="62" data-uid="ent0007" id="entity_Modalit&#228;tCT"><rect fill="#FFFFE0" height="129.4844" rx="2.5" ry="2.5" style="stroke:#181818;stroke-width:0.5;" width="318.0996" x="535" y="785.5"/><ellipse cx="647.9126" cy="801.5" fill="#ADD1B2" rx="11" ry="11" style="stroke:#181818;stroke-width:1;"/><path d="M650.8813,807.1406 Q650.3032,807.4375 649.6626,807.5781 Q649.022,807.7344 648.3188,807.7344 Q645.8188,807.7344 644.4907,806.0938 Q643.1782,804.4375 643.1782,801.3125 Q643.1782,798.1875 644.4907,796.5313 Q645.8188,794.875 648.3188,794.875 Q649.022,794.875 649.6626,795.0313 Q650.3188,795.1875 650.8813,795.4844 L650.8813,798.2031 Q650.2563,797.625 649.6626,797.3594 Q649.0688,797.0781 648.4438,797.0781 Q647.1001,797.0781 646.4126,798.1563 Q645.7251,799.2188 645.7251,801.3125 Q645.7251,803.4063 646.4126,804.4844 Q647.1001,805.5469 648.4438,805.5469 Q649.0688,805.5469 649.6626,805.2813 Q650.2563,805 650.8813,804.4219 L650.8813,807.1406 Z " fill="#000000"/><text fill="#000000" font-family="sans-serif" font-size="14" lengthAdjust="spacing" textLength="83.7744" x="668.4126" y="806.3467">Modalit&#228;tCT</text><line style="stroke:#181818;stroke-width:0.5;" x1="536" x2="852.0996" y1="817.5" y2="817.5"/><ellipse cx="546" cy="831.1484" fill="none" rx="3" ry="3" style="stroke:#038048;stroke-width:1;"/><text fill="#000000" font-family="sans-serif" font-size="14" lengthAdjust="spacing" textLength="255.165" x="555" y="834.4951">CTDI Volumen: Quantity[mGy] [0..1]</text><ellipse cx="546" cy="847.4453" fill="none" rx="3" ry="3" style="stroke:#038048;stroke-width:1;"/><text fill="#000000" font-family="sans-serif" font-size="14" lengthAdjust="spacing" textLength="167.5625" x="555" y="850.792">KVP: Quantity[kV] [0..1]</text><ellipse cx="546" cy="863.7422" fill="none" rx="3" ry="3" style="stroke:#038048;stroke-width:1;"/><text fill="#000000" font-family="sans-serif" font-size="14" lengthAdjust="spacing" textLength="248.8281" x="555" y="867.0889">Expositionszeit: Quantity[ms] [0..1]</text><ellipse cx="546" cy="880.0391" fill="none" rx="3" ry="3" style="stroke:#038048;stroke-width:1;"/><text fill="#000000" font-family="sans-serif" font-size="14" lengthAdjust="spacing" textLength="225.7705" x="555" y="883.3857">Exposition: Quantity[mAs] [0..1]</text><ellipse cx="546" cy="896.3359" fill="none" rx="3" ry="3" style="stroke:#038048;stroke-width:1;"/><text fill="#000000" font-family="sans-serif" font-size="14" lengthAdjust="spacing" textLength="292.0996" x="555" y="899.6826">R&#246;ntgenr&#246;hrenstrom: Quantity[mA] [0..1]</text><line style="stroke:#181818;stroke-width:0.5;" x1="536" x2="852.0996" y1="906.9844" y2="906.9844"/></g><!--class Modalit?tDX--><g class="entity" data-entity="Modalit&#228;tDX" data-source-line="70" data-uid="ent0008" id="entity_Modalit&#228;tDX"><rect fill="#FFFFE0" height="129.4844" rx="2.5" ry="2.5" style="stroke:#181818;stroke-width:0.5;" width="318.0996" x="1003" y="785.5"/><ellipse cx="1114.8906" cy="801.5" fill="#ADD1B2" rx="11" ry="11" style="stroke:#181818;stroke-width:1;"/><path d="M1117.8594,807.1406 Q1117.2813,807.4375 1116.6406,807.5781 Q1116,807.7344 1115.2969,807.7344 Q1112.7969,807.7344 1111.4688,806.0938 Q1110.1563,804.4375 1110.1563,801.3125 Q1110.1563,798.1875 1111.4688,796.5313 Q1112.7969,794.875 1115.2969,794.875 Q1116,794.875 1116.6406,795.0313 Q1117.2969,795.1875 1117.8594,795.4844 L1117.8594,798.2031 Q1117.2344,797.625 1116.6406,797.3594 Q1116.0469,797.0781 1115.4219,797.0781 Q1114.0781,797.0781 1113.3906,798.1563 Q1112.7031,799.2188 1112.7031,801.3125 Q1112.7031,803.4063 1113.3906,804.4844 Q1114.0781,805.5469 1115.4219,805.5469 Q1116.0469,805.5469 1116.6406,805.2813 Q1117.2344,805 1117.8594,804.4219 L1117.8594,807.1406 Z " fill="#000000"/><text fill="#000000" font-family="sans-serif" font-size="14" lengthAdjust="spacing" textLength="85.8184" x="1135.3906" y="806.3467">Modalit&#228;tDX</text><line style="stroke:#181818;stroke-width:0.5;" x1="1004" x2="1320.0996" y1="817.5" y2="817.5"/><ellipse cx="1014" cy="831.1484" fill="none" rx="3" ry="3" style="stroke:#038048;stroke-width:1;"/><text fill="#000000" font-family="sans-serif" font-size="14" lengthAdjust="spacing" textLength="167.5625" x="1023" y="834.4951">KVP: Quantity[kV] [0..1]</text><ellipse cx="1014" cy="847.4453" fill="none" rx="3" ry="3" style="stroke:#038048;stroke-width:1;"/><text fill="#000000" font-family="sans-serif" font-size="14" lengthAdjust="spacing" textLength="248.8281" x="1023" y="850.792">Expositionszeit: Quantity[ms] [0..1]</text><ellipse cx="1014" cy="863.7422" fill="none" rx="3" ry="3" style="stroke:#038048;stroke-width:1;"/><text fill="#000000" font-family="sans-serif" font-size="14" lengthAdjust="spacing" textLength="225.7705" x="1023" y="867.0889">Exposition: Quantity[mAs] [0..1]</text><ellipse cx="1014" cy="880.0391" fill="none" rx="3" ry="3" style="stroke:#038048;stroke-width:1;"/><text fill="#000000" font-family="sans-serif" font-size="14" lengthAdjust="spacing" textLength="292.0996" x="1023" y="883.3857">R&#246;ntgenr&#246;hrenstrom: Quantity[mA] [0..1]</text><ellipse cx="1014" cy="896.3359" fill="none" rx="3" ry="3" style="stroke:#038048;stroke-width:1;"/><text fill="#000000" font-family="sans-serif" font-size="14" lengthAdjust="spacing" textLength="263.6074" x="1023" y="899.6826">Blickposition: CodeableConcept [0..1]</text><line style="stroke:#181818;stroke-width:0.5;" x1="1004" x2="1320.0996" y1="906.9844" y2="906.9844"/></g><!--class Modalit?tCR--><g class="entity" data-entity="Modalit&#228;tCR" data-source-line="78" data-uid="ent0009" id="entity_Modalit&#228;tCR"><rect fill="#FFFFE0" height="129.4844" rx="2.5" ry="2.5" style="stroke:#181818;stroke-width:0.5;" width="318.0996" x="1471" y="785.5"/><ellipse cx="1583.3247" cy="801.5" fill="#ADD1B2" rx="11" ry="11" style="stroke:#181818;stroke-width:1;"/><path d="M1586.2935,807.1406 Q1585.7153,807.4375 1585.0747,807.5781 Q1584.4341,807.7344 1583.731,807.7344 Q1581.231,807.7344 1579.9028,806.0938 Q1578.5903,804.4375 1578.5903,801.3125 Q1578.5903,798.1875 1579.9028,796.5313 Q1581.231,794.875 1583.731,794.875 Q1584.4341,794.875 1585.0747,795.0313 Q1585.731,795.1875 1586.2935,795.4844 L1586.2935,798.2031 Q1585.6685,797.625 1585.0747,797.3594 Q1584.481,797.0781 1583.856,797.0781 Q1582.5122,797.0781 1581.8247,798.1563 Q1581.1372,799.2188 1581.1372,801.3125 Q1581.1372,803.4063 1581.8247,804.4844 Q1582.5122,805.5469 1583.856,805.5469 Q1584.481,805.5469 1585.0747,805.2813 Q1585.6685,805 1586.2935,804.4219 L1586.2935,807.1406 Z " fill="#000000"/><text fill="#000000" font-family="sans-serif" font-size="14" lengthAdjust="spacing" textLength="84.9502" x="1603.8247" y="806.3467">Modalit&#228;tCR</text><line style="stroke:#181818;stroke-width:0.5;" x1="1472" x2="1788.0996" y1="817.5" y2="817.5"/><ellipse cx="1482" cy="831.1484" fill="none" rx="3" ry="3" style="stroke:#038048;stroke-width:1;"/><text fill="#000000" font-family="sans-serif" font-size="14" lengthAdjust="spacing" textLength="167.5625" x="1491" y="834.4951">KVP: Quantity[kV] [0..1]</text><ellipse cx="1482" cy="847.4453" fill="none" rx="3" ry="3" style="stroke:#038048;stroke-width:1;"/><text fill="#000000" font-family="sans-serif" font-size="14" lengthAdjust="spacing" textLength="248.8281" x="1491" y="850.792">Expositionszeit: Quantity[ms] [0..1]</text><ellipse cx="1482" cy="863.7422" fill="none" rx="3" ry="3" style="stroke:#038048;stroke-width:1;"/><text fill="#000000" font-family="sans-serif" font-size="14" lengthAdjust="spacing" textLength="225.7705" x="1491" y="867.0889">Exposition: Quantity[mAs] [0..1]</text><ellipse cx="1482" cy="880.0391" fill="none" rx="3" ry="3" style="stroke:#038048;stroke-width:1;"/><text fill="#000000" font-family="sans-serif" font-size="14" lengthAdjust="spacing" textLength="292.0996" x="1491" y="883.3857">R&#246;ntgenr&#246;hrenstrom: Quantity[mA] [0..1]</text><ellipse cx="1482" cy="896.3359" fill="none" rx="3" ry="3" style="stroke:#038048;stroke-width:1;"/><text fill="#000000" font-family="sans-serif" font-size="14" lengthAdjust="spacing" textLength="263.6074" x="1491" y="899.6826">Blickposition: CodeableConcept [0..1]</text><line style="stroke:#181818;stroke-width:0.5;" x1="1472" x2="1788.0996" y1="906.9844" y2="906.9844"/></g><!--class Modalit?tMG--><g class="entity" data-entity="Modalit&#228;tMG" data-source-line="86" data-uid="ent0010" id="entity_Modalit&#228;tMG"><rect fill="#FFFFE0" height="129.4844" rx="2.5" ry="2.5" style="stroke:#181818;stroke-width:0.5;" width="318.0996" x="1085" y="478.5"/><ellipse cx="1195.6123" cy="494.5" fill="#ADD1B2" rx="11" ry="11" style="stroke:#181818;stroke-width:1;"/><path d="M1198.5811,500.1406 Q1198.0029,500.4375 1197.3623,500.5781 Q1196.7217,500.7344 1196.0186,500.7344 Q1193.5186,500.7344 1192.1904,499.0938 Q1190.8779,497.4375 1190.8779,494.3125 Q1190.8779,491.1875 1192.1904,489.5313 Q1193.5186,487.875 1196.0186,487.875 Q1196.7217,487.875 1197.3623,488.0313 Q1198.0186,488.1875 1198.5811,488.4844 L1198.5811,491.2031 Q1197.9561,490.625 1197.3623,490.3594 Q1196.7686,490.0781 1196.1436,490.0781 Q1194.7998,490.0781 1194.1123,491.1563 Q1193.4248,492.2188 1193.4248,494.3125 Q1193.4248,496.4063 1194.1123,497.4844 Q1194.7998,498.5469 1196.1436,498.5469 Q1196.7686,498.5469 1197.3623,498.2813 Q1197.9561,498 1198.5811,497.4219 L1198.5811,500.1406 Z " fill="#000000"/><text fill="#000000" font-family="sans-serif" font-size="14" lengthAdjust="spacing" textLength="88.375" x="1216.1123" y="499.3467">Modalit&#228;tMG</text><line style="stroke:#181818;stroke-width:0.5;" x1="1086" x2="1402.0996" y1="510.5" y2="510.5"/><ellipse cx="1096" cy="524.1484" fill="none" rx="3" ry="3" style="stroke:#038048;stroke-width:1;"/><text fill="#000000" font-family="sans-serif" font-size="14" lengthAdjust="spacing" textLength="167.5625" x="1105" y="527.4951">KVP: Quantity[kV] [0..1]</text><ellipse cx="1096" cy="540.4453" fill="none" rx="3" ry="3" style="stroke:#038048;stroke-width:1;"/><text fill="#000000" font-family="sans-serif" font-size="14" lengthAdjust="spacing" textLength="248.8281" x="1105" y="543.792">Expositionszeit: Quantity[ms] [0..1]</text><ellipse cx="1096" cy="556.7422" fill="none" rx="3" ry="3" style="stroke:#038048;stroke-width:1;"/><text fill="#000000" font-family="sans-serif" font-size="14" lengthAdjust="spacing" textLength="225.7705" x="1105" y="560.0889">Exposition: Quantity[mAs] [0..1]</text><ellipse cx="1096" cy="573.0391" fill="none" rx="3" ry="3" style="stroke:#038048;stroke-width:1;"/><text fill="#000000" font-family="sans-serif" font-size="14" lengthAdjust="spacing" textLength="292.0996" x="1105" y="576.3857">R&#246;ntgenr&#246;hrenstrom: Quantity[mA] [0..1]</text><ellipse cx="1096" cy="589.3359" fill="none" rx="3" ry="3" style="stroke:#038048;stroke-width:1;"/><text fill="#000000" font-family="sans-serif" font-size="14" lengthAdjust="spacing" textLength="263.6074" x="1105" y="592.6826">Blickposition: CodeableConcept [0..1]</text><line style="stroke:#181818;stroke-width:0.5;" x1="1086" x2="1402.0996" y1="599.9844" y2="599.9844"/></g><!--class Modalit?tNM--><g class="entity" data-entity="Modalit&#228;tNM" data-source-line="94" data-uid="ent0011" id="entity_Modalit&#228;tNM"><rect fill="#FFFFE0" height="145.7813" rx="2.5" ry="2.5" style="stroke:#181818;stroke-width:0.5;" width="364.8711" x="1123.5" y="110"/><ellipse cx="1257.686" cy="126" fill="#ADD1B2" rx="11" ry="11" style="stroke:#181818;stroke-width:1;"/><path d="M1260.6548,131.6406 Q1260.0767,131.9375 1259.436,132.0781 Q1258.7954,132.2344 1258.0923,132.2344 Q1255.5923,132.2344 1254.2642,130.5938 Q1252.9517,128.9375 1252.9517,125.8125 Q1252.9517,122.6875 1254.2642,121.0313 Q1255.5923,119.375 1258.0923,119.375 Q1258.7954,119.375 1259.436,119.5313 Q1260.0923,119.6875 1260.6548,119.9844 L1260.6548,122.7031 Q1260.0298,122.125 1259.436,121.8594 Q1258.8423,121.5781 1258.2173,121.5781 Q1256.8735,121.5781 1256.186,122.6563 Q1255.4985,123.7188 1255.4985,125.8125 Q1255.4985,127.9063 1256.186,128.9844 Q1256.8735,130.0469 1258.2173,130.0469 Q1258.8423,130.0469 1259.436,129.7813 Q1260.0298,129.5 1260.6548,128.9219 L1260.6548,131.6406 Z " fill="#000000"/><text fill="#000000" font-family="sans-serif" font-size="14" lengthAdjust="spacing" textLength="87.999" x="1278.186" y="130.8467">Modalit&#228;tNM</text><line style="stroke:#181818;stroke-width:0.5;" x1="1124.5" x2="1487.3711" y1="142" y2="142"/><ellipse cx="1134.5" cy="155.6484" fill="none" rx="3" ry="3" style="stroke:#038048;stroke-width:1;"/><text fill="#000000" font-family="sans-serif" font-size="14" lengthAdjust="spacing" textLength="294.4717" x="1143.5" y="158.9951">Radiopharmakon: CodeableConcept [0..1]</text><ellipse cx="1134.5" cy="171.9453" fill="none" rx="3" ry="3" style="stroke:#038048;stroke-width:1;"/><text fill="#000000" font-family="sans-serif" font-size="14" lengthAdjust="spacing" textLength="257.1338" x="1143.5" y="175.292">Radionuklid: CodeableConcept [0..1]</text><ellipse cx="1134.5" cy="188.2422" fill="none" rx="3" ry="3" style="stroke:#038048;stroke-width:1;"/><text fill="#000000" font-family="sans-serif" font-size="14" lengthAdjust="spacing" textLength="284.5938" x="1143.5" y="191.5889">Tracer Expositionszeit: Quantity[s] [0..1]</text><ellipse cx="1134.5" cy="204.5391" fill="none" rx="3" ry="3" style="stroke:#038048;stroke-width:1;"/><text fill="#000000" font-family="sans-serif" font-size="14" lengthAdjust="spacing" textLength="304.8555" x="1143.5" y="207.8857">Skalierungseinheit: CodeableConcept [0..1]</text><ellipse cx="1134.5" cy="220.8359" fill="none" rx="3" ry="3" style="stroke:#038048;stroke-width:1;"/><text fill="#000000" font-family="sans-serif" font-size="14" lengthAdjust="spacing" textLength="338.8711" x="1143.5" y="224.1826">Gesamte Radionukliddosis: Quantity[MBq] [0..1]</text><ellipse cx="1134.5" cy="237.1328" fill="none" rx="3" ry="3" style="stroke:#038048;stroke-width:1;"/><text fill="#000000" font-family="sans-serif" font-size="14" lengthAdjust="spacing" textLength="225.7979" x="1143.5" y="240.4795">Halbwertszeit: Quantity[s] [0..1]</text><line style="stroke:#181818;stroke-width:0.5;" x1="1124.5" x2="1487.3711" y1="247.7813" y2="247.7813"/></g><!--class Modalit?tPT--><g class="entity" data-entity="Modalit&#228;tPT" data-source-line="103" data-uid="ent0012" id="entity_Modalit&#228;tPT"><rect fill="#FFFFE0" height="162.0781" rx="2.5" ry="2.5" style="stroke:#181818;stroke-width:0.5;" width="364.8711" x="608.5" y="102"/><ellipse cx="745.4648" cy="118" fill="#ADD1B2" rx="11" ry="11" style="stroke:#181818;stroke-width:1;"/><path d="M748.4336,123.6406 Q747.8555,123.9375 747.2148,124.0781 Q746.5742,124.2344 745.8711,124.2344 Q743.3711,124.2344 742.043,122.5938 Q740.7305,120.9375 740.7305,117.8125 Q740.7305,114.6875 742.043,113.0313 Q743.3711,111.375 745.8711,111.375 Q746.5742,111.375 747.2148,111.5313 Q747.8711,111.6875 748.4336,111.9844 L748.4336,114.7031 Q747.8086,114.125 747.2148,113.8594 Q746.6211,113.5781 745.9961,113.5781 Q744.6523,113.5781 743.9648,114.6563 Q743.2773,115.7188 743.2773,117.8125 Q743.2773,119.9063 743.9648,120.9844 Q744.6523,122.0469 745.9961,122.0469 Q746.6211,122.0469 747.2148,121.7813 Q747.8086,121.5 748.4336,120.9219 L748.4336,123.6406 Z " fill="#000000"/><text fill="#000000" font-family="sans-serif" font-size="14" lengthAdjust="spacing" textLength="82.4414" x="765.9648" y="122.8467">Modalit&#228;tPT</text><line style="stroke:#181818;stroke-width:0.5;" x1="609.5" x2="972.3711" y1="134" y2="134"/><ellipse cx="619.5" cy="147.6484" fill="none" rx="3" ry="3" style="stroke:#038048;stroke-width:1;"/><text fill="#000000" font-family="sans-serif" font-size="14" lengthAdjust="spacing" textLength="294.4717" x="628.5" y="150.9951">Radiopharmakon: CodeableConcept [0..1]</text><ellipse cx="619.5" cy="163.9453" fill="none" rx="3" ry="3" style="stroke:#038048;stroke-width:1;"/><text fill="#000000" font-family="sans-serif" font-size="14" lengthAdjust="spacing" textLength="257.1338" x="628.5" y="167.292">Radionuklid: CodeableConcept [0..1]</text><ellipse cx="619.5" cy="180.2422" fill="none" rx="3" ry="3" style="stroke:#038048;stroke-width:1;"/><text fill="#000000" font-family="sans-serif" font-size="14" lengthAdjust="spacing" textLength="284.5938" x="628.5" y="183.5889">Tracer Expositionszeit: Quantity[s] [0..1]</text><ellipse cx="619.5" cy="196.5391" fill="none" rx="3" ry="3" style="stroke:#038048;stroke-width:1;"/><text fill="#000000" font-family="sans-serif" font-size="14" lengthAdjust="spacing" textLength="304.8555" x="628.5" y="199.8857">Skalierungseinheit: CodeableConcept [0..1]</text><ellipse cx="619.5" cy="212.8359" fill="none" rx="3" ry="3" style="stroke:#038048;stroke-width:1;"/><text fill="#000000" font-family="sans-serif" font-size="14" lengthAdjust="spacing" textLength="338.8711" x="628.5" y="216.1826">Gesamte Radionukliddosis: Quantity[MBq] [0..1]</text><ellipse cx="619.5" cy="229.1328" fill="none" rx="3" ry="3" style="stroke:#038048;stroke-width:1;"/><text fill="#000000" font-family="sans-serif" font-size="14" lengthAdjust="spacing" textLength="225.7979" x="628.5" y="232.4795">Halbwertszeit: Quantity[s] [0..1]</text><ellipse cx="619.5" cy="245.4297" fill="none" rx="3" ry="3" style="stroke:#038048;stroke-width:1;"/><text fill="#000000" font-family="sans-serif" font-size="14" lengthAdjust="spacing" textLength="240.3516" x="628.5" y="248.7764">Serientyp: CodeableConcept [0..*]</text><line style="stroke:#181818;stroke-width:0.5;" x1="609.5" x2="972.3711" y1="256.0781" y2="256.0781"/></g><!--class Modalit?tUS--><g class="entity" data-entity="Modalit&#228;tUS" data-source-line="113" data-uid="ent0013" id="entity_Modalit&#228;tUS"><rect fill="#FFFFE0" height="113.1875" rx="2.5" ry="2.5" style="stroke:#181818;stroke-width:0.5;" width="308.8574" x="1638.5" y="126.5"/><ellipse cx="1746.3882" cy="142.5" fill="#ADD1B2" rx="11" ry="11" style="stroke:#181818;stroke-width:1;"/><path d="M1749.3569,148.1406 Q1748.7788,148.4375 1748.1382,148.5781 Q1747.4976,148.7344 1746.7944,148.7344 Q1744.2944,148.7344 1742.9663,147.0938 Q1741.6538,145.4375 1741.6538,142.3125 Q1741.6538,139.1875 1742.9663,137.5313 Q1744.2944,135.875 1746.7944,135.875 Q1747.4976,135.875 1748.1382,136.0313 Q1748.7944,136.1875 1749.3569,136.4844 L1749.3569,139.2031 Q1748.7319,138.625 1748.1382,138.3594 Q1747.5444,138.0781 1746.9194,138.0781 Q1745.5757,138.0781 1744.8882,139.1563 Q1744.2007,140.2188 1744.2007,142.3125 Q1744.2007,144.4063 1744.8882,145.4844 Q1745.5757,146.5469 1746.9194,146.5469 Q1747.5444,146.5469 1748.1382,146.2813 Q1748.7319,146 1749.3569,145.4219 L1749.3569,148.1406 Z " fill="#000000"/><text fill="#000000" font-family="sans-serif" font-size="14" lengthAdjust="spacing" textLength="84.5811" x="1766.8882" y="147.3467">Modalit&#228;tUS</text><line style="stroke:#181818;stroke-width:0.5;" x1="1639.5" x2="1946.3574" y1="158.5" y2="158.5"/><ellipse cx="1649.5" cy="172.1484" fill="none" rx="3" ry="3" style="stroke:#038048;stroke-width:1;"/><text fill="#000000" font-family="sans-serif" font-size="14" lengthAdjust="spacing" textLength="216.4395" x="1658.5" y="175.4951">Fokustiefe: Quantity[cm] [0..1]</text><ellipse cx="1649.5" cy="188.4453" fill="none" rx="3" ry="3" style="stroke:#038048;stroke-width:1;"/><text fill="#000000" font-family="sans-serif" font-size="14" lengthAdjust="spacing" textLength="282.8574" x="1658.5" y="191.792">Schallkopffrequenz: Quantity[kHz] [0..1]</text><ellipse cx="1649.5" cy="204.7422" fill="none" rx="3" ry="3" style="stroke:#038048;stroke-width:1;"/><text fill="#000000" font-family="sans-serif" font-size="14" lengthAdjust="spacing" textLength="269.9307" x="1658.5" y="208.0889">Schallkopftyp: CodeableConcept [0..1]</text><ellipse cx="1649.5" cy="221.0391" fill="none" rx="3" ry="3" style="stroke:#038048;stroke-width:1;"/><text fill="#000000" font-family="sans-serif" font-size="14" lengthAdjust="spacing" textLength="218.8936" x="1658.5" y="224.3857">Ultraschallfarbe: Boolean [0..1]</text><line style="stroke:#181818;stroke-width:0.5;" x1="1639.5" x2="1946.3574" y1="231.6875" y2="231.6875"/></g><!--link DICOMSerie to DICOMInstanz--><g class="link" data-entity-1="DICOMSerie" data-entity-2="DICOMInstanz" data-source-line="121" data-uid="lnk14" id="link_DICOMSerie_DICOMInstanz"><path codeLine="121" d="M377.75,681.23 C377.75,708.29 377.75,735.98 377.75,760.91" fill="none" id="DICOMSerie-DICOMInstanz" style="stroke:#181818;stroke-width:1;"/><text fill="#000000" font-family="sans-serif" font-size="13" lengthAdjust="spacing" textLength="119.0186" x="257.75" y="717.1369">ISt.series.instance</text><text fill="#000000" font-family="sans-serif" font-size="13" lengthAdjust="spacing" textLength="24.8066" x="338.0752" y="701.2659">1..1</text><text fill="#000000" font-family="sans-serif" font-size="13" lengthAdjust="spacing" textLength="23.0356" x="368.2803" y="749.968">0..*</text></g><!--link DICOMSerie to Modalit?tMR--><g class="link" data-entity-1="DICOMSerie" data-entity-2="Modalit&#228;tMR" data-source-line="122" data-uid="lnk15" id="link_DICOMSerie_Modalit&#228;tMR"><path codeLine="122" d="M935.15,471 C1128.93,471 1381.28,471 1553.49,471" fill="none" id="DICOMSerie-Modalit&#228;tMR" style="stroke:#181818;stroke-width:1;"/><text fill="#000000" font-family="sans-serif" font-size="13" lengthAdjust="spacing" textLength="24.8066" x="942.9799" y="465.9549">1..1</text><text fill="#000000" font-family="sans-serif" font-size="13" lengthAdjust="spacing" textLength="24.8066" x="1520.7086" y="464.7141">0..1</text></g><!--link DICOMSerie to Modalit?tCT--><g class="link" data-entity-1="DICOMSerie" data-entity-2="Modalit&#228;tCT" data-source-line="123" data-uid="lnk16" id="link_DICOMSerie_Modalit&#228;tCT"><path codeLine="123" d="M694,681.23 C694,717.52 694,754.96 694,785.32" fill="none" id="DICOMSerie-Modalit&#228;tCT" style="stroke:#181818;stroke-width:1;"/><text fill="#000000" font-family="sans-serif" font-size="13" lengthAdjust="spacing" textLength="24.8066" x="671.6201" y="701.2659">1..1</text><text fill="#000000" font-family="sans-serif" font-size="13" lengthAdjust="spacing" textLength="24.8066" x="668.7262" y="774.473">0..1</text></g><!--link DICOMSerie to Modalit?tDX--><g class="link" data-entity-1="DICOMSerie" data-entity-2="Modalit&#228;tDX" data-source-line="124" data-uid="lnk17" id="link_DICOMSerie_Modalit&#228;tDX"><path codeLine="124" d="M935.08,662 C996.74,662 1044,662 1044,662 C1044,662 1044,730.92 1044,785.3" fill="none" id="DICOMSerie-Modalit&#228;tDX" style="stroke:#181818;stroke-width:1;"/><text fill="#000000" font-family="sans-serif" font-size="13" lengthAdjust="spacing" textLength="24.8066" x="942.9081" y="662.0283">1..1</text><text fill="#000000" font-family="sans-serif" font-size="13" lengthAdjust="spacing" textLength="24.8066" x="1005.8199" y="774.4508">0..1</text></g><!--link DICOMSerie to Modalit?tCR--><g class="link" data-entity-1="DICOMSerie" data-entity-2="Modalit&#228;tCR" data-source-line="125" data-uid="lnk18" id="link_DICOMSerie_Modalit&#228;tCR"><path codeLine="125" d="M935.21,643 C1174.71,643 1479.75,643 1479.75,643 C1479.75,643 1479.75,724.62 1479.75,785.36" fill="none" id="DICOMSerie-Modalit&#228;tCR" style="stroke:#181818;stroke-width:1;"/><text fill="#000000" font-family="sans-serif" font-size="13" lengthAdjust="spacing" textLength="24.8066" x="942.1202" y="642.2346">1..1</text><text fill="#000000" font-family="sans-serif" font-size="13" lengthAdjust="spacing" textLength="24.8066" x="1438.0426" y="774.5174">0..1</text></g><!--link DICOMSerie to Modalit?tMG--><g class="link" data-entity-1="DICOMSerie" data-entity-2="Modalit&#228;tMG" data-source-line="126" data-uid="lnk19" id="link_DICOMSerie_Modalit&#228;tMG"><path codeLine="126" d="M935.09,543 C986.47,543 1038.4,543 1084.64,543" fill="none" id="DICOMSerie-Modalit&#228;tMG" style="stroke:#181818;stroke-width:1;"/><text fill="#000000" font-family="sans-serif" font-size="13" lengthAdjust="spacing" textLength="24.8066" x="942.9184" y="539.8674">1..1</text><text fill="#000000" font-family="sans-serif" font-size="13" lengthAdjust="spacing" textLength="24.8066" x="1052.3569" y="539.6951">0..1</text></g><!--link Modalit?tNM to DICOMSerie--><g class="link" data-entity-1="Modalit&#228;tNM" data-entity-2="DICOMSerie" data-source-line="127" data-uid="lnk21" id="link_Modalit&#228;tNM_DICOMSerie"><path codeLine="127" d="M1263.25,256.29 C1263.25,327.19 1263.25,424 1263.25,424 C1263.25,424 1095.11,424 935.35,424" fill="none" id="Modalit&#228;tNM-DICOMSerie" style="stroke:#181818;stroke-width:1;"/><text fill="#000000" font-family="sans-serif" font-size="13" lengthAdjust="spacing" textLength="24.8066" x="1234.2459" y="275.8209">0..1</text><text fill="#000000" font-family="sans-serif" font-size="13" lengthAdjust="spacing" textLength="24.8066" x="942.2635" y="418.1018">1..1</text></g><!--link Modalit?tPT to DICOMSerie--><g class="link" data-entity-1="Modalit&#228;tPT" data-entity-2="DICOMSerie" data-source-line="128" data-uid="lnk23" id="link_Modalit&#228;tPT_DICOMSerie"><path codeLine="128" d="M771.75,264.24 C771.75,305.72 771.75,357.32 771.75,404.82" fill="none" id="Modalit&#228;tPT-DICOMSerie" style="stroke:#181818;stroke-width:1;"/><text fill="#000000" font-family="sans-serif" font-size="13" lengthAdjust="spacing" textLength="24.8066" x="745.0085" y="284.2127">0..1</text><text fill="#000000" font-family="sans-serif" font-size="13" lengthAdjust="spacing" textLength="24.8066" x="753.622" y="393.9194">1..1</text></g><!--link Modalit?tUS to DICOMSerie--><g class="link" data-entity-1="Modalit&#228;tUS" data-entity-2="DICOMSerie" data-source-line="129" data-uid="lnk25" id="link_Modalit&#228;tUS_DICOMSerie"><path codeLine="129" d="M1792.5,239.74 C1792.5,316.24 1792.5,443 1792.5,443 C1792.5,443 1272.49,443 935.04,443" fill="none" id="Modalit&#228;tUS-DICOMSerie" style="stroke:#181818;stroke-width:1;"/><text fill="#000000" font-family="sans-serif" font-size="13" lengthAdjust="spacing" textLength="24.8066" x="1767.0344" y="259.6328">0..1</text><text fill="#000000" font-family="sans-serif" font-size="13" lengthAdjust="spacing" textLength="24.8066" x="942.867" y="437.2111">1..1</text></g><!--link Studie to DICOMSerie--><g class="link" data-entity-1="Studie" data-entity-2="DICOMSerie" data-source-line="131" data-uid="lnk26" id="link_Studie_DICOMSerie"><path codeLine="131" d="M414.75,325.02 C414.75,351.28 414.75,378.66 414.75,404.79" fill="none" id="Studie-DICOMSerie" style="stroke:#181818;stroke-width:1;"/><text fill="#000000" font-family="sans-serif" font-size="13" lengthAdjust="spacing" textLength="59.814" x="354.75" y="360.9769">ISt.series</text><text fill="#000000" font-family="sans-serif" font-size="13" lengthAdjust="spacing" textLength="24.8066" x="399.6785" y="345.2559">1..1</text><text fill="#000000" font-family="sans-serif" font-size="13" lengthAdjust="spacing" textLength="23.0356" x="378.1049" y="393.8877">0..*</text></g><!--link Modalit?tPT to Modalit?tNM--><!--link Modalit?tNM to Modalit?tUS--><!--SRC=[xLZBRXit5DthAmXdOxUIaImA54OGG1xv8JYo5JqC5uONrF1gXfWPSa9oR4k9lwMRVeDNtUd7UYcDB8v3ZOMk2gGxYJptTUw3Lz895pbLD2EVkG0pou58PMBPq2yNbvA1Xfny-EszSpgW8h6dlxk7AKGWs34DaqZ9Gh10fbAHTmynDz1ev7XE8o1xdMvmrMkT0sMWziYt1Y5XIhKcGrCm3kJZnsv68ouY-ttswHDvzvb7iGbcL2p1loAGca8VaK0oX97R3uU77-wMDpt9QChDuYy3OdF__l3mbzNzjoc7b3sHFYWj1OXMbu4mVCeJQhX4aG5CGO48OR-F9tXtuAfVYrzRSHKL8jBQG9g2IAGmD36kWXCH8Wa6rC7IWrB5CM1eQ8XH0oEUWNktLjyMKwcG7C60zEZYJq7Z35pLGr3tF8G1V2r0cmDVX5yAwnUP5ndfjuCXEUOfgth7Sib5LRWjvZHE2H8D8gOfaWY2e35ksIo4vf40rXN6TTgLCHkXgpxf2csecDV8hfsrpaKmiNpcIiw15QgI2YL3UmOL9ayUqPHUPisHZnGMtX7HHgrJ_yfMLp1FjWE9n_Rm-zL48xjBG8MRLNMArZ7eC5R0hJMVdLLrhqbplcsKFJLUQdvvlxekQtifs1ftEqU4CxVuoflB8ij0RQLqqm6-_bZfcBmHmYQbl4n_9RUxv_LYyQnoK0fhNehzYMIp8Ow2WqfdbY8bL0C2VFTrVNDQYCJcY-2a8kr2JnT_OtZOFQiP07II0YOuXDpuMgMT6AWMN0TiUrLQtwcs2-nrHRN9kC7cZ-W47Pv8cG8IvY5XgoG3GtcgAusDamqo9FjxcsLSSCpDZvNeKUpElVtEJJCOD7jdpM3Kx0sQ_L7pijSS3mz-h58dawkFOKsLbk1rdLxrr-B4LwnuVM5bmLU6fU1RjJp2MaYFiFDU5-YhriTtgpRH3dmOnZoC3UDXWfvzAIXEVpExpRAxDrBNvu-Gqedrc-q_7lnxsTbMMOVmJJvxW_Bz-mFdkNnOinzIeUtq5_FQo1qS6Tktw9ugZhQXLgf7CHc6uv00Seh1Q7H4LVWQ-KCEOnpUt93zqKabIks53o17AxQyTIars46gA-vnJ3X2tHgX2vxd3rmajenUC0oYjrWFHZxMWr6dIwvbMcIsOpOspsPLezTzvpQvlgkMRYxr9kZjhc-0BgPT1GqMpyBWqgKMptRYuRYGMGNk1afyaNPkV97-HqF0Po35pjrezHLnJR31u2SAjdVs4mLxsVC5Ew2CopocAgD9hT8IAeeavQmMDr8q15N3L9M3OO8EWhARAN0HBw4rsiz0qyo0wmr3EzhHtpl-Mh5mJjF90oXJvuUVi_xeVyvg_LWko_NBXVVr60zzn9xAfD3uctBgFgHXTNd0zOIcQIBpwLIjd_TDivxFju2t-bWYnwbTEvVmALLsNpr-lQy-DJ0KvzV8djtMzaYhHVPih7kL7H3NnQ4vr1Qe3tcvEVgarKeSFxeRpNOx5M0msX7OkTbLus1d9yzyoCA3lEpjYkoFTaMEXur6-M-8FmzB5MuM6erANxTkO-m247SOMyNLoiJqeyR3Vm00]--></g></svg>