<svg xmlns="http://www.w3.org/2000/svg" xmlns:xlink="http://www.w3.org/1999/xlink" contentStyleType="text/css" height="512px" preserveAspectRatio="none" style="width:1010px;height:512px;background:#FFFFFF;" version="1.1" viewBox="0 0 1010 512" width="1010px" zoomAndPan="magnify"><defs/><g><!--cluster Befund--><g id="cluster_Befund"><path d="M104.25,6 L161.4619,6 A3.75,3.75 0 0 1 163.9619,8.5 L170.9619,28.2969 L681.25,28.2969 A2.5,2.5 0 0 1 683.75,30.7969 L683.75,382.5 A2.5,2.5 0 0 1 681.25,385 L104.25,385 A2.5,2.5 0 0 1 101.75,382.5 L101.75,8.5 A2.5,2.5 0 0 1 104.25,6 " fill="none" style="stroke:#000000;stroke-width:1.5;"/><line style="stroke:#000000;stroke-width:1.5;" x1="101.75" x2="170.9619" y1="28.2969" y2="28.2969"/><text fill="#000000" font-family="sans-serif" font-size="14" font-weight="bold" lengthAdjust="spacing" textLength="56.2119" x="105.75" y="20.9951">Befund</text></g><!--class Befundbericht--><g id="elem_Befundbericht"><rect codeLine="13" fill="#E0FFFF" height="56.2656" id="Befundbericht" rx="2.5" ry="2.5" style="stroke:#181818;stroke-width:0.5;" width="146.5117" x="502.25" y="177"/><ellipse cx="517.25" cy="197.1328" fill="#ADD1B2" rx="11" ry="11" style="stroke:#181818;stroke-width:1.0;"/><path d="M520.2188,202.7734 Q519.6406,203.0703 519,203.2109 Q518.3594,203.3672 517.6563,203.3672 Q515.1563,203.3672 513.8281,201.7266 Q512.5156,200.0703 512.5156,196.9453 Q512.5156,193.8203 513.8281,192.1641 Q515.1563,190.5078 517.6563,190.5078 Q518.3594,190.5078 519,190.6641 Q519.6563,190.8203 520.2188,191.1172 L520.2188,193.8359 Q519.5938,193.2578 519,192.9922 Q518.4063,192.7109 517.7813,192.7109 Q516.4375,192.7109 515.75,193.7891 Q515.0625,194.8516 515.0625,196.9453 Q515.0625,199.0391 515.75,200.1172 Q516.4375,201.1797 517.7813,201.1797 Q518.4063,201.1797 519,200.9141 Q519.5938,200.6328 520.2188,200.0547 L520.2188,202.7734 Z " fill="#000000"/><text fill="#000000" font-family="sans-serif" font-size="12" font-style="italic" lengthAdjust="spacing" textLength="118.5117" x="529.25" y="193.1387">&#171;DiagnosticReport&#187;</text><text fill="#000000" font-family="sans-serif" font-size="14" lengthAdjust="spacing" textLength="98.9844" x="539.0137" y="208.9639">Befundbericht</text><line style="stroke:#181818;stroke-width:0.5;" x1="503.25" x2="647.7617" y1="217.2656" y2="217.2656"/><line style="stroke:#181818;stroke-width:0.5;" x1="503.25" x2="647.7617" y1="225.2656" y2="225.2656"/></g><!--class Empfehlung--><g id="elem_Empfehlung"><rect codeLine="15" fill="#F1F1F1" height="56.2656" id="Empfehlung" rx="2.5" ry="2.5" style="stroke:#181818;stroke-width:0.5;" width="116.3076" x="551.75" y="41"/><ellipse cx="566.75" cy="61.1328" fill="#ADD1B2" rx="11" ry="11" style="stroke:#181818;stroke-width:1.0;"/><path d="M569.7188,66.7734 Q569.1406,67.0703 568.5,67.2109 Q567.8594,67.3672 567.1563,67.3672 Q564.6563,67.3672 563.3281,65.7266 Q562.0156,64.0703 562.0156,60.9453 Q562.0156,57.8203 563.3281,56.1641 Q564.6563,54.5078 567.1563,54.5078 Q567.8594,54.5078 568.5,54.6641 Q569.1563,54.8203 569.7188,55.1172 L569.7188,57.8359 Q569.0938,57.2578 568.5,56.9922 Q567.9063,56.7109 567.2813,56.7109 Q565.9375,56.7109 565.25,57.7891 Q564.5625,58.8516 564.5625,60.9453 Q564.5625,63.0391 565.25,64.1172 Q565.9375,65.1797 567.2813,65.1797 Q567.9063,65.1797 568.5,64.9141 Q569.0938,64.6328 569.7188,64.0547 L569.7188,66.7734 Z " fill="#000000"/><text fill="#000000" font-family="sans-serif" font-size="12" font-style="italic" lengthAdjust="spacing" textLength="68.3906" x="588.7085" y="57.1387">&#171;CarePlan&#187;</text><text fill="#000000" font-family="sans-serif" font-size="14" lengthAdjust="spacing" textLength="84.3076" x="580.75" y="72.9639">Empfehlung</text><line style="stroke:#181818;stroke-width:0.5;" x1="552.75" x2="667.0576" y1="81.2656" y2="81.2656"/><line style="stroke:#181818;stroke-width:0.5;" x1="552.75" x2="667.0576" y1="89.2656" y2="89.2656"/></g><!--class GenerischeBeobachtung--><g id="elem_GenerischeBeobachtung"><rect codeLine="17" fill="#F1F1F1" height="56.2656" id="GenerischeBeobachtung" rx="2.5" ry="2.5" style="stroke:#181818;stroke-width:0.5;" width="204.0127" x="127.75" y="313"/><ellipse cx="142.75" cy="333.1328" fill="#ADD1B2" rx="11" ry="11" style="stroke:#181818;stroke-width:1.0;"/><path d="M145.7188,338.7734 Q145.1406,339.0703 144.5,339.2109 Q143.8594,339.3672 143.1563,339.3672 Q140.6563,339.3672 139.3281,337.7266 Q138.0156,336.0703 138.0156,332.9453 Q138.0156,329.8203 139.3281,328.1641 Q140.6563,326.5078 143.1563,326.5078 Q143.8594,326.5078 144.5,326.6641 Q145.1563,326.8203 145.7188,327.1172 L145.7188,329.8359 Q145.0938,329.2578 144.5,328.9922 Q143.9063,328.7109 143.2813,328.7109 Q141.9375,328.7109 141.25,329.7891 Q140.5625,330.8516 140.5625,332.9453 Q140.5625,335.0391 141.25,336.1172 Q141.9375,337.1797 143.2813,337.1797 Q143.9063,337.1797 144.5,336.9141 Q145.0938,336.6328 145.7188,336.0547 L145.7188,338.7734 Z " fill="#000000"/><text fill="#000000" font-family="sans-serif" font-size="12" font-style="italic" lengthAdjust="spacing" textLength="87.8848" x="198.814" y="329.1387">&#171;Observation&#187;</text><text fill="#000000" font-family="sans-serif" font-size="14" lengthAdjust="spacing" textLength="172.0127" x="156.75" y="344.9639">GenerischeBeobachtung</text><line style="stroke:#181818;stroke-width:0.5;" x1="128.75" x2="330.7627" y1="353.2656" y2="353.2656"/><line style="stroke:#181818;stroke-width:0.5;" x1="128.75" x2="330.7627" y1="361.2656" y2="361.2656"/></g><!--class SemistrukturiertesBefunddokument--><g id="elem_SemistrukturiertesBefunddokument"><rect codeLine="19" fill="#F1F1F1" height="56.2656" id="SemistrukturiertesBefunddokument" rx="2.5" ry="2.5" style="stroke:#181818;stroke-width:0.5;" width="283.1455" x="118.25" y="41"/><ellipse cx="133.25" cy="61.1328" fill="#ADD1B2" rx="11" ry="11" style="stroke:#181818;stroke-width:1.0;"/><path d="M136.2188,66.7734 Q135.6406,67.0703 135,67.2109 Q134.3594,67.3672 133.6563,67.3672 Q131.1563,67.3672 129.8281,65.7266 Q128.5156,64.0703 128.5156,60.9453 Q128.5156,57.8203 129.8281,56.1641 Q131.1563,54.5078 133.6563,54.5078 Q134.3594,54.5078 135,54.6641 Q135.6563,54.8203 136.2188,55.1172 L136.2188,57.8359 Q135.5938,57.2578 135,56.9922 Q134.4063,56.7109 133.7813,56.7109 Q132.4375,56.7109 131.75,57.7891 Q131.0625,58.8516 131.0625,60.9453 Q131.0625,63.0391 131.75,64.1172 Q132.4375,65.1797 133.7813,65.1797 Q134.4063,65.1797 135,64.9141 Q135.5938,64.6328 136.2188,64.0547 L136.2188,66.7734 Z " fill="#000000"/><text fill="#000000" font-family="sans-serif" font-size="12" font-style="italic" lengthAdjust="spacing" textLength="89.7539" x="227.9458" y="57.1387">&#171;Composition&#187;</text><text fill="#000000" font-family="sans-serif" font-size="14" lengthAdjust="spacing" textLength="251.1455" x="147.25" y="72.9639">SemistrukturiertesBefunddokument</text><line style="stroke:#181818;stroke-width:0.5;" x1="119.25" x2="400.3955" y1="81.2656" y2="81.2656"/><line style="stroke:#181818;stroke-width:0.5;" x1="119.25" x2="400.3955" y1="89.2656" y2="89.2656"/></g><!--class Studie--><g id="elem_Studie"><rect codeLine="6" fill="#E0FFFF" height="56.2656" id="Studie" rx="2.5" ry="2.5" style="stroke:#181818;stroke-width:0.5;" width="126.2148" x="801.75" y="313"/><ellipse cx="816.75" cy="333.1328" fill="#ADD1B2" rx="11" ry="11" style="stroke:#181818;stroke-width:1.0;"/><path d="M819.7188,338.7734 Q819.1406,339.0703 818.5,339.2109 Q817.8594,339.3672 817.1563,339.3672 Q814.6563,339.3672 813.3281,337.7266 Q812.0156,336.0703 812.0156,332.9453 Q812.0156,329.8203 813.3281,328.1641 Q814.6563,326.5078 817.1563,326.5078 Q817.8594,326.5078 818.5,326.6641 Q819.1563,326.8203 819.7188,327.1172 L819.7188,329.8359 Q819.0938,329.2578 818.5,328.9922 Q817.9063,328.7109 817.2813,328.7109 Q815.9375,328.7109 815.25,329.7891 Q814.5625,330.8516 814.5625,332.9453 Q814.5625,335.0391 815.25,336.1172 Q815.9375,337.1797 817.2813,337.1797 Q817.9063,337.1797 818.5,336.9141 Q819.0938,336.6328 819.7188,336.0547 L819.7188,338.7734 Z " fill="#000000"/><text fill="#000000" font-family="sans-serif" font-size="12" font-style="italic" lengthAdjust="spacing" textLength="98.2148" x="828.75" y="329.1387">&#171;ImagingStudy&#187;</text><text fill="#000000" font-family="sans-serif" font-size="14" lengthAdjust="spacing" textLength="44.6387" x="855.5381" y="344.9639">Studie</text><line style="stroke:#181818;stroke-width:0.5;" x1="802.75" x2="926.9648" y1="353.2656" y2="353.2656"/><line style="stroke:#181818;stroke-width:0.5;" x1="802.75" x2="926.9648" y1="361.2656" y2="361.2656"/></g><!--class Anforderung--><g id="elem_Anforderung"><rect codeLine="8" fill="#F1F1F1" height="56.2656" id="Anforderung" rx="2.5" ry="2.5" style="stroke:#181818;stroke-width:0.5;" width="136.4453" x="796.75" y="449"/><ellipse cx="811.75" cy="469.1328" fill="#ADD1B2" rx="11" ry="11" style="stroke:#181818;stroke-width:1.0;"/><path d="M814.7188,474.7734 Q814.1406,475.0703 813.5,475.2109 Q812.8594,475.3672 812.1563,475.3672 Q809.6563,475.3672 808.3281,473.7266 Q807.0156,472.0703 807.0156,468.9453 Q807.0156,465.8203 808.3281,464.1641 Q809.6563,462.5078 812.1563,462.5078 Q812.8594,462.5078 813.5,462.6641 Q814.1563,462.8203 814.7188,463.1172 L814.7188,465.8359 Q814.0938,465.2578 813.5,464.9922 Q812.9063,464.7109 812.2813,464.7109 Q810.9375,464.7109 810.25,465.7891 Q809.5625,466.8516 809.5625,468.9453 Q809.5625,471.0391 810.25,472.1172 Q810.9375,473.1797 812.2813,473.1797 Q812.9063,473.1797 813.5,472.9141 Q814.0938,472.6328 814.7188,472.0547 L814.7188,474.7734 Z " fill="#000000"/><text fill="#000000" font-family="sans-serif" font-size="12" font-style="italic" lengthAdjust="spacing" textLength="108.4453" x="823.75" y="465.1387">&#171;ServiceRequest&#187;</text><text fill="#000000" font-family="sans-serif" font-size="14" lengthAdjust="spacing" textLength="87.5889" x="834.1782" y="480.9639">Anforderung</text><line style="stroke:#181818;stroke-width:0.5;" x1="797.75" x2="932.1953" y1="489.2656" y2="489.2656"/><line style="stroke:#181818;stroke-width:0.5;" x1="797.75" x2="932.1953" y1="497.2656" y2="497.2656"/></g><!--class K?rperstruktur--><g id="elem_K&#246;rperstruktur"><rect codeLine="10" fill="#F1F1F1" height="56.2656" id="K&#246;rperstruktur" rx="2.5" ry="2.5" style="stroke:#181818;stroke-width:0.5;" width="134.3955" x="162.75" y="449"/><ellipse cx="177.75" cy="469.1328" fill="#ADD1B2" rx="11" ry="11" style="stroke:#181818;stroke-width:1.0;"/><path d="M180.7188,474.7734 Q180.1406,475.0703 179.5,475.2109 Q178.8594,475.3672 178.1563,475.3672 Q175.6563,475.3672 174.3281,473.7266 Q173.0156,472.0703 173.0156,468.9453 Q173.0156,465.8203 174.3281,464.1641 Q175.6563,462.5078 178.1563,462.5078 Q178.8594,462.5078 179.5,462.6641 Q180.1563,462.8203 180.7188,463.1172 L180.7188,465.8359 Q180.0938,465.2578 179.5,464.9922 Q178.9063,464.7109 178.2813,464.7109 Q176.9375,464.7109 176.25,465.7891 Q175.5625,466.8516 175.5625,468.9453 Q175.5625,471.0391 176.25,472.1172 Q176.9375,473.1797 178.2813,473.1797 Q178.9063,473.1797 179.5,472.9141 Q180.0938,472.6328 180.7188,472.0547 L180.7188,474.7734 Z " fill="#000000"/><text fill="#000000" font-family="sans-serif" font-size="12" font-style="italic" lengthAdjust="spacing" textLength="101.1914" x="192.3521" y="465.1387">&#171;BodyStructure&#187;</text><text fill="#000000" font-family="sans-serif" font-size="14" lengthAdjust="spacing" textLength="102.3955" x="191.75" y="480.9639">K&#246;rperstruktur</text><line style="stroke:#181818;stroke-width:0.5;" x1="163.75" x2="296.1455" y1="489.2656" y2="489.2656"/><line style="stroke:#181818;stroke-width:0.5;" x1="163.75" x2="296.1455" y1="497.2656" y2="497.2656"/></g><!--link Befundbericht to Anforderung--><g id="link_Befundbericht_Anforderung"><path codeLine="22" d="M561.05,233.07 C561.05,304.4 561.05,487 561.05,487 C561.05,487 707.05,487 796.59,487 " fill="none" id="Befundbericht-Anforderung" style="stroke:#181818;stroke-width:1.0;"/><text fill="#000000" font-family="sans-serif" font-size="13" lengthAdjust="spacing" textLength="80.8882" x="480.05" y="473.8769">DR.basedOn</text><text fill="#000000" font-family="sans-serif" font-size="13" lengthAdjust="spacing" textLength="24.8066" x="531.0254" y="253.3471">0..1</text><text fill="#000000" font-family="sans-serif" font-size="13" lengthAdjust="spacing" textLength="23.0356" x="765.7283" y="484.3065">0..*</text></g><!--link Anforderung to Befundbericht--><g id="link_Anforderung_Befundbericht"><path codeLine="36" d="M796.59,468 C715.36,468 590.45,468 590.45,468 C590.45,468 590.45,300.99 590.45,233.15 " fill="none" id="Anforderung-Befundbericht" style="stroke:#181818;stroke-width:1.0;"/><text fill="#000000" font-family="sans-serif" font-size="13" lengthAdjust="spacing" textLength="116.0352" x="473.45" y="449.7069">SR.supportingInfo</text><text fill="#000000" font-family="sans-serif" font-size="13" lengthAdjust="spacing" textLength="24.8066" x="763.8423" y="463.2549">0..1</text><text fill="#000000" font-family="sans-serif" font-size="13" lengthAdjust="spacing" textLength="23.0356" x="568.2506" y="253.4456">0..*</text></g><!--link Befundbericht to GenerischeBeobachtung--><g id="link_Befundbericht_GenerischeBeobachtung"><path codeLine="23" d="M531.65,233.19 C531.65,270.6 531.65,332 531.65,332 C531.65,332 419.54,332 331.96,332 " fill="none" id="Befundbericht-GenerischeBeobachtung" style="stroke:#181818;stroke-width:1.0;"/><text fill="#000000" font-family="sans-serif" font-size="13" lengthAdjust="spacing" textLength="60.2393" x="420.21" y="328.0669">DR.result</text><text fill="#000000" font-family="sans-serif" font-size="13" lengthAdjust="spacing" textLength="24.8066" x="494.8266" y="253.4949">1..1</text><text fill="#000000" font-family="sans-serif" font-size="13" lengthAdjust="spacing" textLength="23.0356" x="339.6007" y="327.9538">0..*</text></g><!--link Befundbericht to Studie--><g id="link_Befundbericht_Studie"><path codeLine="24" d="M649.42,205 C735.05,205 864.75,205 864.75,205 C864.75,205 864.75,272.99 864.75,312.82 " fill="none" id="Befundbericht-Studie" style="stroke:#181818;stroke-width:1.0;"/><text fill="#000000" font-family="sans-serif" font-size="13" lengthAdjust="spacing" textLength="113.3057" x="697" y="201.0669">DR.imagingStudy</text><text fill="#000000" font-family="sans-serif" font-size="13" lengthAdjust="spacing" textLength="23.0356" x="656.7618" y="217.7057">0..*</text><text fill="#000000" font-family="sans-serif" font-size="13" lengthAdjust="spacing" textLength="23.0356" x="839.2148" y="302.0674">0..*</text></g><!--link Befundbericht to Befundbericht--><g id="link_Befundbericht_Befundbericht"><path codeLine="25" d="M616.75,176.95 C616.75,158.22 616.75,137 616.75,137 C616.75,137 658.5,137 658.5,137 C658.5,137 658.5,260 658.5,260 C658.5,260 619.85,260 619.85,260 C619.85,260 619.85,246.68 619.85,233.14 " fill="none" id="Befundbericht-Befundbericht" style="stroke:#181818;stroke-width:1.0;"/><text fill="#000000" font-family="sans-serif" font-size="13" lengthAdjust="spacing" textLength="154.5845" x="664.5" y="181.4669">DR.supportingInfo (R5!)</text><text fill="#000000" font-family="sans-serif" font-size="13" lengthAdjust="spacing" textLength="23.0356" x="600.6325" y="165.7806">0..*</text><text fill="#000000" font-family="sans-serif" font-size="13" lengthAdjust="spacing" textLength="24.8066" x="603.4229" y="253.4333">1..1</text></g><!--link Empfehlung to Befundbericht--><g id="link_Empfehlung_Befundbericht"><path codeLine="27" d="M584.25,97.18 C584.25,120.52 584.25,153.53 584.25,176.86 " fill="none" id="Empfehlung-Befundbericht" style="stroke:#181818;stroke-width:1.0;"/><text fill="#000000" font-family="sans-serif" font-size="13" lengthAdjust="spacing" textLength="115.667" x="468.25" y="133.0869">CP.supportingInfo</text><text fill="#000000" font-family="sans-serif" font-size="13" lengthAdjust="spacing" textLength="23.0356" x="552.6623" y="117.4825">0..*</text><text fill="#000000" font-family="sans-serif" font-size="13" lengthAdjust="spacing" textLength="23.0356" x="560.6511" y="166.1161">0..*</text></g><!--link GenerischeBeobachtung to K?rperstruktur--><g id="link_GenerischeBeobachtung_K&#246;rperstruktur"><path codeLine="29" d="M229.75,369.18 C229.75,392.52 229.75,425.53 229.75,448.86 " fill="none" id="GenerischeBeobachtung-K&#246;rperstruktur" style="stroke:#181818;stroke-width:1.0;"/><text fill="#000000" font-family="sans-serif" font-size="13" lengthAdjust="spacing" textLength="159.0913" x="69.75" y="405.0869">Obs.bodyStructure (R5!)</text><text fill="#000000" font-family="sans-serif" font-size="13" lengthAdjust="spacing" textLength="23.0356" x="204.0933" y="389.4825">0..*</text><text fill="#000000" font-family="sans-serif" font-size="13" lengthAdjust="spacing" textLength="24.8066" x="203.17" y="438.1161">0..1</text></g><!--link GenerischeBeobachtung to GenerischeBeobachtung--><g id="link_GenerischeBeobachtung_GenerischeBeobachtung"><path codeLine="30" d="M195.75,312.73 C195.75,299.67 195.75,287 195.75,287 C195.75,287 123,287 123,287 C123,287 123,409 123,409 C123,409 145.25,409 145.25,409 C145.25,409 145.25,387.78 145.25,369.05 " fill="none" id="GenerischeBeobachtung-GenerischeBeobachtung" style="stroke:#181818;stroke-width:1.0;"/><text fill="#000000" font-family="sans-serif" font-size="13" lengthAdjust="spacing" textLength="105.8408" x="12" y="320.9269">Obs.hasMember</text><text fill="#000000" font-family="sans-serif" font-size="13" lengthAdjust="spacing" textLength="23.0356" x="162.7994" y="301.9577">0..*</text><text fill="#000000" font-family="sans-serif" font-size="13" lengthAdjust="spacing" textLength="24.8066" x="99.0262" y="389.3225">1..1</text></g><!--link GenerischeBeobachtung to Studie--><g id="link_GenerischeBeobachtung_Studie"><path codeLine="31" d="M331.77,351 C464.3,351 691.64,351 801.57,351 " fill="none" id="GenerischeBeobachtung-Studie" style="stroke:#181818;stroke-width:1.0;"/><text fill="#000000" font-family="sans-serif" font-size="13" lengthAdjust="spacing" textLength="111.979" x="454.67" y="347.0669">Obs.derivedFrom</text><text fill="#000000" font-family="sans-serif" font-size="13" lengthAdjust="spacing" textLength="23.0356" x="339.7527" y="348.238">0..*</text><text fill="#000000" font-family="sans-serif" font-size="13" lengthAdjust="spacing" textLength="23.0356" x="770.8594" y="348.3179">0..*</text></g><!--link Studie to Anforderung--><g id="link_Studie_Anforderung"><path codeLine="33" d="M843.75,369.18 C843.75,392.52 843.75,425.53 843.75,448.86 " fill="none" id="Studie-Anforderung" style="stroke:#181818;stroke-width:1.0;"/><text fill="#000000" font-family="sans-serif" font-size="13" lengthAdjust="spacing" textLength="79.0283" x="763.75" y="405.0869">ISt.basedOn</text><text fill="#000000" font-family="sans-serif" font-size="13" lengthAdjust="spacing" textLength="23.0356" x="813.2137" y="389.4825">0..*</text><text fill="#000000" font-family="sans-serif" font-size="13" lengthAdjust="spacing" textLength="23.0356" x="813.5958" y="438.1161">0..*</text></g><!--link Anforderung to Studie--><g id="link_Anforderung_Studie"><path codeLine="35" d="M885.75,448.82 C885.75,425.48 885.75,392.47 885.75,369.14 " fill="none" id="Anforderung-Studie" style="stroke:#181818;stroke-width:1.0;"/><text fill="#000000" font-family="sans-serif" font-size="13" lengthAdjust="spacing" textLength="116.0352" x="886.75" y="405.0469">SR.supportingInfo</text><text fill="#000000" font-family="sans-serif" font-size="13" lengthAdjust="spacing" textLength="23.0356" x="864.7833" y="438.0674">0..*</text><text fill="#000000" font-family="sans-serif" font-size="13" lengthAdjust="spacing" textLength="23.0356" x="864.9262" y="389.4333">0..*</text></g><!--link SemistrukturiertesBefunddokument to Befundbericht--><g id="link_SemistrukturiertesBefunddokument_Befundbericht"><path codeLine="38" d="M401.59,69 C465.56,69 527,69 527,69 C527,69 527,136.99 527,176.82 " fill="none" id="SemistrukturiertesBefunddokument-Befundbericht" style="stroke:#181818;stroke-width:1.0;"/><text fill="#000000" font-family="sans-serif" font-size="13" lengthAdjust="spacing" textLength="106.4883" x="411.21" y="82.0669">Co.section.entry</text><text fill="#000000" font-family="sans-serif" font-size="13" lengthAdjust="spacing" textLength="24.8066" x="409.5394" y="65.6768">1..1</text><text fill="#000000" font-family="sans-serif" font-size="13" lengthAdjust="spacing" textLength="24.8066" x="489.8526" y="166.0674">1..1</text></g><!--link SemistrukturiertesBefunddokument to GenerischeBeobachtung--><g id="link_SemistrukturiertesBefunddokument_GenerischeBeobachtung"><path codeLine="39" d="M263.75,97.08 C263.75,149.21 263.75,260.35 263.75,312.66 " fill="none" id="SemistrukturiertesBefunddokument-GenerischeBeobachtung" style="stroke:#181818;stroke-width:1.0;"/><text fill="#000000" font-family="sans-serif" font-size="13" lengthAdjust="spacing" textLength="106.4883" x="156.75" y="200.9369">Co.section.entry</text><text fill="#000000" font-family="sans-serif" font-size="13" lengthAdjust="spacing" textLength="24.8066" x="237.9764" y="117.3594">0..1</text><text fill="#000000" font-family="sans-serif" font-size="13" lengthAdjust="spacing" textLength="23.0356" x="245.6744" y="301.8724">0..*</text></g><!--SRC=[ZPFVRfim5CRl_HHdzAQhL9HSL9gggj92sobQkrRm10PEm09ivZ-TKDNNwWlinNO8IUP0ikKEc_FxpcT_nwOIikMQD_0e9DgkHL3QbegPtOyVAaU3BSolPjvkp6NLxtxnDsiiKEOBdbM5LaxcaQgLXhDVfR38M5PpOo2nBXS8DpVBXXT25lswkxs5iqTHb3Rgk8ItzstnLxbIEaVjP454WlfLP1ZZJuV64lEtyFll3zsYDbQxoZfDnGkLTmajCrhYfhObPxn021Qu8di1l360GM3OIL6BhBI4tmbUI6Mio69iwKec3W5sx7tJhh2i1vCHr_XISxbfkQtvXfAqJLRY0bNAgSbG_fmQEXMtGes911knFOz0RT4C7dDLkGPbRp9IJQkC661YYTu_Hp0Bmta0bvVhhul0lz1hk8l3b1lCd-KOcu-mW-xN0XgDg-s1jXS-FuI-1eGN-v6sRiVj_L_ZnhLz7AImfAF0UNprwJDZNWAJtYEDw6MamTZXRFQ5oDTengw1iWjJVymsTexeJKvtv5PxsPAR9sp8z4dcl1lkOSfNl6B-e5N3sEQzJO2zILWcTZSAp7zqH_iauoWcsFmV8KnfzjznzuPo-1e7gqA3MVyMGYhNtGcAirF67ARIVm00]--></g></svg>