<svg xmlns="http://www.w3.org/2000/svg" xmlns:xlink="http://www.w3.org/1999/xlink" contentStyleType="text/css" height="1132px" preserveAspectRatio="none" style="width:824px;height:1132px;background:#FFFFFF;" version="1.1" viewBox="0 0 824 1132" width="824px" zoomAndPan="magnify"><defs/><g><!--cluster <<Befund>>--><g id="cluster_&lt;&lt;Befund&gt;&gt;"><path d="M127.5,6 L202.7998,6 A3.75,3.75 0 0 1 205.2998,8.5 L212.2998,28.2969 L690.5,28.2969 A2.5,2.5 0 0 1 693,30.7969 L693,937.5 A2.5,2.5 0 0 1 690.5,940 L127.5,940 A2.5,2.5 0 0 1 125,937.5 L125,8.5 A2.5,2.5 0 0 1 127.5,6 " fill="none" style="stroke:#000000;stroke-width:1.5;"/><line style="stroke:#000000;stroke-width:1.5;" x1="125" x2="212.2998" y1="28.2969" y2="28.2969"/><text fill="#000000" font-family="sans-serif" font-size="14" font-weight="bold" lengthAdjust="spacing" textLength="74.2998" x="129" y="20.9951">&#171;Befund&#187;</text></g><!--class Befundbericht--><g id="elem_Befundbericht"><rect codeLine="14" fill="#E0FFFF" height="300.7188" id="Befundbericht" rx="2.5" ry="2.5" style="stroke:#181818;stroke-width:0.5;" width="484.7393" x="157.5" y="259"/><ellipse cx="338.3638" cy="279.1328" fill="#ADD1B2" rx="11" ry="11" style="stroke:#181818;stroke-width:1.0;"/><path d="M341.3325,284.7734 Q340.7544,285.0703 340.1138,285.2109 Q339.4731,285.3672 338.77,285.3672 Q336.27,285.3672 334.9419,283.7266 Q333.6294,282.0703 333.6294,278.9453 Q333.6294,275.8203 334.9419,274.1641 Q336.27,272.5078 338.77,272.5078 Q339.4731,272.5078 340.1138,272.6641 Q340.77,272.8203 341.3325,273.1172 L341.3325,275.8359 Q340.7075,275.2578 340.1138,274.9922 Q339.52,274.7109 338.895,274.7109 Q337.5513,274.7109 336.8638,275.7891 Q336.1763,276.8516 336.1763,278.9453 Q336.1763,281.0391 336.8638,282.1172 Q337.5513,283.1797 338.895,283.1797 Q339.52,283.1797 340.1138,282.9141 Q340.7075,282.6328 341.3325,282.0547 L341.3325,284.7734 Z " fill="#000000"/><text fill="#000000" font-family="sans-serif" font-size="12" font-style="italic" lengthAdjust="spacing" textLength="118.5117" x="356.8638" y="275.1387">&#171;DiagnosticReport&#187;</text><text fill="#000000" font-family="sans-serif" font-size="14" lengthAdjust="spacing" textLength="98.9844" x="366.6274" y="290.9639">Befundbericht</text><line style="stroke:#181818;stroke-width:0.5;" x1="158.5" x2="641.2393" y1="299.2656" y2="299.2656"/><ellipse cx="168.5" cy="312.9141" fill="none" rx="3" ry="3" style="stroke:#038048;stroke-width:1.0;"/><text fill="#000000" font-family="sans-serif" font-size="14" lengthAdjust="spacing" textLength="405.0225" x="177.5" y="316.2607">Anfordende Ma&#223;nahme: Reference(ServiceRequest) [0..*]</text><ellipse cx="168.5" cy="329.2109" fill="none" rx="3" ry="3" style="stroke:#038048;stroke-width:1.0;"/><text fill="#000000" font-family="sans-serif" font-size="14" lengthAdjust="spacing" textLength="144.7441" x="177.5" y="332.5576">Status: Coding [1..1]</text><ellipse cx="168.5" cy="345.5078" fill="none" rx="3" ry="3" style="stroke:#038048;stroke-width:1.0;"/><text fill="#000000" font-family="sans-serif" font-size="14" lengthAdjust="spacing" textLength="240.6318" x="177.5" y="348.8545">Kategorie: CodeableConcept [1..*]</text><ellipse cx="168.5" cy="361.8047" fill="none" rx="3" ry="3" style="stroke:#038048;stroke-width:1.0;"/><text fill="#000000" font-family="sans-serif" font-size="14" lengthAdjust="spacing" textLength="135.9736" x="177.5" y="365.1514">Code: Coding [1..1]</text><ellipse cx="168.5" cy="378.1016" fill="none" rx="3" ry="3" style="stroke:#038048;stroke-width:1.0;"/><text fill="#000000" font-family="sans-serif" font-size="14" lengthAdjust="spacing" textLength="345.2764" x="177.5" y="381.4482">Personen-Identifikation: Reference(Patient) [1..1]</text><ellipse cx="168.5" cy="394.3984" fill="none" rx="3" ry="3" style="stroke:#038048;stroke-width:1.0;"/><text fill="#000000" font-family="sans-serif" font-size="14" lengthAdjust="spacing" textLength="393.4492" x="177.5" y="397.7451">Versorgungsstellenkontakt: Reference(Encounter) [0..1]</text><ellipse cx="168.5" cy="410.6953" fill="none" rx="3" ry="3" style="stroke:#038048;stroke-width:1.0;"/><text fill="#000000" font-family="sans-serif" font-size="14" lengthAdjust="spacing" textLength="274.2988" x="177.5" y="414.042">Klinisch relevante Zeit: dateTime [0..1]</text><ellipse cx="168.5" cy="426.9922" fill="none" rx="3" ry="3" style="stroke:#038048;stroke-width:1.0;"/><text fill="#000000" font-family="sans-serif" font-size="14" lengthAdjust="spacing" textLength="277.8193" x="177.5" y="430.3389">Klinisch relevante Periode: period [0..1]</text><ellipse cx="168.5" cy="443.2891" fill="none" rx="3" ry="3" style="stroke:#038048;stroke-width:1.0;"/><text fill="#000000" font-family="sans-serif" font-size="14" lengthAdjust="spacing" textLength="226.2559" x="177.5" y="446.6357">Zeit der Erstellung: issued [0..1]</text><ellipse cx="168.5" cy="459.5859" fill="none" rx="3" ry="3" style="stroke:#038048;stroke-width:1.0;"/><text fill="#000000" font-family="sans-serif" font-size="14" lengthAdjust="spacing" textLength="309.9004" x="177.5" y="462.9326">Beobachtung: Reference(Observation) [0..*]</text><ellipse cx="168.5" cy="475.8828" fill="none" rx="3" ry="3" style="stroke:#038048;stroke-width:1.0;"/><text fill="#000000" font-family="sans-serif" font-size="14" lengthAdjust="spacing" textLength="325.1309" x="177.5" y="479.2295">Studienbezug: Reference(ImagingStudy) [1..*]</text><ellipse cx="168.5" cy="492.1797" fill="none" rx="3" ry="3" style="stroke:#038048;stroke-width:1.0;"/><text fill="#000000" font-family="sans-serif" font-size="14" lengthAdjust="spacing" textLength="347.2109" x="177.5" y="495.5264">Interpretation der Beobachtung: markdown [0..1]</text><ellipse cx="168.5" cy="508.4766" fill="none" rx="3" ry="3" style="stroke:#038048;stroke-width:1.0;"/><text fill="#000000" font-family="sans-serif" font-size="14" lengthAdjust="spacing" textLength="362.5098" x="177.5" y="511.8232">strukturierte Interpretation: CodeableConcept [0..*]</text><ellipse cx="168.5" cy="524.7734" fill="none" rx="3" ry="3" style="stroke:#038048;stroke-width:1.0;"/><text fill="#000000" font-family="sans-serif" font-size="14" lengthAdjust="spacing" textLength="458.7393" x="177.5" y="528.1201">Zusatzinformation: Reference(DiagnosticReport|Procedure) [0..1]</text><ellipse cx="168.5" cy="541.0703" fill="none" rx="3" ry="3" style="stroke:#038048;stroke-width:1.0;"/><text fill="#000000" font-family="sans-serif" font-size="14" lengthAdjust="spacing" textLength="274.7568" x="177.5" y="544.417">Dokumentenanhang: Attachment [0..*]</text><line style="stroke:#181818;stroke-width:0.5;" x1="158.5" x2="641.2393" y1="551.7188" y2="551.7188"/></g><!--class Empfehlung--><g id="elem_Empfehlung"><rect codeLine="32" fill="#F1F1F1" height="137.75" id="Empfehlung" rx="2.5" ry="2.5" style="stroke:#181818;stroke-width:0.5;" width="406.9121" x="196.5" y="41"/><ellipse cx="353.5522" cy="61.1328" fill="#ADD1B2" rx="11" ry="11" style="stroke:#181818;stroke-width:1.0;"/><path d="M356.521,66.7734 Q355.9429,67.0703 355.3022,67.2109 Q354.6616,67.3672 353.9585,67.3672 Q351.4585,67.3672 350.1304,65.7266 Q348.8179,64.0703 348.8179,60.9453 Q348.8179,57.8203 350.1304,56.1641 Q351.4585,54.5078 353.9585,54.5078 Q354.6616,54.5078 355.3022,54.6641 Q355.9585,54.8203 356.521,55.1172 L356.521,57.8359 Q355.896,57.2578 355.3022,56.9922 Q354.7085,56.7109 354.0835,56.7109 Q352.7397,56.7109 352.0522,57.7891 Q351.3647,58.8516 351.3647,60.9453 Q351.3647,63.0391 352.0522,64.1172 Q352.7397,65.1797 354.0835,65.1797 Q354.7085,65.1797 355.3022,64.9141 Q355.896,64.6328 356.521,64.0547 L356.521,66.7734 Z " fill="#000000"/><text fill="#000000" font-family="sans-serif" font-size="12" font-style="italic" lengthAdjust="spacing" textLength="68.3906" x="382.0107" y="57.1387">&#171;CarePlan&#187;</text><text fill="#000000" font-family="sans-serif" font-size="14" lengthAdjust="spacing" textLength="84.3076" x="374.0522" y="72.9639">Empfehlung</text><line style="stroke:#181818;stroke-width:0.5;" x1="197.5" x2="602.4121" y1="81.2656" y2="81.2656"/><ellipse cx="207.5" cy="94.9141" fill="none" rx="3" ry="3" style="stroke:#038048;stroke-width:1.0;"/><text fill="#000000" font-family="sans-serif" font-size="14" lengthAdjust="spacing" textLength="144.7441" x="216.5" y="98.2607">Status: Coding [1..1]</text><ellipse cx="207.5" cy="111.2109" fill="none" rx="3" ry="3" style="stroke:#038048;stroke-width:1.0;"/><text fill="#000000" font-family="sans-serif" font-size="14" lengthAdjust="spacing" textLength="237.4189" x="216.5" y="114.5576">Art der Empfehlung: Coding [1..1]</text><ellipse cx="207.5" cy="127.5078" fill="none" rx="3" ry="3" style="stroke:#038048;stroke-width:1.0;"/><text fill="#000000" font-family="sans-serif" font-size="14" lengthAdjust="spacing" textLength="231.3008" x="216.5" y="130.8545">Freitextempfehlung: String [0..1]</text><ellipse cx="207.5" cy="143.8047" fill="none" rx="3" ry="3" style="stroke:#038048;stroke-width:1.0;"/><text fill="#000000" font-family="sans-serif" font-size="14" lengthAdjust="spacing" textLength="345.2764" x="216.5" y="147.1514">Personen-Identifikation: Reference(Patient) [1..1]</text><ellipse cx="207.5" cy="160.1016" fill="none" rx="3" ry="3" style="stroke:#038048;stroke-width:1.0;"/><text fill="#000000" font-family="sans-serif" font-size="14" lengthAdjust="spacing" textLength="380.9121" x="216.5" y="163.4482">Zusatzinformation: Reference(DiagnosticReport) [0..*]</text><line style="stroke:#181818;stroke-width:0.5;" x1="197.5" x2="602.4121" y1="170.75" y2="170.75"/></g><!--class GenerischeBeobachtung--><g id="elem_GenerischeBeobachtung"><rect codeLine="40" fill="#F1F1F1" height="284.4219" id="GenerischeBeobachtung" rx="2.5" ry="2.5" style="stroke:#181818;stroke-width:0.5;" width="517.6475" x="141" y="640"/><ellipse cx="309.5674" cy="660.1328" fill="#ADD1B2" rx="11" ry="11" style="stroke:#181818;stroke-width:1.0;"/><path d="M312.5361,665.7734 Q311.958,666.0703 311.3174,666.2109 Q310.6768,666.3672 309.9736,666.3672 Q307.4736,666.3672 306.1455,664.7266 Q304.833,663.0703 304.833,659.9453 Q304.833,656.8203 306.1455,655.1641 Q307.4736,653.5078 309.9736,653.5078 Q310.6768,653.5078 311.3174,653.6641 Q311.9736,653.8203 312.5361,654.1172 L312.5361,656.8359 Q311.9111,656.2578 311.3174,655.9922 Q310.7236,655.7109 310.0986,655.7109 Q308.7549,655.7109 308.0674,656.7891 Q307.3799,657.8516 307.3799,659.9453 Q307.3799,662.0391 308.0674,663.1172 Q308.7549,664.1797 310.0986,664.1797 Q310.7236,664.1797 311.3174,663.9141 Q311.9111,663.6328 312.5361,663.0547 L312.5361,665.7734 Z " fill="#000000"/><text fill="#000000" font-family="sans-serif" font-size="12" font-style="italic" lengthAdjust="spacing" textLength="87.8848" x="372.1313" y="656.1387">&#171;Observation&#187;</text><text fill="#000000" font-family="sans-serif" font-size="14" lengthAdjust="spacing" textLength="172.0127" x="330.0674" y="671.9639">GenerischeBeobachtung</text><line style="stroke:#181818;stroke-width:0.5;" x1="142" x2="657.6475" y1="680.2656" y2="680.2656"/><ellipse cx="152" cy="693.9141" fill="none" rx="3" ry="3" style="stroke:#038048;stroke-width:1.0;"/><text fill="#000000" font-family="sans-serif" font-size="14" lengthAdjust="spacing" textLength="414.627" x="161" y="697.2607">Extension: Bildnummer: DICOM Instance UID (Series) [0..1]</text><ellipse cx="152" cy="710.2109" fill="none" rx="3" ry="3" style="stroke:#038048;stroke-width:1.0;"/><text fill="#000000" font-family="sans-serif" font-size="14" lengthAdjust="spacing" textLength="485.1191" x="161" y="713.5576">Extension: Schichtposition: DICOM Instance UID (SOP Instance) [0..1]</text><ellipse cx="152" cy="726.5078" fill="none" rx="3" ry="3" style="stroke:#038048;stroke-width:1.0;"/><text fill="#000000" font-family="sans-serif" font-size="14" lengthAdjust="spacing" textLength="491.6475" x="161" y="729.8545">Extension: Erweiterte K&#246;rperstruktur: Reference(BodyStructure) [0..1]</text><ellipse cx="152" cy="742.8047" fill="none" rx="3" ry="3" style="stroke:#038048;stroke-width:1.0;"/><text fill="#000000" font-family="sans-serif" font-size="14" lengthAdjust="spacing" textLength="419.2412" x="161" y="746.1514">Teil einer Befundungsprocedur: Reference(Procedure) [0..*]</text><ellipse cx="152" cy="759.1016" fill="none" rx="3" ry="3" style="stroke:#038048;stroke-width:1.0;"/><text fill="#000000" font-family="sans-serif" font-size="14" lengthAdjust="spacing" textLength="144.7441" x="161" y="762.4482">Status: Coding [1..1]</text><ellipse cx="152" cy="775.3984" fill="none" rx="3" ry="3" style="stroke:#038048;stroke-width:1.0;"/><text fill="#000000" font-family="sans-serif" font-size="14" lengthAdjust="spacing" textLength="373.4063" x="161" y="778.7451">Beobachtungsklassifizierung: CodeableConcept [0..*]</text><ellipse cx="152" cy="791.6953" fill="none" rx="3" ry="3" style="stroke:#038048;stroke-width:1.0;"/><text fill="#000000" font-family="sans-serif" font-size="14" lengthAdjust="spacing" textLength="297.8623" x="161" y="795.042">Beobachtungstyp: CodeableConcept [1..1]</text><ellipse cx="152" cy="807.9922" fill="none" rx="3" ry="3" style="stroke:#038048;stroke-width:1.0;"/><text fill="#000000" font-family="sans-serif" font-size="14" lengthAdjust="spacing" textLength="345.2764" x="161" y="811.3389">Personen-Identifikation: Reference(Patient) [1..1]</text><ellipse cx="152" cy="824.2891" fill="none" rx="3" ry="3" style="stroke:#038048;stroke-width:1.0;"/><text fill="#000000" font-family="sans-serif" font-size="14" lengthAdjust="spacing" textLength="261.9121" x="161" y="827.6357">Beobachtungszeitpunkt: issued [0..1]</text><ellipse cx="152" cy="840.5859" fill="none" rx="3" ry="3" style="stroke:#038048;stroke-width:1.0;"/><text fill="#000000" font-family="sans-serif" font-size="14" lengthAdjust="spacing" textLength="204.5654" x="161" y="843.9326">Beschreibung: value[x] [0..1]</text><ellipse cx="152" cy="856.8828" fill="none" rx="3" ry="3" style="stroke:#038048;stroke-width:1.0;"/><text fill="#000000" font-family="sans-serif" font-size="14" lengthAdjust="spacing" textLength="338.7344" x="161" y="860.2295">K&#246;rperregion(bodySite): CodeableConcept [0..1]</text><ellipse cx="152" cy="873.1797" fill="none" rx="3" ry="3" style="stroke:#038048;stroke-width:1.0;"/><text fill="#000000" font-family="sans-serif" font-size="14" lengthAdjust="spacing" textLength="366.7754" x="161" y="876.5264">weitere Beobachtung: Reference(Observation) [0..*]</text><ellipse cx="152" cy="889.4766" fill="none" rx="3" ry="3" style="stroke:#038048;stroke-width:1.0;"/><text fill="#000000" font-family="sans-serif" font-size="14" lengthAdjust="spacing" textLength="325.1309" x="161" y="892.8232">Studienbezug: Reference(ImagingStudy) [0..*]</text><ellipse cx="152" cy="905.7734" fill="none" rx="3" ry="3" style="stroke:#038048;stroke-width:1.0;"/><text fill="#000000" font-family="sans-serif" font-size="14" lengthAdjust="spacing" textLength="301.1436" x="161" y="909.1201">erweiterte Beschreibung: component [0..*]</text><line style="stroke:#181818;stroke-width:0.5;" x1="142" x2="657.6475" y1="916.4219" y2="916.4219"/></g><!--class K?rperstruktur--><g id="elem_K&#246;rperstruktur"><rect codeLine="6" fill="#F1F1F1" height="121.4531" id="K&#246;rperstruktur" rx="2.5" ry="2.5" style="stroke:#181818;stroke-width:0.5;" width="371.2764" x="214.5" y="1004"/><ellipse cx="344.6904" cy="1024.1328" fill="#ADD1B2" rx="11" ry="11" style="stroke:#181818;stroke-width:1.0;"/><path d="M347.6592,1029.7734 Q347.0811,1030.0703 346.4404,1030.2109 Q345.7998,1030.3672 345.0967,1030.3672 Q342.5967,1030.3672 341.2686,1028.7266 Q339.9561,1027.0703 339.9561,1023.9453 Q339.9561,1020.8203 341.2686,1019.1641 Q342.5967,1017.5078 345.0967,1017.5078 Q345.7998,1017.5078 346.4404,1017.6641 Q347.0967,1017.8203 347.6592,1018.1172 L347.6592,1020.8359 Q347.0342,1020.2578 346.4404,1019.9922 Q345.8467,1019.7109 345.2217,1019.7109 Q343.8779,1019.7109 343.1904,1020.7891 Q342.5029,1021.8516 342.5029,1023.9453 Q342.5029,1026.0391 343.1904,1027.1172 Q343.8779,1028.1797 345.2217,1028.1797 Q345.8467,1028.1797 346.4404,1027.9141 Q347.0342,1027.6328 347.6592,1027.0547 L347.6592,1029.7734 Z " fill="#000000"/><text fill="#000000" font-family="sans-serif" font-size="12" font-style="italic" lengthAdjust="spacing" textLength="101.1914" x="365.7925" y="1020.1387">&#171;BodyStructure&#187;</text><text fill="#000000" font-family="sans-serif" font-size="14" lengthAdjust="spacing" textLength="102.3955" x="365.1904" y="1035.9639">K&#246;rperstruktur</text><line style="stroke:#181818;stroke-width:0.5;" x1="215.5" x2="584.7764" y1="1044.2656" y2="1044.2656"/><ellipse cx="225.5" cy="1057.9141" fill="none" rx="3" ry="3" style="stroke:#038048;stroke-width:1.0;"/><text fill="#000000" font-family="sans-serif" font-size="14" lengthAdjust="spacing" textLength="261.5361" x="234.5" y="1061.2607">Morphologie: CodeableConcept [0..1]</text><ellipse cx="225.5" cy="1074.2109" fill="none" rx="3" ry="3" style="stroke:#038048;stroke-width:1.0;"/><text fill="#000000" font-family="sans-serif" font-size="14" lengthAdjust="spacing" textLength="258.4873" x="234.5" y="1077.5576">Lokalisation: CodeableConcept [0..1]</text><ellipse cx="225.5" cy="1090.5078" fill="none" rx="3" ry="3" style="stroke:#038048;stroke-width:1.0;"/><text fill="#000000" font-family="sans-serif" font-size="14" lengthAdjust="spacing" textLength="310.3379" x="234.5" y="1093.8545">n&#228;here Lokalisation: CodeableConcept [0..*]</text><ellipse cx="225.5" cy="1106.8047" fill="none" rx="3" ry="3" style="stroke:#038048;stroke-width:1.0;"/><text fill="#000000" font-family="sans-serif" font-size="14" lengthAdjust="spacing" textLength="345.2764" x="234.5" y="1110.1514">Personen-Identifikation: Reference(Patient) [1..1]</text><line style="stroke:#181818;stroke-width:0.5;" x1="215.5" x2="584.7764" y1="1117.4531" y2="1117.4531"/></g><!--link Befundbericht to Befundbericht--><g id="link_Befundbericht_Befundbericht"><path codeLine="58" d="M623,258.94 C623,235.57 623,219 623,219 C623,219 650.75,219 650.75,219 C650.75,219 650.75,587 650.75,587 C650.75,587 480.83,587 480.83,587 C480.83,587 480.83,576.25 480.83,560.04 " fill="none" id="Befundbericht-Befundbericht" style="stroke:#181818;stroke-width:1.0;"/><text fill="#000000" font-family="sans-serif" font-size="13" lengthAdjust="spacing" textLength="154.5845" x="656.75" y="458.6669">DR.supportingInfo (R5!)</text><text fill="#000000" font-family="sans-serif" font-size="13" lengthAdjust="spacing" textLength="23.0356" x="610.9131" y="247.8676">0..*</text><text fill="#000000" font-family="sans-serif" font-size="13" lengthAdjust="spacing" textLength="24.8066" x="460.1898" y="579.772">1..1</text></g><!--link Befundbericht to GenerischeBeobachtung--><g id="link_Befundbericht_GenerischeBeobachtung"><path codeLine="59" d="M319.17,560.2 C319.17,586.54 319.17,613.86 319.17,639.95 " fill="none" id="Befundbericht-GenerischeBeobachtung" style="stroke:#181818;stroke-width:1.0;"/><text fill="#000000" font-family="sans-serif" font-size="13" lengthAdjust="spacing" textLength="60.2393" x="258.17" y="596.1469">DR.result</text><text fill="#000000" font-family="sans-serif" font-size="13" lengthAdjust="spacing" textLength="24.8066" x="290.6994" y="579.9397">1..1</text><text fill="#000000" font-family="sans-serif" font-size="13" lengthAdjust="spacing" textLength="23.0356" x="291.1313" y="628.8305">0..*</text></g><!--link Empfehlung to Befundbericht--><g id="link_Empfehlung_Befundbericht"><path codeLine="61" d="M400,179.09 C400,203.01 400,230.86 400,258.74 " fill="none" id="Empfehlung-Befundbericht" style="stroke:#181818;stroke-width:1.0;"/><text fill="#000000" font-family="sans-serif" font-size="13" lengthAdjust="spacing" textLength="115.667" x="284" y="214.9869">CP.supportingInfo</text><text fill="#000000" font-family="sans-serif" font-size="13" lengthAdjust="spacing" textLength="23.0356" x="375.874" y="198.7151">0..*</text><text fill="#000000" font-family="sans-serif" font-size="13" lengthAdjust="spacing" textLength="23.0356" x="376.4501" y="248.1512">0..*</text></g><!--link GenerischeBeobachtung to GenerischeBeobachtung--><g id="link_GenerischeBeobachtung_GenerischeBeobachtung"><path codeLine="63" d="M149.25,639.88 C149.25,624.34 149.25,614 149.25,614 C149.25,614 123,614 123,614 C123,614 123,964 123,964 C123,964 177.75,964 177.75,964 C177.75,964 177.75,947.32 177.75,924.06 " fill="none" id="GenerischeBeobachtung-GenerischeBeobachtung" style="stroke:#181818;stroke-width:1.0;"/><text fill="#000000" font-family="sans-serif" font-size="13" lengthAdjust="spacing" textLength="105.8408" x="12" y="801.3469">Obs.hasMember</text><text fill="#000000" font-family="sans-serif" font-size="13" lengthAdjust="spacing" textLength="23.0356" x="111.9188" y="628.7566">0..*</text><text fill="#000000" font-family="sans-serif" font-size="13" lengthAdjust="spacing" textLength="24.8066" x="140.9711" y="944.2981">1..1</text></g><!--link GenerischeBeobachtung to K?rperstruktur--><g id="link_GenerischeBeobachtung_K&#246;rperstruktur"><path codeLine="64" d="M400,924.08 C400,952.24 400,980.37 400,1003.97 " fill="none" id="GenerischeBeobachtung-K&#246;rperstruktur" style="stroke:#181818;stroke-width:1.0;"/><text fill="#000000" font-family="sans-serif" font-size="13" lengthAdjust="spacing" textLength="159.0913" x="240" y="960.0869">Obs.bodyStructure (R5!)</text><text fill="#000000" font-family="sans-serif" font-size="13" lengthAdjust="spacing" textLength="23.0356" x="376.3817" y="944.3191">0..*</text><text fill="#000000" font-family="sans-serif" font-size="13" lengthAdjust="spacing" textLength="24.8066" x="374.5698" y="992.7262">0..1</text></g><!--SRC=[hLNRJjj047ttLsp32w5AH1wGAeIGoALL19GeeNq0yR2n9_RAzgwx5o2XV4jV-Wtz0NwiiuwJh1E7M_k0HDOpisVEEJEhOiOpAcbApXW7FSs02AaZuQdbXwyY00KPQHtiEwT3ocDx-iazJ2047hIf7uTI61vqH28asRcBc0RFynEg53bz-YCpa4fB4siZoT5HMmJJ4VxqyISS7vC7Zv2Fv5p8BCByaC4XwI06EawW8xWFcIRN-yrcwoQFEnCnJPYYcWd-R21_-Xs1X5SaxCqJ7YOCak2H312juC0R_G2uPXCM5xb3c611pDiTu0b-gvFhLdxVe-Tbo08DmVO74-IYQ6nEmlne39BvaSQGBgCX5qepVmWP2e31EsSiZ7HdIdb1o0BE2Py8YKW28EVqwHUdKGekbX78M-R347uOK1RIggEHfjgel6d6mmLO- -MKQWY5hEIwjSotdwgo_u4fD_sxJPUXuQ5I6f84U2oufh5s2_IuZzRI8EkkkAS9uqpv4P6Gm2t5x-GA62O6sDWbI-65O4JEykQo_1ytsjOX0KZIapagX7T8c586Ic6B9jeWnXHLpSDMi2_62dN9wQXNcMoaJO34Z65cIddzb8R8jlqyhRjQz2q7cGITrym1bgvEgOm3SSTTZ8kXOo2nvtA5Lut2bS6vcJ7hm7H3sdKJ_nn8uKE0Grsl8gehOfEY5O1J7b4B-KHhX6_FLdS_ujzoR7ffDe78Ae0pqw4I1WdbousntTqdib1mcLyLzLcYqd2lmOd2lPH7xVzlhx-9oRhBnvADBy3HhEXZS8H7OXoh5Tou5_UmGQxo2zii2RX9Kv27fDllN9oZ9PIcY81ywtU9tIGCb2FUbZeZFx9xB1EApJkfB7OnM9wyNB8dxwmOrgPh3uRBK-dbs5Bq4bX201ytMMnTkrwomfabjSfktLiKscOh-yqXNiLM5FJ13AThuR3gULhFn6UtUkrkDFCkqwrVDqDcCyFjMbrVO_DGj1IEmZXlufOc1gxlRwh9BRIH42AAtR6L0rMhF_CEkzbpYU5jA_CTIzDDXPMnoetw8iqijQNTWzDMVgfhbjGQQPW6gTcmMlafH-iFcyfaTcWHG1_7c-mE3pxKjvHPLgcSvRoQ16KIxNdExYjo6jimT0Rh63olUbbijhC526hHZAWwXnHlsLQi10lBRaokhJ9sPtPEpby0]--></g></svg>