<svg xmlns="http://www.w3.org/2000/svg" xmlns:xlink="http://www.w3.org/1999/xlink" contentStyleType="text/css" height="962px" preserveAspectRatio="none" style="width:1812px;height:962px;background:#FFFFFF;" version="1.1" viewBox="0 0 1812 962" width="1812px" zoomAndPan="magnify"><defs/><g><!--cluster DICOM-Header--><g id="cluster_DICOM-Header"><path d="M8.5,6 L125.3281,6 A3.75,3.75 0 0 1 127.8281,8.5 L134.8281,28.2969 L1802.5,28.2969 A2.5,2.5 0 0 1 1805,30.7969 L1805,952.5 A2.5,2.5 0 0 1 1802.5,955 L8.5,955 A2.5,2.5 0 0 1 6,952.5 L6,8.5 A2.5,2.5 0 0 1 8.5,6 " fill="none" style="stroke:#000000;stroke-width:1.5;"/><line style="stroke:#000000;stroke-width:1.5;" x1="6" x2="134.8281" y1="28.2969" y2="28.2969"/><text fill="#000000" font-family="sans-serif" font-size="14" font-weight="bold" lengthAdjust="spacing" textLength="115.8281" x="10" y="20.9951">DICOM-Header</text></g><!--class Studie--><g id="elem_Studie"><rect codeLine="7" fill="#E0FFFF" height="284.4219" id="Studie" rx="2.5" ry="2.5" style="stroke:#181818;stroke-width:0.5;" width="436.7783" x="21.5" y="41"/><ellipse cx="188.5317" cy="61.1328" fill="#ADD1B2" rx="11" ry="11" style="stroke:#181818;stroke-width:1.0;"/><path d="M191.5005,66.7734 Q190.9224,67.0703 190.2817,67.2109 Q189.6411,67.3672 188.938,67.3672 Q186.438,67.3672 185.1099,65.7266 Q183.7974,64.0703 183.7974,60.9453 Q183.7974,57.8203 185.1099,56.1641 Q186.438,54.5078 188.938,54.5078 Q189.6411,54.5078 190.2817,54.6641 Q190.938,54.8203 191.5005,55.1172 L191.5005,57.8359 Q190.8755,57.2578 190.2817,56.9922 Q189.688,56.7109 189.063,56.7109 Q187.7192,56.7109 187.0317,57.7891 Q186.3442,58.8516 186.3442,60.9453 Q186.3442,63.0391 187.0317,64.1172 Q187.7192,65.1797 189.063,65.1797 Q189.688,65.1797 190.2817,64.9141 Q190.8755,64.6328 191.5005,64.0547 L191.5005,66.7734 Z " fill="#000000"/><text fill="#000000" font-family="sans-serif" font-size="12" font-style="italic" lengthAdjust="spacing" textLength="98.2148" x="207.0317" y="57.1387">&#171;ImagingStudy&#187;</text><text fill="#000000" font-family="sans-serif" font-size="14" lengthAdjust="spacing" textLength="44.6387" x="233.8198" y="72.9639">Studie</text><line style="stroke:#181818;stroke-width:0.5;" x1="22.5" x2="457.2783" y1="81.2656" y2="81.2656"/><ellipse cx="32.5" cy="94.9141" fill="none" rx="3" ry="3" style="stroke:#038048;stroke-width:1.0;"/><text fill="#000000" font-family="sans-serif" font-size="14" lengthAdjust="spacing" textLength="144.7441" x="41.5" y="98.2607">Status: Coding [1..1]</text><ellipse cx="32.5" cy="111.2109" fill="none" rx="3" ry="3" style="stroke:#038048;stroke-width:1.0;"/><text fill="#000000" font-family="sans-serif" font-size="14" lengthAdjust="spacing" textLength="181.1592" x="41.5" y="114.5576">Modalit&#228;ten: Coding [0..*]</text><ellipse cx="32.5" cy="127.5078" fill="none" rx="3" ry="3" style="stroke:#038048;stroke-width:1.0;"/><text fill="#000000" font-family="sans-serif" font-size="14" lengthAdjust="spacing" textLength="345.2764" x="41.5" y="130.8545">Personen-Identifikation: Reference(Patient) [1..1]</text><ellipse cx="32.5" cy="143.8047" fill="none" rx="3" ry="3" style="stroke:#038048;stroke-width:1.0;"/><text fill="#000000" font-family="sans-serif" font-size="14" lengthAdjust="spacing" textLength="393.4492" x="41.5" y="147.1514">Versorgungsstellenkontakt: Reference(Encounter) [0..1]</text><ellipse cx="32.5" cy="160.1016" fill="none" rx="3" ry="3" style="stroke:#038048;stroke-width:1.0;"/><text fill="#000000" font-family="sans-serif" font-size="14" lengthAdjust="spacing" textLength="166.2568" x="41.5" y="163.4482">Beginn: dateTime [0..1]</text><ellipse cx="32.5" cy="176.3984" fill="none" rx="3" ry="3" style="stroke:#038048;stroke-width:1.0;"/><text fill="#000000" font-family="sans-serif" font-size="14" lengthAdjust="spacing" textLength="410.7783" x="41.5" y="179.7451">Anfordernde Ma&#223;nahme: Reference(ServiceRequest) [0..*]</text><ellipse cx="32.5" cy="192.6953" fill="none" rx="3" ry="3" style="stroke:#038048;stroke-width:1.0;"/><text fill="#000000" font-family="sans-serif" font-size="14" lengthAdjust="spacing" textLength="345.0781" x="41.5" y="196.042">Quelle zum PACS Bild: Reference(Endpoint) [0..*]</text><ellipse cx="32.5" cy="208.9922" fill="none" rx="3" ry="3" style="stroke:#038048;stroke-width:1.0;"/><text fill="#000000" font-family="sans-serif" font-size="14" lengthAdjust="spacing" textLength="335.8018" x="41.5" y="212.3389">Anzahl an enhaltenen Serien: unsignedInt [0..1]</text><ellipse cx="32.5" cy="225.2891" fill="none" rx="3" ry="3" style="stroke:#038048;stroke-width:1.0;"/><text fill="#000000" font-family="sans-serif" font-size="14" lengthAdjust="spacing" textLength="397.5303" x="41.5" y="228.6357">Anzahl an enthaltenen SOP Instanzen: unsignedInt [0..1]</text><ellipse cx="32.5" cy="241.5859" fill="none" rx="3" ry="3" style="stroke:#038048;stroke-width:1.0;"/><text fill="#000000" font-family="sans-serif" font-size="14" lengthAdjust="spacing" textLength="352.1807" x="41.5" y="244.9326">Bildgebungsprozedur: Reference(Procedure) [0..*]</text><ellipse cx="32.5" cy="257.8828" fill="none" rx="3" ry="3" style="stroke:#038048;stroke-width:1.0;"/><text fill="#000000" font-family="sans-serif" font-size="14" lengthAdjust="spacing" textLength="297.1992" x="41.5" y="261.2295">Extension: Bildgebungsgrund: string [0..1]</text><ellipse cx="32.5" cy="274.1797" fill="none" rx="3" ry="3" style="stroke:#038048;stroke-width:1.0;"/><text fill="#000000" font-family="sans-serif" font-size="14" lengthAdjust="spacing" textLength="357.7656" x="41.5" y="277.5264">Indikation: Reference(Condition|Observation) [0..*]</text><ellipse cx="32.5" cy="290.4766" fill="none" rx="3" ry="3" style="stroke:#038048;stroke-width:1.0;"/><text fill="#000000" font-family="sans-serif" font-size="14" lengthAdjust="spacing" textLength="245.8682" x="41.5" y="293.8232">Studien-Beschreibung: string [0..1]</text><ellipse cx="32.5" cy="306.7734" fill="none" rx="3" ry="3" style="stroke:#038048;stroke-width:1.0;"/><text fill="#000000" font-family="sans-serif" font-size="14" lengthAdjust="spacing" textLength="235.4092" x="41.5" y="310.1201">DICOM-Serien: DICOM-Serie [0..*]</text><line style="stroke:#181818;stroke-width:0.5;" x1="22.5" x2="457.2783" y1="317.4219" y2="317.4219"/></g><!--class DICOMSerie--><g id="elem_DICOMSerie"><rect codeLine="24" fill="#F1F1F1" height="276.1563" id="DICOMSerie" rx="2.5" ry="2.5" style="stroke:#181818;stroke-width:0.5;" width="563.5576" x="211" y="405"/><ellipse cx="446.7578" cy="421" fill="#ADD1B2" rx="11" ry="11" style="stroke:#181818;stroke-width:1.0;"/><path d="M449.7266,426.6406 Q449.1484,426.9375 448.5078,427.0781 Q447.8672,427.2344 447.1641,427.2344 Q444.6641,427.2344 443.3359,425.5938 Q442.0234,423.9375 442.0234,420.8125 Q442.0234,417.6875 443.3359,416.0313 Q444.6641,414.375 447.1641,414.375 Q447.8672,414.375 448.5078,414.5313 Q449.1641,414.6875 449.7266,414.9844 L449.7266,417.7031 Q449.1016,417.125 448.5078,416.8594 Q447.9141,416.5781 447.2891,416.5781 Q445.9453,416.5781 445.2578,417.6563 Q444.5703,418.7188 444.5703,420.8125 Q444.5703,422.9063 445.2578,423.9844 Q445.9453,425.0469 447.2891,425.0469 Q447.9141,425.0469 448.5078,424.7813 Q449.1016,424.5 449.7266,423.9219 L449.7266,426.6406 Z " fill="#000000"/><text fill="#000000" font-family="sans-serif" font-size="14" lengthAdjust="spacing" textLength="83.542" x="467.2578" y="425.8467">DICOMSerie</text><line style="stroke:#181818;stroke-width:0.5;" x1="212" x2="773.5576" y1="437" y2="437"/><ellipse cx="222" cy="450.6484" fill="none" rx="3" ry="3" style="stroke:#038048;stroke-width:1.0;"/><text fill="#000000" font-family="sans-serif" font-size="14" lengthAdjust="spacing" textLength="138.8721" x="231" y="453.9951">Serien-UID: id [1..1]</text><ellipse cx="222" cy="466.9453" fill="none" rx="3" ry="3" style="stroke:#038048;stroke-width:1.0;"/><text fill="#000000" font-family="sans-serif" font-size="14" lengthAdjust="spacing" textLength="244.6104" x="231" y="470.292">Serien-Nummer: unsignedInt [0..1]</text><ellipse cx="222" cy="483.2422" fill="none" rx="3" ry="3" style="stroke:#038048;stroke-width:1.0;"/><text fill="#000000" font-family="sans-serif" font-size="14" lengthAdjust="spacing" textLength="165.5801" x="231" y="486.5889">Modalit&#228;t: Coding [1..1]</text><ellipse cx="222" cy="499.5391" fill="none" rx="3" ry="3" style="stroke:#038048;stroke-width:1.0;"/><text fill="#000000" font-family="sans-serif" font-size="14" lengthAdjust="spacing" textLength="231.2188" x="231" y="502.8857">Serienbeschreibung: string [0..1]</text><ellipse cx="222" cy="515.8359" fill="none" rx="3" ry="3" style="stroke:#038048;stroke-width:1.0;"/><text fill="#000000" font-family="sans-serif" font-size="14" lengthAdjust="spacing" textLength="422.1533" x="231" y="519.1826">Anzahl an in Serie enthaltenen Instanzen: unsignedInt [0..1]</text><ellipse cx="222" cy="532.1328" fill="none" rx="3" ry="3" style="stroke:#038048;stroke-width:1.0;"/><text fill="#000000" font-family="sans-serif" font-size="14" lengthAdjust="spacing" textLength="263.9014" x="231" y="535.4795">K&#246;rperregion(bodySite): Coding [0..1]</text><ellipse cx="222" cy="548.4297" fill="none" rx="3" ry="3" style="stroke:#038048;stroke-width:1.0;"/><text fill="#000000" font-family="sans-serif" font-size="14" lengthAdjust="spacing" textLength="180.79" x="231" y="551.7764">K&#246;rperseite: Coding [0..1]</text><ellipse cx="222" cy="564.7266" fill="none" rx="3" ry="3" style="stroke:#038048;stroke-width:1.0;"/><text fill="#000000" font-family="sans-serif" font-size="14" lengthAdjust="spacing" textLength="166.2568" x="231" y="568.0732">Beginn: dateTime [0..1]</text><ellipse cx="222" cy="581.0234" fill="none" rx="3" ry="3" style="stroke:#038048;stroke-width:1.0;"/><text fill="#000000" font-family="sans-serif" font-size="14" lengthAdjust="spacing" textLength="367.418" x="231" y="584.3701">Funktion des Ausf&#252;hrenden: CodeableConcept [0..1]</text><ellipse cx="222" cy="597.3203" fill="none" rx="3" ry="3" style="stroke:#038048;stroke-width:1.0;"/><text fill="#000000" font-family="sans-serif" font-size="14" lengthAdjust="spacing" textLength="227.9102" x="231" y="600.667">Akteur: Reference(Device) [1..1]</text><ellipse cx="222" cy="613.6172" fill="none" rx="3" ry="3" style="stroke:#038048;stroke-width:1.0;"/><text fill="#000000" font-family="sans-serif" font-size="14" lengthAdjust="spacing" textLength="320.3252" x="231" y="616.9639">Extension: Kontrastmittelgabe: boolean [0..1]</text><ellipse cx="222" cy="629.9141" fill="none" rx="3" ry="3" style="stroke:#038048;stroke-width:1.0;"/><text fill="#000000" font-family="sans-serif" font-size="14" lengthAdjust="spacing" textLength="537.5576" x="231" y="633.2607">Extension: Kontrastmitteldetails: Reference(Statement|Administration) [0..*]</text><ellipse cx="222" cy="646.2109" fill="none" rx="3" ry="3" style="stroke:#038048;stroke-width:1.0;"/><text fill="#000000" font-family="sans-serif" font-size="14" lengthAdjust="spacing" textLength="383.0244" x="231" y="649.5576">Extension: Modalit&#228;ten(DX,CR,MG,CT,MR,PT,NM) [0..1]</text><ellipse cx="222" cy="662.5078" fill="none" rx="3" ry="3" style="stroke:#038048;stroke-width:1.0;"/><text fill="#000000" font-family="sans-serif" font-size="14" lengthAdjust="spacing" textLength="229.8037" x="231" y="665.8545">DICOM-Instanzen: Instance [0..*]</text><line style="stroke:#181818;stroke-width:0.5;" x1="212" x2="773.5576" y1="673.1563" y2="673.1563"/></g><!--class DICOMInstanz--><g id="elem_DICOMInstanz"><rect codeLine="41" fill="#F1F1F1" height="178.375" id="DICOMInstanz" rx="2.5" ry="2.5" style="stroke:#181818;stroke-width:0.5;" width="362.7656" x="21.5" y="761"/><ellipse cx="149.4482" cy="777" fill="#ADD1B2" rx="11" ry="11" style="stroke:#181818;stroke-width:1.0;"/><path d="M152.417,782.6406 Q151.8389,782.9375 151.1982,783.0781 Q150.5576,783.2344 149.8545,783.2344 Q147.3545,783.2344 146.0264,781.5938 Q144.7139,779.9375 144.7139,776.8125 Q144.7139,773.6875 146.0264,772.0313 Q147.3545,770.375 149.8545,770.375 Q150.5576,770.375 151.1982,770.5313 Q151.8545,770.6875 152.417,770.9844 L152.417,773.7031 Q151.792,773.125 151.1982,772.8594 Q150.6045,772.5781 149.9795,772.5781 Q148.6357,772.5781 147.9482,773.6563 Q147.2607,774.7188 147.2607,776.8125 Q147.2607,778.9063 147.9482,779.9844 Q148.6357,781.0469 149.9795,781.0469 Q150.6045,781.0469 151.1982,780.7813 Q151.792,780.5 152.417,779.9219 L152.417,782.6406 Z " fill="#000000"/><text fill="#000000" font-family="sans-serif" font-size="14" lengthAdjust="spacing" textLength="98.3691" x="169.9482" y="781.8467">DICOMInstanz</text><line style="stroke:#181818;stroke-width:0.5;" x1="22.5" x2="383.2656" y1="793" y2="793"/><ellipse cx="32.5" cy="806.6484" fill="none" rx="3" ry="3" style="stroke:#038048;stroke-width:1.0;"/><text fill="#000000" font-family="sans-serif" font-size="14" lengthAdjust="spacing" textLength="177.625" x="41.5" y="809.9951">SOP-Instanz UID: id [1..1]</text><ellipse cx="32.5" cy="822.9453" fill="none" rx="3" ry="3" style="stroke:#038048;stroke-width:1.0;"/><text fill="#000000" font-family="sans-serif" font-size="14" lengthAdjust="spacing" textLength="178.3838" x="41.5" y="826.292">SOP-Klasse: Coding [1..1]</text><ellipse cx="32.5" cy="839.2422" fill="none" rx="3" ry="3" style="stroke:#038048;stroke-width:1.0;"/><text fill="#000000" font-family="sans-serif" font-size="14" lengthAdjust="spacing" textLength="250.5645" x="41.5" y="842.5889">Instanz-Nummer: unsignedInt [0..1]</text><ellipse cx="32.5" cy="855.5391" fill="none" rx="3" ry="3" style="stroke:#038048;stroke-width:1.0;"/><text fill="#000000" font-family="sans-serif" font-size="14" lengthAdjust="spacing" textLength="123.4707" x="41.5" y="858.8857">Titel: String [0..1]</text><ellipse cx="32.5" cy="871.8359" fill="none" rx="3" ry="3" style="stroke:#038048;stroke-width:1.0;"/><text fill="#000000" font-family="sans-serif" font-size="14" lengthAdjust="spacing" textLength="218.2715" x="41.5" y="875.1826">Extension: Bildtyp: string [0..1]</text><ellipse cx="32.5" cy="888.1328" fill="none" rx="3" ry="3" style="stroke:#038048;stroke-width:1.0;"/><text fill="#000000" font-family="sans-serif" font-size="14" lengthAdjust="spacing" textLength="316.4492" x="41.5" y="891.4795">Extension: Schichtdicke: Quantity[mm] [0..1]</text><ellipse cx="32.5" cy="904.4297" fill="none" rx="3" ry="3" style="stroke:#038048;stroke-width:1.0;"/><text fill="#000000" font-family="sans-serif" font-size="14" lengthAdjust="spacing" textLength="336.7656" x="41.5" y="907.7764">Extension: Pixelabstand(x): Quantity[mm] [0..1]</text><ellipse cx="32.5" cy="920.7266" fill="none" rx="3" ry="3" style="stroke:#038048;stroke-width:1.0;"/><text fill="#000000" font-family="sans-serif" font-size="14" lengthAdjust="spacing" textLength="336.7656" x="41.5" y="924.0732">Extension: Pixelabstand(y): Quantity[mm] [0..1]</text><line style="stroke:#181818;stroke-width:0.5;" x1="22.5" x2="383.2656" y1="931.375" y2="931.375"/></g><!--class Modalit?tMR--><g id="elem_Modalit&#228;tMR"><rect codeLine="52" fill="#FFFFE0" height="162.0781" id="Modalit&#228;tMR" rx="2.5" ry="2.5" style="stroke:#181818;stroke-width:0.5;" width="394.9971" x="1393.5" y="462"/><ellipse cx="1543.1216" cy="478" fill="#ADD1B2" rx="11" ry="11" style="stroke:#181818;stroke-width:1.0;"/><path d="M1546.0903,483.6406 Q1545.5122,483.9375 1544.8716,484.0781 Q1544.231,484.2344 1543.5278,484.2344 Q1541.0278,484.2344 1539.6997,482.5938 Q1538.3872,480.9375 1538.3872,477.8125 Q1538.3872,474.6875 1539.6997,473.0313 Q1541.0278,471.375 1543.5278,471.375 Q1544.231,471.375 1544.8716,471.5313 Q1545.5278,471.6875 1546.0903,471.9844 L1546.0903,474.7031 Q1545.4653,474.125 1544.8716,473.8594 Q1544.2778,473.5781 1543.6528,473.5781 Q1542.3091,473.5781 1541.6216,474.6563 Q1540.9341,475.7188 1540.9341,477.8125 Q1540.9341,479.9063 1541.6216,480.9844 Q1542.3091,482.0469 1543.6528,482.0469 Q1544.2778,482.0469 1544.8716,481.7813 Q1545.4653,481.5 1546.0903,480.9219 L1546.0903,483.6406 Z " fill="#000000"/><text fill="#000000" font-family="sans-serif" font-size="14" lengthAdjust="spacing" textLength="87.2539" x="1563.6216" y="482.8467">Modalit&#228;tMR</text><line style="stroke:#181818;stroke-width:0.5;" x1="1394.5" x2="1787.4971" y1="494" y2="494"/><ellipse cx="1404.5" cy="507.6484" fill="none" rx="3" ry="3" style="stroke:#038048;stroke-width:1.0;"/><text fill="#000000" font-family="sans-serif" font-size="14" lengthAdjust="spacing" textLength="267.5039" x="1413.5" y="510.9951">Scansequenz: CodeableConcept [0..1]</text><ellipse cx="1404.5" cy="523.9453" fill="none" rx="3" ry="3" style="stroke:#038048;stroke-width:1.0;"/><text fill="#000000" font-family="sans-serif" font-size="14" lengthAdjust="spacing" textLength="368.9971" x="1413.5" y="527.292">Scansequenz Untervariante: CodeableConcept [0..1]</text><ellipse cx="1404.5" cy="540.2422" fill="none" rx="3" ry="3" style="stroke:#038048;stroke-width:1.0;"/><text fill="#000000" font-family="sans-serif" font-size="14" lengthAdjust="spacing" textLength="297.8486" x="1413.5" y="543.5889">Magnetische Feldst&#228;rke: Quantity[T] [0..1]</text><ellipse cx="1404.5" cy="556.5391" fill="none" rx="3" ry="3" style="stroke:#038048;stroke-width:1.0;"/><text fill="#000000" font-family="sans-serif" font-size="14" lengthAdjust="spacing" textLength="235.7031" x="1413.5" y="559.8857">Echozeit (TE): Quantity[ms] [0..1]</text><ellipse cx="1404.5" cy="572.8359" fill="none" rx="3" ry="3" style="stroke:#038048;stroke-width:1.0;"/><text fill="#000000" font-family="sans-serif" font-size="14" lengthAdjust="spacing" textLength="281.9346" x="1413.5" y="576.1826">Repetitionszeit (TR): Quantity[ms] [0..1]</text><ellipse cx="1404.5" cy="589.1328" fill="none" rx="3" ry="3" style="stroke:#038048;stroke-width:1.0;"/><text fill="#000000" font-family="sans-serif" font-size="14" lengthAdjust="spacing" textLength="268.5771" x="1413.5" y="592.4795">Inversionszeit (TI): Quantity[ms] [0..1]</text><ellipse cx="1404.5" cy="605.4297" fill="none" rx="3" ry="3" style="stroke:#038048;stroke-width:1.0;"/><text fill="#000000" font-family="sans-serif" font-size="14" lengthAdjust="spacing" textLength="224.7314" x="1413.5" y="608.7764">Kippwinkel: Quantity[deg] [0..1]</text><line style="stroke:#181818;stroke-width:0.5;" x1="1394.5" x2="1787.4971" y1="616.0781" y2="616.0781"/></g><!--class Modalit?tCT--><g id="elem_Modalit&#228;tCT"><rect codeLine="62" fill="#FFFFE0" height="129.4844" id="Modalit&#228;tCT" rx="2.5" ry="2.5" style="stroke:#181818;stroke-width:0.5;" width="318.0996" x="535" y="785.5"/><ellipse cx="647.9126" cy="801.5" fill="#ADD1B2" rx="11" ry="11" style="stroke:#181818;stroke-width:1.0;"/><path d="M650.8813,807.1406 Q650.3032,807.4375 649.6626,807.5781 Q649.022,807.7344 648.3188,807.7344 Q645.8188,807.7344 644.4907,806.0938 Q643.1782,804.4375 643.1782,801.3125 Q643.1782,798.1875 644.4907,796.5313 Q645.8188,794.875 648.3188,794.875 Q649.022,794.875 649.6626,795.0313 Q650.3188,795.1875 650.8813,795.4844 L650.8813,798.2031 Q650.2563,797.625 649.6626,797.3594 Q649.0688,797.0781 648.4438,797.0781 Q647.1001,797.0781 646.4126,798.1563 Q645.7251,799.2188 645.7251,801.3125 Q645.7251,803.4063 646.4126,804.4844 Q647.1001,805.5469 648.4438,805.5469 Q649.0688,805.5469 649.6626,805.2813 Q650.2563,805 650.8813,804.4219 L650.8813,807.1406 Z " fill="#000000"/><text fill="#000000" font-family="sans-serif" font-size="14" lengthAdjust="spacing" textLength="83.7744" x="668.4126" y="806.3467">Modalit&#228;tCT</text><line style="stroke:#181818;stroke-width:0.5;" x1="536" x2="852.0996" y1="817.5" y2="817.5"/><ellipse cx="546" cy="831.1484" fill="none" rx="3" ry="3" style="stroke:#038048;stroke-width:1.0;"/><text fill="#000000" font-family="sans-serif" font-size="14" lengthAdjust="spacing" textLength="255.165" x="555" y="834.4951">CTDI Volumen: Quantity[mGy] [0..1]</text><ellipse cx="546" cy="847.4453" fill="none" rx="3" ry="3" style="stroke:#038048;stroke-width:1.0;"/><text fill="#000000" font-family="sans-serif" font-size="14" lengthAdjust="spacing" textLength="167.5625" x="555" y="850.792">KVP: Quantity[kV] [0..1]</text><ellipse cx="546" cy="863.7422" fill="none" rx="3" ry="3" style="stroke:#038048;stroke-width:1.0;"/><text fill="#000000" font-family="sans-serif" font-size="14" lengthAdjust="spacing" textLength="248.8281" x="555" y="867.0889">Expositionszeit: Quantity[ms] [0..1]</text><ellipse cx="546" cy="880.0391" fill="none" rx="3" ry="3" style="stroke:#038048;stroke-width:1.0;"/><text fill="#000000" font-family="sans-serif" font-size="14" lengthAdjust="spacing" textLength="225.7705" x="555" y="883.3857">Exposition: Quantity[mAs] [0..1]</text><ellipse cx="546" cy="896.3359" fill="none" rx="3" ry="3" style="stroke:#038048;stroke-width:1.0;"/><text fill="#000000" font-family="sans-serif" font-size="14" lengthAdjust="spacing" textLength="292.0996" x="555" y="899.6826">R&#246;ntgenr&#246;hrenstrom: Quantity[mA] [0..1]</text><line style="stroke:#181818;stroke-width:0.5;" x1="536" x2="852.0996" y1="906.9844" y2="906.9844"/></g><!--class Modalit?tDX--><g id="elem_Modalit&#228;tDX"><rect codeLine="70" fill="#FFFFE0" height="113.1875" id="Modalit&#228;tDX" rx="2.5" ry="2.5" style="stroke:#181818;stroke-width:0.5;" width="318.0996" x="1003" y="793.5"/><ellipse cx="1114.8906" cy="809.5" fill="#ADD1B2" rx="11" ry="11" style="stroke:#181818;stroke-width:1.0;"/><path d="M1117.8594,815.1406 Q1117.2813,815.4375 1116.6406,815.5781 Q1116,815.7344 1115.2969,815.7344 Q1112.7969,815.7344 1111.4688,814.0938 Q1110.1563,812.4375 1110.1563,809.3125 Q1110.1563,806.1875 1111.4688,804.5313 Q1112.7969,802.875 1115.2969,802.875 Q1116,802.875 1116.6406,803.0313 Q1117.2969,803.1875 1117.8594,803.4844 L1117.8594,806.2031 Q1117.2344,805.625 1116.6406,805.3594 Q1116.0469,805.0781 1115.4219,805.0781 Q1114.0781,805.0781 1113.3906,806.1563 Q1112.7031,807.2188 1112.7031,809.3125 Q1112.7031,811.4063 1113.3906,812.4844 Q1114.0781,813.5469 1115.4219,813.5469 Q1116.0469,813.5469 1116.6406,813.2813 Q1117.2344,813 1117.8594,812.4219 L1117.8594,815.1406 Z " fill="#000000"/><text fill="#000000" font-family="sans-serif" font-size="14" lengthAdjust="spacing" textLength="85.8184" x="1135.3906" y="814.3467">Modalit&#228;tDX</text><line style="stroke:#181818;stroke-width:0.5;" x1="1004" x2="1320.0996" y1="825.5" y2="825.5"/><ellipse cx="1014" cy="839.1484" fill="none" rx="3" ry="3" style="stroke:#038048;stroke-width:1.0;"/><text fill="#000000" font-family="sans-serif" font-size="14" lengthAdjust="spacing" textLength="167.5625" x="1023" y="842.4951">KVP: Quantity[kV] [0..1]</text><ellipse cx="1014" cy="855.4453" fill="none" rx="3" ry="3" style="stroke:#038048;stroke-width:1.0;"/><text fill="#000000" font-family="sans-serif" font-size="14" lengthAdjust="spacing" textLength="248.8281" x="1023" y="858.792">Expositionszeit: Quantity[ms] [0..1]</text><ellipse cx="1014" cy="871.7422" fill="none" rx="3" ry="3" style="stroke:#038048;stroke-width:1.0;"/><text fill="#000000" font-family="sans-serif" font-size="14" lengthAdjust="spacing" textLength="225.7705" x="1023" y="875.0889">Exposition: Quantity[mAs] [0..1]</text><ellipse cx="1014" cy="888.0391" fill="none" rx="3" ry="3" style="stroke:#038048;stroke-width:1.0;"/><text fill="#000000" font-family="sans-serif" font-size="14" lengthAdjust="spacing" textLength="292.0996" x="1023" y="891.3857">R&#246;ntgenr&#246;hrenstrom: Quantity[mA] [0..1]</text><line style="stroke:#181818;stroke-width:0.5;" x1="1004" x2="1320.0996" y1="898.6875" y2="898.6875"/></g><!--class Modalit?tCR--><g id="elem_Modalit&#228;tCR"><rect codeLine="77" fill="#FFFFE0" height="113.1875" id="Modalit&#228;tCR" rx="2.5" ry="2.5" style="stroke:#181818;stroke-width:0.5;" width="318.0996" x="1471" y="793.5"/><ellipse cx="1583.3247" cy="809.5" fill="#ADD1B2" rx="11" ry="11" style="stroke:#181818;stroke-width:1.0;"/><path d="M1586.2935,815.1406 Q1585.7153,815.4375 1585.0747,815.5781 Q1584.4341,815.7344 1583.731,815.7344 Q1581.231,815.7344 1579.9028,814.0938 Q1578.5903,812.4375 1578.5903,809.3125 Q1578.5903,806.1875 1579.9028,804.5313 Q1581.231,802.875 1583.731,802.875 Q1584.4341,802.875 1585.0747,803.0313 Q1585.731,803.1875 1586.2935,803.4844 L1586.2935,806.2031 Q1585.6685,805.625 1585.0747,805.3594 Q1584.481,805.0781 1583.856,805.0781 Q1582.5122,805.0781 1581.8247,806.1563 Q1581.1372,807.2188 1581.1372,809.3125 Q1581.1372,811.4063 1581.8247,812.4844 Q1582.5122,813.5469 1583.856,813.5469 Q1584.481,813.5469 1585.0747,813.2813 Q1585.6685,813 1586.2935,812.4219 L1586.2935,815.1406 Z " fill="#000000"/><text fill="#000000" font-family="sans-serif" font-size="14" lengthAdjust="spacing" textLength="84.9502" x="1603.8247" y="814.3467">Modalit&#228;tCR</text><line style="stroke:#181818;stroke-width:0.5;" x1="1472" x2="1788.0996" y1="825.5" y2="825.5"/><ellipse cx="1482" cy="839.1484" fill="none" rx="3" ry="3" style="stroke:#038048;stroke-width:1.0;"/><text fill="#000000" font-family="sans-serif" font-size="14" lengthAdjust="spacing" textLength="167.5625" x="1491" y="842.4951">KVP: Quantity[kV] [0..1]</text><ellipse cx="1482" cy="855.4453" fill="none" rx="3" ry="3" style="stroke:#038048;stroke-width:1.0;"/><text fill="#000000" font-family="sans-serif" font-size="14" lengthAdjust="spacing" textLength="248.8281" x="1491" y="858.792">Expositionszeit: Quantity[ms] [0..1]</text><ellipse cx="1482" cy="871.7422" fill="none" rx="3" ry="3" style="stroke:#038048;stroke-width:1.0;"/><text fill="#000000" font-family="sans-serif" font-size="14" lengthAdjust="spacing" textLength="225.7705" x="1491" y="875.0889">Exposition: Quantity[mAs] [0..1]</text><ellipse cx="1482" cy="888.0391" fill="none" rx="3" ry="3" style="stroke:#038048;stroke-width:1.0;"/><text fill="#000000" font-family="sans-serif" font-size="14" lengthAdjust="spacing" textLength="292.0996" x="1491" y="891.3857">R&#246;ntgenr&#246;hrenstrom: Quantity[mA] [0..1]</text><line style="stroke:#181818;stroke-width:0.5;" x1="1472" x2="1788.0996" y1="898.6875" y2="898.6875"/></g><!--class Modalit?tMG--><g id="elem_Modalit&#228;tMG"><rect codeLine="84" fill="#FFFFE0" height="129.4844" id="Modalit&#228;tMG" rx="2.5" ry="2.5" style="stroke:#181818;stroke-width:0.5;" width="318.0996" x="925" y="478.5"/><ellipse cx="1035.6123" cy="494.5" fill="#ADD1B2" rx="11" ry="11" style="stroke:#181818;stroke-width:1.0;"/><path d="M1038.5811,500.1406 Q1038.0029,500.4375 1037.3623,500.5781 Q1036.7217,500.7344 1036.0186,500.7344 Q1033.5186,500.7344 1032.1904,499.0938 Q1030.8779,497.4375 1030.8779,494.3125 Q1030.8779,491.1875 1032.1904,489.5313 Q1033.5186,487.875 1036.0186,487.875 Q1036.7217,487.875 1037.3623,488.0313 Q1038.0186,488.1875 1038.5811,488.4844 L1038.5811,491.2031 Q1037.9561,490.625 1037.3623,490.3594 Q1036.7686,490.0781 1036.1436,490.0781 Q1034.7998,490.0781 1034.1123,491.1563 Q1033.4248,492.2188 1033.4248,494.3125 Q1033.4248,496.4063 1034.1123,497.4844 Q1034.7998,498.5469 1036.1436,498.5469 Q1036.7686,498.5469 1037.3623,498.2813 Q1037.9561,498 1038.5811,497.4219 L1038.5811,500.1406 Z " fill="#000000"/><text fill="#000000" font-family="sans-serif" font-size="14" lengthAdjust="spacing" textLength="88.375" x="1056.1123" y="499.3467">Modalit&#228;tMG</text><line style="stroke:#181818;stroke-width:0.5;" x1="926" x2="1242.0996" y1="510.5" y2="510.5"/><ellipse cx="936" cy="524.1484" fill="none" rx="3" ry="3" style="stroke:#038048;stroke-width:1.0;"/><text fill="#000000" font-family="sans-serif" font-size="14" lengthAdjust="spacing" textLength="167.5625" x="945" y="527.4951">KVP: Quantity[kV] [0..1]</text><ellipse cx="936" cy="540.4453" fill="none" rx="3" ry="3" style="stroke:#038048;stroke-width:1.0;"/><text fill="#000000" font-family="sans-serif" font-size="14" lengthAdjust="spacing" textLength="248.8281" x="945" y="543.792">Expositionszeit: Quantity[ms] [0..1]</text><ellipse cx="936" cy="556.7422" fill="none" rx="3" ry="3" style="stroke:#038048;stroke-width:1.0;"/><text fill="#000000" font-family="sans-serif" font-size="14" lengthAdjust="spacing" textLength="225.7705" x="945" y="560.0889">Exposition: Quantity[mAs] [0..1]</text><ellipse cx="936" cy="573.0391" fill="none" rx="3" ry="3" style="stroke:#038048;stroke-width:1.0;"/><text fill="#000000" font-family="sans-serif" font-size="14" lengthAdjust="spacing" textLength="292.0996" x="945" y="576.3857">R&#246;ntgenr&#246;hrenstrom: Quantity[mA] [0..1]</text><ellipse cx="936" cy="589.3359" fill="none" rx="3" ry="3" style="stroke:#038048;stroke-width:1.0;"/><text fill="#000000" font-family="sans-serif" font-size="14" lengthAdjust="spacing" textLength="263.6074" x="945" y="592.6826">Blickposition: CodeableConcept [0..1]</text><line style="stroke:#181818;stroke-width:0.5;" x1="926" x2="1242.0996" y1="599.9844" y2="599.9844"/></g><!--class Modalit?tNM--><g id="elem_Modalit&#228;tNM"><rect codeLine="92" fill="#FFFFE0" height="145.7813" id="Modalit&#228;tNM" rx="2.5" ry="2.5" style="stroke:#181818;stroke-width:0.5;" width="364.8711" x="1123.5" y="110"/><ellipse cx="1257.686" cy="126" fill="#ADD1B2" rx="11" ry="11" style="stroke:#181818;stroke-width:1.0;"/><path d="M1260.6548,131.6406 Q1260.0767,131.9375 1259.436,132.0781 Q1258.7954,132.2344 1258.0923,132.2344 Q1255.5923,132.2344 1254.2642,130.5938 Q1252.9517,128.9375 1252.9517,125.8125 Q1252.9517,122.6875 1254.2642,121.0313 Q1255.5923,119.375 1258.0923,119.375 Q1258.7954,119.375 1259.436,119.5313 Q1260.0923,119.6875 1260.6548,119.9844 L1260.6548,122.7031 Q1260.0298,122.125 1259.436,121.8594 Q1258.8423,121.5781 1258.2173,121.5781 Q1256.8735,121.5781 1256.186,122.6563 Q1255.4985,123.7188 1255.4985,125.8125 Q1255.4985,127.9063 1256.186,128.9844 Q1256.8735,130.0469 1258.2173,130.0469 Q1258.8423,130.0469 1259.436,129.7813 Q1260.0298,129.5 1260.6548,128.9219 L1260.6548,131.6406 Z " fill="#000000"/><text fill="#000000" font-family="sans-serif" font-size="14" lengthAdjust="spacing" textLength="87.999" x="1278.186" y="130.8467">Modalit&#228;tNM</text><line style="stroke:#181818;stroke-width:0.5;" x1="1124.5" x2="1487.3711" y1="142" y2="142"/><ellipse cx="1134.5" cy="155.6484" fill="none" rx="3" ry="3" style="stroke:#038048;stroke-width:1.0;"/><text fill="#000000" font-family="sans-serif" font-size="14" lengthAdjust="spacing" textLength="294.4717" x="1143.5" y="158.9951">Radiopharmakon: CodeableConcept [0..1]</text><ellipse cx="1134.5" cy="171.9453" fill="none" rx="3" ry="3" style="stroke:#038048;stroke-width:1.0;"/><text fill="#000000" font-family="sans-serif" font-size="14" lengthAdjust="spacing" textLength="257.1338" x="1143.5" y="175.292">Radionuklid: CodeableConcept [0..1]</text><ellipse cx="1134.5" cy="188.2422" fill="none" rx="3" ry="3" style="stroke:#038048;stroke-width:1.0;"/><text fill="#000000" font-family="sans-serif" font-size="14" lengthAdjust="spacing" textLength="284.5938" x="1143.5" y="191.5889">Tracer Expositionszeit: Quantity[s] [0..1]</text><ellipse cx="1134.5" cy="204.5391" fill="none" rx="3" ry="3" style="stroke:#038048;stroke-width:1.0;"/><text fill="#000000" font-family="sans-serif" font-size="14" lengthAdjust="spacing" textLength="304.8555" x="1143.5" y="207.8857">Skalierungseinheit: CodeableConcept [0..1]</text><ellipse cx="1134.5" cy="220.8359" fill="none" rx="3" ry="3" style="stroke:#038048;stroke-width:1.0;"/><text fill="#000000" font-family="sans-serif" font-size="14" lengthAdjust="spacing" textLength="338.8711" x="1143.5" y="224.1826">Gesamte Radionukliddosis: Quantity[MBq] [0..1]</text><ellipse cx="1134.5" cy="237.1328" fill="none" rx="3" ry="3" style="stroke:#038048;stroke-width:1.0;"/><text fill="#000000" font-family="sans-serif" font-size="14" lengthAdjust="spacing" textLength="225.7979" x="1143.5" y="240.4795">Halbwertszeit: Quantity[s] [0..1]</text><line style="stroke:#181818;stroke-width:0.5;" x1="1124.5" x2="1487.3711" y1="247.7813" y2="247.7813"/></g><!--class Modalit?tPT--><g id="elem_Modalit&#228;tPT"><rect codeLine="101" fill="#FFFFE0" height="162.0781" id="Modalit&#228;tPT" rx="2.5" ry="2.5" style="stroke:#181818;stroke-width:0.5;" width="364.8711" x="608.5" y="102"/><ellipse cx="745.4648" cy="118" fill="#ADD1B2" rx="11" ry="11" style="stroke:#181818;stroke-width:1.0;"/><path d="M748.4336,123.6406 Q747.8555,123.9375 747.2148,124.0781 Q746.5742,124.2344 745.8711,124.2344 Q743.3711,124.2344 742.043,122.5938 Q740.7305,120.9375 740.7305,117.8125 Q740.7305,114.6875 742.043,113.0313 Q743.3711,111.375 745.8711,111.375 Q746.5742,111.375 747.2148,111.5313 Q747.8711,111.6875 748.4336,111.9844 L748.4336,114.7031 Q747.8086,114.125 747.2148,113.8594 Q746.6211,113.5781 745.9961,113.5781 Q744.6523,113.5781 743.9648,114.6563 Q743.2773,115.7188 743.2773,117.8125 Q743.2773,119.9063 743.9648,120.9844 Q744.6523,122.0469 745.9961,122.0469 Q746.6211,122.0469 747.2148,121.7813 Q747.8086,121.5 748.4336,120.9219 L748.4336,123.6406 Z " fill="#000000"/><text fill="#000000" font-family="sans-serif" font-size="14" lengthAdjust="spacing" textLength="82.4414" x="765.9648" y="122.8467">Modalit&#228;tPT</text><line style="stroke:#181818;stroke-width:0.5;" x1="609.5" x2="972.3711" y1="134" y2="134"/><ellipse cx="619.5" cy="147.6484" fill="none" rx="3" ry="3" style="stroke:#038048;stroke-width:1.0;"/><text fill="#000000" font-family="sans-serif" font-size="14" lengthAdjust="spacing" textLength="294.4717" x="628.5" y="150.9951">Radiopharmakon: CodeableConcept [0..1]</text><ellipse cx="619.5" cy="163.9453" fill="none" rx="3" ry="3" style="stroke:#038048;stroke-width:1.0;"/><text fill="#000000" font-family="sans-serif" font-size="14" lengthAdjust="spacing" textLength="257.1338" x="628.5" y="167.292">Radionuklid: CodeableConcept [0..1]</text><ellipse cx="619.5" cy="180.2422" fill="none" rx="3" ry="3" style="stroke:#038048;stroke-width:1.0;"/><text fill="#000000" font-family="sans-serif" font-size="14" lengthAdjust="spacing" textLength="284.5938" x="628.5" y="183.5889">Tracer Expositionszeit: Quantity[s] [0..1]</text><ellipse cx="619.5" cy="196.5391" fill="none" rx="3" ry="3" style="stroke:#038048;stroke-width:1.0;"/><text fill="#000000" font-family="sans-serif" font-size="14" lengthAdjust="spacing" textLength="304.8555" x="628.5" y="199.8857">Skalierungseinheit: CodeableConcept [0..1]</text><ellipse cx="619.5" cy="212.8359" fill="none" rx="3" ry="3" style="stroke:#038048;stroke-width:1.0;"/><text fill="#000000" font-family="sans-serif" font-size="14" lengthAdjust="spacing" textLength="338.8711" x="628.5" y="216.1826">Gesamte Radionukliddosis: Quantity[MBq] [0..1]</text><ellipse cx="619.5" cy="229.1328" fill="none" rx="3" ry="3" style="stroke:#038048;stroke-width:1.0;"/><text fill="#000000" font-family="sans-serif" font-size="14" lengthAdjust="spacing" textLength="225.7979" x="628.5" y="232.4795">Halbwertszeit: Quantity[s] [0..1]</text><ellipse cx="619.5" cy="245.4297" fill="none" rx="3" ry="3" style="stroke:#038048;stroke-width:1.0;"/><text fill="#000000" font-family="sans-serif" font-size="14" lengthAdjust="spacing" textLength="160.3301" x="628.5" y="248.7764">Serientyp: String [0..1]</text><line style="stroke:#181818;stroke-width:0.5;" x1="609.5" x2="972.3711" y1="256.0781" y2="256.0781"/></g><!--link DICOMSerie to DICOMInstanz--><g id="link_DICOMSerie_DICOMInstanz"><path codeLine="112" d="M297.75,681.23 C297.75,708.29 297.75,735.98 297.75,760.91 " fill="none" id="DICOMSerie-DICOMInstanz" style="stroke:#181818;stroke-width:1.0;"/><text fill="#000000" font-family="sans-serif" font-size="13" lengthAdjust="spacing" textLength="119.0186" x="177.75" y="717.1369">ISt.series.instance</text><text fill="#000000" font-family="sans-serif" font-size="13" lengthAdjust="spacing" textLength="24.8066" x="262.4502" y="701.2659">1..1</text><text fill="#000000" font-family="sans-serif" font-size="13" lengthAdjust="spacing" textLength="23.0356" x="281.6553" y="749.968">0..*</text></g><!--link DICOMSerie to Modalit?tMR--><g id="link_DICOMSerie_Modalit&#228;tMR"><path codeLine="113" d="M775.05,471 C968.69,471 1220.89,471 1393.34,471 " fill="none" id="DICOMSerie-Modalit&#228;tMR" style="stroke:#181818;stroke-width:1.0;"/><text fill="#000000" font-family="sans-serif" font-size="13" lengthAdjust="spacing" textLength="24.8066" x="782.8773" y="465.9549">1..1</text><text fill="#000000" font-family="sans-serif" font-size="13" lengthAdjust="spacing" textLength="24.8066" x="1360.512" y="464.7141">0..1</text></g><!--link DICOMSerie to Modalit?tCT--><g id="link_DICOMSerie_Modalit&#228;tCT"><path codeLine="114" d="M655,681.23 C655,717.52 655,754.96 655,785.32 " fill="none" id="DICOMSerie-Modalit&#228;tCT" style="stroke:#181818;stroke-width:1.0;"/><text fill="#000000" font-family="sans-serif" font-size="13" lengthAdjust="spacing" textLength="24.8066" x="639.2373" y="701.2659">1..1</text><text fill="#000000" font-family="sans-serif" font-size="13" lengthAdjust="spacing" textLength="24.8066" x="625.4605" y="774.473">0..1</text></g><!--link DICOMSerie to Modalit?tDX--><g id="link_DICOMSerie_Modalit&#228;tDX"><path codeLine="115" d="M775.29,662 C942.9,662 1123,662 1123,662 C1123,662 1123,737.98 1123,793.34 " fill="none" id="DICOMSerie-Modalit&#228;tDX" style="stroke:#181818;stroke-width:1.0;"/><text fill="#000000" font-family="sans-serif" font-size="13" lengthAdjust="spacing" textLength="24.8066" x="782.2021" y="661.6799">1..1</text><text fill="#000000" font-family="sans-serif" font-size="13" lengthAdjust="spacing" textLength="24.8066" x="1092.8275" y="782.5841">0..1</text></g><!--link DICOMSerie to Modalit?tCR--><g id="link_DICOMSerie_Modalit&#228;tCR"><path codeLine="116" d="M775.09,643 C1111.74,643 1629.75,643 1629.75,643 C1629.75,643 1629.75,732.15 1629.75,793.44 " fill="none" id="DICOMSerie-Modalit&#228;tCR" style="stroke:#181818;stroke-width:1.0;"/><text fill="#000000" font-family="sans-serif" font-size="13" lengthAdjust="spacing" textLength="24.8066" x="782.9184" y="642.5236">1..1</text><text fill="#000000" font-family="sans-serif" font-size="13" lengthAdjust="spacing" textLength="24.8066" x="1604.2258" y="782.2957">0..1</text></g><!--link DICOMSerie to Modalit?tMG--><g id="link_DICOMSerie_Modalit&#228;tMG"><path codeLine="117" d="M775.09,543 C826.47,543 878.4,543 924.64,543 " fill="none" id="DICOMSerie-Modalit&#228;tMG" style="stroke:#181818;stroke-width:1.0;"/><text fill="#000000" font-family="sans-serif" font-size="13" lengthAdjust="spacing" textLength="24.8066" x="782.9184" y="539.8674">1..1</text><text fill="#000000" font-family="sans-serif" font-size="13" lengthAdjust="spacing" textLength="24.8066" x="892.3569" y="539.6951">0..1</text></g><!--link Modalit?tNM to DICOMSerie--><g id="link_Modalit&#228;tNM_DICOMSerie"><path codeLine="118" d="M1183.25,256.27 C1183.25,330.36 1183.25,434 1183.25,434 C1183.25,434 965.99,434 775.24,434 " fill="none" id="Modalit&#228;tNM-DICOMSerie" style="stroke:#181818;stroke-width:1.0;"/><text fill="#000000" font-family="sans-serif" font-size="13" lengthAdjust="spacing" textLength="24.8066" x="1146.8709" y="275.7991">0..1</text><text fill="#000000" font-family="sans-serif" font-size="13" lengthAdjust="spacing" textLength="24.8066" x="782.1509" y="428.3362">1..1</text></g><!--link Modalit?tPT to DICOMSerie--><g id="link_Modalit&#228;tPT_DICOMSerie"><path codeLine="119" d="M691.75,264.24 C691.75,305.72 691.75,357.32 691.75,404.82 " fill="none" id="Modalit&#228;tPT-DICOMSerie" style="stroke:#181818;stroke-width:1.0;"/><text fill="#000000" font-family="sans-serif" font-size="13" lengthAdjust="spacing" textLength="24.8066" x="657.8835" y="284.2127">0..1</text><text fill="#000000" font-family="sans-serif" font-size="13" lengthAdjust="spacing" textLength="24.8066" x="677.997" y="393.9194">1..1</text></g><!--link Studie to DICOMSerie--><g id="link_Studie_DICOMSerie"><path codeLine="121" d="M334.75,325.02 C334.75,351.28 334.75,378.66 334.75,404.79 " fill="none" id="Studie-DICOMSerie" style="stroke:#181818;stroke-width:1.0;"/><text fill="#000000" font-family="sans-serif" font-size="13" lengthAdjust="spacing" textLength="59.814" x="274.75" y="360.9769">ISt.series</text><text fill="#000000" font-family="sans-serif" font-size="13" lengthAdjust="spacing" textLength="24.8066" x="315.3035" y="345.2559">1..1</text><text fill="#000000" font-family="sans-serif" font-size="13" lengthAdjust="spacing" textLength="23.0356" x="302.4799" y="393.8877">0..*</text></g><!--link Modalit?tPT to Modalit?tNM--><!--SRC=[xLVDRjiu4BxxAOZq4czjepqii0YA0ewSfaRgn9NL88iW1rgSI8GaKYMf94wRPzdBFaDEU_EBxL2MOogL5MDl0VPcSRxv_sP8wuIBd2gQaIzSW5daGAGoiUpe9y6fPA0X9-z_V-US-bGazlGFzp2520Gxf64IALa8vibKAlBcDkO6EfqSpsa4P6yqziuc_Sz06QWzygD3I9XIhSdC58m3-V1XdD68YyX-Bpv-96- -y2WsteAA4lmMWTGK-e1uaY6CNBuV3DvVbPA9P3JbPlct0R6HlniCVbl9VrnpIDa3cOBIKe3eZna8mwzvGWsNgEB3DIWG8UnFyGHbNTVyMltSggke497M1j8KH2A5eObn3Ho948jWG7NB22eJXu2feID63GGy0rUsDZyKrr9XSGG3Cg7BlmIDCt1Dpq3Ty11y-5w0Djsc3ByMDYvoNsHaElHcv92dh1uTooKNTUMXkATnIh3G86AQOX5147J6RJKBeNaaW8s5SODsTSn6wMnAna8RAkvRTDV1sk0YcDjwvahU0ojKhHLAXlOCQi4UtQ4hNNRDqOyK4k-0QAFMhN_cQonOGxSzYSVsyEVPN6DrIq3DtOgTedy8EemLSEkjoS-AtUkYELyROm-T9ywNyfMuudQfsFys7XqGpbpoLPBJ8ij0RItfPWAQvcDbO_v22fkMyghzjTxktjUJvQFAGIdal1JxSyaMCrm5tTfaLYeLL0C2ckHjS_Ef48dj5y5DHOQ5lbx-W-dXzAns0D1v2jZW4FB6A8U9WJhXHc37gpRw3jjESDOLrIRZ1eS_edCCU2vb2bYm1lDRDHaOobDT6spSR91XiNyEMSO5nzxyoiG6m-xUsnzTz3o_DpdkUK5lulUcGUzqqlsLeauRLp_35efMu3L9pwPhTTB4L1IVM5reuc2b-1AH0oH2Ue1ZzvoTp-OUBwqc3ZkeMHZpC3QCXma6zBMWkF7DuZBBhbvervJVGKhdDbosVzVzxxgBhRfEdJSzdFZLdVSdxd1vkovwI8Ms6r_SjzBQmP5lzlwveOgZRsZLcb3iWU6u681ymcGq1g9gzGgQKmvZNDZSaFtWg9QbReJxaACNIsbTQVaxQ8t53Qu6HsdSedJ2y_oMYyIovmd387gfwbxGL7Kl68t9kKoBp0xAnkVnekxqVEf8a_EhEXTpgJT9Rmzz0tGnmph8NpuAWmyjjNoqMmwfBxCQt4sKD6KwkcZAz5MbuFclFeN9yIjA0I_W5FVdnkhMLTASxEcaALcVCYxpcAgC9hBziYwXeaXIpbfnWQ8Xg9PArMimIp10KFRb25p49RJ5-Z5ecXbmes7eHpls9uVVQnu-qtH-2ygqnT5SisdmVyrQuoWVi-Nz__oLyD315U-yhVViysEFzFjapxvmzcgF6dp_pCn0Mw0UyEefrAIjLkhuqxshj_kf0RrWH-3eObUB_iv17ZSXYmRawMHNv3JeTAf_xCtLBKsujUrqQjpkNyR8111N6B4RmBy0]--></g></svg>