<svg xmlns="http://www.w3.org/2000/svg" xmlns:xlink="http://www.w3.org/1999/xlink" contentStyleType="text/css" height="1425px" preserveAspectRatio="none" style="width:1247px;height:1425px;background:#FFFFFF;" version="1.1" viewBox="0 0 1247 1425" width="1247px" zoomAndPan="magnify"><defs/><g><!--cluster Befund--><g id="cluster_Befund"><path d="M102,6 L159.2119,6 A3.75,3.75 0 0 1 161.7119,8.5 L168.7119,28.2969 L1147,28.2969 A2.5,2.5 0 0 1 1149.5,30.7969 L1149.5,1254.5 A2.5,2.5 0 0 1 1147,1257 L102,1257 A2.5,2.5 0 0 1 99.5,1254.5 L99.5,8.5 A2.5,2.5 0 0 1 102,6 " fill="none" style="stroke:#000000;stroke-width:1.5;"/><line style="stroke:#000000;stroke-width:1.5;" x1="99.5" x2="168.7119" y1="28.2969" y2="28.2969"/><text fill="#000000" font-family="sans-serif" font-size="14" font-weight="bold" lengthAdjust="spacing" textLength="56.2119" x="103.5" y="20.9951">Befund</text></g><!--cluster Generisch--><g id="cluster_Generisch"><path d="M379,898 L458.75,898 A3.75,3.75 0 0 1 461.25,900.5 L468.25,920.2969 L942,920.2969 A2.5,2.5 0 0 1 944.5,922.7969 L944.5,1230.5 A2.5,2.5 0 0 1 942,1233 L379,1233 A2.5,2.5 0 0 1 376.5,1230.5 L376.5,900.5 A2.5,2.5 0 0 1 379,898 " fill="none" style="stroke:#000000;stroke-width:1.5;"/><line style="stroke:#000000;stroke-width:1.5;" x1="376.5" x2="468.25" y1="920.2969" y2="920.2969"/><text fill="#000000" font-family="sans-serif" font-size="14" font-weight="bold" lengthAdjust="spacing" textLength="78.75" x="380.5" y="912.9951">Generisch</text></g><!--cluster Semistruktur--><g id="cluster_Semistruktur"><path d="M660,49 L764.7354,49 A3.75,3.75 0 0 1 767.2354,51.5 L774.2354,71.2969 L1123,71.2969 A2.5,2.5 0 0 1 1125.5,73.7969 L1125.5,485.5 A2.5,2.5 0 0 1 1123,488 L660,488 A2.5,2.5 0 0 1 657.5,485.5 L657.5,51.5 A2.5,2.5 0 0 1 660,49 " fill="none" style="stroke:#000000;stroke-width:1.5;"/><line style="stroke:#000000;stroke-width:1.5;" x1="657.5" x2="774.2354" y1="71.2969" y2="71.2969"/><text fill="#000000" font-family="sans-serif" font-size="14" font-weight="bold" lengthAdjust="spacing" textLength="103.7354" x="661.5" y="63.9951">Semistruktur</text></g><!--class Befundbericht--><g id="elem_Befundbericht"><rect codeLine="14" fill="#E0FFFF" height="300.7188" id="Befundbericht" rx="2.5" ry="2.5" style="stroke:#181818;stroke-width:0.5;" width="484.7393" x="228" y="552"/><ellipse cx="408.8638" cy="572.1328" fill="#ADD1B2" rx="11" ry="11" style="stroke:#181818;stroke-width:1.0;"/><path d="M411.8325,577.7734 Q411.2544,578.0703 410.6138,578.2109 Q409.9731,578.3672 409.27,578.3672 Q406.77,578.3672 405.4419,576.7266 Q404.1294,575.0703 404.1294,571.9453 Q404.1294,568.8203 405.4419,567.1641 Q406.77,565.5078 409.27,565.5078 Q409.9731,565.5078 410.6138,565.6641 Q411.27,565.8203 411.8325,566.1172 L411.8325,568.8359 Q411.2075,568.2578 410.6138,567.9922 Q410.02,567.7109 409.395,567.7109 Q408.0513,567.7109 407.3638,568.7891 Q406.6763,569.8516 406.6763,571.9453 Q406.6763,574.0391 407.3638,575.1172 Q408.0513,576.1797 409.395,576.1797 Q410.02,576.1797 410.6138,575.9141 Q411.2075,575.6328 411.8325,575.0547 L411.8325,577.7734 Z " fill="#000000"/><text fill="#000000" font-family="sans-serif" font-size="12" font-style="italic" lengthAdjust="spacing" textLength="118.5117" x="427.3638" y="568.1387">&#171;DiagnosticReport&#187;</text><text fill="#000000" font-family="sans-serif" font-size="14" lengthAdjust="spacing" textLength="98.9844" x="437.1274" y="583.9639">Befundbericht</text><line style="stroke:#181818;stroke-width:0.5;" x1="229" x2="711.7393" y1="592.2656" y2="592.2656"/><ellipse cx="239" cy="605.9141" fill="none" rx="3" ry="3" style="stroke:#038048;stroke-width:1.0;"/><text fill="#000000" font-family="sans-serif" font-size="14" lengthAdjust="spacing" textLength="405.0225" x="248" y="609.2607">Anfordende Ma&#223;nahme: Reference(ServiceRequest) [0..*]</text><ellipse cx="239" cy="622.2109" fill="none" rx="3" ry="3" style="stroke:#038048;stroke-width:1.0;"/><text fill="#000000" font-family="sans-serif" font-size="14" lengthAdjust="spacing" textLength="144.7441" x="248" y="625.5576">Status: Coding [1..1]</text><ellipse cx="239" cy="638.5078" fill="none" rx="3" ry="3" style="stroke:#038048;stroke-width:1.0;"/><text fill="#000000" font-family="sans-serif" font-size="14" lengthAdjust="spacing" textLength="240.6318" x="248" y="641.8545">Kategorie: CodeableConcept [1..*]</text><ellipse cx="239" cy="654.8047" fill="none" rx="3" ry="3" style="stroke:#038048;stroke-width:1.0;"/><text fill="#000000" font-family="sans-serif" font-size="14" lengthAdjust="spacing" textLength="135.9736" x="248" y="658.1514">Code: Coding [1..1]</text><ellipse cx="239" cy="671.1016" fill="none" rx="3" ry="3" style="stroke:#038048;stroke-width:1.0;"/><text fill="#000000" font-family="sans-serif" font-size="14" lengthAdjust="spacing" textLength="345.2764" x="248" y="674.4482">Personen-Identifikation: Reference(Patient) [1..1]</text><ellipse cx="239" cy="687.3984" fill="none" rx="3" ry="3" style="stroke:#038048;stroke-width:1.0;"/><text fill="#000000" font-family="sans-serif" font-size="14" lengthAdjust="spacing" textLength="393.4492" x="248" y="690.7451">Versorgungsstellenkontakt: Reference(Encounter) [0..1]</text><ellipse cx="239" cy="703.6953" fill="none" rx="3" ry="3" style="stroke:#038048;stroke-width:1.0;"/><text fill="#000000" font-family="sans-serif" font-size="14" lengthAdjust="spacing" textLength="274.2988" x="248" y="707.042">Klinisch relevante Zeit: dateTime [0..1]</text><ellipse cx="239" cy="719.9922" fill="none" rx="3" ry="3" style="stroke:#038048;stroke-width:1.0;"/><text fill="#000000" font-family="sans-serif" font-size="14" lengthAdjust="spacing" textLength="277.8193" x="248" y="723.3389">Klinisch relevante Periode: period [0..1]</text><ellipse cx="239" cy="736.2891" fill="none" rx="3" ry="3" style="stroke:#038048;stroke-width:1.0;"/><text fill="#000000" font-family="sans-serif" font-size="14" lengthAdjust="spacing" textLength="226.2559" x="248" y="739.6357">Zeit der Erstellung: issued [0..1]</text><ellipse cx="239" cy="752.5859" fill="none" rx="3" ry="3" style="stroke:#038048;stroke-width:1.0;"/><text fill="#000000" font-family="sans-serif" font-size="14" lengthAdjust="spacing" textLength="309.9004" x="248" y="755.9326">Beobachtung: Reference(Observation) [0..*]</text><ellipse cx="239" cy="768.8828" fill="none" rx="3" ry="3" style="stroke:#038048;stroke-width:1.0;"/><text fill="#000000" font-family="sans-serif" font-size="14" lengthAdjust="spacing" textLength="325.1309" x="248" y="772.2295">Studienbezug: Reference(ImagingStudy) [1..*]</text><ellipse cx="239" cy="785.1797" fill="none" rx="3" ry="3" style="stroke:#038048;stroke-width:1.0;"/><text fill="#000000" font-family="sans-serif" font-size="14" lengthAdjust="spacing" textLength="347.2109" x="248" y="788.5264">Interpretation der Beobachtung: markdown [0..1]</text><ellipse cx="239" cy="801.4766" fill="none" rx="3" ry="3" style="stroke:#038048;stroke-width:1.0;"/><text fill="#000000" font-family="sans-serif" font-size="14" lengthAdjust="spacing" textLength="362.5098" x="248" y="804.8232">strukturierte Interpretation: CodeableConcept [0..*]</text><ellipse cx="239" cy="817.7734" fill="none" rx="3" ry="3" style="stroke:#038048;stroke-width:1.0;"/><text fill="#000000" font-family="sans-serif" font-size="14" lengthAdjust="spacing" textLength="458.7393" x="248" y="821.1201">Zusatzinformation: Reference(DiagnosticReport|Procedure) [0..1]</text><ellipse cx="239" cy="834.0703" fill="none" rx="3" ry="3" style="stroke:#038048;stroke-width:1.0;"/><text fill="#000000" font-family="sans-serif" font-size="14" lengthAdjust="spacing" textLength="274.7568" x="248" y="837.417">Dokumentenanhang: Attachment [0..*]</text><line style="stroke:#181818;stroke-width:0.5;" x1="229" x2="711.7393" y1="844.7188" y2="844.7188"/></g><!--class Empfehlung--><g id="elem_Empfehlung"><rect codeLine="32" fill="#F1F1F1" height="137.75" id="Empfehlung" rx="2.5" ry="2.5" style="stroke:#181818;stroke-width:0.5;" width="406.9121" x="116" y="326"/><ellipse cx="273.0522" cy="346.1328" fill="#ADD1B2" rx="11" ry="11" style="stroke:#181818;stroke-width:1.0;"/><path d="M276.021,351.7734 Q275.4429,352.0703 274.8022,352.2109 Q274.1616,352.3672 273.4585,352.3672 Q270.9585,352.3672 269.6304,350.7266 Q268.3179,349.0703 268.3179,345.9453 Q268.3179,342.8203 269.6304,341.1641 Q270.9585,339.5078 273.4585,339.5078 Q274.1616,339.5078 274.8022,339.6641 Q275.4585,339.8203 276.021,340.1172 L276.021,342.8359 Q275.396,342.2578 274.8022,341.9922 Q274.2085,341.7109 273.5835,341.7109 Q272.2397,341.7109 271.5522,342.7891 Q270.8647,343.8516 270.8647,345.9453 Q270.8647,348.0391 271.5522,349.1172 Q272.2397,350.1797 273.5835,350.1797 Q274.2085,350.1797 274.8022,349.9141 Q275.396,349.6328 276.021,349.0547 L276.021,351.7734 Z " fill="#000000"/><text fill="#000000" font-family="sans-serif" font-size="12" font-style="italic" lengthAdjust="spacing" textLength="68.3906" x="301.5107" y="342.1387">&#171;CarePlan&#187;</text><text fill="#000000" font-family="sans-serif" font-size="14" lengthAdjust="spacing" textLength="84.3076" x="293.5522" y="357.9639">Empfehlung</text><line style="stroke:#181818;stroke-width:0.5;" x1="117" x2="521.9121" y1="366.2656" y2="366.2656"/><ellipse cx="127" cy="379.9141" fill="none" rx="3" ry="3" style="stroke:#038048;stroke-width:1.0;"/><text fill="#000000" font-family="sans-serif" font-size="14" lengthAdjust="spacing" textLength="144.7441" x="136" y="383.2607">Status: Coding [1..1]</text><ellipse cx="127" cy="396.2109" fill="none" rx="3" ry="3" style="stroke:#038048;stroke-width:1.0;"/><text fill="#000000" font-family="sans-serif" font-size="14" lengthAdjust="spacing" textLength="237.4189" x="136" y="399.5576">Art der Empfehlung: Coding [1..1]</text><ellipse cx="127" cy="412.5078" fill="none" rx="3" ry="3" style="stroke:#038048;stroke-width:1.0;"/><text fill="#000000" font-family="sans-serif" font-size="14" lengthAdjust="spacing" textLength="231.3008" x="136" y="415.8545">Freitextempfehlung: String [0..1]</text><ellipse cx="127" cy="428.8047" fill="none" rx="3" ry="3" style="stroke:#038048;stroke-width:1.0;"/><text fill="#000000" font-family="sans-serif" font-size="14" lengthAdjust="spacing" textLength="345.2764" x="136" y="432.1514">Personen-Identifikation: Reference(Patient) [1..1]</text><ellipse cx="127" cy="445.1016" fill="none" rx="3" ry="3" style="stroke:#038048;stroke-width:1.0;"/><text fill="#000000" font-family="sans-serif" font-size="14" lengthAdjust="spacing" textLength="380.9121" x="136" y="448.4482">Zusatzinformation: Reference(DiagnosticReport) [0..*]</text><line style="stroke:#181818;stroke-width:0.5;" x1="117" x2="521.9121" y1="455.75" y2="455.75"/></g><!--class GenerischeBeobachtung--><g id="elem_GenerischeBeobachtung"><rect codeLine="41" fill="#F1F1F1" height="284.4219" id="GenerischeBeobachtung" rx="2.5" ry="2.5" style="stroke:#181818;stroke-width:0.5;" width="517.6475" x="392.5" y="933"/><ellipse cx="561.0674" cy="953.1328" fill="#ADD1B2" rx="11" ry="11" style="stroke:#181818;stroke-width:1.0;"/><path d="M564.0361,958.7734 Q563.458,959.0703 562.8174,959.2109 Q562.1768,959.3672 561.4736,959.3672 Q558.9736,959.3672 557.6455,957.7266 Q556.333,956.0703 556.333,952.9453 Q556.333,949.8203 557.6455,948.1641 Q558.9736,946.5078 561.4736,946.5078 Q562.1768,946.5078 562.8174,946.6641 Q563.4736,946.8203 564.0361,947.1172 L564.0361,949.8359 Q563.4111,949.2578 562.8174,948.9922 Q562.2236,948.7109 561.5986,948.7109 Q560.2549,948.7109 559.5674,949.7891 Q558.8799,950.8516 558.8799,952.9453 Q558.8799,955.0391 559.5674,956.1172 Q560.2549,957.1797 561.5986,957.1797 Q562.2236,957.1797 562.8174,956.9141 Q563.4111,956.6328 564.0361,956.0547 L564.0361,958.7734 Z " fill="#000000"/><text fill="#000000" font-family="sans-serif" font-size="12" font-style="italic" lengthAdjust="spacing" textLength="87.8848" x="623.6313" y="949.1387">&#171;Observation&#187;</text><text fill="#000000" font-family="sans-serif" font-size="14" lengthAdjust="spacing" textLength="172.0127" x="581.5674" y="964.9639">GenerischeBeobachtung</text><line style="stroke:#181818;stroke-width:0.5;" x1="393.5" x2="909.1475" y1="973.2656" y2="973.2656"/><ellipse cx="403.5" cy="986.9141" fill="none" rx="3" ry="3" style="stroke:#038048;stroke-width:1.0;"/><text fill="#000000" font-family="sans-serif" font-size="14" lengthAdjust="spacing" textLength="414.627" x="412.5" y="990.2607">Extension: Bildnummer: DICOM Instance UID (Series) [0..1]</text><ellipse cx="403.5" cy="1003.2109" fill="none" rx="3" ry="3" style="stroke:#038048;stroke-width:1.0;"/><text fill="#000000" font-family="sans-serif" font-size="14" lengthAdjust="spacing" textLength="485.1191" x="412.5" y="1006.5576">Extension: Schichtposition: DICOM Instance UID (SOP Instance) [0..1]</text><ellipse cx="403.5" cy="1019.5078" fill="none" rx="3" ry="3" style="stroke:#038048;stroke-width:1.0;"/><text fill="#000000" font-family="sans-serif" font-size="14" lengthAdjust="spacing" textLength="491.6475" x="412.5" y="1022.8545">Extension: Erweiterte K&#246;rperstruktur: Reference(BodyStructure) [0..1]</text><ellipse cx="403.5" cy="1035.8047" fill="none" rx="3" ry="3" style="stroke:#038048;stroke-width:1.0;"/><text fill="#000000" font-family="sans-serif" font-size="14" lengthAdjust="spacing" textLength="419.2412" x="412.5" y="1039.1514">Teil einer Befundungsprocedur: Reference(Procedure) [0..*]</text><ellipse cx="403.5" cy="1052.1016" fill="none" rx="3" ry="3" style="stroke:#038048;stroke-width:1.0;"/><text fill="#000000" font-family="sans-serif" font-size="14" lengthAdjust="spacing" textLength="144.7441" x="412.5" y="1055.4482">Status: Coding [1..1]</text><ellipse cx="403.5" cy="1068.3984" fill="none" rx="3" ry="3" style="stroke:#038048;stroke-width:1.0;"/><text fill="#000000" font-family="sans-serif" font-size="14" lengthAdjust="spacing" textLength="373.4063" x="412.5" y="1071.7451">Beobachtungsklassifizierung: CodeableConcept [0..*]</text><ellipse cx="403.5" cy="1084.6953" fill="none" rx="3" ry="3" style="stroke:#038048;stroke-width:1.0;"/><text fill="#000000" font-family="sans-serif" font-size="14" lengthAdjust="spacing" textLength="297.8623" x="412.5" y="1088.042">Beobachtungstyp: CodeableConcept [1..1]</text><ellipse cx="403.5" cy="1100.9922" fill="none" rx="3" ry="3" style="stroke:#038048;stroke-width:1.0;"/><text fill="#000000" font-family="sans-serif" font-size="14" lengthAdjust="spacing" textLength="345.2764" x="412.5" y="1104.3389">Personen-Identifikation: Reference(Patient) [1..1]</text><ellipse cx="403.5" cy="1117.2891" fill="none" rx="3" ry="3" style="stroke:#038048;stroke-width:1.0;"/><text fill="#000000" font-family="sans-serif" font-size="14" lengthAdjust="spacing" textLength="261.9121" x="412.5" y="1120.6357">Beobachtungszeitpunkt: issued [0..1]</text><ellipse cx="403.5" cy="1133.5859" fill="none" rx="3" ry="3" style="stroke:#038048;stroke-width:1.0;"/><text fill="#000000" font-family="sans-serif" font-size="14" lengthAdjust="spacing" textLength="204.5654" x="412.5" y="1136.9326">Beschreibung: value[x] [0..1]</text><ellipse cx="403.5" cy="1149.8828" fill="none" rx="3" ry="3" style="stroke:#038048;stroke-width:1.0;"/><text fill="#000000" font-family="sans-serif" font-size="14" lengthAdjust="spacing" textLength="338.7344" x="412.5" y="1153.2295">K&#246;rperregion(bodySite): CodeableConcept [0..1]</text><ellipse cx="403.5" cy="1166.1797" fill="none" rx="3" ry="3" style="stroke:#038048;stroke-width:1.0;"/><text fill="#000000" font-family="sans-serif" font-size="14" lengthAdjust="spacing" textLength="366.7754" x="412.5" y="1169.5264">weitere Beobachtung: Reference(Observation) [0..*]</text><ellipse cx="403.5" cy="1182.4766" fill="none" rx="3" ry="3" style="stroke:#038048;stroke-width:1.0;"/><text fill="#000000" font-family="sans-serif" font-size="14" lengthAdjust="spacing" textLength="325.1309" x="412.5" y="1185.8232">Studienbezug: Reference(ImagingStudy) [0..*]</text><ellipse cx="403.5" cy="1198.7734" fill="none" rx="3" ry="3" style="stroke:#038048;stroke-width:1.0;"/><text fill="#000000" font-family="sans-serif" font-size="14" lengthAdjust="spacing" textLength="301.1436" x="412.5" y="1202.1201">erweiterte Beschreibung: component [0..*]</text><line style="stroke:#181818;stroke-width:0.5;" x1="393.5" x2="909.1475" y1="1209.4219" y2="1209.4219"/></g><!--class SemistrukturiertesBefunddokument--><g id="elem_SemistrukturiertesBefunddokument"><rect codeLine="60" fill="#F1F1F1" height="154.0469" id="SemistrukturiertesBefunddokument" rx="2.5" ry="2.5" style="stroke:#181818;stroke-width:0.5;" width="396.7402" x="684" y="84"/><ellipse cx="752.5474" cy="104.1328" fill="#ADD1B2" rx="11" ry="11" style="stroke:#181818;stroke-width:1.0;"/><path d="M755.5161,109.7734 Q754.938,110.0703 754.2974,110.2109 Q753.6567,110.3672 752.9536,110.3672 Q750.4536,110.3672 749.1255,108.7266 Q747.813,107.0703 747.813,103.9453 Q747.813,100.8203 749.1255,99.1641 Q750.4536,97.5078 752.9536,97.5078 Q753.6567,97.5078 754.2974,97.6641 Q754.9536,97.8203 755.5161,98.1172 L755.5161,100.8359 Q754.8911,100.2578 754.2974,99.9922 Q753.7036,99.7109 753.0786,99.7109 Q751.7349,99.7109 751.0474,100.7891 Q750.3599,101.8516 750.3599,103.9453 Q750.3599,106.0391 751.0474,107.1172 Q751.7349,108.1797 753.0786,108.1797 Q753.7036,108.1797 754.2974,107.9141 Q754.8911,107.6328 755.5161,107.0547 L755.5161,109.7734 Z " fill="#000000"/><text fill="#000000" font-family="sans-serif" font-size="12" font-style="italic" lengthAdjust="spacing" textLength="89.7539" x="853.7432" y="100.1387">&#171;Composition&#187;</text><text fill="#000000" font-family="sans-serif" font-size="14" lengthAdjust="spacing" textLength="251.1455" x="773.0474" y="115.9639">SemistrukturiertesBefunddokument</text><line style="stroke:#181818;stroke-width:0.5;" x1="685" x2="1079.7402" y1="124.2656" y2="124.2656"/><ellipse cx="695" cy="137.9141" fill="none" rx="3" ry="3" style="stroke:#038048;stroke-width:1.0;"/><text fill="#000000" font-family="sans-serif" font-size="14" lengthAdjust="spacing" textLength="144.7441" x="704" y="141.2607">Status: Coding [1..1]</text><ellipse cx="695" cy="154.2109" fill="none" rx="3" ry="3" style="stroke:#038048;stroke-width:1.0;"/><text fill="#000000" font-family="sans-serif" font-size="14" lengthAdjust="spacing" textLength="200.6895" x="704" y="157.5576">Typ: CodeableConcept [1..1]</text><ellipse cx="695" cy="170.5078" fill="none" rx="3" ry="3" style="stroke:#038048;stroke-width:1.0;"/><text fill="#000000" font-family="sans-serif" font-size="14" lengthAdjust="spacing" textLength="370.7402" x="704" y="173.8545">Datum und Uhrzeit der Bearbeitung: DateTime [1..1]</text><ellipse cx="695" cy="186.8047" fill="none" rx="3" ry="3" style="stroke:#038048;stroke-width:1.0;"/><text fill="#000000" font-family="sans-serif" font-size="14" lengthAdjust="spacing" textLength="251.0088" x="704" y="190.1514">Autor: Reference(Practitioner) [1..*]</text><ellipse cx="695" cy="203.1016" fill="none" rx="3" ry="3" style="stroke:#038048;stroke-width:1.0;"/><text fill="#000000" font-family="sans-serif" font-size="14" lengthAdjust="spacing" textLength="123.4707" x="704" y="206.4482">Titel: String [1..1]</text><ellipse cx="695" cy="219.3984" fill="none" rx="3" ry="3" style="stroke:#038048;stroke-width:1.0;"/><text fill="#000000" font-family="sans-serif" font-size="14" lengthAdjust="spacing" textLength="291.0879" x="704" y="222.7451">Befundabschnitt: BackboneElement [1..*]</text><line style="stroke:#181818;stroke-width:0.5;" x1="685" x2="1079.7402" y1="230.0469" y2="230.0469"/></g><!--class Befundabschnitt--><g id="elem_Befundabschnitt"><rect codeLine="69" fill="#F1F1F1" height="154.0469" id="Befundabschnitt" rx="2.5" ry="2.5" style="stroke:#181818;stroke-width:0.5;" width="418.9775" x="673" y="318"/><ellipse cx="811.8452" cy="338.1328" fill="#ADD1B2" rx="11" ry="11" style="stroke:#181818;stroke-width:1.0;"/><path d="M814.814,343.7734 Q814.2358,344.0703 813.5952,344.2109 Q812.9546,344.3672 812.2515,344.3672 Q809.7515,344.3672 808.4233,342.7266 Q807.1108,341.0703 807.1108,337.9453 Q807.1108,334.8203 808.4233,333.1641 Q809.7515,331.5078 812.2515,331.5078 Q812.9546,331.5078 813.5952,331.6641 Q814.2515,331.8203 814.814,332.1172 L814.814,334.8359 Q814.189,334.2578 813.5952,333.9922 Q813.0015,333.7109 812.3765,333.7109 Q811.0327,333.7109 810.3452,334.7891 Q809.6577,335.8516 809.6577,337.9453 Q809.6577,340.0391 810.3452,341.1172 Q811.0327,342.1797 812.3765,342.1797 Q813.0015,342.1797 813.5952,341.9141 Q814.189,341.6328 814.814,341.0547 L814.814,343.7734 Z " fill="#000000"/><text fill="#000000" font-family="sans-serif" font-size="12" font-style="italic" lengthAdjust="spacing" textLength="136.7871" x="830.3452" y="334.1387">&#171;Composition.section&#187;</text><text fill="#000000" font-family="sans-serif" font-size="14" lengthAdjust="spacing" textLength="114.8506" x="841.3135" y="349.9639">Befundabschnitt</text><line style="stroke:#181818;stroke-width:0.5;" x1="674" x2="1090.9775" y1="358.2656" y2="358.2656"/><ellipse cx="684" cy="371.9141" fill="none" rx="3" ry="3" style="stroke:#038048;stroke-width:1.0;"/><text fill="#000000" font-family="sans-serif" font-size="14" lengthAdjust="spacing" textLength="230.5283" x="693" y="375.2607">Titel des Abschnitts: String [0..1]</text><ellipse cx="684" cy="388.2109" fill="none" rx="3" ry="3" style="stroke:#038048;stroke-width:1.0;"/><text fill="#000000" font-family="sans-serif" font-size="14" lengthAdjust="spacing" textLength="302.8457" x="693" y="391.5576">Art des Abschnitts: CodeableConcept [0..1]</text><ellipse cx="684" cy="404.5078" fill="none" rx="3" ry="3" style="stroke:#038048;stroke-width:1.0;"/><text fill="#000000" font-family="sans-serif" font-size="14" lengthAdjust="spacing" textLength="350.7725" x="693" y="407.8545">Autor des Abschnitt: Reference(Practitioner) [0..*]</text><ellipse cx="684" cy="420.8047" fill="none" rx="3" ry="3" style="stroke:#038048;stroke-width:1.0;"/><text fill="#000000" font-family="sans-serif" font-size="14" lengthAdjust="spacing" textLength="147.6152" x="693" y="424.1514">Text: Narrative [0..1]</text><ellipse cx="684" cy="437.1016" fill="none" rx="3" ry="3" style="stroke:#038048;stroke-width:1.0;"/><text fill="#000000" font-family="sans-serif" font-size="14" lengthAdjust="spacing" textLength="392.9775" x="693" y="440.4482">Eintrag: Reference(Observation|DiagnosticReport) [1..*]</text><ellipse cx="684" cy="453.3984" fill="none" rx="3" ry="3" style="stroke:#038048;stroke-width:1.0;"/><text fill="#000000" font-family="sans-serif" font-size="14" lengthAdjust="spacing" textLength="350.5742" x="693" y="456.7451">Unterabschnitt: Composition.section.section [0..*]</text><line style="stroke:#181818;stroke-width:0.5;" x1="674" x2="1090.9775" y1="464.0469" y2="464.0469"/></g><!--class K?rperstruktur--><g id="elem_K&#246;rperstruktur"><rect codeLine="6" fill="#F1F1F1" height="121.4531" id="K&#246;rperstruktur" rx="2.5" ry="2.5" style="stroke:#181818;stroke-width:0.5;" width="371.2764" x="466" y="1297"/><ellipse cx="596.1904" cy="1317.1328" fill="#ADD1B2" rx="11" ry="11" style="stroke:#181818;stroke-width:1.0;"/><path d="M599.1592,1322.7734 Q598.5811,1323.0703 597.9404,1323.2109 Q597.2998,1323.3672 596.5967,1323.3672 Q594.0967,1323.3672 592.7686,1321.7266 Q591.4561,1320.0703 591.4561,1316.9453 Q591.4561,1313.8203 592.7686,1312.1641 Q594.0967,1310.5078 596.5967,1310.5078 Q597.2998,1310.5078 597.9404,1310.6641 Q598.5967,1310.8203 599.1592,1311.1172 L599.1592,1313.8359 Q598.5342,1313.2578 597.9404,1312.9922 Q597.3467,1312.7109 596.7217,1312.7109 Q595.3779,1312.7109 594.6904,1313.7891 Q594.0029,1314.8516 594.0029,1316.9453 Q594.0029,1319.0391 594.6904,1320.1172 Q595.3779,1321.1797 596.7217,1321.1797 Q597.3467,1321.1797 597.9404,1320.9141 Q598.5342,1320.6328 599.1592,1320.0547 L599.1592,1322.7734 Z " fill="#000000"/><text fill="#000000" font-family="sans-serif" font-size="12" font-style="italic" lengthAdjust="spacing" textLength="101.1914" x="617.2925" y="1313.1387">&#171;BodyStructure&#187;</text><text fill="#000000" font-family="sans-serif" font-size="14" lengthAdjust="spacing" textLength="102.3955" x="616.6904" y="1328.9639">K&#246;rperstruktur</text><line style="stroke:#181818;stroke-width:0.5;" x1="467" x2="836.2764" y1="1337.2656" y2="1337.2656"/><ellipse cx="477" cy="1350.9141" fill="none" rx="3" ry="3" style="stroke:#038048;stroke-width:1.0;"/><text fill="#000000" font-family="sans-serif" font-size="14" lengthAdjust="spacing" textLength="261.5361" x="486" y="1354.2607">Morphologie: CodeableConcept [0..1]</text><ellipse cx="477" cy="1367.2109" fill="none" rx="3" ry="3" style="stroke:#038048;stroke-width:1.0;"/><text fill="#000000" font-family="sans-serif" font-size="14" lengthAdjust="spacing" textLength="258.4873" x="486" y="1370.5576">Lokalisation: CodeableConcept [0..1]</text><ellipse cx="477" cy="1383.5078" fill="none" rx="3" ry="3" style="stroke:#038048;stroke-width:1.0;"/><text fill="#000000" font-family="sans-serif" font-size="14" lengthAdjust="spacing" textLength="310.3379" x="486" y="1386.8545">n&#228;here Lokalisation: CodeableConcept [0..*]</text><ellipse cx="477" cy="1399.8047" fill="none" rx="3" ry="3" style="stroke:#038048;stroke-width:1.0;"/><text fill="#000000" font-family="sans-serif" font-size="14" lengthAdjust="spacing" textLength="345.2764" x="486" y="1403.1514">Personen-Identifikation: Reference(Patient) [1..1]</text><line style="stroke:#181818;stroke-width:0.5;" x1="467" x2="836.2764" y1="1410.4531" y2="1410.4531"/></g><!--link Befundbericht to Befundbericht--><g id="link_Befundbericht_Befundbericht"><path codeLine="80" d="M326.33,551.66 C326.33,536.19 326.33,526 326.33,526 C326.33,526 172,526 172,526 C172,526 172,907 172,907 C172,907 310.25,907 310.25,907 C310.25,907 310.25,883.79 310.25,853 " fill="none" id="Befundbericht-Befundbericht" style="stroke:#181818;stroke-width:1.0;"/><text fill="#000000" font-family="sans-serif" font-size="13" lengthAdjust="spacing" textLength="154.5845" x="12" y="713.6869">DR.supportingInfo (R5!)</text><text fill="#000000" font-family="sans-serif" font-size="13" lengthAdjust="spacing" textLength="23.0356" x="295.7969" y="541.0673">0..*</text><text fill="#000000" font-family="sans-serif" font-size="13" lengthAdjust="spacing" textLength="24.8066" x="277.9325" y="872.73">1..1</text></g><!--link Befundbericht to GenerischeBeobachtung--><g id="link_Befundbericht_GenerischeBeobachtung"><path codeLine="81" d="M552.75,853.2 C552.75,879.54 552.75,906.86 552.75,932.95 " fill="none" id="Befundbericht-GenerischeBeobachtung" style="stroke:#181818;stroke-width:1.0;"/><text fill="#000000" font-family="sans-serif" font-size="13" lengthAdjust="spacing" textLength="60.2393" x="491.75" y="889.1469">DR.result</text><text fill="#000000" font-family="sans-serif" font-size="13" lengthAdjust="spacing" textLength="24.8066" x="532.1786" y="872.9397">1..1</text><text fill="#000000" font-family="sans-serif" font-size="13" lengthAdjust="spacing" textLength="23.0356" x="523.7313" y="921.8305">0..*</text></g><!--link Empfehlung to Befundbericht--><g id="link_Empfehlung_Befundbericht"><path codeLine="83" d="M424.67,464.01 C424.67,490.13 424.67,520.99 424.67,551.7 " fill="none" id="Empfehlung-Befundbericht" style="stroke:#181818;stroke-width:1.0;"/><text fill="#000000" font-family="sans-serif" font-size="13" lengthAdjust="spacing" textLength="115.667" x="308.67" y="503.9169">CP.supportingInfo</text><text fill="#000000" font-family="sans-serif" font-size="13" lengthAdjust="spacing" textLength="23.0356" x="411.3361" y="483.9867">0..*</text><text fill="#000000" font-family="sans-serif" font-size="13" lengthAdjust="spacing" textLength="23.0356" x="398.9003" y="541.1093">0..*</text></g><!--link GenerischeBeobachtung to GenerischeBeobachtung--><g id="link_GenerischeBeobachtung_GenerischeBeobachtung"><path codeLine="85" d="M844.67,932.77 C844.67,902.78 844.67,880 844.67,880 C844.67,880 1031.5,880 1031.5,880 C1031.5,880 1031.5,1257 1031.5,1257 C1031.5,1257 873.75,1257 873.75,1257 C873.75,1257 873.75,1240.32 873.75,1217.06 " fill="none" id="GenerischeBeobachtung-GenerischeBeobachtung" style="stroke:#181818;stroke-width:1.0;"/><text fill="#000000" font-family="sans-serif" font-size="13" lengthAdjust="spacing" textLength="105.8408" x="920.5" y="1038.6069">Obs.hasMember</text><text fill="#000000" font-family="sans-serif" font-size="13" lengthAdjust="spacing" textLength="23.0356" x="831.0474" y="922.109">0..*</text><text fill="#000000" font-family="sans-serif" font-size="13" lengthAdjust="spacing" textLength="24.8066" x="861.2797" y="1237.2981">1..1</text></g><!--link GenerischeBeobachtung to K?rperstruktur--><g id="link_GenerischeBeobachtung_K&#246;rperstruktur"><path codeLine="86" d="M651.5,1217.08 C651.5,1245.24 651.5,1273.37 651.5,1296.97 " fill="none" id="GenerischeBeobachtung-K&#246;rperstruktur" style="stroke:#181818;stroke-width:1.0;"/><text fill="#000000" font-family="sans-serif" font-size="13" lengthAdjust="spacing" textLength="159.0913" x="491.5" y="1253.0869">Obs.bodyStructure (R5!)</text><text fill="#000000" font-family="sans-serif" font-size="13" lengthAdjust="spacing" textLength="23.0356" x="627.8817" y="1237.3191">0..*</text><text fill="#000000" font-family="sans-serif" font-size="13" lengthAdjust="spacing" textLength="24.8066" x="626.0698" y="1285.7262">0..1</text></g><!--link SemistrukturiertesBefunddokument to Befundabschnitt--><g id="link_SemistrukturiertesBefunddokument_Befundabschnitt"><path codeLine="88" d="M882.5,238.27 C882.5,263.83 882.5,292.26 882.5,317.81 " fill="none" id="SemistrukturiertesBefunddokument-Befundabschnitt" style="stroke:#181818;stroke-width:1.0;"/><text fill="#000000" font-family="sans-serif" font-size="13" lengthAdjust="spacing" textLength="67.9834" x="814.5" y="274.1069">Co.section</text><text fill="#000000" font-family="sans-serif" font-size="13" lengthAdjust="spacing" textLength="24.8066" x="857.4429" y="258.1556">1..1</text><text fill="#000000" font-family="sans-serif" font-size="13" lengthAdjust="spacing" textLength="23.0356" x="858.4067" y="306.809">1..*</text></g><!--link Befundabschnitt to Befundbericht--><g id="link_Befundabschnitt_Befundbericht"><path codeLine="90" d="M693,472.2 C693,496.48 693,524.19 693,551.76 " fill="none" id="Befundabschnitt-Befundbericht" style="stroke:#181818;stroke-width:1.0;"/><text fill="#000000" font-family="sans-serif" font-size="13" lengthAdjust="spacing" textLength="106.4883" x="586" y="508.0469">Co.section.entry</text><text fill="#000000" font-family="sans-serif" font-size="13" lengthAdjust="spacing" textLength="24.8066" x="650.4624" y="492.0791">1..1</text><text fill="#000000" font-family="sans-serif" font-size="13" lengthAdjust="spacing" textLength="24.8066" x="679.2219" y="541.1722">1..1</text></g><!--link Befundabschnitt to Befundabschnitt--><g id="link_Befundabschnitt_Befundabschnitt"><path codeLine="91" d="M1086.5,317.94 C1086.5,296.03 1086.5,278 1086.5,278 C1086.5,278 1110,278 1110,278 C1110,278 1110,499 1110,499 C1110,499 971,499 971,499 C971,499 971,487.53 971,472.22 " fill="none" id="Befundabschnitt-Befundabschnitt" style="stroke:#181818;stroke-width:1.0;"/><text fill="#000000" font-family="sans-serif" font-size="13" lengthAdjust="spacing" textLength="118.936" x="1116" y="430.7369">Co.section.section</text><text fill="#000000" font-family="sans-serif" font-size="13" lengthAdjust="spacing" textLength="23.0356" x="1081.8504" y="306.9514">0..*</text><text fill="#000000" font-family="sans-serif" font-size="13" lengthAdjust="spacing" textLength="24.8066" x="954.0906" y="492.101">1..1</text></g><!--link Befundabschnitt to GenerischeBeobachtung--><g id="link_Befundabschnitt_GenerischeBeobachtung"><path codeLine="92" d="M778.83,472.01 C778.83,583.72 778.83,792.63 778.83,932.79 " fill="none" id="Befundabschnitt-GenerischeBeobachtung" style="stroke:#181818;stroke-width:1.0;"/><text fill="#000000" font-family="sans-serif" font-size="13" lengthAdjust="spacing" textLength="106.4883" x="779.83" y="698.4669">Co.section.entry</text><text fill="#000000" font-family="sans-serif" font-size="13" lengthAdjust="spacing" textLength="24.8066" x="743.8447" y="492.1358">0..1</text><text fill="#000000" font-family="sans-serif" font-size="13" lengthAdjust="spacing" textLength="23.0356" x="761.8125" y="922.13">0..*</text></g><!--SRC=[hLRDRjiu4BxhARZk9UuYHdmei0YA0FxRXP6aCMnd3mrweAInH4WYjIILD4dpBBtiC-mBvCLsI5io9Kj9sjr3VapE3B_vvfiPguJnd4gQaGl6GT_dG8JKiV1KTV59XA0W9yCF9yxfalB4dFxc7gOG0G_7D4WYAGeUJaGg97bt5pCDdXUaL2bo_loFp44gBOj45v9y_3WMuVqAFmRu4SxEoAD7oA_aKiWyHl-8mIcP80Rgfp0HF81SavkJmM3unTfTY8IcJ57D17_Ha3__7OE4DpYytpeyRXYauHDP85h1WH_FG-2QRLYoyrt21WEYtz42J_2kJsw6zhqdpykH1He1wOrXWrJqR5fR2hOdFaWMn1e9c38QSQ4q2vQG8_t8mRiB5iLwSa_vZeuIp8XlX4GS8P1B-loTqpW35yaAv2qBO0b_5Q0Ce7q-AqrreMpAZ4SbL7DpJZL4GhOoFQpypLMRzt_WoNN_qxZBgE2HKXhI57WYkAQ9TWFCU832qY3xRcdFKyQP2c8Y8OLRYlVaCp1q336nDSlW5MD4pcnokVt7jJPnI0YIpAH5XV1E2LEgW9fPcSGOX4-ngjPi3_lALrWNIqU_JM8hNOH8Z0yFHSrldj48sJRNztst5dF3GIv1svWMOEtfZCea57VSnLYs70E9ETSZlAaHFXVODG_CA30xA6rJnDyMKWGGOaltsuYQYgJ8K0h0AO-fWJpI6k6Ri_tRJ_XJjSqiopSGcmfWpqoeX4LAUJKlkjKzahiALlvjLhzBh3HyrU1OuLIoLYV_jzP_YCbICSGIWh-gqV87S1GiQdaxNKgYgcDmD86SEIhSqUPYcc7kN5aiOvQ6lCWoaATaEfzSNQ9QbAO8ZbpFfyGC6GRAgMj7d5KGcn6N2yMsIRO6krfK9w-7dCaxKoUZuCOcSIcihPIEe6jWAG7SUd8taCtaoNUYhHMoBkJtPQ0knPaxXtYLcAAWH1wmyKhnjRTQqnFtSVj4FaZcf_JOVEu1cSqBRYPkSy9jJL5Is2M-JUAMfWNSVFtIJkwkDX8YH77act9WrVelB6ZNUrjY-B5f-XFpr7M5lR3gYGOYomsrjJez7VJY2Z9MIh7dTgDxOKUlsiejt4r0CypC4ziUEJjxV8EyrgyAOuhE6S5do7Ki7yebDWOgVVnW4vjMox5DKQD2YqORq41RZ7Rx3XtkraXSkX-NTNsPNAcFZ7AcKLdcsw6FCMOfR6Vzq27LeQtXM6Tfe21eZ36B0PDKP5JwgCC9ljy7TRitoT9IKdTzWI1NN6jSBAVa4vKILNiB7LEESIrfbzA_jQm5jmRNPfyxFBUmLVuz538oN_zIsZCrx97ZufZqZ76l_gKLnRCSg28tE93VEIuoShJyy4k_8qmLfNKrsMWIL95gptEs_Cxdk0l3PD70u7djg-ymcmuSoFSWfkeICdoaArWD5OOzs4CcYkzke1qttgkZmE5hw6HSAsjPnR9a-nQfUmyF-Qfy1_YOlEyCqAnww_iLZeCe9syhUXFElm00]--></g></svg>