<svg xmlns="http://www.w3.org/2000/svg" xmlns:xlink="http://www.w3.org/1999/xlink" contentStyleType="text/css" height="588px" preserveAspectRatio="none" style="width:699px;height:588px;background:#FFFFFF;" version="1.1" viewBox="0 0 699 588" width="699px" zoomAndPan="magnify"><defs/><g><!--cluster Befund--><g id="cluster_Befund"><path d="M8.5,6 L65.7119,6 A3.75,3.75 0 0 1 68.2119,8.5 L75.2119,28.2969 L539.5,28.2969 A2.5,2.5 0 0 1 542,30.7969 L542,573.5 A2.5,2.5 0 0 1 539.5,576 L8.5,576 A2.5,2.5 0 0 1 6,573.5 L6,8.5 A2.5,2.5 0 0 1 8.5,6 " fill="none" style="stroke:#000000;stroke-width:1.5;"/><line style="stroke:#000000;stroke-width:1.5;" x1="6" x2="75.2119" y1="28.2969" y2="28.2969"/><text fill="#000000" font-family="sans-serif" font-size="14" font-weight="bold" lengthAdjust="spacing" textLength="56.2119" x="10" y="20.9951">Befund</text></g><!--class Befundbericht--><g id="elem_Befundbericht"><rect codeLine="7" fill="#E0FFFF" height="300.7188" id="Befundbericht" rx="2.5" ry="2.5" style="stroke:#181818;stroke-width:0.5;" width="484.7393" x="22.5" y="259"/><ellipse cx="203.3638" cy="279.1328" fill="#ADD1B2" rx="11" ry="11" style="stroke:#181818;stroke-width:1.0;"/><path d="M206.3325,284.7734 Q205.7544,285.0703 205.1138,285.2109 Q204.4731,285.3672 203.77,285.3672 Q201.27,285.3672 199.9419,283.7266 Q198.6294,282.0703 198.6294,278.9453 Q198.6294,275.8203 199.9419,274.1641 Q201.27,272.5078 203.77,272.5078 Q204.4731,272.5078 205.1138,272.6641 Q205.77,272.8203 206.3325,273.1172 L206.3325,275.8359 Q205.7075,275.2578 205.1138,274.9922 Q204.52,274.7109 203.895,274.7109 Q202.5513,274.7109 201.8638,275.7891 Q201.1763,276.8516 201.1763,278.9453 Q201.1763,281.0391 201.8638,282.1172 Q202.5513,283.1797 203.895,283.1797 Q204.52,283.1797 205.1138,282.9141 Q205.7075,282.6328 206.3325,282.0547 L206.3325,284.7734 Z " fill="#000000"/><text fill="#000000" font-family="sans-serif" font-size="12" font-style="italic" lengthAdjust="spacing" textLength="118.5117" x="221.8638" y="275.1387">&#171;DiagnosticReport&#187;</text><text fill="#000000" font-family="sans-serif" font-size="14" lengthAdjust="spacing" textLength="98.9844" x="231.6274" y="290.9639">Befundbericht</text><line style="stroke:#181818;stroke-width:0.5;" x1="23.5" x2="506.2393" y1="299.2656" y2="299.2656"/><ellipse cx="33.5" cy="312.9141" fill="none" rx="3" ry="3" style="stroke:#038048;stroke-width:1.0;"/><text fill="#000000" font-family="sans-serif" font-size="14" lengthAdjust="spacing" textLength="405.0225" x="42.5" y="316.2607">Anfordende Ma&#223;nahme: Reference(ServiceRequest) [0..*]</text><ellipse cx="33.5" cy="329.2109" fill="none" rx="3" ry="3" style="stroke:#038048;stroke-width:1.0;"/><text fill="#000000" font-family="sans-serif" font-size="14" lengthAdjust="spacing" textLength="144.7441" x="42.5" y="332.5576">Status: Coding [1..1]</text><ellipse cx="33.5" cy="345.5078" fill="none" rx="3" ry="3" style="stroke:#038048;stroke-width:1.0;"/><text fill="#000000" font-family="sans-serif" font-size="14" lengthAdjust="spacing" textLength="240.6318" x="42.5" y="348.8545">Kategorie: CodeableConcept [1..*]</text><ellipse cx="33.5" cy="361.8047" fill="none" rx="3" ry="3" style="stroke:#038048;stroke-width:1.0;"/><text fill="#000000" font-family="sans-serif" font-size="14" lengthAdjust="spacing" textLength="135.9736" x="42.5" y="365.1514">Code: Coding [1..1]</text><ellipse cx="33.5" cy="378.1016" fill="none" rx="3" ry="3" style="stroke:#038048;stroke-width:1.0;"/><text fill="#000000" font-family="sans-serif" font-size="14" lengthAdjust="spacing" textLength="345.2764" x="42.5" y="381.4482">Personen-Identifikation: Reference(Patient) [1..1]</text><ellipse cx="33.5" cy="394.3984" fill="none" rx="3" ry="3" style="stroke:#038048;stroke-width:1.0;"/><text fill="#000000" font-family="sans-serif" font-size="14" lengthAdjust="spacing" textLength="393.4492" x="42.5" y="397.7451">Versorgungsstellenkontakt: Reference(Encounter) [0..1]</text><ellipse cx="33.5" cy="410.6953" fill="none" rx="3" ry="3" style="stroke:#038048;stroke-width:1.0;"/><text fill="#000000" font-family="sans-serif" font-size="14" lengthAdjust="spacing" textLength="274.2988" x="42.5" y="414.042">Klinisch relevante Zeit: dateTime [0..1]</text><ellipse cx="33.5" cy="426.9922" fill="none" rx="3" ry="3" style="stroke:#038048;stroke-width:1.0;"/><text fill="#000000" font-family="sans-serif" font-size="14" lengthAdjust="spacing" textLength="277.8193" x="42.5" y="430.3389">Klinisch relevante Periode: period [0..1]</text><ellipse cx="33.5" cy="443.2891" fill="none" rx="3" ry="3" style="stroke:#038048;stroke-width:1.0;"/><text fill="#000000" font-family="sans-serif" font-size="14" lengthAdjust="spacing" textLength="226.2559" x="42.5" y="446.6357">Zeit der Erstellung: issued [0..1]</text><ellipse cx="33.5" cy="459.5859" fill="none" rx="3" ry="3" style="stroke:#038048;stroke-width:1.0;"/><text fill="#000000" font-family="sans-serif" font-size="14" lengthAdjust="spacing" textLength="309.9004" x="42.5" y="462.9326">Beobachtung: Reference(Observation) [0..*]</text><ellipse cx="33.5" cy="475.8828" fill="none" rx="3" ry="3" style="stroke:#038048;stroke-width:1.0;"/><text fill="#000000" font-family="sans-serif" font-size="14" lengthAdjust="spacing" textLength="325.1309" x="42.5" y="479.2295">Studienbezug: Reference(ImagingStudy) [1..*]</text><ellipse cx="33.5" cy="492.1797" fill="none" rx="3" ry="3" style="stroke:#038048;stroke-width:1.0;"/><text fill="#000000" font-family="sans-serif" font-size="14" lengthAdjust="spacing" textLength="347.2109" x="42.5" y="495.5264">Interpretation der Beobachtung: markdown [0..1]</text><ellipse cx="33.5" cy="508.4766" fill="none" rx="3" ry="3" style="stroke:#038048;stroke-width:1.0;"/><text fill="#000000" font-family="sans-serif" font-size="14" lengthAdjust="spacing" textLength="362.5098" x="42.5" y="511.8232">strukturierte Interpretation: CodeableConcept [0..*]</text><ellipse cx="33.5" cy="524.7734" fill="none" rx="3" ry="3" style="stroke:#038048;stroke-width:1.0;"/><text fill="#000000" font-family="sans-serif" font-size="14" lengthAdjust="spacing" textLength="458.7393" x="42.5" y="528.1201">Zusatzinformation: Reference(DiagnosticReport|Procedure) [0..1]</text><ellipse cx="33.5" cy="541.0703" fill="none" rx="3" ry="3" style="stroke:#038048;stroke-width:1.0;"/><text fill="#000000" font-family="sans-serif" font-size="14" lengthAdjust="spacing" textLength="274.7568" x="42.5" y="544.417">Dokumentenanhang: Attachment [0..*]</text><line style="stroke:#181818;stroke-width:0.5;" x1="23.5" x2="506.2393" y1="551.7188" y2="551.7188"/></g><!--class Empfehlung--><g id="elem_Empfehlung"><rect codeLine="25" fill="#F1F1F1" height="137.75" id="Empfehlung" rx="2.5" ry="2.5" style="stroke:#181818;stroke-width:0.5;" width="406.9121" x="61.5" y="41"/><ellipse cx="218.5522" cy="61.1328" fill="#ADD1B2" rx="11" ry="11" style="stroke:#181818;stroke-width:1.0;"/><path d="M221.521,66.7734 Q220.9429,67.0703 220.3022,67.2109 Q219.6616,67.3672 218.9585,67.3672 Q216.4585,67.3672 215.1304,65.7266 Q213.8179,64.0703 213.8179,60.9453 Q213.8179,57.8203 215.1304,56.1641 Q216.4585,54.5078 218.9585,54.5078 Q219.6616,54.5078 220.3022,54.6641 Q220.9585,54.8203 221.521,55.1172 L221.521,57.8359 Q220.896,57.2578 220.3022,56.9922 Q219.7085,56.7109 219.0835,56.7109 Q217.7397,56.7109 217.0522,57.7891 Q216.3647,58.8516 216.3647,60.9453 Q216.3647,63.0391 217.0522,64.1172 Q217.7397,65.1797 219.0835,65.1797 Q219.7085,65.1797 220.3022,64.9141 Q220.896,64.6328 221.521,64.0547 L221.521,66.7734 Z " fill="#000000"/><text fill="#000000" font-family="sans-serif" font-size="12" font-style="italic" lengthAdjust="spacing" textLength="68.3906" x="247.0107" y="57.1387">&#171;CarePlan&#187;</text><text fill="#000000" font-family="sans-serif" font-size="14" lengthAdjust="spacing" textLength="84.3076" x="239.0522" y="72.9639">Empfehlung</text><line style="stroke:#181818;stroke-width:0.5;" x1="62.5" x2="467.4121" y1="81.2656" y2="81.2656"/><ellipse cx="72.5" cy="94.9141" fill="none" rx="3" ry="3" style="stroke:#038048;stroke-width:1.0;"/><text fill="#000000" font-family="sans-serif" font-size="14" lengthAdjust="spacing" textLength="144.7441" x="81.5" y="98.2607">Status: Coding [1..1]</text><ellipse cx="72.5" cy="111.2109" fill="none" rx="3" ry="3" style="stroke:#038048;stroke-width:1.0;"/><text fill="#000000" font-family="sans-serif" font-size="14" lengthAdjust="spacing" textLength="237.4189" x="81.5" y="114.5576">Art der Empfehlung: Coding [1..1]</text><ellipse cx="72.5" cy="127.5078" fill="none" rx="3" ry="3" style="stroke:#038048;stroke-width:1.0;"/><text fill="#000000" font-family="sans-serif" font-size="14" lengthAdjust="spacing" textLength="231.3008" x="81.5" y="130.8545">Freitextempfehlung: String [0..1]</text><ellipse cx="72.5" cy="143.8047" fill="none" rx="3" ry="3" style="stroke:#038048;stroke-width:1.0;"/><text fill="#000000" font-family="sans-serif" font-size="14" lengthAdjust="spacing" textLength="345.2764" x="81.5" y="147.1514">Personen-Identifikation: Reference(Patient) [1..1]</text><ellipse cx="72.5" cy="160.1016" fill="none" rx="3" ry="3" style="stroke:#038048;stroke-width:1.0;"/><text fill="#000000" font-family="sans-serif" font-size="14" lengthAdjust="spacing" textLength="380.9121" x="81.5" y="163.4482">Zusatzinformation: Reference(DiagnosticReport) [0..*]</text><line style="stroke:#181818;stroke-width:0.5;" x1="62.5" x2="467.4121" y1="170.75" y2="170.75"/></g><!--link Befundbericht to Befundbericht--><g id="link_Befundbericht_Befundbericht"><path codeLine="34" d="M488,258.94 C488,235.57 488,219 488,219 C488,219 525.5,219 525.5,219 C525.5,219 525.5,578 525.5,578 C525.5,578 265,578 265,578 C265,578 265,571.18 265,560.29 " fill="none" id="Befundbericht-Befundbericht" style="stroke:#181818;stroke-width:1.0;"/><text fill="#000000" font-family="sans-serif" font-size="13" lengthAdjust="spacing" textLength="154.5845" x="531.5" y="489.9569">DR.supportingInfo (R5!)</text><text fill="#000000" font-family="sans-serif" font-size="13" lengthAdjust="spacing" textLength="23.0356" x="475.9131" y="247.8676">0..*</text><text fill="#000000" font-family="sans-serif" font-size="13" lengthAdjust="spacing" textLength="24.8066" x="240.4804" y="579.5388">1..1</text></g><!--link Empfehlung to Befundbericht--><g id="link_Empfehlung_Befundbericht"><path codeLine="36" d="M265,179.09 C265,203.01 265,230.86 265,258.74 " fill="none" id="Empfehlung-Befundbericht" style="stroke:#181818;stroke-width:1.0;"/><text fill="#000000" font-family="sans-serif" font-size="13" lengthAdjust="spacing" textLength="115.667" x="149" y="214.9869">CP.supportingInfo</text><text fill="#000000" font-family="sans-serif" font-size="13" lengthAdjust="spacing" textLength="23.0356" x="240.874" y="198.7151">0..*</text><text fill="#000000" font-family="sans-serif" font-size="13" lengthAdjust="spacing" textLength="23.0356" x="241.4501" y="248.1512">0..*</text></g><!--SRC=[hLHDQzj04BthLqoTIznYanm2nOI0uwHWchR6BZqazB2Mnj8YQLUTdKsQhz_I7zC_rjbrd4Y9IoZq810pyzw-cJUxhjIcKQHgEDC6-Rf1iCI5JTnZuhFDq643-mTxhUXScJ94txU35UPeicELbZbPRxA9hIp1pbMX6PEaaRZA4Nh7k99a3suJWBHIpi4wiaJIQS5mU7YYLMwiOvtEiH51HqUmSwRpWYVNoaJSExXTQQooUnYRbQLCpaNuf7x_CggeSGHpN26XIN5tWNIfKvpZ3u-E-t2nDno-_Huf5gpOkn5CRAPD3XVxm-7-ElDHCUQMDCOagcM54oji3SUg1tn8RKDlfCsGd3Le1bFHntgbIyNQchQwcKGarzy6_nRWb7kJEyTOLMXAQrYLt2OuDQcCcf7MdMtqLzfebnP0ME6baZoSenPW9erzrJM-KYpATMokYJ_jwi036HASKbGbyaQWdVFOATiqSOnsgSJLMFOa-ylIYIzn71rBDh05-qm6iyGRty5DQvNBj4Fwkj_sOXfcq11ov8m2EqVNYihCNfcsHiVaI_PYCqdFNOOjnhzKUUwTuXiTDh1-OUtp9RwRaKqnyuJzROCwiQMlPHNGA5Ee87dCBF93xEdiU_aUhyrftQom20x8dPaembcbZDoLsrUsUqmF3ZxYjrLz874QVpAsgXPCiMhlV-_wFqroip4G1tAV9DttenVeUp3m0-Y5kbxtVHd1oNpeV1EOf9cfd0cxyuCt_IHf3VG1EVWRnsJsZECF]--></g></svg>