<svg xmlns="http://www.w3.org/2000/svg" xmlns:xlink="http://www.w3.org/1999/xlink" contentStyleType="text/css" data-diagram-type="CLASS" height="995px" preserveAspectRatio="none" style="width:1970px;height:995px;background:#FFFFFF;" version="1.1" viewBox="0 0 1970 995" width="1970px" zoomAndPan="magnify"><defs/><g><!--cluster DICOM-Header--><g class="cluster" data-entity="DICOM-Header" data-source-line="6" data-uid="ent0002" id="cluster_DICOM-Header"><path d="M8.5,6 L125.3281,6 A3.75,3.75 0 0 1 127.8281,8.5 L134.8281,28.2969 L1960.5,28.2969 A2.5,2.5 0 0 1 1963,30.7969 L1963,986.05 A2.5,2.5 0 0 1 1960.5,988.55 L8.5,988.55 A2.5,2.5 0 0 1 6,986.05 L6,8.5 A2.5,2.5 0 0 1 8.5,6" fill="none" style="stroke:#000000;stroke-width:1.5;"/><line style="stroke:#000000;stroke-width:1.5;" x1="6" x2="134.8281" y1="28.2969" y2="28.2969"/><text fill="#000000" font-family="sans-serif" font-size="14" font-weight="bold" lengthAdjust="spacing" textLength="115.8281" x="10" y="20.9951">DICOM-Header</text></g><!--class Studie--><g class="entity" data-entity="Studie" data-source-line="7" data-uid="ent0003" id="entity_Studie"><rect fill="#E0FFFF" height="284.4219" rx="2.5" ry="2.5" style="stroke:#181818;stroke-width:0.5;" width="436.7783" x="1510.61" y="41"/><ellipse cx="1677.7062" cy="61.1328" fill="#ADD1B2" rx="11" ry="11" style="stroke:#181818;stroke-width:1;"/><path d="M1680.6749,66.7734 Q1680.0968,67.0703 1679.4562,67.2109 Q1678.8156,67.3672 1678.1124,67.3672 Q1675.6124,67.3672 1674.2843,65.7266 Q1672.9718,64.0703 1672.9718,60.9453 Q1672.9718,57.8203 1674.2843,56.1641 Q1675.6124,54.5078 1678.1124,54.5078 Q1678.8156,54.5078 1679.4562,54.6641 Q1680.1124,54.8203 1680.6749,55.1172 L1680.6749,57.8359 Q1680.0499,57.2578 1679.4562,56.9922 Q1678.8624,56.7109 1678.2374,56.7109 Q1676.8937,56.7109 1676.2062,57.7891 Q1675.5187,58.8516 1675.5187,60.9453 Q1675.5187,63.0391 1676.2062,64.1172 Q1676.8937,65.1797 1678.2374,65.1797 Q1678.8624,65.1797 1679.4562,64.9141 Q1680.0499,64.6328 1680.6749,64.0547 L1680.6749,66.7734 Z " fill="#000000"/><text fill="#000000" font-family="sans-serif" font-size="12" font-style="italic" lengthAdjust="spacing" textLength="98.0859" x="1696.2062" y="57.1387">&#171;ImagingStudy&#187;</text><text fill="#000000" font-family="sans-serif" font-size="14" lengthAdjust="spacing" textLength="44.6387" x="1722.9298" y="72.9639">Studie</text><line style="stroke:#181818;stroke-width:0.5;" x1="1511.61" x2="1946.3883" y1="81.2656" y2="81.2656"/><ellipse cx="1521.61" cy="94.9141" fill="none" rx="3" ry="3" style="stroke:#038048;stroke-width:1;"/><text fill="#000000" font-family="sans-serif" font-size="14" lengthAdjust="spacing" textLength="144.7441" x="1530.61" y="98.2607">Status: Coding [1..1]</text><ellipse cx="1521.61" cy="111.2109" fill="none" rx="3" ry="3" style="stroke:#038048;stroke-width:1;"/><text fill="#000000" font-family="sans-serif" font-size="14" lengthAdjust="spacing" textLength="181.1592" x="1530.61" y="114.5576">Modalit&#228;ten: Coding [0..*]</text><ellipse cx="1521.61" cy="127.5078" fill="none" rx="3" ry="3" style="stroke:#038048;stroke-width:1;"/><text fill="#000000" font-family="sans-serif" font-size="14" lengthAdjust="spacing" textLength="345.2764" x="1530.61" y="130.8545">Personen-Identifikation: Reference(Patient) [1..1]</text><ellipse cx="1521.61" cy="143.8047" fill="none" rx="3" ry="3" style="stroke:#038048;stroke-width:1;"/><text fill="#000000" font-family="sans-serif" font-size="14" lengthAdjust="spacing" textLength="393.4492" x="1530.61" y="147.1514">Versorgungsstellenkontakt: Reference(Encounter) [0..1]</text><ellipse cx="1521.61" cy="160.1016" fill="none" rx="3" ry="3" style="stroke:#038048;stroke-width:1;"/><text fill="#000000" font-family="sans-serif" font-size="14" lengthAdjust="spacing" textLength="166.2568" x="1530.61" y="163.4482">Beginn: dateTime [0..1]</text><ellipse cx="1521.61" cy="176.3984" fill="none" rx="3" ry="3" style="stroke:#038048;stroke-width:1;"/><text fill="#000000" font-family="sans-serif" font-size="14" lengthAdjust="spacing" textLength="410.7783" x="1530.61" y="179.7451">Anfordernde Ma&#223;nahme: Reference(ServiceRequest) [0..*]</text><ellipse cx="1521.61" cy="192.6953" fill="none" rx="3" ry="3" style="stroke:#038048;stroke-width:1;"/><text fill="#000000" font-family="sans-serif" font-size="14" lengthAdjust="spacing" textLength="345.0781" x="1530.61" y="196.042">Quelle zum PACS Bild: Reference(Endpoint) [0..*]</text><ellipse cx="1521.61" cy="208.9922" fill="none" rx="3" ry="3" style="stroke:#038048;stroke-width:1;"/><text fill="#000000" font-family="sans-serif" font-size="14" lengthAdjust="spacing" textLength="335.8018" x="1530.61" y="212.3389">Anzahl an enhaltenen Serien: unsignedInt [0..1]</text><ellipse cx="1521.61" cy="225.2891" fill="none" rx="3" ry="3" style="stroke:#038048;stroke-width:1;"/><text fill="#000000" font-family="sans-serif" font-size="14" lengthAdjust="spacing" textLength="397.5303" x="1530.61" y="228.6357">Anzahl an enthaltenen SOP Instanzen: unsignedInt [0..1]</text><ellipse cx="1521.61" cy="241.5859" fill="none" rx="3" ry="3" style="stroke:#038048;stroke-width:1;"/><text fill="#000000" font-family="sans-serif" font-size="14" lengthAdjust="spacing" textLength="354.0879" x="1530.61" y="244.9326">Bildgebungsprozedur: Reference(Procedure) [0..1]</text><ellipse cx="1521.61" cy="257.8828" fill="none" rx="3" ry="3" style="stroke:#038048;stroke-width:1;"/><text fill="#000000" font-family="sans-serif" font-size="14" lengthAdjust="spacing" textLength="297.1992" x="1530.61" y="261.2295">Extension: Bildgebungsgrund: string [0..1]</text><ellipse cx="1521.61" cy="274.1797" fill="none" rx="3" ry="3" style="stroke:#038048;stroke-width:1;"/><text fill="#000000" font-family="sans-serif" font-size="14" lengthAdjust="spacing" textLength="357.7656" x="1530.61" y="277.5264">Indikation: Reference(Condition|Observation) [0..*]</text><ellipse cx="1521.61" cy="290.4766" fill="none" rx="3" ry="3" style="stroke:#038048;stroke-width:1;"/><text fill="#000000" font-family="sans-serif" font-size="14" lengthAdjust="spacing" textLength="245.8682" x="1530.61" y="293.8232">Studien-Beschreibung: string [0..1]</text><ellipse cx="1521.61" cy="306.7734" fill="none" rx="3" ry="3" style="stroke:#038048;stroke-width:1;"/><text fill="#000000" font-family="sans-serif" font-size="14" lengthAdjust="spacing" textLength="235.4092" x="1530.61" y="310.1201">DICOM-Serien: DICOM-Serie [0..*]</text><line style="stroke:#181818;stroke-width:0.5;" x1="1511.61" x2="1946.3883" y1="317.4219" y2="317.4219"/></g><!--class DICOMSerie--><g class="entity" data-entity="DICOMSerie" data-source-line="24" data-uid="ent0004" id="entity_DICOMSerie"><rect fill="#F1F1F1" height="292.4531" rx="2.5" ry="2.5" style="stroke:#181818;stroke-width:0.5;" width="563.5576" x="371.22" y="405.43"/><ellipse cx="606.9778" cy="421.43" fill="#ADD1B2" rx="11" ry="11" style="stroke:#181818;stroke-width:1;"/><path d="M609.9466,427.0706 Q609.3684,427.3675 608.7278,427.5081 Q608.0872,427.6644 607.3841,427.6644 Q604.8841,427.6644 603.5559,426.0237 Q602.2434,424.3675 602.2434,421.2425 Q602.2434,418.1175 603.5559,416.4612 Q604.8841,414.805 607.3841,414.805 Q608.0872,414.805 608.7278,414.9612 Q609.3841,415.1175 609.9466,415.4144 L609.9466,418.1331 Q609.3216,417.555 608.7278,417.2894 Q608.1341,417.0081 607.5091,417.0081 Q606.1653,417.0081 605.4778,418.0862 Q604.7903,419.1487 604.7903,421.2425 Q604.7903,423.3362 605.4778,424.4144 Q606.1653,425.4769 607.5091,425.4769 Q608.1341,425.4769 608.7278,425.2112 Q609.3216,424.93 609.9466,424.3519 L609.9466,427.0706 Z " fill="#000000"/><text fill="#000000" font-family="sans-serif" font-size="14" lengthAdjust="spacing" textLength="83.542" x="627.4778" y="426.2767">DICOMSerie</text><line style="stroke:#181818;stroke-width:0.5;" x1="372.22" x2="933.7776" y1="437.43" y2="437.43"/><ellipse cx="382.22" cy="451.0784" fill="none" rx="3" ry="3" style="stroke:#038048;stroke-width:1;"/><text fill="#000000" font-family="sans-serif" font-size="14" lengthAdjust="spacing" textLength="138.8721" x="391.22" y="454.4251">Serien-UID: id [1..1]</text><ellipse cx="382.22" cy="467.3753" fill="none" rx="3" ry="3" style="stroke:#038048;stroke-width:1;"/><text fill="#000000" font-family="sans-serif" font-size="14" lengthAdjust="spacing" textLength="244.6104" x="391.22" y="470.722">Serien-Nummer: unsignedInt [0..1]</text><ellipse cx="382.22" cy="483.6722" fill="none" rx="3" ry="3" style="stroke:#038048;stroke-width:1;"/><text fill="#000000" font-family="sans-serif" font-size="14" lengthAdjust="spacing" textLength="165.5801" x="391.22" y="487.0189">Modalit&#228;t: Coding [1..1]</text><ellipse cx="382.22" cy="499.9691" fill="none" rx="3" ry="3" style="stroke:#038048;stroke-width:1;"/><text fill="#000000" font-family="sans-serif" font-size="14" lengthAdjust="spacing" textLength="231.2188" x="391.22" y="503.3157">Serienbeschreibung: string [0..1]</text><ellipse cx="382.22" cy="516.2659" fill="none" rx="3" ry="3" style="stroke:#038048;stroke-width:1;"/><text fill="#000000" font-family="sans-serif" font-size="14" lengthAdjust="spacing" textLength="422.1533" x="391.22" y="519.6126">Anzahl an in Serie enthaltenen Instanzen: unsignedInt [0..1]</text><ellipse cx="382.22" cy="532.5628" fill="none" rx="3" ry="3" style="stroke:#038048;stroke-width:1;"/><text fill="#000000" font-family="sans-serif" font-size="14" lengthAdjust="spacing" textLength="263.9014" x="391.22" y="535.9095">K&#246;rperregion(bodySite): Coding [0..1]</text><ellipse cx="382.22" cy="548.8597" fill="none" rx="3" ry="3" style="stroke:#038048;stroke-width:1;"/><text fill="#000000" font-family="sans-serif" font-size="14" lengthAdjust="spacing" textLength="180.79" x="391.22" y="552.2064">K&#246;rperseite: Coding [0..1]</text><ellipse cx="382.22" cy="565.1566" fill="none" rx="3" ry="3" style="stroke:#038048;stroke-width:1;"/><text fill="#000000" font-family="sans-serif" font-size="14" lengthAdjust="spacing" textLength="166.2568" x="391.22" y="568.5032">Beginn: dateTime [0..1]</text><ellipse cx="382.22" cy="581.4534" fill="none" rx="3" ry="3" style="stroke:#038048;stroke-width:1;"/><text fill="#000000" font-family="sans-serif" font-size="14" lengthAdjust="spacing" textLength="365.5107" x="391.22" y="584.8001">Funktion des Ausf&#252;hrenden: CodeableConcept [0..*]</text><ellipse cx="382.22" cy="597.7503" fill="none" rx="3" ry="3" style="stroke:#038048;stroke-width:1;"/><text fill="#000000" font-family="sans-serif" font-size="14" lengthAdjust="spacing" textLength="227.9102" x="391.22" y="601.097">Akteur: Reference(Device) [1..1]</text><ellipse cx="382.22" cy="614.0472" fill="none" rx="3" ry="3" style="stroke:#038048;stroke-width:1;"/><text fill="#000000" font-family="sans-serif" font-size="14" lengthAdjust="spacing" textLength="316.4492" x="391.22" y="617.3939">Extension: Schichtdicke: Quantity[mm] [1..1]</text><ellipse cx="382.22" cy="630.3441" fill="none" rx="3" ry="3" style="stroke:#038048;stroke-width:1;"/><text fill="#000000" font-family="sans-serif" font-size="14" lengthAdjust="spacing" textLength="320.3252" x="391.22" y="633.6907">Extension: Kontrastmittelgabe: boolean [1..1]</text><ellipse cx="382.22" cy="646.6409" fill="none" rx="3" ry="3" style="stroke:#038048;stroke-width:1;"/><text fill="#000000" font-family="sans-serif" font-size="14" lengthAdjust="spacing" textLength="537.5576" x="391.22" y="649.9876">Extension: Kontrastmitteldetails: Reference(Statement|Administration) [0..*]</text><ellipse cx="382.22" cy="662.9378" fill="none" rx="3" ry="3" style="stroke:#038048;stroke-width:1;"/><text fill="#000000" font-family="sans-serif" font-size="14" lengthAdjust="spacing" textLength="383.0244" x="391.22" y="666.2845">Extension: Modalit&#228;ten(DX,CR,MG,CT,MR,PT,NM) [0..1]</text><ellipse cx="382.22" cy="679.2347" fill="none" rx="3" ry="3" style="stroke:#038048;stroke-width:1;"/><text fill="#000000" font-family="sans-serif" font-size="14" lengthAdjust="spacing" textLength="229.8037" x="391.22" y="682.5814">DICOM-Instanzen: Instance [0..*]</text><line style="stroke:#181818;stroke-width:0.5;" x1="372.22" x2="933.7776" y1="689.8831" y2="689.8831"/></g><!--class DICOMInstanz--><g class="entity" data-entity="DICOMInstanz" data-source-line="42" data-uid="ent0005" id="entity_DICOMInstanz"><rect fill="#F1F1F1" height="194.6719" rx="2.5" ry="2.5" style="stroke:#181818;stroke-width:0.5;" width="387.2451" x="22.38" y="777.88"/><ellipse cx="162.568" cy="793.88" fill="#ADD1B2" rx="11" ry="11" style="stroke:#181818;stroke-width:1;"/><path d="M165.5367,799.5206 Q164.9586,799.8175 164.318,799.9581 Q163.6774,800.1144 162.9742,800.1144 Q160.4742,800.1144 159.1461,798.4738 Q157.8336,796.8175 157.8336,793.6925 Q157.8336,790.5675 159.1461,788.9113 Q160.4742,787.255 162.9742,787.255 Q163.6774,787.255 164.318,787.4113 Q164.9742,787.5675 165.5367,787.8644 L165.5367,790.5831 Q164.9117,790.005 164.318,789.7394 Q163.7242,789.4581 163.0992,789.4581 Q161.7555,789.4581 161.068,790.5363 Q160.3805,791.5988 160.3805,793.6925 Q160.3805,795.7863 161.068,796.8644 Q161.7555,797.9269 163.0992,797.9269 Q163.7242,797.9269 164.318,797.6613 Q164.9117,797.38 165.5367,796.8019 L165.5367,799.5206 Z " fill="#000000"/><text fill="#000000" font-family="sans-serif" font-size="14" lengthAdjust="spacing" textLength="98.3691" x="183.068" y="798.7267">DICOMInstanz</text><line style="stroke:#181818;stroke-width:0.5;" x1="23.38" x2="408.6251" y1="809.88" y2="809.88"/><ellipse cx="33.38" cy="823.5284" fill="none" rx="3" ry="3" style="stroke:#038048;stroke-width:1;"/><text fill="#000000" font-family="sans-serif" font-size="14" lengthAdjust="spacing" textLength="177.625" x="42.38" y="826.8751">SOP-Instanz UID: id [1..1]</text><ellipse cx="33.38" cy="839.8253" fill="none" rx="3" ry="3" style="stroke:#038048;stroke-width:1;"/><text fill="#000000" font-family="sans-serif" font-size="14" lengthAdjust="spacing" textLength="178.3838" x="42.38" y="843.172">SOP-Klasse: Coding [1..1]</text><ellipse cx="33.38" cy="856.1222" fill="none" rx="3" ry="3" style="stroke:#038048;stroke-width:1;"/><text fill="#000000" font-family="sans-serif" font-size="14" lengthAdjust="spacing" textLength="250.5645" x="42.38" y="859.4689">Instanz-Nummer: unsignedInt [0..1]</text><ellipse cx="33.38" cy="872.4191" fill="none" rx="3" ry="3" style="stroke:#038048;stroke-width:1;"/><text fill="#000000" font-family="sans-serif" font-size="14" lengthAdjust="spacing" textLength="123.4707" x="42.38" y="875.7657">Titel: String [0..1]</text><ellipse cx="33.38" cy="888.7159" fill="none" rx="3" ry="3" style="stroke:#038048;stroke-width:1;"/><text fill="#000000" font-family="sans-serif" font-size="14" lengthAdjust="spacing" textLength="299.8857" x="42.38" y="892.0626">Extension: Bildtyp: CodeableConcept [0..*]</text><ellipse cx="33.38" cy="905.0128" fill="none" rx="3" ry="3" style="stroke:#038048;stroke-width:1;"/><text fill="#000000" font-family="sans-serif" font-size="14" lengthAdjust="spacing" textLength="316.4492" x="42.38" y="908.3595">Extension: Schichtdicke: Quantity[mm] [0..1]</text><ellipse cx="33.38" cy="921.3097" fill="none" rx="3" ry="3" style="stroke:#038048;stroke-width:1;"/><text fill="#000000" font-family="sans-serif" font-size="14" lengthAdjust="spacing" textLength="336.7656" x="42.38" y="924.6564">Extension: Pixelabstand(x): Quantity[mm] [0..1]</text><ellipse cx="33.38" cy="937.6066" fill="none" rx="3" ry="3" style="stroke:#038048;stroke-width:1;"/><text fill="#000000" font-family="sans-serif" font-size="14" lengthAdjust="spacing" textLength="336.7656" x="42.38" y="940.9532">Extension: Pixelabstand(y): Quantity[mm] [0..1]</text><ellipse cx="33.38" cy="953.9034" fill="none" rx="3" ry="3" style="stroke:#038048;stroke-width:1;"/><text fill="#000000" font-family="sans-serif" font-size="14" lengthAdjust="spacing" textLength="361.2451" x="42.38" y="957.2501">Extension: Eingebrannte Annotation: Boolean [0..1]</text><line style="stroke:#181818;stroke-width:0.5;" x1="23.38" x2="408.6251" y1="964.5519" y2="964.5519"/></g><!--class Modalit?tMR--><g class="entity" data-entity="Modalit.tMR" data-source-line="54" data-uid="ent0006" id="entity_Modalit.tMR"><rect fill="#FFFFE0" height="162.0781" rx="2.5" ry="2.5" style="stroke:#181818;stroke-width:0.5;" width="393.0898" x="1553.46" y="470.61"/><ellipse cx="1702.128" cy="486.61" fill="#ADD1B2" rx="11" ry="11" style="stroke:#181818;stroke-width:1;"/><path d="M1705.0967,492.2506 Q1704.5186,492.5475 1703.878,492.6881 Q1703.2373,492.8444 1702.5342,492.8444 Q1700.0342,492.8444 1698.7061,491.2037 Q1697.3936,489.5475 1697.3936,486.4225 Q1697.3936,483.2975 1698.7061,481.6412 Q1700.0342,479.985 1702.5342,479.985 Q1703.2373,479.985 1703.878,480.1412 Q1704.5342,480.2975 1705.0967,480.5944 L1705.0967,483.3131 Q1704.4717,482.735 1703.878,482.4694 Q1703.2842,482.1881 1702.6592,482.1881 Q1701.3155,482.1881 1700.628,483.2662 Q1699.9405,484.3287 1699.9405,486.4225 Q1699.9405,488.5162 1700.628,489.5944 Q1701.3155,490.6569 1702.6592,490.6569 Q1703.2842,490.6569 1703.878,490.3912 Q1704.4717,490.11 1705.0967,489.5319 L1705.0967,492.2506 Z " fill="#000000"/><text fill="#000000" font-family="sans-serif" font-size="14" lengthAdjust="spacing" textLength="87.2539" x="1722.628" y="491.4567">Modalit&#228;tMR</text><line style="stroke:#181818;stroke-width:0.5;" x1="1554.46" x2="1945.5498" y1="502.61" y2="502.61"/><ellipse cx="1564.46" cy="516.2584" fill="none" rx="3" ry="3" style="stroke:#038048;stroke-width:1;"/><text fill="#000000" font-family="sans-serif" font-size="14" lengthAdjust="spacing" textLength="265.5967" x="1573.46" y="519.6051">Scansequenz: CodeableConcept [0..*]</text><ellipse cx="1564.46" cy="532.5553" fill="none" rx="3" ry="3" style="stroke:#038048;stroke-width:1;"/><text fill="#000000" font-family="sans-serif" font-size="14" lengthAdjust="spacing" textLength="367.0898" x="1573.46" y="535.902">Scansequenz Untervariante: CodeableConcept [0..*]</text><ellipse cx="1564.46" cy="548.8522" fill="none" rx="3" ry="3" style="stroke:#038048;stroke-width:1;"/><text fill="#000000" font-family="sans-serif" font-size="14" lengthAdjust="spacing" textLength="297.8486" x="1573.46" y="552.1989">Magnetische Feldst&#228;rke: Quantity[T] [0..1]</text><ellipse cx="1564.46" cy="565.1491" fill="none" rx="3" ry="3" style="stroke:#038048;stroke-width:1;"/><text fill="#000000" font-family="sans-serif" font-size="14" lengthAdjust="spacing" textLength="235.7031" x="1573.46" y="568.4957">Echozeit (TE): Quantity[ms] [0..1]</text><ellipse cx="1564.46" cy="581.4459" fill="none" rx="3" ry="3" style="stroke:#038048;stroke-width:1;"/><text fill="#000000" font-family="sans-serif" font-size="14" lengthAdjust="spacing" textLength="281.9346" x="1573.46" y="584.7926">Repetitionszeit (TR): Quantity[ms] [0..1]</text><ellipse cx="1564.46" cy="597.7428" fill="none" rx="3" ry="3" style="stroke:#038048;stroke-width:1;"/><text fill="#000000" font-family="sans-serif" font-size="14" lengthAdjust="spacing" textLength="268.5771" x="1573.46" y="601.0895">Inversionszeit (TI): Quantity[ms] [0..1]</text><ellipse cx="1564.46" cy="614.0397" fill="none" rx="3" ry="3" style="stroke:#038048;stroke-width:1;"/><text fill="#000000" font-family="sans-serif" font-size="14" lengthAdjust="spacing" textLength="224.7314" x="1573.46" y="617.3864">Kippwinkel: Quantity[deg] [0..1]</text><line style="stroke:#181818;stroke-width:0.5;" x1="1554.46" x2="1945.5498" y1="624.6881" y2="624.6881"/></g><!--class Modalit?tCT--><g class="entity" data-entity="Modalit.tCT" data-source-line="64" data-uid="ent0007" id="entity_Modalit.tCT"><rect fill="#FFFFE0" height="145.7813" rx="2.5" ry="2.5" style="stroke:#181818;stroke-width:0.5;" width="318.0996" x="559.95" y="802.32"/><ellipse cx="672.8626" cy="818.32" fill="#ADD1B2" rx="11" ry="11" style="stroke:#181818;stroke-width:1;"/><path d="M675.8313,823.9606 Q675.2532,824.2575 674.6126,824.3981 Q673.972,824.5544 673.2688,824.5544 Q670.7688,824.5544 669.4407,822.9137 Q668.1282,821.2575 668.1282,818.1325 Q668.1282,815.0075 669.4407,813.3512 Q670.7688,811.695 673.2688,811.695 Q673.972,811.695 674.6126,811.8512 Q675.2688,812.0075 675.8313,812.3044 L675.8313,815.0231 Q675.2063,814.445 674.6126,814.1794 Q674.0188,813.8981 673.3938,813.8981 Q672.0501,813.8981 671.3626,814.9762 Q670.6751,816.0387 670.6751,818.1325 Q670.6751,820.2262 671.3626,821.3044 Q672.0501,822.3669 673.3938,822.3669 Q674.0188,822.3669 674.6126,822.1012 Q675.2063,821.82 675.8313,821.2419 L675.8313,823.9606 Z " fill="#000000"/><text fill="#000000" font-family="sans-serif" font-size="14" lengthAdjust="spacing" textLength="83.7744" x="693.3626" y="823.1667">Modalit&#228;tCT</text><line style="stroke:#181818;stroke-width:0.5;" x1="560.95" x2="877.0496" y1="834.32" y2="834.32"/><ellipse cx="570.95" cy="847.9684" fill="none" rx="3" ry="3" style="stroke:#038048;stroke-width:1;"/><text fill="#000000" font-family="sans-serif" font-size="14" lengthAdjust="spacing" textLength="255.165" x="579.95" y="851.3151">CTDI Volumen: Quantity[mGy] [0..1]</text><ellipse cx="570.95" cy="864.2653" fill="none" rx="3" ry="3" style="stroke:#038048;stroke-width:1;"/><text fill="#000000" font-family="sans-serif" font-size="14" lengthAdjust="spacing" textLength="167.5625" x="579.95" y="867.612">KVP: Quantity[kV] [0..1]</text><ellipse cx="570.95" cy="880.5622" fill="none" rx="3" ry="3" style="stroke:#038048;stroke-width:1;"/><text fill="#000000" font-family="sans-serif" font-size="14" lengthAdjust="spacing" textLength="248.8281" x="579.95" y="883.9089">Expositionszeit: Quantity[ms] [0..1]</text><ellipse cx="570.95" cy="896.8591" fill="none" rx="3" ry="3" style="stroke:#038048;stroke-width:1;"/><text fill="#000000" font-family="sans-serif" font-size="14" lengthAdjust="spacing" textLength="225.7705" x="579.95" y="900.2057">Exposition: Quantity[mAs] [0..1]</text><ellipse cx="570.95" cy="913.1559" fill="none" rx="3" ry="3" style="stroke:#038048;stroke-width:1;"/><text fill="#000000" font-family="sans-serif" font-size="14" lengthAdjust="spacing" textLength="292.0996" x="579.95" y="916.5026">R&#246;ntgenr&#246;hrenstrom: Quantity[mA] [0..1]</text><ellipse cx="570.95" cy="929.4528" fill="none" rx="3" ry="3" style="stroke:#038048;stroke-width:1;"/><text fill="#000000" font-family="sans-serif" font-size="14" lengthAdjust="spacing" textLength="160.0771" x="579.95" y="932.7995">Filterkern: String [0..1]</text><line style="stroke:#181818;stroke-width:0.5;" x1="560.95" x2="877.0496" y1="940.1012" y2="940.1012"/></g><!--class Modalit?tDX--><g class="entity" data-entity="Modalit.tDX" data-source-line="73" data-uid="ent0008" id="entity_Modalit.tDX"><rect fill="#FFFFE0" height="129.4844" rx="2.5" ry="2.5" style="stroke:#181818;stroke-width:0.5;" width="318.0996" x="1027.95" y="810.47"/><ellipse cx="1139.8406" cy="826.47" fill="#ADD1B2" rx="11" ry="11" style="stroke:#181818;stroke-width:1;"/><path d="M1142.8094,832.1106 Q1142.2313,832.4075 1141.5906,832.5481 Q1140.95,832.7044 1140.2469,832.7044 Q1137.7469,832.7044 1136.4188,831.0637 Q1135.1063,829.4075 1135.1063,826.2825 Q1135.1063,823.1575 1136.4188,821.5012 Q1137.7469,819.845 1140.2469,819.845 Q1140.95,819.845 1141.5906,820.0012 Q1142.2469,820.1575 1142.8094,820.4544 L1142.8094,823.1731 Q1142.1844,822.595 1141.5906,822.3294 Q1140.9969,822.0481 1140.3719,822.0481 Q1139.0281,822.0481 1138.3406,823.1262 Q1137.6531,824.1887 1137.6531,826.2825 Q1137.6531,828.3762 1138.3406,829.4544 Q1139.0281,830.5169 1140.3719,830.5169 Q1140.9969,830.5169 1141.5906,830.2512 Q1142.1844,829.97 1142.8094,829.3919 L1142.8094,832.1106 Z " fill="#000000"/><text fill="#000000" font-family="sans-serif" font-size="14" lengthAdjust="spacing" textLength="85.8184" x="1160.3406" y="831.3167">Modalit&#228;tDX</text><line style="stroke:#181818;stroke-width:0.5;" x1="1028.95" x2="1345.0496" y1="842.47" y2="842.47"/><ellipse cx="1038.95" cy="856.1184" fill="none" rx="3" ry="3" style="stroke:#038048;stroke-width:1;"/><text fill="#000000" font-family="sans-serif" font-size="14" lengthAdjust="spacing" textLength="167.5625" x="1047.95" y="859.4651">KVP: Quantity[kV] [0..1]</text><ellipse cx="1038.95" cy="872.4153" fill="none" rx="3" ry="3" style="stroke:#038048;stroke-width:1;"/><text fill="#000000" font-family="sans-serif" font-size="14" lengthAdjust="spacing" textLength="248.8281" x="1047.95" y="875.762">Expositionszeit: Quantity[ms] [0..1]</text><ellipse cx="1038.95" cy="888.7122" fill="none" rx="3" ry="3" style="stroke:#038048;stroke-width:1;"/><text fill="#000000" font-family="sans-serif" font-size="14" lengthAdjust="spacing" textLength="225.7705" x="1047.95" y="892.0589">Exposition: Quantity[mAs] [0..1]</text><ellipse cx="1038.95" cy="905.0091" fill="none" rx="3" ry="3" style="stroke:#038048;stroke-width:1;"/><text fill="#000000" font-family="sans-serif" font-size="14" lengthAdjust="spacing" textLength="292.0996" x="1047.95" y="908.3557">R&#246;ntgenr&#246;hrenstrom: Quantity[mA] [0..1]</text><ellipse cx="1038.95" cy="921.3059" fill="none" rx="3" ry="3" style="stroke:#038048;stroke-width:1;"/><text fill="#000000" font-family="sans-serif" font-size="14" lengthAdjust="spacing" textLength="263.6074" x="1047.95" y="924.6526">Blickposition: CodeableConcept [0..1]</text><line style="stroke:#181818;stroke-width:0.5;" x1="1028.95" x2="1345.0496" y1="931.9544" y2="931.9544"/></g><!--class Modalit?tCR--><g class="entity" data-entity="Modalit.tCR" data-source-line="81" data-uid="ent0009" id="entity_Modalit.tCR"><rect fill="#FFFFE0" height="129.4844" rx="2.5" ry="2.5" style="stroke:#181818;stroke-width:0.5;" width="318.0996" x="1495.95" y="810.47"/><ellipse cx="1608.2747" cy="826.47" fill="#ADD1B2" rx="11" ry="11" style="stroke:#181818;stroke-width:1;"/><path d="M1611.2435,832.1106 Q1610.6653,832.4075 1610.0247,832.5481 Q1609.3841,832.7044 1608.681,832.7044 Q1606.181,832.7044 1604.8528,831.0637 Q1603.5403,829.4075 1603.5403,826.2825 Q1603.5403,823.1575 1604.8528,821.5012 Q1606.181,819.845 1608.681,819.845 Q1609.3841,819.845 1610.0247,820.0012 Q1610.681,820.1575 1611.2435,820.4544 L1611.2435,823.1731 Q1610.6185,822.595 1610.0247,822.3294 Q1609.431,822.0481 1608.806,822.0481 Q1607.4622,822.0481 1606.7747,823.1262 Q1606.0872,824.1887 1606.0872,826.2825 Q1606.0872,828.3762 1606.7747,829.4544 Q1607.4622,830.5169 1608.806,830.5169 Q1609.431,830.5169 1610.0247,830.2512 Q1610.6185,829.97 1611.2435,829.3919 L1611.2435,832.1106 Z " fill="#000000"/><text fill="#000000" font-family="sans-serif" font-size="14" lengthAdjust="spacing" textLength="84.9502" x="1628.7747" y="831.3167">Modalit&#228;tCR</text><line style="stroke:#181818;stroke-width:0.5;" x1="1496.95" x2="1813.0496" y1="842.47" y2="842.47"/><ellipse cx="1506.95" cy="856.1184" fill="none" rx="3" ry="3" style="stroke:#038048;stroke-width:1;"/><text fill="#000000" font-family="sans-serif" font-size="14" lengthAdjust="spacing" textLength="167.5625" x="1515.95" y="859.4651">KVP: Quantity[kV] [0..1]</text><ellipse cx="1506.95" cy="872.4153" fill="none" rx="3" ry="3" style="stroke:#038048;stroke-width:1;"/><text fill="#000000" font-family="sans-serif" font-size="14" lengthAdjust="spacing" textLength="248.8281" x="1515.95" y="875.762">Expositionszeit: Quantity[ms] [0..1]</text><ellipse cx="1506.95" cy="888.7122" fill="none" rx="3" ry="3" style="stroke:#038048;stroke-width:1;"/><text fill="#000000" font-family="sans-serif" font-size="14" lengthAdjust="spacing" textLength="225.7705" x="1515.95" y="892.0589">Exposition: Quantity[mAs] [0..1]</text><ellipse cx="1506.95" cy="905.0091" fill="none" rx="3" ry="3" style="stroke:#038048;stroke-width:1;"/><text fill="#000000" font-family="sans-serif" font-size="14" lengthAdjust="spacing" textLength="292.0996" x="1515.95" y="908.3557">R&#246;ntgenr&#246;hrenstrom: Quantity[mA] [0..1]</text><ellipse cx="1506.95" cy="921.3059" fill="none" rx="3" ry="3" style="stroke:#038048;stroke-width:1;"/><text fill="#000000" font-family="sans-serif" font-size="14" lengthAdjust="spacing" textLength="263.6074" x="1515.95" y="924.6526">Blickposition: CodeableConcept [0..1]</text><line style="stroke:#181818;stroke-width:0.5;" x1="1496.95" x2="1813.0496" y1="931.9544" y2="931.9544"/></g><!--class Modalit?tMG--><g class="entity" data-entity="Modalit.tMG" data-source-line="89" data-uid="ent0010" id="entity_Modalit.tMG"><rect fill="#FFFFE0" height="129.4844" rx="2.5" ry="2.5" style="stroke:#181818;stroke-width:0.5;" width="318.0996" x="1084.95" y="486.91"/><ellipse cx="1195.5623" cy="502.91" fill="#ADD1B2" rx="11" ry="11" style="stroke:#181818;stroke-width:1;"/><path d="M1198.5311,508.5506 Q1197.9529,508.8475 1197.3123,508.9881 Q1196.6717,509.1444 1195.9686,509.1444 Q1193.4686,509.1444 1192.1404,507.5037 Q1190.8279,505.8475 1190.8279,502.7225 Q1190.8279,499.5975 1192.1404,497.9412 Q1193.4686,496.285 1195.9686,496.285 Q1196.6717,496.285 1197.3123,496.4412 Q1197.9686,496.5975 1198.5311,496.8944 L1198.5311,499.6131 Q1197.9061,499.035 1197.3123,498.7694 Q1196.7186,498.4881 1196.0936,498.4881 Q1194.7498,498.4881 1194.0623,499.5662 Q1193.3748,500.6287 1193.3748,502.7225 Q1193.3748,504.8162 1194.0623,505.8944 Q1194.7498,506.9569 1196.0936,506.9569 Q1196.7186,506.9569 1197.3123,506.6912 Q1197.9061,506.41 1198.5311,505.8319 L1198.5311,508.5506 Z " fill="#000000"/><text fill="#000000" font-family="sans-serif" font-size="14" lengthAdjust="spacing" textLength="88.375" x="1216.0623" y="507.7567">Modalit&#228;tMG</text><line style="stroke:#181818;stroke-width:0.5;" x1="1085.95" x2="1402.0496" y1="518.91" y2="518.91"/><ellipse cx="1095.95" cy="532.5584" fill="none" rx="3" ry="3" style="stroke:#038048;stroke-width:1;"/><text fill="#000000" font-family="sans-serif" font-size="14" lengthAdjust="spacing" textLength="167.5625" x="1104.95" y="535.9051">KVP: Quantity[kV] [0..1]</text><ellipse cx="1095.95" cy="548.8553" fill="none" rx="3" ry="3" style="stroke:#038048;stroke-width:1;"/><text fill="#000000" font-family="sans-serif" font-size="14" lengthAdjust="spacing" textLength="248.8281" x="1104.95" y="552.202">Expositionszeit: Quantity[ms] [0..1]</text><ellipse cx="1095.95" cy="565.1522" fill="none" rx="3" ry="3" style="stroke:#038048;stroke-width:1;"/><text fill="#000000" font-family="sans-serif" font-size="14" lengthAdjust="spacing" textLength="225.7705" x="1104.95" y="568.4989">Exposition: Quantity[mAs] [0..1]</text><ellipse cx="1095.95" cy="581.4491" fill="none" rx="3" ry="3" style="stroke:#038048;stroke-width:1;"/><text fill="#000000" font-family="sans-serif" font-size="14" lengthAdjust="spacing" textLength="292.0996" x="1104.95" y="584.7957">R&#246;ntgenr&#246;hrenstrom: Quantity[mA] [0..1]</text><ellipse cx="1095.95" cy="597.7459" fill="none" rx="3" ry="3" style="stroke:#038048;stroke-width:1;"/><text fill="#000000" font-family="sans-serif" font-size="14" lengthAdjust="spacing" textLength="263.6074" x="1104.95" y="601.0926">Blickposition: CodeableConcept [0..1]</text><line style="stroke:#181818;stroke-width:0.5;" x1="1085.95" x2="1402.0496" y1="608.3944" y2="608.3944"/></g><!--class Modalit?tNM--><g class="entity" data-entity="Modalit.tNM" data-source-line="97" data-uid="ent0011" id="entity_Modalit.tNM"><rect fill="#FFFFE0" height="145.7813" rx="2.5" ry="2.5" style="stroke:#181818;stroke-width:0.5;" width="364.8711" x="536.56" y="110.32"/><ellipse cx="670.746" cy="126.32" fill="#ADD1B2" rx="11" ry="11" style="stroke:#181818;stroke-width:1;"/><path d="M673.7148,131.9606 Q673.1367,132.2575 672.496,132.3981 Q671.8554,132.5544 671.1523,132.5544 Q668.6523,132.5544 667.3242,130.9137 Q666.0117,129.2575 666.0117,126.1325 Q666.0117,123.0075 667.3242,121.3512 Q668.6523,119.695 671.1523,119.695 Q671.8554,119.695 672.496,119.8512 Q673.1523,120.0075 673.7148,120.3044 L673.7148,123.0231 Q673.0898,122.445 672.496,122.1794 Q671.9023,121.8981 671.2773,121.8981 Q669.9335,121.8981 669.246,122.9762 Q668.5585,124.0387 668.5585,126.1325 Q668.5585,128.2262 669.246,129.3044 Q669.9335,130.3669 671.2773,130.3669 Q671.9023,130.3669 672.496,130.1012 Q673.0898,129.82 673.7148,129.2419 L673.7148,131.9606 Z " fill="#000000"/><text fill="#000000" font-family="sans-serif" font-size="14" lengthAdjust="spacing" textLength="87.999" x="691.246" y="131.1667">Modalit&#228;tNM</text><line style="stroke:#181818;stroke-width:0.5;" x1="537.56" x2="900.4311" y1="142.32" y2="142.32"/><ellipse cx="547.56" cy="155.9684" fill="none" rx="3" ry="3" style="stroke:#038048;stroke-width:1;"/><text fill="#000000" font-family="sans-serif" font-size="14" lengthAdjust="spacing" textLength="294.4717" x="556.56" y="159.3151">Radiopharmakon: CodeableConcept [0..1]</text><ellipse cx="547.56" cy="172.2653" fill="none" rx="3" ry="3" style="stroke:#038048;stroke-width:1;"/><text fill="#000000" font-family="sans-serif" font-size="14" lengthAdjust="spacing" textLength="257.1338" x="556.56" y="175.612">Radionuklid: CodeableConcept [0..1]</text><ellipse cx="547.56" cy="188.5622" fill="none" rx="3" ry="3" style="stroke:#038048;stroke-width:1;"/><text fill="#000000" font-family="sans-serif" font-size="14" lengthAdjust="spacing" textLength="284.5938" x="556.56" y="191.9089">Tracer Expositionszeit: Quantity[s] [0..1]</text><ellipse cx="547.56" cy="204.8591" fill="none" rx="3" ry="3" style="stroke:#038048;stroke-width:1;"/><text fill="#000000" font-family="sans-serif" font-size="14" lengthAdjust="spacing" textLength="304.8555" x="556.56" y="208.2057">Skalierungseinheit: CodeableConcept [0..1]</text><ellipse cx="547.56" cy="221.1559" fill="none" rx="3" ry="3" style="stroke:#038048;stroke-width:1;"/><text fill="#000000" font-family="sans-serif" font-size="14" lengthAdjust="spacing" textLength="338.8711" x="556.56" y="224.5026">Gesamte Radionukliddosis: Quantity[MBq] [0..1]</text><ellipse cx="547.56" cy="237.4528" fill="none" rx="3" ry="3" style="stroke:#038048;stroke-width:1;"/><text fill="#000000" font-family="sans-serif" font-size="14" lengthAdjust="spacing" textLength="225.7979" x="556.56" y="240.7995">Halbwertszeit: Quantity[s] [0..1]</text><line style="stroke:#181818;stroke-width:0.5;" x1="537.56" x2="900.4311" y1="248.1012" y2="248.1012"/></g><!--class Modalit?tPT--><g class="entity" data-entity="Modalit.tPT" data-source-line="106" data-uid="ent0012" id="entity_Modalit.tPT"><rect fill="#FFFFE0" height="162.0781" rx="2.5" ry="2.5" style="stroke:#181818;stroke-width:0.5;" width="364.8711" x="21.56" y="102.17"/><ellipse cx="158.5248" cy="118.17" fill="#ADD1B2" rx="11" ry="11" style="stroke:#181818;stroke-width:1;"/><path d="M161.4936,123.8106 Q160.9155,124.1075 160.2748,124.2481 Q159.6342,124.4044 158.9311,124.4044 Q156.4311,124.4044 155.103,122.7637 Q153.7905,121.1075 153.7905,117.9825 Q153.7905,114.8575 155.103,113.2012 Q156.4311,111.545 158.9311,111.545 Q159.6342,111.545 160.2748,111.7012 Q160.9311,111.8575 161.4936,112.1544 L161.4936,114.8731 Q160.8686,114.295 160.2748,114.0294 Q159.6811,113.7481 159.0561,113.7481 Q157.7123,113.7481 157.0248,114.8262 Q156.3373,115.8887 156.3373,117.9825 Q156.3373,120.0762 157.0248,121.1544 Q157.7123,122.2169 159.0561,122.2169 Q159.6811,122.2169 160.2748,121.9512 Q160.8686,121.67 161.4936,121.0919 L161.4936,123.8106 Z " fill="#000000"/><text fill="#000000" font-family="sans-serif" font-size="14" lengthAdjust="spacing" textLength="82.4414" x="179.0248" y="123.0167">Modalit&#228;tPT</text><line style="stroke:#181818;stroke-width:0.5;" x1="22.56" x2="385.4311" y1="134.17" y2="134.17"/><ellipse cx="32.56" cy="147.8184" fill="none" rx="3" ry="3" style="stroke:#038048;stroke-width:1;"/><text fill="#000000" font-family="sans-serif" font-size="14" lengthAdjust="spacing" textLength="294.4717" x="41.56" y="151.1651">Radiopharmakon: CodeableConcept [0..1]</text><ellipse cx="32.56" cy="164.1153" fill="none" rx="3" ry="3" style="stroke:#038048;stroke-width:1;"/><text fill="#000000" font-family="sans-serif" font-size="14" lengthAdjust="spacing" textLength="257.1338" x="41.56" y="167.462">Radionuklid: CodeableConcept [0..1]</text><ellipse cx="32.56" cy="180.4122" fill="none" rx="3" ry="3" style="stroke:#038048;stroke-width:1;"/><text fill="#000000" font-family="sans-serif" font-size="14" lengthAdjust="spacing" textLength="284.5938" x="41.56" y="183.7589">Tracer Expositionszeit: Quantity[s] [0..1]</text><ellipse cx="32.56" cy="196.7091" fill="none" rx="3" ry="3" style="stroke:#038048;stroke-width:1;"/><text fill="#000000" font-family="sans-serif" font-size="14" lengthAdjust="spacing" textLength="304.8555" x="41.56" y="200.0557">Skalierungseinheit: CodeableConcept [0..1]</text><ellipse cx="32.56" cy="213.0059" fill="none" rx="3" ry="3" style="stroke:#038048;stroke-width:1;"/><text fill="#000000" font-family="sans-serif" font-size="14" lengthAdjust="spacing" textLength="338.8711" x="41.56" y="216.3526">Gesamte Radionukliddosis: Quantity[MBq] [0..1]</text><ellipse cx="32.56" cy="229.3028" fill="none" rx="3" ry="3" style="stroke:#038048;stroke-width:1;"/><text fill="#000000" font-family="sans-serif" font-size="14" lengthAdjust="spacing" textLength="225.7979" x="41.56" y="232.6495">Halbwertszeit: Quantity[s] [0..1]</text><ellipse cx="32.56" cy="245.5997" fill="none" rx="3" ry="3" style="stroke:#038048;stroke-width:1;"/><text fill="#000000" font-family="sans-serif" font-size="14" lengthAdjust="spacing" textLength="240.3516" x="41.56" y="248.9464">Serientyp: CodeableConcept [0..*]</text><line style="stroke:#181818;stroke-width:0.5;" x1="22.56" x2="385.4311" y1="256.2481" y2="256.2481"/></g><!--class Modalit?tUS--><g class="entity" data-entity="Modalit.tUS" data-source-line="116" data-uid="ent0013" id="entity_Modalit.tUS"><rect fill="#FFFFE0" height="113.1875" rx="2.5" ry="2.5" style="stroke:#181818;stroke-width:0.5;" width="310.04" x="1050.98" y="126.62"/><ellipse cx="1159.4595" cy="142.62" fill="#ADD1B2" rx="11" ry="11" style="stroke:#181818;stroke-width:1;"/><path d="M1162.4282,148.2606 Q1161.8501,148.5575 1161.2095,148.6981 Q1160.5689,148.8544 1159.8657,148.8544 Q1157.3657,148.8544 1156.0376,147.2138 Q1154.7251,145.5575 1154.7251,142.4325 Q1154.7251,139.3075 1156.0376,137.6513 Q1157.3657,135.995 1159.8657,135.995 Q1160.5689,135.995 1161.2095,136.1513 Q1161.8657,136.3075 1162.4282,136.6044 L1162.4282,139.3231 Q1161.8032,138.745 1161.2095,138.4794 Q1160.6157,138.1981 1159.9907,138.1981 Q1158.647,138.1981 1157.9595,139.2763 Q1157.272,140.3388 1157.272,142.4325 Q1157.272,144.5263 1157.9595,145.6044 Q1158.647,146.6669 1159.9907,146.6669 Q1160.6157,146.6669 1161.2095,146.4013 Q1161.8032,146.12 1162.4282,145.5419 L1162.4282,148.2606 Z " fill="#000000"/><text fill="#000000" font-family="sans-serif" font-size="14" lengthAdjust="spacing" textLength="84.5811" x="1179.9595" y="147.4667">Modalit&#228;tUS</text><line style="stroke:#181818;stroke-width:0.5;" x1="1051.98" x2="1360.02" y1="158.62" y2="158.62"/><ellipse cx="1061.98" cy="172.2684" fill="none" rx="3" ry="3" style="stroke:#038048;stroke-width:1;"/><text fill="#000000" font-family="sans-serif" font-size="14" lengthAdjust="spacing" textLength="284.04" x="1070.98" y="175.6151">Impulsfolgefrequenz: Quantity[Hz] [0..1]</text><ellipse cx="1061.98" cy="188.5653" fill="none" rx="3" ry="3" style="stroke:#038048;stroke-width:1;"/><text fill="#000000" font-family="sans-serif" font-size="14" lengthAdjust="spacing" textLength="282.8574" x="1070.98" y="191.912">Schallkopffrequenz: Quantity[kHz] [0..1]</text><ellipse cx="1061.98" cy="204.8622" fill="none" rx="3" ry="3" style="stroke:#038048;stroke-width:1;"/><text fill="#000000" font-family="sans-serif" font-size="14" lengthAdjust="spacing" textLength="269.9307" x="1070.98" y="208.2089">Schallkopftyp: CodeableConcept [0..1]</text><ellipse cx="1061.98" cy="221.1591" fill="none" rx="3" ry="3" style="stroke:#038048;stroke-width:1;"/><text fill="#000000" font-family="sans-serif" font-size="14" lengthAdjust="spacing" textLength="218.8936" x="1070.98" y="224.5057">Ultraschallfarbe: Boolean [0..1]</text><line style="stroke:#181818;stroke-width:0.5;" x1="1051.98" x2="1360.02" y1="231.8075" y2="231.8075"/></g><!--link DICOMSerie to DICOMInstanz--><g class="link" data-entity-1="DICOMSerie" data-entity-2="DICOMInstanz" data-source-line="124" data-uid="lnk14" id="link_DICOMSerie_DICOMInstanz"><path codeLine="124" d="M390.42,698.29 C390.42,725.21 390.42,752.69 390.42,777.72" fill="none" id="DICOMSerie-DICOMInstanz" style="stroke:#181818;stroke-width:1;"/><text fill="#000000" font-family="sans-serif" font-size="13" lengthAdjust="spacing" textLength="119.0186" x="270.42" y="734.0669">ISt.series.instance</text><text fill="#000000" font-family="sans-serif" font-size="13" lengthAdjust="spacing" textLength="24.8066" x="353.1396" y="717.8259">1..1</text><text fill="#000000" font-family="sans-serif" font-size="13" lengthAdjust="spacing" textLength="23.0356" x="379.8947" y="766.7532">0..*</text></g><!--link DICOMSerie to Modalit?tMR--><g class="link" data-entity-1="DICOMSerie" data-entity-2="Modalit.tMR" data-source-line="125" data-uid="lnk15" id="link_DICOMSerie_Modalit.tMR"><path codeLine="125" d="M935.15,479.55 C1128.77,479.55 1380.87,479.55 1553.07,479.55" fill="none" id="DICOMSerie-Modalit&#228;tMR" style="stroke:#181818;stroke-width:1;"/><text fill="#000000" font-family="sans-serif" font-size="13" lengthAdjust="spacing" textLength="24.8066" x="942.9741" y="474.5041">1..1</text><text fill="#000000" font-family="sans-serif" font-size="13" lengthAdjust="spacing" textLength="24.8066" x="1520.9242" y="473.5102">0..1</text></g><!--link DICOMSerie to Modalit?tCT--><g class="link" data-entity-1="DICOMSerie" data-entity-2="Modalit.tCT" data-source-line="126" data-uid="lnk16" id="link_DICOMSerie_Modalit.tCT"><path codeLine="126" d="M719,698.29 C719,734.24 719,771.19 719,801.97" fill="none" id="DICOMSerie-Modalit&#228;tCT" style="stroke:#181818;stroke-width:1;"/><text fill="#000000" font-family="sans-serif" font-size="13" lengthAdjust="spacing" textLength="24.8066" x="697.6352" y="717.8259">1..1</text><text fill="#000000" font-family="sans-serif" font-size="13" lengthAdjust="spacing" textLength="24.8066" x="693.8947" y="791.3476">0..1</text></g><!--link DICOMSerie to Modalit?tDX--><g class="link" data-entity-1="DICOMSerie" data-entity-2="Modalit.tDX" data-source-line="127" data-uid="lnk17" id="link_DICOMSerie_Modalit.tDX"><path codeLine="127" d="M935.14,676.55 C994.45,676.55 1039.47,676.55 1039.47,676.55 C1039.47,676.55 1039.47,752.23 1039.47,810.16" fill="none" id="DICOMSerie-Modalit&#228;tDX" style="stroke:#181818;stroke-width:1;"/><text fill="#000000" font-family="sans-serif" font-size="13" lengthAdjust="spacing" textLength="24.8066" x="942.9638" y="676.7369">1..1</text><text fill="#000000" font-family="sans-serif" font-size="13" lengthAdjust="spacing" textLength="24.8066" x="998.0655" y="799.2988">0..1</text></g><!--link DICOMSerie to Modalit?tCR--><g class="link" data-entity-1="DICOMSerie" data-entity-2="Modalit.tCR" data-source-line="128" data-uid="lnk18" id="link_DICOMSerie_Modalit.tCR"><path codeLine="128" d="M935.25,654.55 C1182.71,654.55 1503.28,654.55 1503.28,654.55 C1503.28,654.55 1503.28,745.11 1503.28,810.2" fill="none" id="DICOMSerie-Modalit&#228;tCR" style="stroke:#181818;stroke-width:1;"/><text fill="#000000" font-family="sans-serif" font-size="13" lengthAdjust="spacing" textLength="24.8066" x="943.0768" y="654.1525">1..1</text><text fill="#000000" font-family="sans-serif" font-size="13" lengthAdjust="spacing" textLength="24.8066" x="1463.2035" y="800.1355">0..1</text></g><!--link DICOMSerie to Modalit?tMG--><g class="link" data-entity-1="DICOMSerie" data-entity-2="Modalit.tMG" data-source-line="129" data-uid="lnk19" id="link_DICOMSerie_Modalit.tMG"><path codeLine="129" d="M935.09,552.55 C986.47,552.55 1038.4,552.55 1084.64,552.55" fill="none" id="DICOMSerie-Modalit&#228;tMG" style="stroke:#181818;stroke-width:1;"/><text fill="#000000" font-family="sans-serif" font-size="13" lengthAdjust="spacing" textLength="24.8066" x="942.9125" y="549.4432">1..1</text><text fill="#000000" font-family="sans-serif" font-size="13" lengthAdjust="spacing" textLength="24.8066" x="1052.3593" y="549.3003">0..1</text></g><!--link Modalit?tNM to DICOMSerie--><g class="link" data-entity-1="Modalit.tNM" data-entity-2="DICOMSerie" data-source-line="130" data-uid="lnk21" id="link_Modalit.tNM_DICOMSerie"><path codeLine="130" d="M719,256.45 C719,298.94 719,354 719,405.04" fill="none" id="Modalit&#228;tNM-DICOMSerie" style="stroke:#181818;stroke-width:1;"/><text fill="#000000" font-family="sans-serif" font-size="13" lengthAdjust="spacing" textLength="24.8066" x="693.8951" y="276.2187">0..1</text><text fill="#000000" font-family="sans-serif" font-size="13" lengthAdjust="spacing" textLength="24.8066" x="697.8052" y="394.1637">1..1</text></g><!--link Modalit?tPT to DICOMSerie--><g class="link" data-entity-1="Modalit.tPT" data-entity-2="DICOMSerie" data-source-line="131" data-uid="lnk23" id="link_Modalit.tPT_DICOMSerie"><path codeLine="131" d="M378.83,264.53 C378.83,305.85 378.83,357.34 378.83,405.27" fill="none" id="Modalit&#228;tPT-DICOMSerie" style="stroke:#181818;stroke-width:1;"/><text fill="#000000" font-family="sans-serif" font-size="13" lengthAdjust="spacing" textLength="24.8066" x="368.8582" y="284.2357">0..1</text><text fill="#000000" font-family="sans-serif" font-size="13" lengthAdjust="spacing" textLength="24.8066" x="340.0952" y="394.4055">1..1</text></g><!--link Modalit?tUS to DICOMSerie--><g class="link" data-entity-1="Modalit.tUS" data-entity-2="DICOMSerie" data-source-line="132" data-uid="lnk25" id="link_Modalit.tUS_DICOMSerie"><path codeLine="132" d="M1067.97,240.2 C1067.97,315.45 1067.97,438.55 1067.97,438.55 C1067.97,438.55 1008.85,438.55 935.24,438.55" fill="none" id="Modalit&#228;tUS-DICOMSerie" style="stroke:#181818;stroke-width:1;"/><text fill="#000000" font-family="sans-serif" font-size="13" lengthAdjust="spacing" textLength="24.8066" x="1026.6694" y="259.7308">0..1</text><text fill="#000000" font-family="sans-serif" font-size="13" lengthAdjust="spacing" textLength="24.8066" x="943.0665" y="432.415">1..1</text></g><!--link Studie to DICOMSerie--><g class="link" data-entity-1="Studie" data-entity-2="DICOMSerie" data-source-line="134" data-uid="lnk26" id="link_Studie_DICOMSerie"><path codeLine="134" d="M1510.36,295.55 C1270.19,295.55 918.11,295.55 918.11,295.55 C918.11,295.55 918.11,347.91 918.11,405.27" fill="none" id="Studie-DICOMSerie" style="stroke:#181818;stroke-width:1;"/><text fill="#000000" font-family="sans-serif" font-size="13" lengthAdjust="spacing" textLength="59.814" x="1099.37" y="291.6169">ISt.series</text><text fill="#000000" font-family="sans-serif" font-size="13" lengthAdjust="spacing" textLength="24.8066" x="1478.0859" y="296.3869">1..1</text><text fill="#000000" font-family="sans-serif" font-size="13" lengthAdjust="spacing" textLength="23.0356" x="908.1877" y="394.4055">0..*</text></g><!--link Modalit?tPT to Modalit?tNM--><!--link Modalit?tNM to Modalit?tUS--><!--SRC=[xLZBJYCv5DtdAonw0pC4qOkHHgZLKXuy8ZgGJWh42B5moZTLLbNPrROBIBhvbjdCDx2QNNvihfCASO5JHBCQgMUNsEVSnxdNrqvqmaLE5St85ox0J7CWKfbODlJBneLae24d7tyxT5Q7L2HszNTtCOK816lJC8cKB0Jho5Ggyk4XvWOQZHpNQGHafzlhNFQRPq0Pg1tolK58c5AjoSWKZ0FvzAcNqOYBo7wVVlvCFdpXKMmwKoeMu5yHI4sXZqX7CeIHsuy71n_l5ZjzoMZApVml0sAzVtXmyCjo__k4GygUo02KbW94iyT063xX2JLS8cK84r0WGjWTu0hkxRdcL_HhIrTH8IAj3QGfY4GAGnFZ6ZWM8OfWGEqj8YXDj05JGqUC6WXu1kxUodnBJAH2SGG3qgVpFmMDCt1DZq3Tyn26yAq0RVPy6NujR5naLcHaqEgCI9kdh1eTooKNLN9Bp6YS4XGQH4nJ5144GMVSgba8pIC1h2UC6xJBCMlIvO3qX3PKp6gugs1jS16ChPwvaZDWXQgKGidGha55oUD7TAKNLNFuaSB6EoBQg5NfN_dg2UQfTaVYibtySJdMgEu2KD5csPsYsGOTnWguzURpi-pkbMZEjxMnfyPBpo_sbzjbRo-8pQjUzuXmvZPVkNDHP1ceZPAkJu3lV2njZDz9OLrINfQ_Kjljwte-VrOvA8KzByNkMBBf24V1NkLabfGIgW41llswStDIYCJMY-2a8gr2J-P_OtfuUfOp0EWu1Inm2Bdn7PLMOg3QS5smnwjoz9rk6uKn3sF3U9XWg5yBYXF4J6-px6u3uHo7WwBQPDpWj8Ze66bZALD0XJtJPIEJWQ4yrPL9WACGCgpEZnRBkE1OpBUjwp7i3ihTxir-PxZVFztl1FlzuVuWsB_exxtjQQVkouzXJK-Nu5LNNmvMTE9hRTm-jrpmDMr9VA_p0-oS5AlpffrV3GgyvMhROijA7zRLRS0V8QLZ6pVRVTpxzznf3TVX76FAC5PKu7s3nrT8KqwuzghDLZIdJkiUw0_BI_OFl3Jamwfe8HNQNZ5YLYkOWoDNziAxfufZo53BwbEieU4uYO2Se0OQ0r4LcGE_Kc6CDmGtP3SuheYZlV0XvEZ5Yg5Brd0BLa_SuonoIBqQqZdFymSk4jjzBnW6qTqxgdS2d-gTeDiZrp8jCdlGrZvFfrMdrmDdDxb-rHcvrEkaDuU-1hgOLXKqd3yBWoyxDN-sOnL7ZCmgy0hwXECrWOLKukrPV28-7RetFXt-imcsKnm7Qwk-5gz9jZFyYPBjd_v4oLxqVSaEAUCoZwdAQ59hj8IA8aavgyK5YeQWQfIgQZ1AC41Gzd4CNCGBQ8trKz0qmrl4YOQX7-tOxxU_LJoSqNJy0ChKnU7NR13yhrbj78ltUlsBnNktN8rymlQol4ZrHAOHJDJgPdznVJQh-WxnnPycCfzuiCb6yCPWI-HLQb-q2_Y4AliKzhnHC2Vdbz6EVGlka6QJxDYaToelJ7oCZio1ja1zmCjtgO-jbdJyw3vyDlkf03l1bi3kpROMXri7UUf35XxaHNzRv23O5darQZJAVsRyTLYOSAlGQ5GEUFCsnkC0uWvpguHQ6Pr-rDNe7m00]--></g></svg>