<svg xmlns="http://www.w3.org/2000/svg" xmlns:xlink="http://www.w3.org/1999/xlink" contentStyleType="text/css" data-diagram-type="CLASS" height="979px" preserveAspectRatio="none" style="width:1972px;height:979px;background:#FFFFFF;" version="1.1" viewBox="0 0 1972 979" width="1972px" zoomAndPan="magnify"><defs/><g><!--cluster DICOM-Header--><g class="cluster" data-entity="DICOM-Header" data-source-line="6" data-uid="ent0002" id="cluster_DICOM-Header"><path d="M8.5,6 L125.3281,6 A3.75,3.75 0 0 1 127.8281,8.5 L134.8281,28.2969 L1962.5,28.2969 A2.5,2.5 0 0 1 1965,30.7969 L1965,969.5 A2.5,2.5 0 0 1 1962.5,972 L8.5,972 A2.5,2.5 0 0 1 6,969.5 L6,8.5 A2.5,2.5 0 0 1 8.5,6" fill="none" style="stroke:#000000;stroke-width:1.5;"/><line style="stroke:#000000;stroke-width:1.5;" x1="6" x2="134.8281" y1="28.2969" y2="28.2969"/><text fill="#000000" font-family="sans-serif" font-size="14" font-weight="bold" lengthAdjust="spacing" textLength="115.8281" x="10" y="20.9951">DICOM-Header</text></g><!--class Studie--><g class="entity" data-entity="Studie" data-source-line="7" data-uid="ent0003" id="entity_Studie"><rect fill="#E0FFFF" height="284.4219" rx="2.5" ry="2.5" style="stroke:#181818;stroke-width:0.5;" width="436.7783" x="21.5" y="41"/><ellipse cx="188.5317" cy="61.1328" fill="#ADD1B2" rx="11" ry="11" style="stroke:#181818;stroke-width:1;"/><path d="M191.5005,66.7734 Q190.9224,67.0703 190.2817,67.2109 Q189.6411,67.3672 188.938,67.3672 Q186.438,67.3672 185.1099,65.7266 Q183.7974,64.0703 183.7974,60.9453 Q183.7974,57.8203 185.1099,56.1641 Q186.438,54.5078 188.938,54.5078 Q189.6411,54.5078 190.2817,54.6641 Q190.938,54.8203 191.5005,55.1172 L191.5005,57.8359 Q190.8755,57.2578 190.2817,56.9922 Q189.688,56.7109 189.063,56.7109 Q187.7192,56.7109 187.0317,57.7891 Q186.3442,58.8516 186.3442,60.9453 Q186.3442,63.0391 187.0317,64.1172 Q187.7192,65.1797 189.063,65.1797 Q189.688,65.1797 190.2817,64.9141 Q190.8755,64.6328 191.5005,64.0547 L191.5005,66.7734 Z " fill="#000000"/><text fill="#000000" font-family="sans-serif" font-size="12" font-style="italic" lengthAdjust="spacing" textLength="98.2148" x="207.0317" y="57.1387">&#171;ImagingStudy&#187;</text><text fill="#000000" font-family="sans-serif" font-size="14" lengthAdjust="spacing" textLength="44.6387" x="233.8198" y="72.9639">Studie</text><line style="stroke:#181818;stroke-width:0.5;" x1="22.5" x2="457.2783" y1="81.2656" y2="81.2656"/><ellipse cx="32.5" cy="94.9141" fill="none" rx="3" ry="3" style="stroke:#038048;stroke-width:1;"/><text fill="#000000" font-family="sans-serif" font-size="14" lengthAdjust="spacing" textLength="144.7441" x="41.5" y="98.2607">Status: Coding [1..1]</text><ellipse cx="32.5" cy="111.2109" fill="none" rx="3" ry="3" style="stroke:#038048;stroke-width:1;"/><text fill="#000000" font-family="sans-serif" font-size="14" lengthAdjust="spacing" textLength="181.1592" x="41.5" y="114.5576">Modalit&#228;ten: Coding [0..*]</text><ellipse cx="32.5" cy="127.5078" fill="none" rx="3" ry="3" style="stroke:#038048;stroke-width:1;"/><text fill="#000000" font-family="sans-serif" font-size="14" lengthAdjust="spacing" textLength="345.2764" x="41.5" y="130.8545">Personen-Identifikation: Reference(Patient) [1..1]</text><ellipse cx="32.5" cy="143.8047" fill="none" rx="3" ry="3" style="stroke:#038048;stroke-width:1;"/><text fill="#000000" font-family="sans-serif" font-size="14" lengthAdjust="spacing" textLength="393.4492" x="41.5" y="147.1514">Versorgungsstellenkontakt: Reference(Encounter) [0..1]</text><ellipse cx="32.5" cy="160.1016" fill="none" rx="3" ry="3" style="stroke:#038048;stroke-width:1;"/><text fill="#000000" font-family="sans-serif" font-size="14" lengthAdjust="spacing" textLength="166.2568" x="41.5" y="163.4482">Beginn: dateTime [0..1]</text><ellipse cx="32.5" cy="176.3984" fill="none" rx="3" ry="3" style="stroke:#038048;stroke-width:1;"/><text fill="#000000" font-family="sans-serif" font-size="14" lengthAdjust="spacing" textLength="410.7783" x="41.5" y="179.7451">Anfordernde Ma&#223;nahme: Reference(ServiceRequest) [0..*]</text><ellipse cx="32.5" cy="192.6953" fill="none" rx="3" ry="3" style="stroke:#038048;stroke-width:1;"/><text fill="#000000" font-family="sans-serif" font-size="14" lengthAdjust="spacing" textLength="345.0781" x="41.5" y="196.042">Quelle zum PACS Bild: Reference(Endpoint) [0..*]</text><ellipse cx="32.5" cy="208.9922" fill="none" rx="3" ry="3" style="stroke:#038048;stroke-width:1;"/><text fill="#000000" font-family="sans-serif" font-size="14" lengthAdjust="spacing" textLength="335.8018" x="41.5" y="212.3389">Anzahl an enhaltenen Serien: unsignedInt [0..1]</text><ellipse cx="32.5" cy="225.2891" fill="none" rx="3" ry="3" style="stroke:#038048;stroke-width:1;"/><text fill="#000000" font-family="sans-serif" font-size="14" lengthAdjust="spacing" textLength="397.5303" x="41.5" y="228.6357">Anzahl an enthaltenen SOP Instanzen: unsignedInt [0..1]</text><ellipse cx="32.5" cy="241.5859" fill="none" rx="3" ry="3" style="stroke:#038048;stroke-width:1;"/><text fill="#000000" font-family="sans-serif" font-size="14" lengthAdjust="spacing" textLength="354.0879" x="41.5" y="244.9326">Bildgebungsprozedur: Reference(Procedure) [0..1]</text><ellipse cx="32.5" cy="257.8828" fill="none" rx="3" ry="3" style="stroke:#038048;stroke-width:1;"/><text fill="#000000" font-family="sans-serif" font-size="14" lengthAdjust="spacing" textLength="297.1992" x="41.5" y="261.2295">Extension: Bildgebungsgrund: string [0..1]</text><ellipse cx="32.5" cy="274.1797" fill="none" rx="3" ry="3" style="stroke:#038048;stroke-width:1;"/><text fill="#000000" font-family="sans-serif" font-size="14" lengthAdjust="spacing" textLength="357.7656" x="41.5" y="277.5264">Indikation: Reference(Condition|Observation) [0..*]</text><ellipse cx="32.5" cy="290.4766" fill="none" rx="3" ry="3" style="stroke:#038048;stroke-width:1;"/><text fill="#000000" font-family="sans-serif" font-size="14" lengthAdjust="spacing" textLength="245.8682" x="41.5" y="293.8232">Studien-Beschreibung: string [0..1]</text><ellipse cx="32.5" cy="306.7734" fill="none" rx="3" ry="3" style="stroke:#038048;stroke-width:1;"/><text fill="#000000" font-family="sans-serif" font-size="14" lengthAdjust="spacing" textLength="235.4092" x="41.5" y="310.1201">DICOM-Serien: DICOM-Serie [0..*]</text><line style="stroke:#181818;stroke-width:0.5;" x1="22.5" x2="457.2783" y1="317.4219" y2="317.4219"/></g><!--class DICOMSerie--><g class="entity" data-entity="DICOMSerie" data-source-line="24" data-uid="ent0004" id="entity_DICOMSerie"><rect fill="#F1F1F1" height="276.1563" rx="2.5" ry="2.5" style="stroke:#181818;stroke-width:0.5;" width="563.5576" x="373" y="405"/><ellipse cx="608.7578" cy="421" fill="#ADD1B2" rx="11" ry="11" style="stroke:#181818;stroke-width:1;"/><path d="M611.7266,426.6406 Q611.1484,426.9375 610.5078,427.0781 Q609.8672,427.2344 609.1641,427.2344 Q606.6641,427.2344 605.3359,425.5938 Q604.0234,423.9375 604.0234,420.8125 Q604.0234,417.6875 605.3359,416.0313 Q606.6641,414.375 609.1641,414.375 Q609.8672,414.375 610.5078,414.5313 Q611.1641,414.6875 611.7266,414.9844 L611.7266,417.7031 Q611.1016,417.125 610.5078,416.8594 Q609.9141,416.5781 609.2891,416.5781 Q607.9453,416.5781 607.2578,417.6563 Q606.5703,418.7188 606.5703,420.8125 Q606.5703,422.9063 607.2578,423.9844 Q607.9453,425.0469 609.2891,425.0469 Q609.9141,425.0469 610.5078,424.7813 Q611.1016,424.5 611.7266,423.9219 L611.7266,426.6406 Z " fill="#000000"/><text fill="#000000" font-family="sans-serif" font-size="14" lengthAdjust="spacing" textLength="83.542" x="629.2578" y="425.8467">DICOMSerie</text><line style="stroke:#181818;stroke-width:0.5;" x1="374" x2="935.5576" y1="437" y2="437"/><ellipse cx="384" cy="450.6484" fill="none" rx="3" ry="3" style="stroke:#038048;stroke-width:1;"/><text fill="#000000" font-family="sans-serif" font-size="14" lengthAdjust="spacing" textLength="138.8721" x="393" y="453.9951">Serien-UID: id [1..1]</text><ellipse cx="384" cy="466.9453" fill="none" rx="3" ry="3" style="stroke:#038048;stroke-width:1;"/><text fill="#000000" font-family="sans-serif" font-size="14" lengthAdjust="spacing" textLength="244.6104" x="393" y="470.292">Serien-Nummer: unsignedInt [0..1]</text><ellipse cx="384" cy="483.2422" fill="none" rx="3" ry="3" style="stroke:#038048;stroke-width:1;"/><text fill="#000000" font-family="sans-serif" font-size="14" lengthAdjust="spacing" textLength="165.5801" x="393" y="486.5889">Modalit&#228;t: Coding [1..1]</text><ellipse cx="384" cy="499.5391" fill="none" rx="3" ry="3" style="stroke:#038048;stroke-width:1;"/><text fill="#000000" font-family="sans-serif" font-size="14" lengthAdjust="spacing" textLength="231.2188" x="393" y="502.8857">Serienbeschreibung: string [0..1]</text><ellipse cx="384" cy="515.8359" fill="none" rx="3" ry="3" style="stroke:#038048;stroke-width:1;"/><text fill="#000000" font-family="sans-serif" font-size="14" lengthAdjust="spacing" textLength="422.1533" x="393" y="519.1826">Anzahl an in Serie enthaltenen Instanzen: unsignedInt [0..1]</text><ellipse cx="384" cy="532.1328" fill="none" rx="3" ry="3" style="stroke:#038048;stroke-width:1;"/><text fill="#000000" font-family="sans-serif" font-size="14" lengthAdjust="spacing" textLength="263.9014" x="393" y="535.4795">K&#246;rperregion(bodySite): Coding [0..1]</text><ellipse cx="384" cy="548.4297" fill="none" rx="3" ry="3" style="stroke:#038048;stroke-width:1;"/><text fill="#000000" font-family="sans-serif" font-size="14" lengthAdjust="spacing" textLength="180.79" x="393" y="551.7764">K&#246;rperseite: Coding [0..1]</text><ellipse cx="384" cy="564.7266" fill="none" rx="3" ry="3" style="stroke:#038048;stroke-width:1;"/><text fill="#000000" font-family="sans-serif" font-size="14" lengthAdjust="spacing" textLength="166.2568" x="393" y="568.0732">Beginn: dateTime [0..1]</text><ellipse cx="384" cy="581.0234" fill="none" rx="3" ry="3" style="stroke:#038048;stroke-width:1;"/><text fill="#000000" font-family="sans-serif" font-size="14" lengthAdjust="spacing" textLength="365.5107" x="393" y="584.3701">Funktion des Ausf&#252;hrenden: CodeableConcept [0..*]</text><ellipse cx="384" cy="597.3203" fill="none" rx="3" ry="3" style="stroke:#038048;stroke-width:1;"/><text fill="#000000" font-family="sans-serif" font-size="14" lengthAdjust="spacing" textLength="227.9102" x="393" y="600.667">Akteur: Reference(Device) [1..1]</text><ellipse cx="384" cy="613.6172" fill="none" rx="3" ry="3" style="stroke:#038048;stroke-width:1;"/><text fill="#000000" font-family="sans-serif" font-size="14" lengthAdjust="spacing" textLength="320.3252" x="393" y="616.9639">Extension: Kontrastmittelgabe: boolean [1..1]</text><ellipse cx="384" cy="629.9141" fill="none" rx="3" ry="3" style="stroke:#038048;stroke-width:1;"/><text fill="#000000" font-family="sans-serif" font-size="14" lengthAdjust="spacing" textLength="537.5576" x="393" y="633.2607">Extension: Kontrastmitteldetails: Reference(Statement|Administration) [0..*]</text><ellipse cx="384" cy="646.2109" fill="none" rx="3" ry="3" style="stroke:#038048;stroke-width:1;"/><text fill="#000000" font-family="sans-serif" font-size="14" lengthAdjust="spacing" textLength="383.0244" x="393" y="649.5576">Extension: Modalit&#228;ten(DX,CR,MG,CT,MR,PT,NM) [0..1]</text><ellipse cx="384" cy="662.5078" fill="none" rx="3" ry="3" style="stroke:#038048;stroke-width:1;"/><text fill="#000000" font-family="sans-serif" font-size="14" lengthAdjust="spacing" textLength="229.8037" x="393" y="665.8545">DICOM-Instanzen: Instance [0..*]</text><line style="stroke:#181818;stroke-width:0.5;" x1="374" x2="935.5576" y1="673.1563" y2="673.1563"/></g><!--class DICOMInstanz--><g class="entity" data-entity="DICOMInstanz" data-source-line="41" data-uid="ent0005" id="entity_DICOMInstanz"><rect fill="#F1F1F1" height="194.6719" rx="2.5" ry="2.5" style="stroke:#181818;stroke-width:0.5;" width="396.7402" x="21.5" y="761"/><ellipse cx="166.4355" cy="777" fill="#ADD1B2" rx="11" ry="11" style="stroke:#181818;stroke-width:1;"/><path d="M169.4043,782.6406 Q168.8262,782.9375 168.1855,783.0781 Q167.5449,783.2344 166.8418,783.2344 Q164.3418,783.2344 163.0137,781.5938 Q161.7012,779.9375 161.7012,776.8125 Q161.7012,773.6875 163.0137,772.0313 Q164.3418,770.375 166.8418,770.375 Q167.5449,770.375 168.1855,770.5313 Q168.8418,770.6875 169.4043,770.9844 L169.4043,773.7031 Q168.7793,773.125 168.1855,772.8594 Q167.5918,772.5781 166.9668,772.5781 Q165.623,772.5781 164.9355,773.6563 Q164.248,774.7188 164.248,776.8125 Q164.248,778.9063 164.9355,779.9844 Q165.623,781.0469 166.9668,781.0469 Q167.5918,781.0469 168.1855,780.7813 Q168.7793,780.5 169.4043,779.9219 L169.4043,782.6406 Z " fill="#000000"/><text fill="#000000" font-family="sans-serif" font-size="14" lengthAdjust="spacing" textLength="98.3691" x="186.9355" y="781.8467">DICOMInstanz</text><line style="stroke:#181818;stroke-width:0.5;" x1="22.5" x2="417.2402" y1="793" y2="793"/><ellipse cx="32.5" cy="806.6484" fill="none" rx="3" ry="3" style="stroke:#038048;stroke-width:1;"/><text fill="#000000" font-family="sans-serif" font-size="14" lengthAdjust="spacing" textLength="177.625" x="41.5" y="809.9951">SOP-Instanz UID: id [1..1]</text><ellipse cx="32.5" cy="822.9453" fill="none" rx="3" ry="3" style="stroke:#038048;stroke-width:1;"/><text fill="#000000" font-family="sans-serif" font-size="14" lengthAdjust="spacing" textLength="178.3838" x="41.5" y="826.292">SOP-Klasse: Coding [1..1]</text><ellipse cx="32.5" cy="839.2422" fill="none" rx="3" ry="3" style="stroke:#038048;stroke-width:1;"/><text fill="#000000" font-family="sans-serif" font-size="14" lengthAdjust="spacing" textLength="250.5645" x="41.5" y="842.5889">Instanz-Nummer: unsignedInt [0..1]</text><ellipse cx="32.5" cy="855.5391" fill="none" rx="3" ry="3" style="stroke:#038048;stroke-width:1;"/><text fill="#000000" font-family="sans-serif" font-size="14" lengthAdjust="spacing" textLength="123.4707" x="41.5" y="858.8857">Titel: String [0..1]</text><ellipse cx="32.5" cy="871.8359" fill="none" rx="3" ry="3" style="stroke:#038048;stroke-width:1;"/><text fill="#000000" font-family="sans-serif" font-size="14" lengthAdjust="spacing" textLength="299.8857" x="41.5" y="875.1826">Extension: Bildtyp: CodeableConcept [0..*]</text><ellipse cx="32.5" cy="888.1328" fill="none" rx="3" ry="3" style="stroke:#038048;stroke-width:1;"/><text fill="#000000" font-family="sans-serif" font-size="14" lengthAdjust="spacing" textLength="316.4492" x="41.5" y="891.4795">Extension: Schichtdicke: Quantity[mm] [0..1]</text><ellipse cx="32.5" cy="904.4297" fill="none" rx="3" ry="3" style="stroke:#038048;stroke-width:1;"/><text fill="#000000" font-family="sans-serif" font-size="14" lengthAdjust="spacing" textLength="336.7656" x="41.5" y="907.7764">Extension: Pixelabstand(x): Quantity[mm] [0..1]</text><ellipse cx="32.5" cy="920.7266" fill="none" rx="3" ry="3" style="stroke:#038048;stroke-width:1;"/><text fill="#000000" font-family="sans-serif" font-size="14" lengthAdjust="spacing" textLength="336.7656" x="41.5" y="924.0732">Extension: Pixelabstand(y): Quantity[mm] [0..1]</text><ellipse cx="32.5" cy="937.0234" fill="none" rx="3" ry="3" style="stroke:#038048;stroke-width:1;"/><text fill="#000000" font-family="sans-serif" font-size="14" lengthAdjust="spacing" textLength="370.7402" x="41.5" y="940.3701">Extension: Eingebrannte Annotierung: Boolean [0..1]</text><line style="stroke:#181818;stroke-width:0.5;" x1="22.5" x2="417.2402" y1="947.6719" y2="947.6719"/></g><!--class Modalit?tMR--><g class="entity" data-entity="Modalit&#228;tMR" data-source-line="53" data-uid="ent0006" id="entity_Modalit&#228;tMR"><rect fill="#FFFFE0" height="162.0781" rx="2.5" ry="2.5" style="stroke:#181818;stroke-width:0.5;" width="393.0898" x="1555.5" y="462"/><ellipse cx="1704.168" cy="478" fill="#ADD1B2" rx="11" ry="11" style="stroke:#181818;stroke-width:1;"/><path d="M1707.1367,483.6406 Q1706.5586,483.9375 1705.918,484.0781 Q1705.2773,484.2344 1704.5742,484.2344 Q1702.0742,484.2344 1700.7461,482.5938 Q1699.4336,480.9375 1699.4336,477.8125 Q1699.4336,474.6875 1700.7461,473.0313 Q1702.0742,471.375 1704.5742,471.375 Q1705.2773,471.375 1705.918,471.5313 Q1706.5742,471.6875 1707.1367,471.9844 L1707.1367,474.7031 Q1706.5117,474.125 1705.918,473.8594 Q1705.3242,473.5781 1704.6992,473.5781 Q1703.3555,473.5781 1702.668,474.6563 Q1701.9805,475.7188 1701.9805,477.8125 Q1701.9805,479.9063 1702.668,480.9844 Q1703.3555,482.0469 1704.6992,482.0469 Q1705.3242,482.0469 1705.918,481.7813 Q1706.5117,481.5 1707.1367,480.9219 L1707.1367,483.6406 Z " fill="#000000"/><text fill="#000000" font-family="sans-serif" font-size="14" lengthAdjust="spacing" textLength="87.2539" x="1724.668" y="482.8467">Modalit&#228;tMR</text><line style="stroke:#181818;stroke-width:0.5;" x1="1556.5" x2="1947.5898" y1="494" y2="494"/><ellipse cx="1566.5" cy="507.6484" fill="none" rx="3" ry="3" style="stroke:#038048;stroke-width:1;"/><text fill="#000000" font-family="sans-serif" font-size="14" lengthAdjust="spacing" textLength="265.5967" x="1575.5" y="510.9951">Scansequenz: CodeableConcept [0..*]</text><ellipse cx="1566.5" cy="523.9453" fill="none" rx="3" ry="3" style="stroke:#038048;stroke-width:1;"/><text fill="#000000" font-family="sans-serif" font-size="14" lengthAdjust="spacing" textLength="367.0898" x="1575.5" y="527.292">Scansequenz Untervariante: CodeableConcept [0..*]</text><ellipse cx="1566.5" cy="540.2422" fill="none" rx="3" ry="3" style="stroke:#038048;stroke-width:1;"/><text fill="#000000" font-family="sans-serif" font-size="14" lengthAdjust="spacing" textLength="297.8486" x="1575.5" y="543.5889">Magnetische Feldst&#228;rke: Quantity[T] [0..1]</text><ellipse cx="1566.5" cy="556.5391" fill="none" rx="3" ry="3" style="stroke:#038048;stroke-width:1;"/><text fill="#000000" font-family="sans-serif" font-size="14" lengthAdjust="spacing" textLength="235.7031" x="1575.5" y="559.8857">Echozeit (TE): Quantity[ms] [0..1]</text><ellipse cx="1566.5" cy="572.8359" fill="none" rx="3" ry="3" style="stroke:#038048;stroke-width:1;"/><text fill="#000000" font-family="sans-serif" font-size="14" lengthAdjust="spacing" textLength="281.9346" x="1575.5" y="576.1826">Repetitionszeit (TR): Quantity[ms] [0..1]</text><ellipse cx="1566.5" cy="589.1328" fill="none" rx="3" ry="3" style="stroke:#038048;stroke-width:1;"/><text fill="#000000" font-family="sans-serif" font-size="14" lengthAdjust="spacing" textLength="268.5771" x="1575.5" y="592.4795">Inversionszeit (TI): Quantity[ms] [0..1]</text><ellipse cx="1566.5" cy="605.4297" fill="none" rx="3" ry="3" style="stroke:#038048;stroke-width:1;"/><text fill="#000000" font-family="sans-serif" font-size="14" lengthAdjust="spacing" textLength="224.7314" x="1575.5" y="608.7764">Kippwinkel: Quantity[deg] [0..1]</text><line style="stroke:#181818;stroke-width:0.5;" x1="1556.5" x2="1947.5898" y1="616.0781" y2="616.0781"/></g><!--class Modalit?tCT--><g class="entity" data-entity="Modalit&#228;tCT" data-source-line="63" data-uid="ent0007" id="entity_Modalit&#228;tCT"><rect fill="#FFFFE0" height="129.4844" rx="2.5" ry="2.5" style="stroke:#181818;stroke-width:0.5;" width="318.0996" x="569" y="794"/><ellipse cx="681.9126" cy="810" fill="#ADD1B2" rx="11" ry="11" style="stroke:#181818;stroke-width:1;"/><path d="M684.8813,815.6406 Q684.3032,815.9375 683.6626,816.0781 Q683.022,816.2344 682.3188,816.2344 Q679.8188,816.2344 678.4907,814.5938 Q677.1782,812.9375 677.1782,809.8125 Q677.1782,806.6875 678.4907,805.0313 Q679.8188,803.375 682.3188,803.375 Q683.022,803.375 683.6626,803.5313 Q684.3188,803.6875 684.8813,803.9844 L684.8813,806.7031 Q684.2563,806.125 683.6626,805.8594 Q683.0688,805.5781 682.4438,805.5781 Q681.1001,805.5781 680.4126,806.6563 Q679.7251,807.7188 679.7251,809.8125 Q679.7251,811.9063 680.4126,812.9844 Q681.1001,814.0469 682.4438,814.0469 Q683.0688,814.0469 683.6626,813.7813 Q684.2563,813.5 684.8813,812.9219 L684.8813,815.6406 Z " fill="#000000"/><text fill="#000000" font-family="sans-serif" font-size="14" lengthAdjust="spacing" textLength="83.7744" x="702.4126" y="814.8467">Modalit&#228;tCT</text><line style="stroke:#181818;stroke-width:0.5;" x1="570" x2="886.0996" y1="826" y2="826"/><ellipse cx="580" cy="839.6484" fill="none" rx="3" ry="3" style="stroke:#038048;stroke-width:1;"/><text fill="#000000" font-family="sans-serif" font-size="14" lengthAdjust="spacing" textLength="255.165" x="589" y="842.9951">CTDI Volumen: Quantity[mGy] [0..1]</text><ellipse cx="580" cy="855.9453" fill="none" rx="3" ry="3" style="stroke:#038048;stroke-width:1;"/><text fill="#000000" font-family="sans-serif" font-size="14" lengthAdjust="spacing" textLength="167.5625" x="589" y="859.292">KVP: Quantity[kV] [0..1]</text><ellipse cx="580" cy="872.2422" fill="none" rx="3" ry="3" style="stroke:#038048;stroke-width:1;"/><text fill="#000000" font-family="sans-serif" font-size="14" lengthAdjust="spacing" textLength="248.8281" x="589" y="875.5889">Expositionszeit: Quantity[ms] [0..1]</text><ellipse cx="580" cy="888.5391" fill="none" rx="3" ry="3" style="stroke:#038048;stroke-width:1;"/><text fill="#000000" font-family="sans-serif" font-size="14" lengthAdjust="spacing" textLength="225.7705" x="589" y="891.8857">Exposition: Quantity[mAs] [0..1]</text><ellipse cx="580" cy="904.8359" fill="none" rx="3" ry="3" style="stroke:#038048;stroke-width:1;"/><text fill="#000000" font-family="sans-serif" font-size="14" lengthAdjust="spacing" textLength="292.0996" x="589" y="908.1826">R&#246;ntgenr&#246;hrenstrom: Quantity[mA] [0..1]</text><line style="stroke:#181818;stroke-width:0.5;" x1="570" x2="886.0996" y1="915.4844" y2="915.4844"/></g><!--class Modalit?tDX--><g class="entity" data-entity="Modalit&#228;tDX" data-source-line="71" data-uid="ent0008" id="entity_Modalit&#228;tDX"><rect fill="#FFFFE0" height="129.4844" rx="2.5" ry="2.5" style="stroke:#181818;stroke-width:0.5;" width="318.0996" x="1037" y="794"/><ellipse cx="1148.8906" cy="810" fill="#ADD1B2" rx="11" ry="11" style="stroke:#181818;stroke-width:1;"/><path d="M1151.8594,815.6406 Q1151.2813,815.9375 1150.6406,816.0781 Q1150,816.2344 1149.2969,816.2344 Q1146.7969,816.2344 1145.4688,814.5938 Q1144.1563,812.9375 1144.1563,809.8125 Q1144.1563,806.6875 1145.4688,805.0313 Q1146.7969,803.375 1149.2969,803.375 Q1150,803.375 1150.6406,803.5313 Q1151.2969,803.6875 1151.8594,803.9844 L1151.8594,806.7031 Q1151.2344,806.125 1150.6406,805.8594 Q1150.0469,805.5781 1149.4219,805.5781 Q1148.0781,805.5781 1147.3906,806.6563 Q1146.7031,807.7188 1146.7031,809.8125 Q1146.7031,811.9063 1147.3906,812.9844 Q1148.0781,814.0469 1149.4219,814.0469 Q1150.0469,814.0469 1150.6406,813.7813 Q1151.2344,813.5 1151.8594,812.9219 L1151.8594,815.6406 Z " fill="#000000"/><text fill="#000000" font-family="sans-serif" font-size="14" lengthAdjust="spacing" textLength="85.8184" x="1169.3906" y="814.8467">Modalit&#228;tDX</text><line style="stroke:#181818;stroke-width:0.5;" x1="1038" x2="1354.0996" y1="826" y2="826"/><ellipse cx="1048" cy="839.6484" fill="none" rx="3" ry="3" style="stroke:#038048;stroke-width:1;"/><text fill="#000000" font-family="sans-serif" font-size="14" lengthAdjust="spacing" textLength="167.5625" x="1057" y="842.9951">KVP: Quantity[kV] [0..1]</text><ellipse cx="1048" cy="855.9453" fill="none" rx="3" ry="3" style="stroke:#038048;stroke-width:1;"/><text fill="#000000" font-family="sans-serif" font-size="14" lengthAdjust="spacing" textLength="248.8281" x="1057" y="859.292">Expositionszeit: Quantity[ms] [0..1]</text><ellipse cx="1048" cy="872.2422" fill="none" rx="3" ry="3" style="stroke:#038048;stroke-width:1;"/><text fill="#000000" font-family="sans-serif" font-size="14" lengthAdjust="spacing" textLength="225.7705" x="1057" y="875.5889">Exposition: Quantity[mAs] [0..1]</text><ellipse cx="1048" cy="888.5391" fill="none" rx="3" ry="3" style="stroke:#038048;stroke-width:1;"/><text fill="#000000" font-family="sans-serif" font-size="14" lengthAdjust="spacing" textLength="292.0996" x="1057" y="891.8857">R&#246;ntgenr&#246;hrenstrom: Quantity[mA] [0..1]</text><ellipse cx="1048" cy="904.8359" fill="none" rx="3" ry="3" style="stroke:#038048;stroke-width:1;"/><text fill="#000000" font-family="sans-serif" font-size="14" lengthAdjust="spacing" textLength="263.6074" x="1057" y="908.1826">Blickposition: CodeableConcept [0..1]</text><line style="stroke:#181818;stroke-width:0.5;" x1="1038" x2="1354.0996" y1="915.4844" y2="915.4844"/></g><!--class Modalit?tCR--><g class="entity" data-entity="Modalit&#228;tCR" data-source-line="79" data-uid="ent0009" id="entity_Modalit&#228;tCR"><rect fill="#FFFFE0" height="129.4844" rx="2.5" ry="2.5" style="stroke:#181818;stroke-width:0.5;" width="318.0996" x="1505" y="794"/><ellipse cx="1617.3247" cy="810" fill="#ADD1B2" rx="11" ry="11" style="stroke:#181818;stroke-width:1;"/><path d="M1620.2935,815.6406 Q1619.7153,815.9375 1619.0747,816.0781 Q1618.4341,816.2344 1617.731,816.2344 Q1615.231,816.2344 1613.9028,814.5938 Q1612.5903,812.9375 1612.5903,809.8125 Q1612.5903,806.6875 1613.9028,805.0313 Q1615.231,803.375 1617.731,803.375 Q1618.4341,803.375 1619.0747,803.5313 Q1619.731,803.6875 1620.2935,803.9844 L1620.2935,806.7031 Q1619.6685,806.125 1619.0747,805.8594 Q1618.481,805.5781 1617.856,805.5781 Q1616.5122,805.5781 1615.8247,806.6563 Q1615.1372,807.7188 1615.1372,809.8125 Q1615.1372,811.9063 1615.8247,812.9844 Q1616.5122,814.0469 1617.856,814.0469 Q1618.481,814.0469 1619.0747,813.7813 Q1619.6685,813.5 1620.2935,812.9219 L1620.2935,815.6406 Z " fill="#000000"/><text fill="#000000" font-family="sans-serif" font-size="14" lengthAdjust="spacing" textLength="84.9502" x="1637.8247" y="814.8467">Modalit&#228;tCR</text><line style="stroke:#181818;stroke-width:0.5;" x1="1506" x2="1822.0996" y1="826" y2="826"/><ellipse cx="1516" cy="839.6484" fill="none" rx="3" ry="3" style="stroke:#038048;stroke-width:1;"/><text fill="#000000" font-family="sans-serif" font-size="14" lengthAdjust="spacing" textLength="167.5625" x="1525" y="842.9951">KVP: Quantity[kV] [0..1]</text><ellipse cx="1516" cy="855.9453" fill="none" rx="3" ry="3" style="stroke:#038048;stroke-width:1;"/><text fill="#000000" font-family="sans-serif" font-size="14" lengthAdjust="spacing" textLength="248.8281" x="1525" y="859.292">Expositionszeit: Quantity[ms] [0..1]</text><ellipse cx="1516" cy="872.2422" fill="none" rx="3" ry="3" style="stroke:#038048;stroke-width:1;"/><text fill="#000000" font-family="sans-serif" font-size="14" lengthAdjust="spacing" textLength="225.7705" x="1525" y="875.5889">Exposition: Quantity[mAs] [0..1]</text><ellipse cx="1516" cy="888.5391" fill="none" rx="3" ry="3" style="stroke:#038048;stroke-width:1;"/><text fill="#000000" font-family="sans-serif" font-size="14" lengthAdjust="spacing" textLength="292.0996" x="1525" y="891.8857">R&#246;ntgenr&#246;hrenstrom: Quantity[mA] [0..1]</text><ellipse cx="1516" cy="904.8359" fill="none" rx="3" ry="3" style="stroke:#038048;stroke-width:1;"/><text fill="#000000" font-family="sans-serif" font-size="14" lengthAdjust="spacing" textLength="263.6074" x="1525" y="908.1826">Blickposition: CodeableConcept [0..1]</text><line style="stroke:#181818;stroke-width:0.5;" x1="1506" x2="1822.0996" y1="915.4844" y2="915.4844"/></g><!--class Modalit?tMG--><g class="entity" data-entity="Modalit&#228;tMG" data-source-line="87" data-uid="ent0010" id="entity_Modalit&#228;tMG"><rect fill="#FFFFE0" height="129.4844" rx="2.5" ry="2.5" style="stroke:#181818;stroke-width:0.5;" width="318.0996" x="1087" y="478.5"/><ellipse cx="1197.6123" cy="494.5" fill="#ADD1B2" rx="11" ry="11" style="stroke:#181818;stroke-width:1;"/><path d="M1200.5811,500.1406 Q1200.0029,500.4375 1199.3623,500.5781 Q1198.7217,500.7344 1198.0186,500.7344 Q1195.5186,500.7344 1194.1904,499.0938 Q1192.8779,497.4375 1192.8779,494.3125 Q1192.8779,491.1875 1194.1904,489.5313 Q1195.5186,487.875 1198.0186,487.875 Q1198.7217,487.875 1199.3623,488.0313 Q1200.0186,488.1875 1200.5811,488.4844 L1200.5811,491.2031 Q1199.9561,490.625 1199.3623,490.3594 Q1198.7686,490.0781 1198.1436,490.0781 Q1196.7998,490.0781 1196.1123,491.1563 Q1195.4248,492.2188 1195.4248,494.3125 Q1195.4248,496.4063 1196.1123,497.4844 Q1196.7998,498.5469 1198.1436,498.5469 Q1198.7686,498.5469 1199.3623,498.2813 Q1199.9561,498 1200.5811,497.4219 L1200.5811,500.1406 Z " fill="#000000"/><text fill="#000000" font-family="sans-serif" font-size="14" lengthAdjust="spacing" textLength="88.375" x="1218.1123" y="499.3467">Modalit&#228;tMG</text><line style="stroke:#181818;stroke-width:0.5;" x1="1088" x2="1404.0996" y1="510.5" y2="510.5"/><ellipse cx="1098" cy="524.1484" fill="none" rx="3" ry="3" style="stroke:#038048;stroke-width:1;"/><text fill="#000000" font-family="sans-serif" font-size="14" lengthAdjust="spacing" textLength="167.5625" x="1107" y="527.4951">KVP: Quantity[kV] [0..1]</text><ellipse cx="1098" cy="540.4453" fill="none" rx="3" ry="3" style="stroke:#038048;stroke-width:1;"/><text fill="#000000" font-family="sans-serif" font-size="14" lengthAdjust="spacing" textLength="248.8281" x="1107" y="543.792">Expositionszeit: Quantity[ms] [0..1]</text><ellipse cx="1098" cy="556.7422" fill="none" rx="3" ry="3" style="stroke:#038048;stroke-width:1;"/><text fill="#000000" font-family="sans-serif" font-size="14" lengthAdjust="spacing" textLength="225.7705" x="1107" y="560.0889">Exposition: Quantity[mAs] [0..1]</text><ellipse cx="1098" cy="573.0391" fill="none" rx="3" ry="3" style="stroke:#038048;stroke-width:1;"/><text fill="#000000" font-family="sans-serif" font-size="14" lengthAdjust="spacing" textLength="292.0996" x="1107" y="576.3857">R&#246;ntgenr&#246;hrenstrom: Quantity[mA] [0..1]</text><ellipse cx="1098" cy="589.3359" fill="none" rx="3" ry="3" style="stroke:#038048;stroke-width:1;"/><text fill="#000000" font-family="sans-serif" font-size="14" lengthAdjust="spacing" textLength="263.6074" x="1107" y="592.6826">Blickposition: CodeableConcept [0..1]</text><line style="stroke:#181818;stroke-width:0.5;" x1="1088" x2="1404.0996" y1="599.9844" y2="599.9844"/></g><!--class Modalit?tNM--><g class="entity" data-entity="Modalit&#228;tNM" data-source-line="95" data-uid="ent0011" id="entity_Modalit&#228;tNM"><rect fill="#FFFFE0" height="145.7813" rx="2.5" ry="2.5" style="stroke:#181818;stroke-width:0.5;" width="364.8711" x="1123.5" y="110"/><ellipse cx="1257.686" cy="126" fill="#ADD1B2" rx="11" ry="11" style="stroke:#181818;stroke-width:1;"/><path d="M1260.6548,131.6406 Q1260.0767,131.9375 1259.436,132.0781 Q1258.7954,132.2344 1258.0923,132.2344 Q1255.5923,132.2344 1254.2642,130.5938 Q1252.9517,128.9375 1252.9517,125.8125 Q1252.9517,122.6875 1254.2642,121.0313 Q1255.5923,119.375 1258.0923,119.375 Q1258.7954,119.375 1259.436,119.5313 Q1260.0923,119.6875 1260.6548,119.9844 L1260.6548,122.7031 Q1260.0298,122.125 1259.436,121.8594 Q1258.8423,121.5781 1258.2173,121.5781 Q1256.8735,121.5781 1256.186,122.6563 Q1255.4985,123.7188 1255.4985,125.8125 Q1255.4985,127.9063 1256.186,128.9844 Q1256.8735,130.0469 1258.2173,130.0469 Q1258.8423,130.0469 1259.436,129.7813 Q1260.0298,129.5 1260.6548,128.9219 L1260.6548,131.6406 Z " fill="#000000"/><text fill="#000000" font-family="sans-serif" font-size="14" lengthAdjust="spacing" textLength="87.999" x="1278.186" y="130.8467">Modalit&#228;tNM</text><line style="stroke:#181818;stroke-width:0.5;" x1="1124.5" x2="1487.3711" y1="142" y2="142"/><ellipse cx="1134.5" cy="155.6484" fill="none" rx="3" ry="3" style="stroke:#038048;stroke-width:1;"/><text fill="#000000" font-family="sans-serif" font-size="14" lengthAdjust="spacing" textLength="294.4717" x="1143.5" y="158.9951">Radiopharmakon: CodeableConcept [0..1]</text><ellipse cx="1134.5" cy="171.9453" fill="none" rx="3" ry="3" style="stroke:#038048;stroke-width:1;"/><text fill="#000000" font-family="sans-serif" font-size="14" lengthAdjust="spacing" textLength="257.1338" x="1143.5" y="175.292">Radionuklid: CodeableConcept [0..1]</text><ellipse cx="1134.5" cy="188.2422" fill="none" rx="3" ry="3" style="stroke:#038048;stroke-width:1;"/><text fill="#000000" font-family="sans-serif" font-size="14" lengthAdjust="spacing" textLength="284.5938" x="1143.5" y="191.5889">Tracer Expositionszeit: Quantity[s] [0..1]</text><ellipse cx="1134.5" cy="204.5391" fill="none" rx="3" ry="3" style="stroke:#038048;stroke-width:1;"/><text fill="#000000" font-family="sans-serif" font-size="14" lengthAdjust="spacing" textLength="304.8555" x="1143.5" y="207.8857">Skalierungseinheit: CodeableConcept [0..1]</text><ellipse cx="1134.5" cy="220.8359" fill="none" rx="3" ry="3" style="stroke:#038048;stroke-width:1;"/><text fill="#000000" font-family="sans-serif" font-size="14" lengthAdjust="spacing" textLength="338.8711" x="1143.5" y="224.1826">Gesamte Radionukliddosis: Quantity[MBq] [0..1]</text><ellipse cx="1134.5" cy="237.1328" fill="none" rx="3" ry="3" style="stroke:#038048;stroke-width:1;"/><text fill="#000000" font-family="sans-serif" font-size="14" lengthAdjust="spacing" textLength="225.7979" x="1143.5" y="240.4795">Halbwertszeit: Quantity[s] [0..1]</text><line style="stroke:#181818;stroke-width:0.5;" x1="1124.5" x2="1487.3711" y1="247.7813" y2="247.7813"/></g><!--class Modalit?tPT--><g class="entity" data-entity="Modalit&#228;tPT" data-source-line="104" data-uid="ent0012" id="entity_Modalit&#228;tPT"><rect fill="#FFFFE0" height="162.0781" rx="2.5" ry="2.5" style="stroke:#181818;stroke-width:0.5;" width="364.8711" x="608.5" y="102"/><ellipse cx="745.4648" cy="118" fill="#ADD1B2" rx="11" ry="11" style="stroke:#181818;stroke-width:1;"/><path d="M748.4336,123.6406 Q747.8555,123.9375 747.2148,124.0781 Q746.5742,124.2344 745.8711,124.2344 Q743.3711,124.2344 742.043,122.5938 Q740.7305,120.9375 740.7305,117.8125 Q740.7305,114.6875 742.043,113.0313 Q743.3711,111.375 745.8711,111.375 Q746.5742,111.375 747.2148,111.5313 Q747.8711,111.6875 748.4336,111.9844 L748.4336,114.7031 Q747.8086,114.125 747.2148,113.8594 Q746.6211,113.5781 745.9961,113.5781 Q744.6523,113.5781 743.9648,114.6563 Q743.2773,115.7188 743.2773,117.8125 Q743.2773,119.9063 743.9648,120.9844 Q744.6523,122.0469 745.9961,122.0469 Q746.6211,122.0469 747.2148,121.7813 Q747.8086,121.5 748.4336,120.9219 L748.4336,123.6406 Z " fill="#000000"/><text fill="#000000" font-family="sans-serif" font-size="14" lengthAdjust="spacing" textLength="82.4414" x="765.9648" y="122.8467">Modalit&#228;tPT</text><line style="stroke:#181818;stroke-width:0.5;" x1="609.5" x2="972.3711" y1="134" y2="134"/><ellipse cx="619.5" cy="147.6484" fill="none" rx="3" ry="3" style="stroke:#038048;stroke-width:1;"/><text fill="#000000" font-family="sans-serif" font-size="14" lengthAdjust="spacing" textLength="294.4717" x="628.5" y="150.9951">Radiopharmakon: CodeableConcept [0..1]</text><ellipse cx="619.5" cy="163.9453" fill="none" rx="3" ry="3" style="stroke:#038048;stroke-width:1;"/><text fill="#000000" font-family="sans-serif" font-size="14" lengthAdjust="spacing" textLength="257.1338" x="628.5" y="167.292">Radionuklid: CodeableConcept [0..1]</text><ellipse cx="619.5" cy="180.2422" fill="none" rx="3" ry="3" style="stroke:#038048;stroke-width:1;"/><text fill="#000000" font-family="sans-serif" font-size="14" lengthAdjust="spacing" textLength="284.5938" x="628.5" y="183.5889">Tracer Expositionszeit: Quantity[s] [0..1]</text><ellipse cx="619.5" cy="196.5391" fill="none" rx="3" ry="3" style="stroke:#038048;stroke-width:1;"/><text fill="#000000" font-family="sans-serif" font-size="14" lengthAdjust="spacing" textLength="304.8555" x="628.5" y="199.8857">Skalierungseinheit: CodeableConcept [0..1]</text><ellipse cx="619.5" cy="212.8359" fill="none" rx="3" ry="3" style="stroke:#038048;stroke-width:1;"/><text fill="#000000" font-family="sans-serif" font-size="14" lengthAdjust="spacing" textLength="338.8711" x="628.5" y="216.1826">Gesamte Radionukliddosis: Quantity[MBq] [0..1]</text><ellipse cx="619.5" cy="229.1328" fill="none" rx="3" ry="3" style="stroke:#038048;stroke-width:1;"/><text fill="#000000" font-family="sans-serif" font-size="14" lengthAdjust="spacing" textLength="225.7979" x="628.5" y="232.4795">Halbwertszeit: Quantity[s] [0..1]</text><ellipse cx="619.5" cy="245.4297" fill="none" rx="3" ry="3" style="stroke:#038048;stroke-width:1;"/><text fill="#000000" font-family="sans-serif" font-size="14" lengthAdjust="spacing" textLength="240.3516" x="628.5" y="248.7764">Serientyp: CodeableConcept [0..*]</text><line style="stroke:#181818;stroke-width:0.5;" x1="609.5" x2="972.3711" y1="256.0781" y2="256.0781"/></g><!--class Modalit?tUS--><g class="entity" data-entity="Modalit&#228;tUS" data-source-line="114" data-uid="ent0013" id="entity_Modalit&#228;tUS"><rect fill="#FFFFE0" height="113.1875" rx="2.5" ry="2.5" style="stroke:#181818;stroke-width:0.5;" width="310.04" x="1639" y="126.5"/><ellipse cx="1747.4795" cy="142.5" fill="#ADD1B2" rx="11" ry="11" style="stroke:#181818;stroke-width:1;"/><path d="M1750.4482,148.1406 Q1749.8701,148.4375 1749.2295,148.5781 Q1748.5889,148.7344 1747.8857,148.7344 Q1745.3857,148.7344 1744.0576,147.0938 Q1742.7451,145.4375 1742.7451,142.3125 Q1742.7451,139.1875 1744.0576,137.5313 Q1745.3857,135.875 1747.8857,135.875 Q1748.5889,135.875 1749.2295,136.0313 Q1749.8857,136.1875 1750.4482,136.4844 L1750.4482,139.2031 Q1749.8232,138.625 1749.2295,138.3594 Q1748.6357,138.0781 1748.0107,138.0781 Q1746.667,138.0781 1745.9795,139.1563 Q1745.292,140.2188 1745.292,142.3125 Q1745.292,144.4063 1745.9795,145.4844 Q1746.667,146.5469 1748.0107,146.5469 Q1748.6357,146.5469 1749.2295,146.2813 Q1749.8232,146 1750.4482,145.4219 L1750.4482,148.1406 Z " fill="#000000"/><text fill="#000000" font-family="sans-serif" font-size="14" lengthAdjust="spacing" textLength="84.5811" x="1767.9795" y="147.3467">Modalit&#228;tUS</text><line style="stroke:#181818;stroke-width:0.5;" x1="1640" x2="1948.04" y1="158.5" y2="158.5"/><ellipse cx="1650" cy="172.1484" fill="none" rx="3" ry="3" style="stroke:#038048;stroke-width:1;"/><text fill="#000000" font-family="sans-serif" font-size="14" lengthAdjust="spacing" textLength="284.04" x="1659" y="175.4951">Impulsfolgefrequenz: Quantity[Hz] [0..1]</text><ellipse cx="1650" cy="188.4453" fill="none" rx="3" ry="3" style="stroke:#038048;stroke-width:1;"/><text fill="#000000" font-family="sans-serif" font-size="14" lengthAdjust="spacing" textLength="282.8574" x="1659" y="191.792">Schallkopffrequenz: Quantity[kHz] [0..1]</text><ellipse cx="1650" cy="204.7422" fill="none" rx="3" ry="3" style="stroke:#038048;stroke-width:1;"/><text fill="#000000" font-family="sans-serif" font-size="14" lengthAdjust="spacing" textLength="269.9307" x="1659" y="208.0889">Schallkopftyp: CodeableConcept [0..1]</text><ellipse cx="1650" cy="221.0391" fill="none" rx="3" ry="3" style="stroke:#038048;stroke-width:1;"/><text fill="#000000" font-family="sans-serif" font-size="14" lengthAdjust="spacing" textLength="218.8936" x="1659" y="224.3857">Ultraschallfarbe: Boolean [0..1]</text><line style="stroke:#181818;stroke-width:0.5;" x1="1640" x2="1948.04" y1="231.6875" y2="231.6875"/></g><!--link DICOMSerie to DICOMInstanz--><g class="link" data-entity-1="DICOMSerie" data-entity-2="DICOMInstanz" data-source-line="122" data-uid="lnk14" id="link_DICOMSerie_DICOMInstanz"><path codeLine="122" d="M395.75,681.38 C395.75,708.2 395.75,735.79 395.75,760.96" fill="none" id="DICOMSerie-DICOMInstanz" style="stroke:#181818;stroke-width:1;"/><text fill="#000000" font-family="sans-serif" font-size="13" lengthAdjust="spacing" textLength="119.0186" x="275.75" y="717.2369">ISt.series.instance</text><text fill="#000000" font-family="sans-serif" font-size="13" lengthAdjust="spacing" textLength="24.8066" x="356.9502" y="701.4241">1..1</text><text fill="#000000" font-family="sans-serif" font-size="13" lengthAdjust="spacing" textLength="23.0356" x="385.3367" y="750.0024">0..*</text></g><!--link DICOMSerie to Modalit?tMR--><g class="link" data-entity-1="DICOMSerie" data-entity-2="Modalit&#228;tMR" data-source-line="123" data-uid="lnk15" id="link_DICOMSerie_Modalit&#228;tMR"><path codeLine="123" d="M937.15,471 C1130.93,471 1383.28,471 1555.49,471" fill="none" id="DICOMSerie-Modalit&#228;tMR" style="stroke:#181818;stroke-width:1;"/><text fill="#000000" font-family="sans-serif" font-size="13" lengthAdjust="spacing" textLength="24.8066" x="944.9799" y="465.9549">1..1</text><text fill="#000000" font-family="sans-serif" font-size="13" lengthAdjust="spacing" textLength="24.8066" x="1522.7086" y="464.7141">0..1</text></g><!--link DICOMSerie to Modalit?tCT--><g class="link" data-entity-1="DICOMSerie" data-entity-2="Modalit&#228;tCT" data-source-line="124" data-uid="lnk16" id="link_DICOMSerie_Modalit&#228;tCT"><path codeLine="124" d="M728,681.38 C728,720.46 728,761.14 728,793.65" fill="none" id="DICOMSerie-Modalit&#228;tCT" style="stroke:#181818;stroke-width:1;"/><text fill="#000000" font-family="sans-serif" font-size="13" lengthAdjust="spacing" textLength="24.8066" x="707.3701" y="701.4241">1..1</text><text fill="#000000" font-family="sans-serif" font-size="13" lengthAdjust="spacing" textLength="24.8066" x="702.7262" y="782.7844">0..1</text></g><!--link DICOMSerie to Modalit?tDX--><g class="link" data-entity-1="DICOMSerie" data-entity-2="Modalit&#228;tDX" data-source-line="125" data-uid="lnk17" id="link_DICOMSerie_Modalit&#228;tDX"><path codeLine="125" d="M937.12,662 C1006.83,662 1062,662 1062,662 C1062,662 1062,736.61 1062,793.89" fill="none" id="DICOMSerie-Modalit&#228;tDX" style="stroke:#181818;stroke-width:1;"/><text fill="#000000" font-family="sans-serif" font-size="13" lengthAdjust="spacing" textLength="24.8066" x="944.9492" y="662.0283">1..1</text><text fill="#000000" font-family="sans-serif" font-size="13" lengthAdjust="spacing" textLength="24.8066" x="1022.0699" y="783.0506">0..1</text></g><!--link DICOMSerie to Modalit?tCR--><g class="link" data-entity-1="DICOMSerie" data-entity-2="Modalit&#228;tCR" data-source-line="126" data-uid="lnk18" id="link_DICOMSerie_Modalit&#228;tCR"><path codeLine="126" d="M937.05,643 C1192.88,643 1530.25,643 1530.25,643 C1530.25,643 1530.25,730.37 1530.25,793.84" fill="none" id="DICOMSerie-Modalit&#228;tCR" style="stroke:#181818;stroke-width:1;"/><text fill="#000000" font-family="sans-serif" font-size="13" lengthAdjust="spacing" textLength="24.8066" x="944.8773" y="642.5236">1..1</text><text fill="#000000" font-family="sans-serif" font-size="13" lengthAdjust="spacing" textLength="24.8066" x="1490.3473" y="782.9952">0..1</text></g><!--link DICOMSerie to Modalit?tMG--><g class="link" data-entity-1="DICOMSerie" data-entity-2="Modalit&#228;tMG" data-source-line="127" data-uid="lnk19" id="link_DICOMSerie_Modalit&#228;tMG"><path codeLine="127" d="M937.09,543 C988.47,543 1040.4,543 1086.64,543" fill="none" id="DICOMSerie-Modalit&#228;tMG" style="stroke:#181818;stroke-width:1;"/><text fill="#000000" font-family="sans-serif" font-size="13" lengthAdjust="spacing" textLength="24.8066" x="944.9184" y="539.8674">1..1</text><text fill="#000000" font-family="sans-serif" font-size="13" lengthAdjust="spacing" textLength="24.8066" x="1054.3569" y="539.6951">0..1</text></g><!--link Modalit?tNM to DICOMSerie--><g class="link" data-entity-1="Modalit&#228;tNM" data-entity-2="DICOMSerie" data-source-line="128" data-uid="lnk21" id="link_Modalit&#228;tNM_DICOMSerie"><path codeLine="128" d="M1264.25,256.29 C1264.25,327.19 1264.25,424 1264.25,424 C1264.25,424 1096.7,424 937.33,424" fill="none" id="Modalit&#228;tNM-DICOMSerie" style="stroke:#181818;stroke-width:1;"/><text fill="#000000" font-family="sans-serif" font-size="13" lengthAdjust="spacing" textLength="24.8066" x="1235.338" y="275.8209">0..1</text><text fill="#000000" font-family="sans-serif" font-size="13" lengthAdjust="spacing" textLength="24.8066" x="944.243" y="418.1018">1..1</text></g><!--link Modalit?tPT to DICOMSerie--><g class="link" data-entity-1="Modalit&#228;tPT" data-entity-2="DICOMSerie" data-source-line="129" data-uid="lnk23" id="link_Modalit&#228;tPT_DICOMSerie"><path codeLine="129" d="M772.75,264.24 C772.75,305.72 772.75,357.32 772.75,404.82" fill="none" id="Modalit&#228;tPT-DICOMSerie" style="stroke:#181818;stroke-width:1;"/><text fill="#000000" font-family="sans-serif" font-size="13" lengthAdjust="spacing" textLength="24.8066" x="746.0975" y="284.2127">0..1</text><text fill="#000000" font-family="sans-serif" font-size="13" lengthAdjust="spacing" textLength="24.8066" x="754.5674" y="393.9194">1..1</text></g><!--link Modalit?tUS to DICOMSerie--><g class="link" data-entity-1="Modalit&#228;tUS" data-entity-2="DICOMSerie" data-source-line="130" data-uid="lnk25" id="link_Modalit&#228;tUS_DICOMSerie"><path codeLine="130" d="M1793.75,239.74 C1793.75,316.24 1793.75,443 1793.75,443 C1793.75,443 1274.46,443 937.22,443" fill="none" id="Modalit&#228;tUS-DICOMSerie" style="stroke:#181818;stroke-width:1;"/><text fill="#000000" font-family="sans-serif" font-size="13" lengthAdjust="spacing" textLength="24.8066" x="1768.3037" y="259.6328">0..1</text><text fill="#000000" font-family="sans-serif" font-size="13" lengthAdjust="spacing" textLength="24.8066" x="944.1304" y="437.5471">1..1</text></g><!--link Studie to DICOMSerie--><g class="link" data-entity-1="Studie" data-entity-2="DICOMSerie" data-source-line="132" data-uid="lnk26" id="link_Studie_DICOMSerie"><path codeLine="132" d="M415.75,325.02 C415.75,351.28 415.75,378.66 415.75,404.79" fill="none" id="Studie-DICOMSerie" style="stroke:#181818;stroke-width:1;"/><text fill="#000000" font-family="sans-serif" font-size="13" lengthAdjust="spacing" textLength="59.814" x="355.75" y="360.9769">ISt.series</text><text fill="#000000" font-family="sans-serif" font-size="13" lengthAdjust="spacing" textLength="24.8066" x="400.7332" y="345.2559">1..1</text><text fill="#000000" font-family="sans-serif" font-size="13" lengthAdjust="spacing" textLength="23.0356" x="379.0502" y="393.8877">0..*</text></g><!--link Modalit?tPT to Modalit?tNM--><!--link Modalit?tNM to Modalit?tUS--><!--SRC=[xLZDRjiu4BxxAOZqakp6GNjOO14K1VoJ9aRgnBML88iW1reSIuGaKYMf97RRPzdBFaDEU_EBxL2MOogb5MDF2tHlDlbzyp_3iNN2HKuLpSWdBi3CSo1IcLYszFF5XMIW8IVlVdlhd8wfIEpfx-vX2X48rgLX4YbP2DQJgLJapKFC3RHQEPxJ2CXUVz2x7BRFW39GU-HhYv0mfLgJYIaO1_B-_I2Z4HUH_Jx_y86y-SIZsFJcL9JWNn58JQ6FIKyoX97RTqT7x-xAcw5aDELc-PS1iRb_UtJqo-h-wun3ohwJ4IWj1OZsW84mVCOJQhX4oXXce424i3_24xmxSCMlwTUMhg92H5eRI5CGYHI69iOLS2923881TL1QK8de0hg6YXWr4F0CtBkr-8wOION14Gp8a2x_53JEm1Kz0NNFGnZ3bmAqEV1v-BcmTf55aP5HfpSXNPwokdKibrpKoHsne75ACD0WOffY444GLCPjD0kXUII03OHnZNOvPaEw7961q8QAHGDtRQmrBeAfZMUkv09OeMgfK3AqPr2BvCaZgj9brXn-fB3mZeasQftw5xe6WdcotPDuR0-_NKurHhS4r6ApgaxHxe8EOmNSQlFfMLNtEcZEjusmxwtdcY_lLzTLRPV4zjMWVqmuSuklkhaeiWpKrf1kEi3N7oiPqrTSsAIKL-clvNRtl9uldrGEIc7DIx4_bMm-mL5mKElCYb91DI30Tz_KDnyBaTXy4PnKf5FesV9lT0-xPpK3W4vJm0I7a1jVgtGI0_M2wuDjhrhhEzLsZhskg3OPDzZy4PsYmLCfKy20UOR5LYO3GtcgQusDamqo3FQt3ikuu9YR7olH8zYTU_lzcyFU-71uUjWB3eVZmr5mU34y-B54dJIkFeOD9Lg1rqLwELhJYQzIyVhSSi5NWnNnjK8Ei13IOsoxbzNvek_nqMhCiWEVX34FOyDucA1bdmkAez_CRxFipbUy3d747o6bKsitstyy-FVSUGFNuPoWop1LLE3pWTqe93v5gcpMxhhErZmdKPiY68whH_CFV0Jampfh8HNQFXbYqHWn1qUkx0DsJnL7cw6HDQIOHCDniW3vY47GQ8YgnJdmXogCSU9pG_Q3arfqj1S-XXors9xG5Mky0siWxd6sEAH10-cSv_a35uajlsSCW-ZkbQZt0b_KUq5_GAvbMcIsqpOwJ-TrfTSZvpQvVb4QkTGRfxURlW6wc4uTD5u-2OERcbe-sJ69CqPcDRZhAF5vsh_nUVeVTG7VZXGxVYFLLyGDplR6Fv6pmzEVoDcBeS_PCMLSvZ5L6KqQXLPGKIGfPusuGD4GL4EawZ6O96XWEV1n7H9n2MsGVWgQPlXGEDOmrACT-SFkbvg6CvfE7q2P9ZlyCHi5_yUiqOvomsvUIholnzN45zX1bXUfdiaqWfbQlztFgiyMTTqXxkXf8lEP1vji1Myrja9UfNPfBU4pgkoswzb2q2VdjyoUNVVsIBjDzgpJUxKb4lVDYJdI5gYFUBLw-jXgHSUFxcgpNKyDs0js1FPlTfKutjd8Kn-oy20lXhiYHy6koAj9grNzb-BFGod2pKAhLMlmzcsCxG3Y3dshcLeRdNxKrUGV]--></g></svg>