<svg xmlns="http://www.w3.org/2000/svg" viewBox="0 0 900 540" width="450" height="270"
     role="img" aria-label="Medizininformatik-Initiative (MII)">
  <title>Medizininformatik-Initiative (MII)</title>
  <g transform="translate(0.000000,540.000000) scale(0.100000,-0.100000)" fill="#7a8495">
    <path d="M2680 5390 c-10 -6 3 -9 39 -8 36 0 49 3 40 9 -18 11 -60 11 -79 -1z
M2832 5345 c15 -16 34 -47 43 -67 8 -21 18 -38 20 -38 14 0 -30 79 -58 105
-32 30 -32 30 -5 0z M2103 5332 c-6 -4 15 -7 47 -7 32 0 53 3 47 7 -7 4 -28 8
-47 8 -19 0 -40 -4 -47 -8z M2044 5298 c-19 -23 -19 -23 6 -3 14 11 27 21 29
22 2 2 0 3 -6 3 -5 0 -18 -10 -29 -22z M3194 5301 c-17 -10 -41 -33 -53 -50
-12 -17 -30 -31 -39 -32 -13 0 -14 -2 -3 -6 9 -4 28 10 50 36 21 24 53 48 76
56 23 8 31 14 20 15 -11 0 -34 -9 -51 -19z M3333 5306 c47 -17 76 -42 93 -81
10 -22 13 -25 14 -11 0 30 -85 106 -118 106 -24 -1 -23 -2 11 -14z M1986 5218
c-3 -13 -5 -32 -5 -43 1 -11 5 -2 10 19 10 42 6 62 -5 24z M2433 5233 c9 -2
25 -2 35 0 9 3 1 5 -18 5 -19 0 -27 -2 -17 -5z M2943 5233 c9 -2 23 -2 30 0 6
3 -1 5 -18 5 -16 0 -22 -2 -12 -5z M2363 5223 c9 -2 25 -2 35 0 9 3 1 5 -18 5
-19 0 -27 -2 -17 -5z M3003 5223 c9 -2 23 -2 30 0 6 3 -1 5 -18 5 -16 0 -22
-2 -12 -5z M2483 5193 c9 -2 23 -2 30 0 6 3 -1 5 -18 5 -16 0 -22 -2 -12 -5z
M2887 5193 c-4 -3 -7 -11 -7 -17 0 -7 3 -7 8 0 4 7 16 14 27 17 19 5 19 5 -1
6 -11 0 -24 -2 -27 -6z M2393 5183 c15 -2 37 -2 50 0 12 2 0 4 -28 4 -27 0
-38 -2 -22 -4z M2958 5183 c12 -2 32 -2 45 0 12 2 2 4 -23 4 -25 0 -35 -2 -22
-4z M3441 5170 c-1 -26 15 -50 33 -50 5 0 3 6 -6 13 -9 6 -19 23 -21 37 -4 25
-4 25 -6 0z M2317 5163 c-3 -10 -8 -30 -11 -45 -4 -15 -20 -45 -37 -65 -32
-38 -32 -38 4 -1 20 20 39 50 42 65 4 15 10 36 16 46 6 10 6 17 0 17 -5 0 -12
-8 -14 -17z M3075 5171 c24 -5 30 -13 37 -45 11 -52 50 -102 99 -125 21 -11
39 -16 39 -12 0 4 -18 15 -41 25 -45 20 -75 62 -85 116 -8 40 -19 50 -54 49
-23 -1 -22 -2 5 -8z M2560 5162 c0 -7 15 -27 33 -45 17 -18 22 -21 11 -7 -12
14 -26 34 -32 45 -6 11 -12 14 -12 7z M1603 5143 c15 -2 37 -2 50 0 12 2 0 4
-28 4 -27 0 -38 -2 -22 -4z M1529 5119 c-24 -20 -24 -20 4 -3 15 9 27 18 27
20 0 8 -8 4 -31 -17z M1865 5110 c-13 -6 -15 -9 -5 -9 8 0 22 4 30 9 18 12 2
12 -25 0z M1805 5090 c-13 -6 -15 -9 -5 -9 8 0 22 4 30 9 18 12 2 12 -25 0z
M1945 5090 c-13 -6 -15 -9 -5 -9 8 0 22 4 30 9 18 12 2 12 -25 0z M3679 5073
c-24 -28 -24 -28 4 -4 25 23 32 31 24 31 -2 0 -14 -12 -28 -27z M3415 5070
c-7 -24 -51 -56 -88 -65 -15 -4 -27 -11 -27 -16 0 -18 75 22 105 55 17 18 39
36 50 39 16 4 14 5 -7 6 -18 1 -29 -5 -33 -19z M1885 5070 c-13 -6 -15 -9 -5
-9 8 0 22 4 30 9 18 12 2 12 -25 0z M2025 5051 c22 -25 66 -51 87 -51 7 1 -3
8 -22 16 -19 8 -46 25 -60 37 -25 22 -25 22 -5 -2z M1818 5048 c-25 -8 -28
-15 -28 -53 0 -24 -3 -52 -6 -62 -5 -15 -4 -15 5 -3 6 8 11 34 11 57 0 39 3
44 33 57 37 16 26 19 -15 4z M2713 5053 c9 -2 23 -2 30 0 6 3 -1 5 -18 5 -16
0 -22 -2 -12 -5z M3540 5050 c8 -5 22 -9 30 -9 10 0 8 3 -5 9 -27 12 -43 12
-25 0z M1471 4888 c2 -2 18 -14 34 -28 30 -25 30 -25 6 3 -14 15 -29 27 -34
27 -6 0 -8 -1 -6 -2z M1749 4873 c-8 -9 -27 -24 -44 -35 -16 -10 -24 -18 -17
-18 12 0 93 69 81 70 -4 0 -13 -7 -20 -17z M1101 4856 c2 -2 29 -6 59 -9 34
-3 47 -2 35 3 -19 8 -103 14 -94 6z M1023 4814 c-28 -25 -28 -25 5 -3 17 13
32 24 32 26 0 8 -11 1 -37 -23z M1237 4820 c19 -20 25 -22 35 -11 11 11 10 13
0 6 -8 -4 -23 1 -35 11 -22 18 -22 18 0 -6z M1363 4819 c-35 -22 -46 -37 -15
-20 22 13 58 40 52 41 -3 0 -20 -10 -37 -21z M1603 4813 c15 -2 37 -2 50 0 12
2 0 4 -28 4 -27 0 -38 -2 -22 -4z M1289 4768 c-1 -7 0 -17 1 -23 2 -5 7 -30
11 -55 8 -45 8 -45 3 5 -2 28 -4 58 -4 68 -1 20 -9 23 -11 5z M961 4689 c0
-13 4 -33 9 -44 7 -14 8 -8 3 20 -7 46 -13 59 -12 24z M1282 4615 c-17 -37
-14 -45 4 -12 9 16 14 31 11 33 -2 2 -9 -7 -15 -21z M910 4515 l-74 -80 79 77
c43 43 77 79 75 80 -3 2 -39 -33 -80 -77z M2291 4586 c2 -2 27 -6 54 -9 32 -4
43 -3 30 3 -19 8 -93 14 -84 6z M2188 4545 c-34 -23 -88 -98 -88 -121 0 -5 13
14 29 41 28 47 42 61 101 92 14 7 18 13 10 13 -9 0 -32 -11 -52 -25z M940
4483 l-75 -78 77 74 c53 52 81 72 93 68 9 -4 14 -3 10 3 -13 21 -33 8 -105
-67z M2440 4557 c0 -4 15 -21 34 -37 18 -17 43 -52 55 -80 25 -59 34 -65 18
-13 -10 32 -106 149 -107 130z M1191 4435 c-17 -20 -31 -39 -31 -42 0 -4 3 -3
8 3 4 5 20 24 36 42 17 17 27 32 24 32 -3 0 -20 -16 -37 -35z M775 4450 c27
-12 43 -12 25 0 -8 5 -22 9 -30 9 -10 0 -8 -3 5 -9z M1475 4406 c10 -14 19
-26 22 -26 7 0 -17 39 -28 46 -6 3 -3 -5 6 -20z M2087 4390 c-3 -11 -1 -23 4
-26 5 -3 9 6 9 20 0 31 -6 34 -13 6z M581 4371 c-17 -31 -23 -94 -12 -121 9
-21 9 -19 5 15 -3 24 0 58 9 83 15 44 14 55 -2 23z M1146 4365 c-3 -9 -6 -22
-5 -28 0 -7 5 -1 10 12 5 13 8 26 5 28 -2 2 -6 -3 -10 -12z M2540 4299 c-7
-24 -14 -48 -17 -54 -4 -7 -3 -7 4 0 14 13 37 85 30 92 -3 3 -11 -15 -17 -38z
M2100 4282 c0 -42 72 -121 132 -146 53 -23 139 -20 192 5 44 20 89 59 69 59
-6 0 -17 -7 -24 -17 -23 -26 -91 -53 -139 -53 -98 0 -169 41 -209 123 -12 23
-21 36 -21 29z M1190 4185 c13 -14 26 -25 28 -25 3 0 -5 11 -18 25 -13 14 -26
25 -28 25 -3 0 5 -11 18 -25z M599 4188 c11 -15 11 -22 -4 -45 -10 -16 -25
-38 -33 -50 -8 -13 -12 -23 -9 -23 3 0 20 23 37 51 32 49 32 51 15 67 -18 16
-18 16 -6 0z M849 4173 c-24 -28 -24 -28 4 -4 25 23 32 31 24 31 -2 0 -14 -12
-28 -27z M790 4138 c-14 -5 -50 -7 -81 -4 -46 4 -60 2 -70 -11 -12 -14 -12
-16 1 -8 8 6 47 10 87 10 44 0 77 5 84 13 15 14 13 14 -21 0z M1270 4130 c0
-9 76 -11 99 -2 14 5 1 7 -39 7 -33 0 -60 -2 -60 -5z M4347 4133 c-9 -8 -9
-626 -1 -647 5 -12 21 -16 65 -16 73 0 72 -3 68 205 -2 85 0 154 4 152 5 -1
34 -51 64 -110 56 -107 56 -107 102 -107 46 0 46 0 106 118 l60 117 5 -185 c5
-185 5 -185 67 -188 l62 -3 3 323 c2 178 1 329 -1 336 -2 8 -24 12 -66 12 -68
0 -71 -4 -196 -277 -16 -35 -34 -63 -39 -63 -6 0 -47 77 -92 170 -81 170 -81
170 -143 170 -34 0 -65 -3 -68 -7z M5122 3808 l3 -333 215 0 c215 0 215 0 215
55 0 55 0 55 -150 60 -150 5 -150 5 -150 80 0 75 0 75 128 78 70 1 127 6 128
10 8 58 7 92 -4 101 -7 6 -67 12 -133 13 -119 3 -119 3 -122 75 -3 72 -3 72
150 75 153 3 153 3 156 61 3 57 3 57 -218 57 l-220 0 2 -332z M5720 3804 l0
-336 163 4 c183 6 203 12 261 80 48 56 59 112 54 288 -4 156 -10 179 -64 234
-59 59 -88 66 -259 66 l-155 0 0 -336z m305 196 c34 -28 45 -75 45 -187 0
-188 -17 -214 -140 -221 l-79 -5 -3 209 c-2 140 1 211 8 219 15 15 146 4 169
-15z M6355 4127 c-3 -7 -4 -156 -3 -332 3 -320 3 -320 62 -323 41 -2 62 1 67
10 10 15 12 618 3 642 -8 20 -122 23 -129 3z M6660 4086 c0 -67 1 -68 144 -65
67 1 111 -2 114 -9 1 -5 -32 -63 -74 -128 -212 -327 -194 -294 -194 -357 0
-57 0 -57 218 -55 217 3 217 3 217 58 0 55 0 55 -132 58 -108 2 -133 5 -133
17 0 13 52 96 208 335 51 77 56 90 57 140 0 55 0 55 -212 58 -213 2 -213 2
-213 -52z M7255 4127 c-3 -7 -4 -156 -3 -332 l3 -320 60 0 60 0 3 333 2 332
-60 0 c-40 0 -62 -4 -65 -13z M7585 4128 c-3 -7 -4 -157 -3 -333 3 -320 3
-320 62 -323 40 -2 62 1 68 10 4 7 8 94 7 193 -1 125 2 180 10 183 6 2 11 0
11 -5 0 -5 53 -92 118 -194 119 -184 119 -184 178 -184 l59 0 0 330 0 330 -62
3 c-63 3 -63 3 -63 -188 0 -222 -2 -226 -73 -112 -26 42 -80 127 -120 187 -72
110 -72 110 -130 113 -40 2 -59 -1 -62 -10z M606 4075 c-9 -14 -23 -37 -32
-52 -16 -28 -16 -28 4 -4 24 29 55 81 49 81 -3 0 -12 -11 -21 -25z M505 3999
c-4 -6 -17 -14 -29 -19 -14 -6 -16 -9 -5 -9 9 -1 24 8 34 19 10 11 15 20 12
20 -3 0 -9 -5 -12 -11z M1043 4000 c-13 -5 -23 -12 -23 -15 0 -4 5 -3 12 1 6
4 39 10 72 14 61 7 61 7 11 8 -27 0 -60 -3 -72 -8z M1200 3987 c0 -2 15 -16
33 -33 32 -29 32 -29 3 4 -28 30 -36 37 -36 29z M356 3971 c-3 -4 6 -6 19 -3
14 2 25 6 25 8 0 8 -39 4 -44 -5z M305 3930 c-16 -16 -27 -31 -24 -33 2 -2 17
11 32 30 36 41 31 43 -8 3z M530 3953 c0 -5 12 -20 28 -34 27 -24 27 -24 2 6
-14 17 -26 32 -27 34 -2 2 -3 0 -3 -6z M1918 3922 c-49 -13 -112 -66 -141
-120 -16 -29 -24 -52 -20 -52 5 0 14 15 21 33 28 79 107 130 202 131 111 2
186 -53 220 -160 10 -33 19 -49 19 -38 1 28 -24 88 -52 126 -48 65 -163 102
-249 80z M266 3864 c-8 -22 -7 -87 2 -101 4 -6 7 18 7 53 0 70 0 71 -9 48z
M926 3780 c6 -23 44 -92 44 -80 0 3 -12 28 -26 55 -13 28 -22 39 -18 25z
M1236 3702 c-36 -42 -36 -44 -7 -17 28 25 58 66 49 65 -2 -1 -21 -22 -42 -48z
M280 3727 c0 -2 15 -16 33 -33 32 -29 32 -29 3 4 -28 30 -36 37 -36 29z M1755
3649 c17 -64 56 -124 98 -149 48 -30 57 -24 10 6 -50 33 -90 93 -99 150 -3 24
-10 44 -14 44 -5 0 -2 -23 5 -51z M427 3653 c-41 -4 -49 -8 -58 -30 -5 -14 -7
-28 -5 -31 3 -2 8 7 12 22 5 23 11 26 48 26 22 0 48 5 56 10 8 5 11 9 5 8 -5
-1 -32 -3 -58 -5z M1045 3650 c27 -12 43 -12 25 0 -8 5 -22 9 -30 9 -10 0 -8
-3 5 -9z M2195 3621 c-16 -72 -105 -138 -205 -151 -55 -7 -55 -7 -7 -9 61 -1
148 38 181 82 29 38 59 107 46 107 -4 0 -11 -13 -15 -29z M291 3543 c-1 -6 -4
-20 -7 -30 -5 -17 -5 -17 6 0 6 10 9 23 6 30 -3 9 -5 9 -5 0z M331 3523 c-1
-6 -4 -20 -7 -30 -5 -17 -5 -17 6 0 6 10 9 23 6 30 -3 9 -5 9 -5 0z M262 3470
c-6 -10 -24 -20 -39 -23 -28 -4 -28 -4 -2 -6 24 -1 69 33 58 44 -3 2 -10 -4
-17 -15z M311 3455 c0 -12 16 -33 42 -54 42 -33 42 -33 5 2 -20 20 -38 44 -41
54 -4 16 -5 16 -6 -2z M90 3359 c-7 -11 -10 -23 -7 -25 2 -2 9 7 15 21 14 30
7 33 -8 4z M404 3286 c0 -48 2 -53 9 -31 6 16 6 40 0 58 -8 28 -9 25 -9 -27z
M72 3285 c0 -16 2 -22 5 -12 2 9 2 23 0 30 -3 6 -5 -1 -5 -18z M562 3223 c-38
-38 -38 -38 -2 -8 19 16 39 33 45 37 5 5 6 8 2 8 -4 0 -25 -17 -45 -37z M810
3215 c13 -14 26 -25 28 -25 3 0 -5 11 -18 25 -13 14 -26 25 -28 25 -3 0 5 -11
18 -25z M100 3187 c0 -2 20 -22 45 -45 25 -22 45 -38 45 -34 0 4 -20 25 -45
45 -25 21 -45 36 -45 34z M359 3163 c-24 -28 -24 -28 4 -4 25 23 32 31 24 31
-2 0 -14 -12 -28 -27z M849 3155 c17 -54 21 -61 16 -25 -3 19 -10 39 -15 44
-7 7 -7 1 -1 -19z M232 3108 c-7 -7 -11 -23 -11 -37 1 -24 2 -24 8 4 4 20 14
31 31 36 21 6 22 7 5 8 -12 1 -26 -4 -33 -11z M166 2999 c-4 -28 -5 -53 -3
-56 3 -2 8 19 12 47 4 28 5 53 2 56 -2 3 -7 -19 -11 -47z M837 2997 c-17 -32
-17 -32 3 -8 17 20 26 41 18 41 -2 0 -11 -15 -21 -33z M206 2959 c-6 -64 -3
-80 17 -78 8 0 8 2 -1 6 -9 3 -11 21 -6 69 4 35 5 64 2 64 -3 0 -8 -27 -12
-61z M3547 3004 c-4 -4 -7 -155 -7 -336 l0 -328 65 0 65 0 -2 333 c-3 332 -3
332 -58 335 -31 2 -59 0 -63 -4z M3835 2997 c-3 -7 -4 -156 -3 -332 l3 -320
63 -3 c62 -3 62 -3 62 188 0 124 4 190 10 190 10 0 62 -77 209 -308 46 -72 46
-72 106 -70 l60 3 0 330 0 330 -62 3 c-46 2 -63 0 -63 -10 -1 -7 -1 -95 -1
-195 0 -108 -4 -183 -9 -183 -6 0 -22 19 -36 43 -15 23 -71 111 -126 195 -100
152 -100 152 -155 152 -34 0 -55 -5 -58 -13z M4517 3003 c-4 -3 -7 -154 -7
-335 l0 -329 66 3 c66 3 66 3 67 133 l2 130 130 5 c130 5 130 5 130 60 0 55 0
55 -130 60 -130 5 -130 5 -130 80 0 75 0 75 153 78 83 1 152 6 153 10 6 45 3
98 -5 104 -14 10 -420 10 -429 1z M5180 2994 c-46 -20 -108 -80 -126 -124 -22
-50 -22 -340 0 -391 41 -99 113 -143 231 -143 94 0 122 12 183 78 54 59 57 72
57 266 0 187 -10 219 -82 279 -63 52 -186 68 -263 35z m169 -123 c37 -26 49
-75 50 -191 1 -127 -10 -170 -51 -205 -41 -34 -107 -31 -145 7 -52 52 -50 323
2 378 42 43 94 48 144 11z M5675 2997 c-3 -7 -4 -156 -3 -332 l3 -320 62 -3
c62 -3 62 -3 65 125 3 128 3 128 50 131 47 3 47 3 110 -127 63 -131 63 -131
134 -131 87 0 89 1 55 58 -14 26 -47 87 -71 135 -45 89 -45 89 -23 104 150
102 118 315 -56 363 -55 15 -320 13 -326 -3z m314 -133 c52 -43 39 -113 -24
-140 -42 -17 -137 -18 -153 -2 -13 13 -17 149 -5 161 3 4 39 7 79 7 63 0 76
-3 103 -26z M6307 3003 c-4 -3 -7 -154 -7 -335 l0 -328 65 0 c65 0 65 0 65
181 0 109 4 178 9 174 5 -3 33 -52 61 -109 52 -107 61 -116 111 -116 33 0 47
18 106 143 21 42 42 77 48 77 6 0 10 -59 10 -172 0 -173 0 -173 63 -173 l63 0
-1 323 c0 177 0 327 0 332 0 7 -24 10 -62 8 -71 -3 -55 18 -176 -236 -30 -62
-57 -112 -61 -112 -4 0 -23 33 -41 73 -61 135 -125 262 -135 269 -13 10 -109
10 -118 1z M7236 2988 c-9 -12 -16 -30 -16 -38 0 -9 -4 -20 -8 -25 -5 -6 -15
-30 -22 -55 -8 -25 -16 -49 -20 -55 -4 -5 -13 -30 -20 -55 -7 -25 -16 -49 -20
-55 -3 -5 -12 -28 -19 -50 -13 -43 -47 -137 -61 -170 -5 -11 -14 -38 -21 -60
-7 -22 -17 -44 -21 -49 -22 -27 -7 -36 60 -36 69 0 69 0 82 43 23 74 30 77
145 77 114 0 115 0 138 -70 15 -45 15 -45 81 -48 71 -3 76 1 57 50 -5 13 -19
50 -31 83 -12 33 -26 69 -30 80 -5 11 -16 40 -24 65 -14 46 -41 119 -56 155
-5 11 -14 38 -21 60 -7 22 -16 45 -19 50 -4 6 -13 30 -20 55 -19 63 -27 70
-76 70 -33 0 -46 -5 -58 -22z m103 -306 c17 -52 31 -98 31 -103 0 -5 -34 -9
-75 -9 -82 0 -85 3 -64 57 24 58 31 78 53 147 10 30 22 10 55 -92z M7564 2996
c-3 -7 -4 -33 -2 -57 3 -44 3 -44 88 -49 l85 -5 3 -272 2 -273 65 0 65 0 2
273 3 272 85 5 c85 5 85 5 85 60 0 55 0 55 -238 58 -196 2 -238 0 -243 -12z
M8167 3004 c-4 -4 -7 -155 -7 -336 l0 -328 65 0 65 0 -2 333 c-3 332 -3 332
-58 335 -31 2 -59 0 -63 -4z M8465 3001 c-6 -6 -9 -130 -7 -335 l3 -326 64 0
c65 0 65 0 65 99 0 99 0 99 36 143 53 63 49 64 103 -37 116 -215 107 -205 193
-205 67 0 98 10 70 22 -4 2 -34 48 -66 103 -32 55 -69 117 -82 137 -13 21 -24
40 -24 43 0 3 -11 23 -25 43 -14 20 -25 43 -25 50 0 7 45 67 100 132 55 65
100 124 100 129 0 16 -132 14 -152 -1 -8 -7 -61 -71 -117 -141 -57 -71 -105
-126 -108 -123 -3 3 -6 65 -7 138 -1 133 -1 133 -56 136 -30 2 -60 -2 -65 -7z
M781 2940 c-13 -11 -19 -20 -14 -20 6 0 18 9 28 20 23 25 17 25 -14 0z M685
2910 c-50 -7 -50 -7 -5 -8 25 -1 52 3 60 8 8 5 11 9 5 8 -5 -1 -32 -4 -60 -8z
M6 2764 c-9 -22 -7 -82 2 -88 4 -2 8 20 8 50 1 57 0 63 -10 38z M342 2725 c0
-16 2 -22 5 -12 2 9 2 23 0 30 -3 6 -5 -1 -5 -18z M28 2635 c6 -11 21 -29 34
-40 22 -19 22 -19 -2 10 -40 48 -43 51 -32 30z M1101 2631 c14 -5 35 -14 47
-20 12 -6 22 -9 22 -7 0 10 -59 36 -77 35 -12 0 -9 -3 8 -8z M289 2603 c-24
-28 -24 -28 4 -4 25 23 32 31 24 31 -2 0 -14 -12 -28 -27z M932 2593 c-21 -21
-24 -26 -7 -12 16 15 39 31 50 37 11 6 14 12 7 12 -7 0 -30 -17 -50 -37z M202
2495 c0 -16 2 -22 5 -12 2 9 2 23 0 30 -3 6 -5 -1 -5 -18z M866 2505 c-3 -9
-5 -38 -5 -63 2 -46 2 -46 9 13 7 64 6 76 -4 50z M1243 2445 c0 -33 2 -45 4
-27 2 18 2 45 0 60 -2 15 -4 0 -4 -33z M162 2450 c0 -19 2 -27 5 -17 2 9 2 25
0 35 -3 9 -5 1 -5 -18z M213 2415 c0 -27 2 -38 4 -22 2 15 2 37 0 50 -2 12 -4
0 -4 -28z M172 2380 c0 -19 2 -27 5 -17 2 9 2 25 0 35 -3 9 -5 1 -5 -18z M228
2328 c6 -6 18 -8 28 -6 14 3 12 5 -9 10 -19 3 -25 2 -19 -4z M920 2305 c13
-14 26 -25 28 -25 3 0 -5 11 -18 25 -13 14 -26 25 -28 25 -3 0 5 -11 18 -25z
M120 2284 c-22 -20 -40 -41 -40 -47 0 -5 10 3 22 18 12 15 35 36 52 46 17 10
25 19 19 19 -7 0 -31 -16 -53 -36z M305 2304 c16 -8 37 -21 46 -27 8 -7 2 0
-15 16 -17 15 -37 27 -46 27 -8 0 -2 -7 15 -16z M1033 2253 c15 -2 37 -2 50 0
12 2 0 4 -28 4 -27 0 -38 -2 -22 -4z M66 2204 c-8 -20 -7 -74 2 -97 4 -9 7 12
7 48 0 71 0 72 -9 49z M695 2175 c25 -9 107 -12 94 -4 -8 5 -34 8 -59 8 -25 0
-40 -2 -35 -4z M811 2158 c2 -2 22 -19 44 -38 40 -35 40 -35 6 3 -19 20 -39
37 -45 37 -5 0 -7 -1 -5 -2z M907 2014 c6 -68 11 -77 12 -24 0 25 -3 51 -8 59
-5 8 -7 -5 -4 -35z M320 2019 c-22 -18 -22 -19 -3 -10 12 6 25 16 28 21 9 15
3 12 -25 -11z M553 1985 c0 -27 2 -38 4 -22 2 15 2 37 0 50 -2 12 -4 0 -4 -28z
M301 1975 c1 -19 18 -51 18 -35 0 8 -4 22 -9 30 -5 8 -9 11 -9 5z M560 1923
c0 -6 9 -21 21 -34 20 -24 20 -24 3 6 -24 39 -24 40 -24 28z M321 1915 c1 -19
18 -51 18 -35 0 8 -4 22 -9 30 -5 8 -9 11 -9 5z M866 1872 c-22 -27 -24 -32
-7 -17 20 17 47 55 39 55 -2 0 -16 -17 -32 -38z M281 1895 c1 -19 18 -51 18
-35 0 8 -4 22 -9 30 -5 8 -9 11 -9 5z M4146 1875 c-9 -25 -7 -628 3 -643 5 -8
21 -12 37 -10 29 3 29 3 29 333 0 330 0 330 -31 333 -22 2 -33 -2 -38 -13z
M4415 1877 c-3 -7 -4 -156 -3 -332 3 -320 3 -320 32 -323 16 -2 33 2 38 10 4
7 8 121 7 253 -1 131 2 240 7 241 5 1 85 -112 177 -252 166 -252 168 -255 200
-252 32 3 32 3 32 333 0 330 0 330 -32 333 -33 3 -33 3 -33 -252 0 -162 -4
-256 -10 -256 -5 0 -86 115 -180 255 -160 240 -172 255 -200 255 -17 0 -33 -6
-35 -13z M5105 1878 c-3 -7 -4 -157 -3 -333 3 -320 3 -320 38 -320 35 0 35 0
35 330 0 330 0 330 -33 333 -20 2 -34 -2 -37 -10z M5304 1876 c-16 -43 -3 -51
96 -56 l95 -5 3 -298 c2 -298 2 -298 35 -295 32 3 32 3 35 300 l2 297 93 3
c92 3 92 3 92 33 0 30 0 30 -223 33 -188 2 -223 0 -228 -12z M5897 1884 c-4
-4 -7 -155 -7 -336 0 -329 0 -329 33 -326 32 3 32 3 32 333 0 330 0 330 -25
333 -14 2 -29 0 -33 -4z M6311 1873 c-11 -22 -229 -612 -233 -633 -4 -19 49
-27 66 -10 6 6 20 39 32 73 21 62 21 62 168 65 134 2 148 1 152 -15 3 -10 15
-43 27 -73 21 -52 24 -55 61 -58 29 -3 37 0 34 10 -142 392 -233 636 -241 646
-14 18 -55 15 -66 -5z m94 -250 c73 -211 78 -193 -54 -193 -83 0 -113 3 -117
13 -2 7 18 77 46 154 27 77 50 146 50 152 0 6 6 11 14 11 8 0 31 -51 61 -137z
M6605 1870 c-12 -39 11 -50 106 -50 l89 0 2 -297 c3 -298 3 -298 35 -301 33
-3 33 -3 35 295 l3 298 91 3 c83 2 92 5 97 23 13 48 9 49 -228 49 -217 0 -224
-1 -230 -20z M7195 1877 c-3 -7 -4 -156 -3 -332 3 -320 3 -320 36 -323 32 -3
32 -3 32 332 0 336 0 336 -30 336 -17 0 -33 -6 -35 -13z M7380 1872 c0 -10 47
-160 104 -333 104 -314 104 -314 136 -314 31 0 33 3 55 70 13 39 59 181 104
316 92 280 92 279 52 279 -36 0 -43 -9 -71 -100 -12 -41 -42 -134 -66 -206
-23 -72 -48 -151 -54 -174 -13 -49 -27 -42 -47 20 -70 224 -136 428 -142 440
-13 24 -71 26 -71 2z M7975 1868 c-3 -13 -4 -162 -3 -333 l3 -310 208 -3 c207
-2 207 -2 207 28 0 30 0 30 -167 32 l-168 3 -3 117 -3 117 143 3 c143 3 143 3
143 33 0 30 0 30 -142 33 l-143 3 0 114 0 115 168 2 c167 3 167 3 167 33 0 30
0 30 -202 33 -203 2 -203 2 -208 -20z M341 1859 c-1 -3 4 -20 10 -38 10 -27
15 -31 49 -31 21 0 47 -3 57 -6 15 -5 15 -4 3 5 -8 6 -32 11 -52 11 -33 0 -40
4 -52 33 -8 17 -15 29 -15 26z M695 1810 c11 -5 29 -8 40 -8 16 0 15 2 -5 8
-34 11 -60 11 -35 0z M289 1743 c-24 -28 -24 -28 4 -4 15 14 27 26 27 28 0 8
-8 1 -31 -24z M555 1712 c4 -8 11 -26 15 -40 7 -22 8 -23 9 -6 1 11 -6 29 -15
40 -8 10 -12 13 -9 6z M1363 1663 c9 -2 23 -2 30 0 6 3 -1 5 -18 5 -16 0 -22
-2 -12 -5z M241 1629 c0 -19 4 -43 9 -54 6 -13 7 -2 3 30 -7 59 -13 72 -12 24z
M289 1507 c16 -21 63 -47 83 -47 7 1 -3 8 -22 16 -19 8 -43 23 -55 32 -19 16
-19 16 -6 -1z M450 1464 c8 -4 23 -16 34 -28 18 -21 18 -21 4 4 -9 14 -24 26
-34 27 -13 2 -14 1 -4 -3z M581 1363 c12 -21 29 -45 37 -53 7 -8 0 9 -18 38
-17 28 -34 52 -37 52 -2 0 5 -17 18 -37z M663 1312 c-6 -4 15 -7 47 -7 32 0
53 3 47 7 -7 4 -28 8 -47 8 -19 0 -40 -4 -47 -8z M569 1297 c11 -14 12 -23 2
-45 -10 -25 -10 -26 4 -8 20 26 19 40 -2 57 -16 13 -17 12 -4 -4z M781 1298
c2 -2 22 -19 44 -38 40 -35 40 -35 6 3 -19 20 -39 37 -45 37 -5 0 -7 -1 -5 -2z
M872 1153 c-1 -23 -5 -50 -8 -60 -5 -17 -5 -17 6 0 6 9 9 36 7 60 -4 42 -4 42
-5 0z M541 1110 c0 -8 4 -22 9 -30 12 -18 12 -2 0 25 -6 13 -9 15 -9 5z M560
1057 c0 -2 15 -16 33 -33 32 -29 32 -29 3 4 -28 30 -36 37 -36 29z M915 942
c80 -82 80 -82 120 -62 123 62 262 -47 226 -178 -10 -32 -8 -39 11 -57 22 -20
22 -20 4 2 -14 18 -16 25 -6 44 15 26 8 83 -14 130 -36 76 -145 111 -222 71
-39 -21 -39 -21 -119 56 l-80 77 80 -83z M755 990 c-15 -7 -11 -8 15 -4 33 5
39 1 114 -75 61 -63 76 -85 70 -98 -16 -36 -16 -120 0 -151 42 -81 157 -117
232 -73 20 12 44 19 53 16 13 -5 13 -4 4 6 -10 10 -21 8 -52 -9 -77 -44 -183
-16 -223 58 -19 36 -21 114 -4 153 6 13 -10 36 -75 102 -82 84 -96 92 -134 75z
M1319 612 c14 -11 38 -27 55 -37 31 -17 31 -17 7 3 -14 11 -38 27 -55 37 -31
17 -31 17 -7 -3z M1585 600 c3 -6 16 -10 27 -10 36 0 89 -41 109 -84 10 -23
19 -35 19 -28 0 25 -30 71 -62 95 -34 25 -104 45 -93 27z M1477 573 c-49 -34
-41 -42 9 -8 46 31 50 35 38 35 -5 0 -26 -12 -47 -27z M4094 574 c-18 -14 -18
-14 6 -3 31 14 36 19 24 19 -6 0 -19 -7 -30 -16z M3963 549 c-35 -22 -46 -37
-15 -20 22 13 58 40 52 41 -3 0 -20 -10 -37 -21z M1340 546 c0 -2 16 -14 36
-27 31 -19 35 -26 31 -53 -10 -68 56 -186 105 -186 6 0 -4 10 -22 23 -49 33
-72 82 -67 140 4 44 2 50 -27 71 -38 28 -56 39 -56 32z M3960 495 c-45 -33
-30 -32 18 0 20 14 32 25 27 25 -6 -1 -26 -12 -45 -25z M1786 366 c50 -22 82
-27 39 -7 -22 11 -47 20 -55 20 -8 0 -1 -6 16 -13z M3540 350 c-18 -12 -2 -12
25 0 13 6 15 9 5 9 -8 0 -22 -4 -30 -9z M1689 324 c-22 -27 -66 -44 -116 -45
-41 -1 -44 -2 -21 -9 38 -11 100 7 140 41 18 15 28 28 22 29 -6 0 -17 -7 -25
-16z M1870 338 c12 -12 90 -37 90 -29 0 5 -10 11 -22 14 -13 3 -34 9 -48 13
-14 4 -23 5 -20 2z M3480 330 c-18 -12 -2 -12 25 0 13 6 15 9 5 9 -8 0 -22 -4
-30 -9z M2313 223 c9 -2 23 -2 30 0 6 3 -1 5 -18 5 -16 0 -22 -2 -12 -5z
M2435 209 c33 -5 66 -11 73 -14 6 -2 12 1 12 8 0 8 -23 13 -73 14 -72 1 -72 1
-12 -8z M2905 210 c-18 -5 -2 -6 40 -3 39 3 72 7 74 9 8 7 -84 2 -114 -6z
M2260 181 c0 -5 9 -7 20 -4 11 3 20 7 20 9 0 2 -9 4 -20 4 -11 0 -20 -4 -20
-9z M2385 169 c22 -4 51 -8 65 -7 16 0 11 3 -15 9 -22 4 -51 8 -65 7 -16 0
-11 -3 15 -9z M3003 173 c9 -2 25 -2 35 0 9 3 1 5 -18 5 -19 0 -27 -2 -17 -5z
M2933 163 c9 -2 25 -2 35 0 9 3 1 5 -18 5 -19 0 -27 -2 -17 -5z"/>
  </g>
  <g transform="translate(0.000000,540.000000) scale(0.100000,-0.100000)" fill="#3473aa">
    <path d="M2616 5340 c-19 -17 -37 -44 -41 -60 -10 -47 -7 -46 -207 -67 -56 -6
-56 -6 -81 34 -43 68 -137 93 -214 57 -43 -21 -58 -44 -76 -114 -14 -54 -14
-54 -108 -87 -113 -39 -114 -39 -151 -8 -113 95 -268 24 -268 -124 0 -50 0
-50 -100 -110 -111 -67 -115 -68 -142 -44 -33 29 -135 30 -178 1 -62 -42 -85
-119 -58 -195 12 -34 12 -34 -69 -115 -81 -81 -81 -81 -142 -68 -113 24 -190
-29 -199 -136 -4 -43 0 -61 20 -96 25 -43 25 -43 -39 -140 -63 -98 -63 -98
-119 -98 -152 0 -227 -166 -121 -271 29 -30 29 -31 17 -72 -8 -23 -17 -46 -20
-52 -4 -5 -13 -31 -20 -56 -19 -65 -27 -73 -91 -87 -85 -19 -119 -64 -119
-157 0 -54 2 -58 50 -106 57 -57 61 -77 38 -210 -12 -71 -12 -71 -63 -94 -69
-30 -87 -60 -87 -147 0 -66 2 -72 33 -104 17 -18 45 -36 60 -39 38 -9 45 -21
53 -90 3 -33 9 -83 12 -112 6 -51 6 -52 -34 -80 -53 -37 -63 -55 -69 -123 -9
-94 38 -154 131 -166 25 -4 46 -7 46 -8 0 -1 16 -46 35 -101 41 -117 42 -126
14 -151 -71 -64 -63 -191 14 -248 19 -14 49 -23 94 -26 65 -5 65 -5 123 -101
59 -96 59 -96 35 -144 -30 -59 -31 -96 -4 -151 35 -74 99 -94 209 -68 22 5 37
-6 104 -75 72 -75 96 -93 96 -73 0 4 -34 42 -75 85 -77 79 -85 98 -60 131 22
30 19 122 -5 161 -29 47 -86 69 -159 62 -60 -7 -60 -7 -116 79 -49 76 -70 134
-47 134 5 0 18 17 30 39 60 107 -15 231 -141 231 -37 0 -49 4 -53 18 -3 9 -10
25 -15 34 -5 10 -9 26 -9 36 0 10 -3 22 -7 26 -10 9 -33 78 -33 98 0 10 13 24
29 32 119 62 73 285 -59 286 -40 0 -47 11 -54 80 -4 36 -10 88 -13 115 -5 51
-5 51 47 75 125 59 123 227 -4 288 -48 23 -48 23 -41 60 3 20 10 70 14 110 7
77 16 92 61 92 14 0 39 9 57 20 92 55 97 181 11 254 -40 35 -40 35 -22 93 9
32 20 63 24 68 3 6 12 29 20 53 13 42 13 42 64 42 68 0 115 26 143 80 34 64
25 141 -20 179 -27 22 -20 47 33 126 27 41 50 79 50 85 0 12 2 12 102 14 83 1
112 17 144 78 18 35 18 119 -1 144 -25 33 -17 49 65 127 81 77 81 77 113 60
45 -24 140 -22 175 4 47 34 64 79 58 156 -5 67 -5 67 27 83 18 10 58 34 89 55
69 47 80 48 125 9 46 -41 119 -44 184 -8 48 27 61 51 67 126 4 47 9 65 21 69
9 3 25 9 36 13 11 5 50 19 88 31 67 23 67 23 98 -14 93 -113 247 -80 283 59
14 55 -8 47 186 69 65 7 65 7 88 -43 58 -127 223 -128 287 -1 24 47 29 50 53
44 55 -13 205 -18 198 -6 -4 6 -25 11 -46 11 -22 0 -72 6 -111 12 -69 12 -73
14 -86 48 -31 75 -68 100 -150 100 -66 0 -75 -2 -107 -30z M3440 5111 c0 -4
21 -16 48 -25 26 -10 56 -21 67 -26 62 -25 85 -31 96 -24 14 8 14 8 -115 55
-85 31 -96 34 -96 20z M3966 4882 c-3 -5 32 -33 77 -63 99 -65 97 -64 97 -47
0 8 -36 38 -80 66 -87 56 -86 56 -94 44z M1244 4461 c-117 -71 -115 -243 2
-306 44 -24 143 -17 182 12 94 70 90 226 -7 290 -44 30 -132 32 -177 4z M1012
3969 c-105 -68 -95 -240 18 -296 179 -91 336 131 194 274 -43 42 -45 43 -111
43 -52 0 -76 -5 -101 -21z M624 3249 c-135 -39 -150 -245 -22 -310 142 -73
302 65 242 209 -38 91 -121 130 -220 101z M997 2616 c-145 -53 -165 -245 -33
-327 76 -48 212 -11 255 70 30 54 15 165 -28 215 -40 45 -131 65 -194 42z
M685 2158 c-114 -41 -157 -162 -94 -264 60 -98 218 -95 287 6 84 124 -53 307
-193 258z M1240 631 c0 -9 144 -106 175 -117 37 -14 10 19 -42 52 -32 21 -70
45 -85 56 -30 20 -48 23 -48 9z M4057 592 c-10 -10 -43 -31 -74 -49 -55 -30
-78 -53 -53 -53 22 0 179 99 180 113 0 13 -35 6 -53 -11z M1726 362 c-2 -4 16
-14 42 -22 26 -7 54 -17 62 -21 37 -19 98 -37 104 -32 13 13 5 19 -41 32 -27
8 -52 17 -58 20 -39 23 -101 36 -109 23z M3510 324 c-36 -14 -73 -27 -82 -30
-10 -4 -18 -10 -18 -15 0 -11 33 -12 46 -1 5 5 42 19 82 32 39 13 72 27 72 32
0 13 -30 7 -100 -18z M2284 208 c-7 -11 10 -15 81 -22 33 -3 80 -8 104 -12 52
-8 50 9 -1 21 -56 12 -179 21 -184 13z M2913 197 c-69 -12 -85 -27 -25 -26 60
1 184 23 176 32 -9 9 -72 7 -151 -6z"/>
  </g>
  <g transform="translate(0.000000,540.000000) scale(0.100000,-0.100000)" fill="#548b9b">
    <path d="M2690 5379 c-27 -5 -19 -7 33 -8 37 0 67 1 67 3 0 8 -66 11 -100 5z
M2800 5367 c0 -2 15 -16 33 -33 32 -29 32 -29 3 4 -28 30 -36 37 -36 29z
M2599 5333 c-24 -28 -24 -28 4 -4 25 23 32 31 24 31 -2 0 -14 -12 -28 -27z
M2128 5323 c12 -2 32 -2 45 0 12 2 2 4 -23 4 -25 0 -35 -2 -22 -4z M2210 5313
c8 -3 29 -15 45 -25 30 -20 30 -20 0 6 -16 14 -37 26 -45 25 -13 0 -13 -1 0
-6z M3225 5305 c-39 -14 -118 -92 -109 -107 3 -5 -19 -9 -48 -9 -30 -1 -40 -4
-23 -6 67 -8 72 -11 79 -50 18 -113 126 -167 233 -116 20 9 43 29 52 45 9 16
25 28 36 28 17 0 18 2 5 11 -11 8 -12 12 -3 15 8 4 9 11 3 22 -5 9 -12 33 -15
53 -14 92 -118 148 -210 114z M2562 5271 c-9 -25 -17 -30 -49 -34 -38 -4 -38
-4 2 -3 33 1 42 6 53 29 8 16 12 31 9 33 -3 3 -9 -8 -15 -25z M2292 5240 c13
-21 23 -25 64 -26 49 -1 49 -1 4 3 -30 3 -51 11 -64 26 -18 22 -18 22 -4 -3z
M2888 5238 c6 -6 18 -8 28 -6 14 3 12 5 -9 10 -19 3 -25 2 -19 -4z M2423 5223
c9 -2 23 -2 30 0 6 3 -1 5 -18 5 -16 0 -22 -2 -12 -5z M3023 5213 c15 -2 37
-2 50 0 12 2 0 4 -28 4 -27 0 -38 -2 -22 -4z M2445 5200 c-18 -5 -2 -6 40 -3
39 3 72 7 74 9 8 7 -84 2 -114 -6z M2887 5203 c-3 -5 16 -9 42 -9 35 -1 40 0
21 6 -34 11 -58 12 -63 3z M2317 5183 c-4 -3 -7 -11 -7 -17 0 -7 3 -7 8 0 4 7
18 14 32 17 25 4 25 4 -1 6 -14 0 -29 -2 -32 -6z M2870 5173 c0 -6 -12 -28
-26 -49 -15 -21 -19 -32 -10 -24 21 17 49 70 42 78 -3 3 -6 1 -6 -5z M1556
5131 c-3 -4 6 -6 19 -3 14 2 25 6 25 8 0 8 -39 4 -44 -5z M1683 5125 c22 -7
49 -23 62 -35 15 -14 32 -20 47 -17 22 4 22 4 -3 6 -15 0 -32 8 -40 17 -17 20
-63 44 -86 44 -10 -1 -1 -7 20 -15z M1915 5120 c-13 -6 -15 -9 -5 -9 8 0 22 4
30 9 18 12 2 12 -25 0z M3490 5108 c38 -16 83 -28 76 -21 -8 8 -78 33 -91 32
-5 0 1 -5 15 -11z M1952 5102 c-8 -5 1 -8 22 -8 19 1 32 4 29 9 -6 9 -35 9
-51 -1z M1890 5080 c-18 -12 -2 -12 25 0 13 6 15 9 5 9 -8 0 -22 -4 -30 -9z
M1480 5059 c-7 -11 -10 -23 -7 -25 2 -2 9 7 15 21 14 30 7 33 -8 4z M2030
5055 c13 -14 26 -25 28 -25 3 0 -5 11 -18 25 -13 14 -26 25 -28 25 -3 0 5 -11
18 -25z M2269 5063 c-8 -9 -27 -24 -44 -35 -16 -10 -24 -18 -17 -18 12 0 93
69 81 70 -4 0 -13 -7 -20 -17z M2659 5067 c4 -5 32 -7 62 -5 54 3 54 3 -8 8
-34 3 -58 1 -54 -3z M3619 5061 c40 -16 43 -19 25 -29 -16 -9 -16 -11 -3 -12
9 0 19 7 23 15 5 14 -49 46 -78 44 -6 0 9 -8 33 -18z M1786 5038 c-9 -28 -14
-132 -6 -113 5 11 9 41 9 67 1 27 6 48 14 51 9 4 9 6 -1 6 -7 1 -14 -5 -16
-11z M1462 4990 c0 -19 2 -27 5 -17 2 9 2 25 0 35 -3 9 -5 1 -5 -18z M2133
5003 c9 -2 23 -2 30 0 6 3 -1 5 -18 5 -16 0 -22 -2 -12 -5z M1454 4926 c-5 -6
-21 -19 -35 -29 -15 -11 -17 -14 -4 -8 30 14 61 39 55 44 -3 3 -10 0 -16 -7z
M3956 4885 c-4 -11 12 -26 52 -52 31 -20 70 -45 86 -56 16 -12 26 -16 23 -10
-4 7 -41 33 -82 59 -47 30 -72 51 -66 57 6 6 20 2 38 -10 38 -27 53 -35 53
-30 0 7 -78 57 -89 57 -5 0 -11 -7 -15 -15z M1422 4866 c-44 -31 -55 -45 -17
-21 52 32 70 45 60 45 -6 -1 -25 -11 -43 -24z M1510 4865 c13 -14 26 -25 28
-25 3 0 -5 11 -18 25 -13 14 -26 25 -28 25 -3 0 5 -11 18 -25z M1705 4849
c-16 -10 -41 -20 -55 -20 -23 -2 -23 -2 -3 -6 22 -4 77 19 88 37 8 13 6 12
-30 -11z M1113 4843 c15 -2 37 -2 50 0 12 2 0 4 -28 4 -27 0 -38 -2 -22 -4z
M1200 4833 c8 -3 24 -13 35 -22 20 -16 20 -16 1 7 -11 12 -26 22 -35 21 -14 0
-14 -1 -1 -6z M4074 4831 c7 -11 46 -35 46 -28 0 3 -12 12 -26 22 -15 9 -23
12 -20 6z M1583 4823 c9 -2 23 -2 30 0 6 3 -1 5 -18 5 -16 0 -22 -2 -12 -5z
M1308 4794 c-16 -8 -28 -19 -28 -25 0 -6 5 -6 13 1 6 6 21 17 32 25 26 19 17
18 -17 -1z M1292 4693 c-1 -23 -5 -50 -8 -60 -5 -17 -5 -17 6 0 6 9 9 36 7 60
-4 42 -4 42 -5 0z M972 4690 c0 -19 2 -27 5 -17 2 9 2 25 0 35 -3 9 -5 1 -5
-18z M986 4615 c5 -27 -2 -37 -74 -108 -44 -42 -77 -77 -73 -77 13 0 161 156
161 170 0 8 -5 22 -10 30 -7 11 -8 7 -4 -15z M2255 4567 c-135 -54 -194 -191
-134 -313 107 -222 440 -128 424 118 -10 139 -167 245 -290 195z M1053 4545
c27 -19 87 -27 122 -15 27 9 27 9 -11 4 -24 -3 -59 1 -85 10 -35 12 -40 12
-26 1z M905 4460 c-27 -27 -47 -51 -44 -53 2 -1 26 21 53 50 62 67 56 69 -9 3z
M1313 4483 c9 -2 25 -2 35 0 9 3 1 5 -18 5 -19 0 -27 -2 -17 -5z M711 4456 c2
-2 22 -6 44 -9 28 -5 34 -4 20 3 -19 8 -73 14 -64 6z M1199 4433 c-24 -28 -24
-28 4 -4 25 23 32 31 24 31 -2 0 -14 -12 -28 -27z M654 4434 c-19 -15 -19 -15
1 -6 11 5 27 12 35 15 13 5 13 6 -1 6 -8 1 -24 -6 -35 -15z M613 4408 c-15
-20 -25 -38 -20 -38 3 0 12 11 21 25 17 26 16 35 -1 13z M893 4295 c0 -27 2
-38 4 -22 2 15 2 37 0 50 -2 12 -4 0 -4 -28z M572 4290 c0 -19 2 -27 5 -17 2
9 2 25 0 35 -3 9 -5 1 -5 -18z M1151 4282 c-1 -28 21 -73 45 -93 12 -9 10 -3
-5 17 -13 18 -27 47 -31 65 -6 25 -8 28 -9 11z M1488 4254 c-4 -17 -19 -46
-35 -65 -22 -27 -23 -30 -4 -14 29 25 53 71 49 93 -2 10 -7 4 -10 -14z M580
4233 c0 -6 9 -21 21 -34 20 -24 20 -24 3 6 -24 39 -24 40 -24 28z M846 4181
c-30 -36 -30 -36 4 -4 19 18 32 34 29 36 -2 2 -17 -12 -33 -32z M643 4143 c-7
-2 -13 -10 -13 -16 0 -8 3 -8 11 0 8 8 34 10 78 6 36 -3 64 -4 61 -1 -7 8
-123 17 -137 11z M1313 4133 c9 -2 25 -2 35 0 9 3 1 5 -18 5 -19 0 -27 -2 -17
-5z M545 3994 c-9 -14 -15 -27 -13 -30 2 -2 12 10 22 26 21 37 15 40 -9 4z
M1088 3993 c18 -2 45 -2 60 0 15 2 0 4 -33 4 -33 0 -45 -2 -27 -4z M1203 3968
c16 -13 37 -34 48 -48 12 -14 17 -18 13 -10 -11 24 -47 61 -69 72 -11 5 -8 0
8 -14z M413 3973 c9 -2 25 -2 35 0 9 3 1 5 -18 5 -19 0 -27 -2 -17 -5z M327
3938 c-18 -18 -21 -23 -7 -12 14 12 34 26 45 32 11 6 14 12 7 12 -7 0 -27 -15
-45 -32z M552 3915 c9 -11 21 -31 27 -45 7 -17 10 -20 10 -8 1 10 -11 30 -26
46 -16 15 -20 19 -11 7z M946 3901 c-10 -21 -16 -47 -13 -57 4 -16 5 -15 6 4
0 13 8 37 17 53 8 17 14 33 11 35 -2 2 -12 -13 -21 -35z M1923 3911 c-162 -41
-217 -254 -96 -375 165 -167 446 13 368 235 -38 106 -159 169 -272 140z M563
3733 c-12 -24 -21 -43 -18 -43 7 0 47 70 43 78 -2 5 -13 -11 -25 -35z M940
3764 c0 -6 7 -19 16 -30 14 -18 14 -18 3 6 -14 31 -19 36 -19 24z M281 3749
c-1 -9 7 -23 17 -30 15 -12 16 -12 6 1 -6 8 -14 22 -17 30 -5 13 -6 12 -6 -1z
M1229 3704 c-13 -14 -37 -32 -54 -40 -25 -11 -26 -13 -5 -8 22 5 104 74 89 74
-3 0 -16 -12 -30 -26z M338 3663 c5 -21 7 -23 10 -9 2 10 0 22 -6 28 -6 6 -7
0 -4 -19z M500 3674 c-17 -9 -20 -14 -9 -14 9 0 22 7 29 15 15 18 13 18 -20
-1z M370 3652 c0 -4 17 -6 38 -4 64 6 69 10 15 11 -29 0 -53 -3 -53 -7z M1093
3643 c9 -2 25 -2 35 0 9 3 1 5 -18 5 -19 0 -27 -2 -17 -5z M326 3618 c-2 -7
-7 -21 -10 -31 -3 -10 -2 -16 3 -13 5 3 11 17 13 31 5 26 0 35 -6 13z M356
3615 c-3 -9 -6 -22 -5 -28 0 -7 5 -1 10 12 5 13 8 26 5 28 -2 2 -6 -3 -10 -12z
M337 3563 c-4 -3 -7 -13 -7 -22 1 -13 3 -13 11 2 11 19 8 33 -4 20z M316 3505
c-3 -9 -6 -22 -5 -28 0 -7 5 -1 10 12 5 13 8 26 5 28 -2 2 -6 -3 -10 -12z
M280 3490 c0 -7 -7 -22 -17 -32 -9 -10 -12 -18 -6 -18 13 0 38 48 30 57 -4 3
-7 0 -7 -7z M170 3430 c-11 -8 -7 -9 15 -4 37 8 45 14 19 14 -10 0 -26 -5 -34
-10z M357 3390 c12 -14 26 -36 32 -50 7 -18 10 -20 10 -7 1 9 -14 32 -31 50
-18 18 -23 21 -11 7z M83 3280 c0 -30 2 -43 4 -27 2 15 2 39 0 55 -2 15 -4 2
-4 -28z M402 3285 c0 -16 2 -22 5 -12 2 9 2 23 0 30 -3 6 -5 -1 -5 -18z M673
3263 c9 -2 23 -2 30 0 6 3 -1 5 -18 5 -16 0 -22 -2 -12 -5z M606 3251 c-3 -4
6 -6 19 -3 14 2 25 6 25 8 0 8 -39 4 -44 -5z M720 3256 c0 -2 11 -6 25 -8 13
-3 22 -1 19 3 -5 9 -44 13 -44 5z M806 3210 c12 -14 26 -34 32 -45 6 -11 12
-14 12 -7 0 7 -15 27 -32 45 -18 18 -23 21 -12 7z M98 3205 c6 -11 23 -31 39
-45 28 -25 28 -25 -2 10 -47 55 -48 56 -37 35z M372 3189 c-7 -11 -27 -28 -45
-39 -18 -11 -26 -20 -19 -20 15 0 89 66 82 74 -3 3 -11 -4 -18 -15z M506 3114
c-4 -20 -5 -38 -3 -40 3 -3 8 11 11 32 4 20 5 38 3 40 -3 3 -8 -11 -11 -32z
M226 3114 c-10 -10 -15 -31 -14 -57 1 -42 1 -42 5 -2 5 48 16 63 51 68 27 4
27 4 0 6 -15 0 -34 -6 -42 -15z M183 3050 c0 -30 2 -43 4 -27 2 15 2 39 0 55
-2 15 -4 2 -4 -28z M511 3050 c0 -8 4 -24 9 -35 5 -13 9 -14 9 -5 0 8 -4 24
-9 35 -5 13 -9 14 -9 5z M195 2939 c-4 -22 -3 -45 1 -49 5 -5 10 14 11 41 2
60 -3 63 -12 8z M555 2960 c15 -24 86 -50 132 -49 48 2 48 2 -7 8 -30 3 -72
16 -93 29 -21 12 -35 17 -32 12z M765 2939 c-16 -10 -25 -19 -19 -19 7 0 22 9
35 20 30 24 23 24 -16 -1z M159 2912 c-3 -20 -2 -29 4 -23 5 5 7 19 5 32 -3
20 -5 19 -9 -9z M94 2864 c-19 -15 -19 -15 1 -6 11 5 27 12 35 15 13 5 13 6
-1 6 -8 1 -24 -6 -35 -15z M17 2753 c-3 -21 -2 -54 2 -73 7 -29 8 -22 9 38 0
80 -3 90 -11 35z M333 2725 c0 -27 2 -38 4 -22 2 15 2 37 0 50 -2 12 -4 0 -4
-28z M311 2643 c-10 -26 -10 -27 4 -9 8 11 15 23 15 28 0 15 -7 8 -19 -19z
M1060 2630 c14 -4 34 -8 45 -8 16 0 15 2 -5 8 -14 4 -34 8 -45 8 -16 0 -15 -2
5 -8z M60 2605 c13 -14 26 -25 28 -25 3 0 -5 11 -18 25 -13 14 -26 25 -28 25
-3 0 5 -11 18 -25z M965 2611 c-35 -21 -85 -77 -85 -94 0 -7 8 2 19 18 25 42
53 65 98 81 22 8 30 13 18 14 -11 0 -34 -8 -50 -19z M240 2580 c-19 -11 -31
-19 -27 -20 11 0 67 29 67 35 0 7 -1 7 -40 -15z M125 2566 c23 -11 31 -22 36
-52 6 -39 6 -39 8 -3 1 39 -10 53 -49 63 -20 5 -19 3 5 -8z M191 2519 c1 -24
5 -57 9 -74 5 -18 6 -2 3 40 -6 79 -14 101 -12 34z M1232 2485 c0 -16 2 -22 5
-12 2 9 2 23 0 30 -3 6 -5 -1 -5 -18z M872 2470 c0 -19 2 -27 5 -17 2 9 2 25
0 35 -3 9 -5 1 -5 -18z M183 2360 c0 -25 2 -35 4 -22 2 12 2 32 0 45 -2 12 -4
2 -4 -23z M211 2349 c-1 -28 15 -40 52 -38 16 1 14 3 -8 8 -20 4 -31 14 -36
31 -7 25 -7 25 -8 -1z M927 2310 c18 -19 34 -32 36 -29 2 2 -12 17 -32 33 -36
30 -36 30 -4 -4z M139 2289 c-24 -20 -24 -20 4 -3 15 9 27 18 27 20 0 8 -8 4
-31 -17z M1060 2270 c-65 -7 -65 -7 -3 -8 34 -1 65 3 68 8 3 6 5 9 3 8 -2 -1
-32 -4 -68 -8z M76 2208 c-3 -13 -5 -39 -5 -58 1 -27 3 -22 9 20 9 58 7 77 -4
38z M393 2160 c0 -25 2 -35 4 -22 2 12 2 32 0 45 -2 12 -4 2 -4 -23z M670
2160 c-18 -12 -2 -12 25 0 13 6 15 9 5 9 -8 0 -22 -4 -30 -9z M765 2160 c11
-5 27 -9 35 -9 9 0 8 4 -5 9 -11 5 -27 9 -35 9 -9 0 -8 -4 5 -9z M613 2124
c-28 -25 -28 -25 5 -3 17 13 32 24 32 26 0 8 -11 1 -37 -23z M851 2115 c15
-16 31 -39 37 -50 6 -11 12 -14 12 -7 0 7 -17 30 -37 50 -21 21 -26 24 -12 7z
M109 2046 c13 -16 51 -41 51 -33 0 2 -15 14 -32 27 -21 15 -28 17 -19 6z M903
1990 c0 -30 2 -43 4 -27 2 15 2 39 0 55 -2 15 -4 2 -4 -28z M297 2013 c-9 -9
-8 -45 1 -60 5 -7 8 4 7 27 0 22 0 40 -1 40 0 0 -4 -3 -7 -7z M238 1990 c12
-5 22 -15 22 -21 0 -7 2 -10 5 -7 12 11 -9 38 -29 37 -21 0 -21 0 2 -9z M271
1945 c1 -19 18 -51 18 -35 0 8 -4 22 -9 30 -5 8 -9 11 -9 5z M849 1863 c-24
-28 -24 -28 4 -4 25 23 32 31 24 31 -2 0 -14 -12 -28 -27z M658 1828 c6 -6 18
-8 28 -6 14 3 12 5 -9 10 -19 3 -25 2 -19 -4z M735 1820 c-27 -7 -27 -8 -5 -8
14 0 36 4 50 8 34 11 -3 11 -45 0z M321 1791 c0 -13 -14 -39 -31 -58 -16 -18
-30 -39 -30 -46 0 -7 6 -3 12 8 6 11 22 32 35 46 16 18 23 35 20 50 -4 24 -4
24 -6 0z M353 1800 c2 -11 18 -15 53 -16 49 -1 49 -1 4 3 -24 2 -48 10 -53 16
-6 8 -7 7 -4 -3z M509 1754 c13 -9 32 -35 42 -58 10 -22 19 -35 19 -28 0 29
-52 102 -74 102 -6 0 0 -7 13 -16z M253 1630 c0 -25 2 -35 4 -22 2 12 2 32 0
45 -2 12 -4 2 -4 -23z M549 1553 c-22 -46 -22 -50 1 -15 13 18 20 35 18 37 -3
3 -11 -7 -19 -22z M393 1463 c9 -2 25 -2 35 0 9 3 1 5 -18 5 -19 0 -27 -2 -17
-5z M510 1467 c0 -10 51 -87 57 -87 5 0 -11 27 -44 75 -7 11 -13 16 -13 12z
M499 1425 c5 -11 17 -29 26 -40 16 -20 16 -20 6 0 -5 11 -17 29 -26 40 -16 20
-16 20 -6 0z M560 1321 c5 -11 15 -23 21 -27 6 -3 3 5 -6 20 -20 30 -30 35
-15 7z M609 1308 c7 -10 23 -17 35 -17 20 1 20 2 1 6 -11 3 -27 10 -35 17 -13
10 -13 9 -1 -6z M688 1303 c12 -2 32 -2 45 0 12 2 2 4 -23 4 -25 0 -35 -2 -22
-4z M761 1296 c2 -2 15 -9 29 -15 24 -11 24 -11 6 3 -16 13 -49 24 -35 12z
M546 1185 c-3 -9 -5 -29 -5 -43 1 -20 3 -17 9 13 8 43 7 57 -4 30z M863 1150
c0 -30 2 -43 4 -27 2 15 2 39 0 55 -2 15 -4 2 -4 -28z M841 1066 c-7 -13 -11
-32 -8 -42 3 -14 5 -13 6 7 0 14 6 30 13 37 6 6 9 14 7 17 -3 3 -11 -6 -18
-19z M623 1008 c11 -10 27 -18 36 -17 10 0 7 4 -8 10 -14 5 -30 13 -36 17 -6
4 -2 -1 8 -10z M755 1000 c-11 -5 -33 -9 -50 -10 -20 -2 -24 -4 -11 -7 10 -3
38 1 63 8 44 12 44 12 121 -62 l77 -74 -75 78 c-74 77 -87 83 -125 67z M935
912 c31 -32 46 -56 39 -60 -5 -4 -11 -16 -12 -27 -13 -120 -13 -131 6 -165 40
-74 146 -102 222 -59 38 22 38 22 67 2 15 -11 35 -23 43 -27 14 -6 4 2 -45 38
-11 8 -16 18 -12 22 4 5 16 3 25 -4 9 -6 31 -19 47 -27 30 -15 30 -15 5 2 -67
48 -71 55 -60 95 37 131 -102 241 -225 178 -39 -20 -39 -20 -95 32 l-55 53 50
-53z M1527 585 c-21 -7 -46 -20 -56 -29 -22 -20 -35 -20 -69 0 -27 16 -27 16
1 -6 30 -24 36 -46 11 -36 -14 6 -15 4 -4 -9 7 -9 14 -42 14 -73 2 -141 157
-206 263 -110 23 21 44 21 112 -1 18 -6 31 -7 27 -3 -4 4 -31 14 -59 24 -45
15 -49 18 -29 24 17 5 20 9 11 15 -8 4 -12 23 -11 44 8 111 -106 198 -211 160z
M4022 578 c-18 -11 -31 -23 -28 -25 2 -3 22 7 43 21 44 31 33 34 -15 4z M4089
579 c-24 -20 -24 -20 4 -3 15 9 27 18 27 20 0 8 -8 4 -31 -17z M4025 540 c-16
-11 -25 -20 -20 -20 10 0 64 39 55 40 -3 0 -18 -9 -35 -20z M3535 340 c-13 -6
-15 -9 -5 -9 8 0 22 4 30 9 18 12 2 12 -25 0z M3475 320 c-13 -6 -15 -9 -5 -9
8 0 22 4 30 9 18 12 2 12 -25 0z M3523 306 c-64 -23 -98 -42 -47 -27 48 15
129 43 133 47 10 9 -28 0 -86 -20z M1869 295 c18 -8 38 -15 45 -15 6 1 -4 7
-23 15 -18 8 -38 15 -45 15 -6 -1 4 -7 23 -15z M1936 294 c-8 -21 -8 -24 3
-24 12 0 22 28 12 35 -5 3 -12 -2 -15 -11z M3420 300 c-13 -8 -13 -10 2 -10 9
0 20 5 23 10 8 13 -5 13 -25 0z M2275 222 c-9 -9 -6 -32 5 -32 6 0 9 5 8 12
-2 8 13 11 47 9 28 -2 48 -1 45 2 -8 7 -99 15 -105 9z M3020 216 c0 -2 11 -6
25 -8 14 -3 25 -1 25 3 0 5 -11 9 -25 9 -14 0 -25 -2 -25 -4z M2460 196 c25
-7 47 -11 49 -9 8 6 -5 11 -49 17 -45 5 -45 5 0 -8z M2847 193 c-20 -19 -5
-33 36 -31 42 1 42 1 5 5 -21 2 -38 8 -38 13 0 5 17 11 38 13 37 4 37 4 1 5
-20 1 -39 -1 -42 -5z M2323 183 c15 -2 39 -2 55 0 15 2 2 4 -28 4 -30 0 -43
-2 -27 -4z M3018 183 c12 -2 30 -2 40 0 9 3 -1 5 -23 4 -22 0 -30 -2 -17 -4z
M2953 173 c9 -2 23 -2 30 0 6 3 -1 5 -18 5 -16 0 -22 -2 -12 -5z"/>
  </g>
  <g transform="translate(0.000000,540.000000) scale(0.100000,-0.100000)" fill="#74a86f">
    <path d="M3756 5120 c-80 -25 -129 -126 -101 -209 45 -137 213 -157 297 -36
88 128 -45 293 -196 245z M2166 5001 c-3 -4 6 -6 19 -3 14 2 25 6 25 8 0 8
-39 4 -44 -5z M3260 4990 c-12 -8 -9 -10 13 -10 16 0 26 4 22 10 -8 12 -16 12
-35 0z M1544 4825 c11 -8 25 -15 30 -15 6 0 2 7 -8 15 -11 8 -25 15 -30 15 -6
0 -2 -7 8 -15z M2280 4591 c0 -5 -10 -12 -22 -14 -22 -4 -22 -4 -2 -6 12 0 27
6 34 14 9 10 9 15 1 15 -6 0 -11 -4 -11 -9z M2390 4581 c0 -10 39 -36 45 -29
2 2 -8 11 -21 21 -13 10 -24 13 -24 8z M1204 4535 c-10 -8 -14 -14 -9 -14 6 0
19 6 29 14 11 8 15 15 10 15 -6 0 -19 -7 -30 -15z M1248 4486 c-10 -7 -18 -16
-18 -19 0 -12 28 4 34 19 6 17 6 17 -16 0z M1385 4480 c3 -5 14 -10 23 -10 15
0 15 2 2 10 -20 13 -33 13 -25 0z M2543 4374 c-3 -8 -1 -20 6 -27 8 -8 11 -4
11 16 0 30 -7 35 -17 11z M2083 4340 c0 -16 4 -27 9 -24 4 3 8 14 8 24 0 10
-4 21 -8 24 -5 3 -9 -8 -9 -24z M1506 4334 c-3 -9 -2 -22 2 -31 6 -10 9 -5 9
16 0 35 -2 38 -11 15z M902 4305 c0 -16 2 -22 5 -12 2 9 2 23 0 30 -3 6 -5 -1
-5 -18z M1138 4303 c5 -21 7 -23 10 -9 2 10 0 22 -6 28 -6 6 -7 0 -4 -19z
M2523 4238 c-15 -20 -25 -38 -20 -38 3 0 12 11 21 25 17 26 16 35 -1 13z
M1174 3995 c11 -8 22 -12 25 -9 6 6 -19 24 -34 24 -5 -1 -1 -7 9 -15z M918
3823 c5 -21 7 -23 10 -9 2 10 0 22 -6 28 -6 6 -7 0 -4 -19z M593 3824 c-3 -8
-1 -20 4 -25 7 -7 11 -2 11 15 0 29 -6 33 -15 10z M1280 3795 c0 -8 4 -15 8
-15 5 0 9 7 9 15 0 8 -4 15 -9 15 -4 0 -8 -7 -8 -15z M1749 3748 c-5 -17 -4
-48 3 -48 4 0 8 11 8 25 0 20 -7 34 -11 23z M2212 3675 c0 -16 2 -22 5 -12 2
9 2 23 0 30 -3 6 -5 -1 -5 -18z M990 3676 c0 -2 12 -12 28 -21 27 -18 27 -18
8 3 -17 20 -36 29 -36 18z M1910 3470 c20 -13 33 -13 25 0 -3 6 -14 10 -23 10
-15 0 -15 -2 -2 -10z M1685 3256 c-183 -83 -223 -323 -77 -457 251 -229 616
103 409 372 -76 100 -219 137 -332 85z M402 3228 c-7 -7 -11 -21 -11 -32 1
-21 1 -21 6 -1 3 11 10 26 15 33 13 15 6 16 -10 0z M508 3167 c-3 -19 -2 -25
4 -19 6 6 8 18 6 28 -3 14 -5 12 -10 -9z M867 3093 c-4 -3 -7 -16 -6 -27 0
-19 1 -19 10 3 10 24 8 36 -4 24z M300 2830 c0 -5 10 -15 23 -21 22 -12 22
-12 3 10 -21 23 -26 26 -26 11z M1200 2578 c0 -9 5 -20 11 -23 17 -11 18 -2 3
19 -12 17 -14 17 -14 4z M1210 2335 c-7 -9 -10 -18 -7 -21 3 -3 10 4 17 15 13
25 8 27 -10 6z M390 2210 c6 -11 12 -20 14 -20 2 0 2 9 -1 20 -3 11 -9 20 -15
20 -5 0 -4 -9 2 -20z M1665 2156 c-135 -63 -184 -222 -103 -340 96 -141 303
-137 392 8 36 58 43 167 13 222 -58 111 -194 161 -302 110z M390 2111 c-6 -11
-6 -22 -1 -25 5 -3 11 5 13 19 6 30 2 32 -12 6z M547 2043 c-5 -26 -4 -26 9
-8 16 22 18 35 5 35 -5 0 -11 -12 -14 -27z M605 1850 c21 -24 26 -25 19 -6 -3
8 -13 17 -22 21 -13 5 -13 2 3 -15z M1266 1630 c-130 -83 -122 -281 15 -351
137 -69 299 25 299 174 0 128 -77 207 -203 207 -53 0 -71 -5 -111 -30z M577
1613 c-10 -9 -9 -33 1 -33 4 0 8 9 8 20 0 23 0 22 -9 13z M2108 930 c-146 -44
-171 -250 -41 -327 125 -73 266 1 277 144 10 123 -115 220 -236 183z M4100
621 c0 -5 7 -15 17 -22 15 -13 15 -12 4 9 -12 23 -21 28 -21 13z M1553 612
c-24 -4 -32 -22 -10 -22 15 0 43 18 37 22 -3 2 -15 2 -27 0z M3910 504 c0 -6
7 -19 16 -30 14 -18 14 -18 3 6 -14 31 -19 36 -19 24z M2061 406 c-53 -15 -95
-64 -110 -127 -39 -164 170 -272 286 -147 38 41 50 134 25 185 -40 78 -118
113 -201 89z M3600 363 c0 -5 7 -18 15 -29 13 -18 14 -18 8 4 -5 22 -23 41
-23 25z M2594 321 c-97 -59 -107 -217 -17 -278 62 -43 104 -48 164 -19 73 35
99 74 99 152 0 69 -22 114 -72 144 -44 27 -131 27 -174 1z M3398 273 c5 -21 7
-23 10 -9 2 10 0 22 -6 28 -6 6 -7 0 -4 -19z M3068 205 c2 -14 6 -25 8 -25 2
0 4 11 4 25 0 14 -4 25 -9 25 -4 0 -6 -11 -3 -25z"/>
  </g>
  <g transform="translate(0.000000,540.000000) scale(0.100000,-0.100000)" fill="#72b802">
    <path d="M2521 4824 c-70 -153 -109 -250 -103 -256 10 -10 23 15 147 287 97
212 94 206 79 212 -6 2 -59 -102 -123 -243z M2174 4983 c3 -10 22 -97 41 -193
41 -202 43 -210 57 -210 11 0 5 60 -12 130 -4 19 -13 59 -19 88 -19 92 -30
146 -36 175 -3 15 -12 27 -21 27 -10 0 -13 -6 -10 -17z M3266 4958 c-3 -13 -6
-87 -6 -165 0 -147 -8 -193 -35 -193 -56 0 -118 -57 -144 -130 -23 -66 -22
-66 -196 -73 -244 -11 -325 -19 -325 -32 0 -13 83 -11 304 5 208 16 201 17
221 -32 29 -75 77 -111 160 -124 49 -7 59 -15 69 -59 4 -16 11 -46 16 -65 47
-180 47 -176 10 -195 -17 -9 -49 -32 -71 -52 -36 -33 -43 -35 -61 -24 -11 7
-36 21 -54 31 -18 11 -57 34 -86 53 -375 240 -534 334 -545 323 -11 -11 -1
-18 272 -186 426 -263 418 -258 410 -283 -4 -12 -9 -34 -12 -50 -8 -41 -25
-42 -373 -29 -367 14 -600 16 -600 3 0 -10 181 -19 545 -26 435 -9 424 -7 425
-66 0 -14 16 -51 35 -83 19 -32 32 -63 28 -69 -20 -32 -356 -417 -364 -417 -5
0 -29 10 -52 22 -61 32 -193 32 -257 -1 -61 -32 -107 -77 -137 -135 -20 -40
-28 -47 -46 -43 -12 3 -88 22 -169 43 -132 34 -176 38 -154 17 4 -4 80 -26
169 -48 162 -42 162 -42 169 -116 12 -120 52 -182 166 -259 22 -15 22 -15 -35
-190 -58 -175 -58 -175 -123 -181 -105 -9 -161 -46 -199 -129 -68 -150 35
-312 199 -313 76 -1 133 24 174 75 14 18 31 38 36 45 6 8 19 9 37 3 57 -17
199 -63 218 -70 11 -4 86 -29 167 -55 156 -50 158 -52 158 -120 0 -27 8 -58
21 -80 12 -20 18 -39 14 -43 -4 -4 -84 -85 -178 -181 -171 -174 -171 -174
-201 -161 -94 40 -212 14 -264 -57 -25 -34 40 -55 -532 167 -102 39 -252 98
-334 130 -82 33 -153 57 -158 54 -15 -9 -8 -19 20 -30 65 -27 453 -177 772
-299 96 -37 181 -72 187 -77 10 -8 12 -52 4 -99 -1 -3 -18 -11 -38 -17 -154
-44 -183 -54 -183 -62 0 -13 25 -13 64 0 163 51 157 50 180 23 76 -94 157
-125 241 -93 37 14 46 6 113 -90 32 -47 89 -129 126 -183 69 -98 69 -98 42
-150 -62 -124 3 -237 136 -237 127 0 201 133 133 240 -36 57 -74 74 -153 67
-64 -5 -64 -5 -93 37 -250 360 -244 351 -213 376 46 39 57 143 23 216 -25 52
-47 22 210 286 124 127 124 127 162 107 51 -26 137 -26 183 1 35 19 35 19 189
-138 476 -487 451 -458 426 -488 -17 -21 -18 -111 -1 -149 21 -49 75 -80 143
-80 159 0 216 192 86 289 -33 25 -121 28 -162 6 -28 -15 -28 -15 -177 140
-472 491 -443 457 -425 496 103 214 -157 401 -319 228 -23 -24 -48 -44 -55
-44 -21 0 -533 170 -543 180 -5 5 -10 33 -12 62 -3 74 -25 119 -84 169 l-50
44 58 175 c57 175 57 175 147 180 103 6 145 22 204 81 103 104 114 278 25 396
-13 17 -24 34 -24 37 0 6 195 236 316 373 54 62 54 62 92 40 48 -29 187 -32
242 -5 111 53 170 174 146 298 -26 129 -111 202 -252 216 -63 7 -64 7 -73 43
-22 84 -61 240 -61 245 0 3 19 20 43 37 52 38 87 93 87 140 0 60 7 63 310 140
352 90 359 90 382 49 19 -33 86 -69 129 -70 161 -1 221 227 80 300 -58 29
-117 26 -173 -9 -45 -29 -49 -35 -66 -121 -7 -35 -7 -35 -132 -66 -69 -18
-213 -54 -320 -82 -195 -50 -195 -50 -217 -29 -41 37 -30 54 114 199 92 92
134 141 127 148 -6 6 -56 -37 -149 -130 -150 -150 -147 -148 -197 -123 -18 9
-40 20 -48 23 -13 6 -14 35 -11 189 2 119 0 181 -6 181 -6 0 -13 -10 -17 -22z
M1530 4810 c0 -5 -11 -34 -25 -65 -14 -30 -36 -81 -51 -112 -14 -32 -33 -76
-44 -98 -15 -34 -13 -71 4 -54 8 8 146 320 146 330 0 5 -7 9 -15 9 -8 0 -15
-4 -15 -10z M1214 4526 c-6 -16 11 -46 27 -46 13 0 10 23 -6 44 -13 17 -15 18
-21 2z M1860 4347 c-285 -10 -352 -16 -347 -30 2 -7 15 -11 28 -11 13 1 119 5
234 8 238 8 315 14 315 26 0 15 -23 15 -230 7z M963 4313 c-34 -3 -53 -9 -53
-16 0 -8 11 -12 28 -11 15 1 66 2 115 3 70 1 87 4 87 16 0 15 -41 17 -177 8z
M1208 4079 c-30 -66 -33 -79 -18 -79 13 0 72 118 65 130 -12 19 -20 9 -47 -51z
M607 3824 c-15 -15 8 -24 61 -24 103 0 252 13 252 22 0 9 -303 11 -313 2z
M1296 3802 c-3 -6 -2 -13 4 -17 14 -9 443 -75 449 -69 12 12 -23 27 -83 35
-36 5 -96 14 -133 19 -38 6 -95 15 -128 20 -33 5 -70 12 -81 15 -12 4 -25 2
-28 -3z M986 3638 c-42 -66 -216 -371 -216 -379 0 -5 7 -9 15 -9 8 0 15 3 15
8 0 4 50 92 110 197 61 104 110 193 110 197 0 16 -20 7 -34 -14z M1900 3428
c-6 -24 -18 -65 -26 -92 -13 -46 -12 -66 5 -66 7 0 35 95 48 161 9 46 -15 43
-27 -3z M400 3210 c0 -8 93 -60 107 -60 2 0 3 7 3 15 0 9 -20 24 -46 35 -52
23 -64 24 -64 10z M870 3071 c0 -12 40 -17 250 -31 91 -6 209 -16 264 -21 127
-12 136 -12 136 4 0 10 -42 17 -167 26 -93 7 -212 17 -267 22 -126 12 -216 12
-216 0z M417 2914 c-59 -42 -104 -80 -101 -86 3 -5 11 -7 18 -5 9 4 185 127
205 144 3 2 0 8 -5 13 -7 7 -46 -16 -117 -66z M1382 2708 c-121 -90 -171 -133
-163 -141 12 -12 365 248 356 263 -10 16 -13 14 -193 -122z M760 2358 c-47
-16 -123 -43 -170 -60 -149 -52 -190 -70 -190 -84 0 -12 37 -1 335 105 122 44
135 50 135 61 0 15 -16 12 -110 -22z M1222 2324 c4 -21 325 -257 339 -248 15
9 -3 27 -115 106 -55 40 -121 88 -145 106 -65 49 -84 58 -79 36z M402 2098 c4
-10 39 -25 126 -52 15 -5 22 -3 22 6 0 8 -27 23 -64 36 -72 25 -89 27 -84 10z
M557 1813 c-48 -59 -34 -81 17 -26 19 21 36 43 36 50 0 27 -18 19 -53 -24z
M1550 1698 c-53 -66 -58 -78 -36 -78 14 0 106 111 106 129 0 24 -21 8 -70 -51z
M580 1601 c0 -16 18 -23 83 -32 34 -5 87 -13 117 -19 30 -5 84 -14 120 -20 36
-6 90 -15 120 -20 30 -6 72 -13 92 -16 34 -6 76 1 67 11 -3 2 -71 16 -152 30
-510 88 -447 79 -447 66z M1410 1239 c0 -12 4 -38 9 -58 9 -35 24 -106 41
-201 11 -63 30 -157 40 -205 5 -22 14 -68 21 -102 13 -61 41 -93 32 -35 -9 53
-114 587 -119 605 -7 24 -24 21 -24 -4z M2125 504 c-4 -46 -3 -80 3 -86 15
-15 20 2 23 82 3 101 -16 104 -26 4z M3683 550 c-73 -44 -97 -177 -42 -236 80
-86 219 -71 270 28 24 47 22 122 -6 164 -39 59 -158 83 -222 44z"/>
  </g>
  <g transform="translate(0.000000,540.000000) scale(0.100000,-0.100000)" fill="#99cc4a">
    <path d="M2606 5043 c-71 -148 -206 -456 -202 -461 3 -3 12 10 20 29 8 19 58
128 110 244 53 115 95 213 93 218 -1 5 -11 -9 -21 -30z M2560 4843 c-52 -115
-102 -223 -112 -241 -20 -37 -21 -42 -10 -42 5 0 17 19 27 43 10 23 38 84 62
135 24 52 50 108 57 125 8 18 30 67 50 110 19 42 32 77 27 77 -4 0 -50 -93
-101 -207z M2206 4968 c3 -18 9 -51 14 -73 5 -22 14 -65 20 -95 7 -30 16 -73
21 -95 4 -22 11 -55 14 -72 4 -18 10 -33 14 -33 4 0 1 28 -6 63 -7 34 -18 82
-22 107 -38 192 -46 230 -53 230 -4 0 -5 -15 -2 -32z M2163 4970 c4 -14 23
-107 43 -207 20 -101 41 -183 47 -183 5 0 7 6 4 14 -3 7 -22 96 -42 197 -20
101 -41 189 -47 194 -7 7 -9 2 -5 -15z M3249 4918 c-1 -35 -4 -116 -8 -181 -6
-119 -6 -119 -45 -132 -64 -22 -127 -95 -138 -160 -3 -18 -16 -21 -158 -32
-85 -6 -189 -12 -230 -13 -41 -1 -84 -6 -95 -11 -13 -6 12 -8 75 -4 52 3 158
8 235 12 174 7 173 7 196 73 26 73 88 130 144 130 8 0 19 10 24 23 11 29 19
357 9 357 -5 0 -9 -28 -9 -62z M3288 4806 c-8 -185 -5 -206 31 -206 10 0 26
-7 37 -15 10 -8 26 -15 34 -15 16 0 290 269 290 285 0 5 -64 -54 -142 -132
-143 -142 -143 -142 -190 -120 -48 22 -48 22 -50 202 l-3 180 -7 -179z M1520
4826 c0 -9 -11 -39 -24 -68 -13 -29 -34 -75 -46 -103 -12 -27 -33 -74 -47
-104 -13 -29 -22 -56 -19 -58 5 -5 18 21 75 150 11 26 30 67 41 92 35 77 40
94 30 100 -6 4 -10 -1 -10 -9z M4245 4831 c-39 -10 -75 -29 -75 -41 0 -5 15
-1 33 10 42 26 107 26 158 0 141 -73 81 -301 -80 -300 -43 1 -110 37 -129 70
-23 41 -30 41 -382 -49 -303 -77 -310 -80 -310 -140 0 -47 -35 -102 -87 -140
-24 -17 -43 -34 -43 -37 0 -5 39 -161 61 -245 9 -36 10 -36 73 -43 141 -14
226 -87 252 -216 24 -124 -35 -245 -146 -298 -55 -27 -194 -24 -242 5 -38 22
-38 22 -92 -40 -121 -137 -316 -367 -316 -373 0 -3 11 -20 24 -37 89 -118 78
-292 -25 -396 -59 -59 -101 -75 -204 -81 -90 -5 -90 -5 -147 -180 l-58 -175
50 -44 c59 -50 81 -95 84 -169 2 -29 7 -57 12 -62 10 -10 522 -180 543 -180 7
0 32 20 55 44 162 173 422 -14 319 -228 -18 -39 -47 -5 425 -496 149 -155 149
-155 177 -140 15 8 52 15 82 14 154 -1 207 -193 79 -288 -40 -31 -134 -29
-177 3 -17 13 -30 18 -27 11 16 -49 160 -65 215 -24 105 79 102 217 -7 291
-38 26 -121 31 -165 11 -26 -12 -31 -8 -153 117 -69 72 -199 204 -289 296
-164 165 -164 165 -144 210 56 122 -5 257 -133 294 -83 24 -176 -8 -222 -77
-25 -37 -10 -39 -309 60 -260 87 -260 87 -265 147 -7 77 -32 126 -88 174 -45
39 -45 39 9 206 54 167 54 167 134 169 124 3 217 62 276 178 45 87 32 237 -26
306 -35 41 -34 44 48 140 39 47 93 110 120 141 26 31 71 84 99 119 37 44 57
61 68 56 108 -46 158 -53 221 -33 217 68 289 320 135 474 -55 55 -98 75 -174
82 -34 3 -66 11 -70 17 -18 29 -68 258 -58 267 87 68 115 109 125 183 6 40 6
40 323 119 316 79 316 79 352 39 82 -90 205 -83 273 18 86 125 -34 297 -182
261z M3567 4692 c-144 -145 -155 -162 -114 -199 22 -21 22 -21 217 29 107 28
251 64 320 82 125 31 125 31 131 66 4 19 10 46 14 60 6 23 6 24 -6 5 -7 -11
-15 -35 -19 -54 -5 -35 -5 -35 -323 -114 -307 -77 -318 -79 -332 -61 -22 28
-18 34 95 152 133 137 165 172 159 172 -2 0 -66 -62 -142 -138z M1490 4645
c-40 -91 -71 -168 -68 -170 3 -3 24 39 48 92 72 166 81 187 95 216 7 15 10 27
6 27 -5 0 -41 -74 -81 -165z M1231 4535 c0 -5 6 -19 14 -29 8 -11 15 -15 15
-10 0 6 -7 19 -15 30 -8 10 -14 15 -14 9z M1200 4501 c11 -22 30 -37 30 -24
-1 11 -26 43 -34 43 -4 0 -2 -9 4 -19z M2870 4370 c-41 -4 -120 -8 -175 -9
-55 -2 -109 -6 -120 -11 -28 -12 2 -12 210 0 94 5 192 11 220 12 48 3 50 2 67
-33 34 -73 111 -129 177 -129 39 0 40 -3 77 -150 32 -124 32 -150 -1 -150 -7
0 -32 -17 -56 -38 -43 -39 -43 -39 -123 11 -45 27 -95 58 -113 68 -17 10 -56
33 -85 52 -123 80 -330 207 -336 207 -4 0 -18 9 -32 20 -14 11 -32 20 -40 20
-8 0 -1 -9 15 -19 216 -131 384 -236 513 -318 29 -19 68 -42 86 -53 18 -10 43
-24 54 -31 18 -11 25 -9 61 24 22 20 54 43 71 52 37 19 38 8 -10 193 -5 20
-12 51 -16 67 -10 44 -20 52 -69 59 -83 13 -131 49 -160 124 -19 47 -32 49
-215 32z M1755 4358 c-213 -8 -245 -11 -234 -22 2 -2 96 0 209 5 112 4 237 9
277 10 40 1 73 6 73 10 0 10 6 10 -325 -3z M910 4319 c0 -10 208 -3 219 7 2 2
-46 4 -107 4 -75 0 -112 -4 -112 -11z M1805 4318 c-132 -5 -251 -13 -265 -18
-18 -7 0 -9 65 -5 50 2 177 8 283 11 105 4 192 11 192 16 0 4 -8 7 -17 6 -10
0 -126 -5 -258 -10z M914 4278 c-7 -10 126 -9 186 2 35 6 20 8 -68 7 -62 0
-115 -4 -118 -9z M2510 4206 c0 -4 147 -96 460 -289 215 -132 235 -146 221
-160 -6 -6 -11 -21 -11 -33 0 -42 -13 -44 -271 -34 -390 15 -689 18 -689 9 0
-5 64 -9 143 -9 78 0 284 -5 457 -12 348 -13 365 -12 373 29 3 16 8 38 12 50
8 24 -6 33 -240 178 -55 33 -178 109 -272 168 -164 102 -183 112 -183 103z
M1217 4133 c-3 -10 -17 -42 -31 -70 -14 -29 -21 -53 -17 -53 7 0 30 45 63 123
4 9 4 17 -1 17 -5 0 -11 -8 -14 -17z M1232 4064 c-18 -37 -31 -69 -28 -72 3
-3 20 25 37 62 41 87 33 95 -9 10z M735 3840 c-130 -6 -130 -6 30 -7 97 -1
152 2 140 7 -11 5 -24 8 -30 7 -5 0 -68 -4 -140 -7z M1330 3806 c19 -8 49 -15
67 -15 17 -1 53 -5 80 -10 144 -29 276 -45 269 -33 -3 5 -29 12 -58 15 -29 4
-80 11 -113 16 -93 15 -196 30 -240 36 -40 5 -40 5 -5 -9z M700 3800 c-85 -6
-78 -7 63 -7 86 0 157 4 157 8 0 10 -67 9 -220 -1z M1290 3772 c0 -4 12 -8 28
-10 15 -1 56 -6 92 -12 36 -6 93 -15 128 -20 34 -6 91 -15 127 -21 36 -6 68
-9 72 -6 8 8 -17 13 -239 47 -224 34 -208 32 -208 22z M872 3473 c-62 -108
-111 -200 -110 -205 2 -5 55 80 118 189 128 219 125 213 113 213 -4 -1 -59
-89 -121 -197z M2250 3661 c19 -5 230 -14 468 -20 238 -5 436 -12 441 -15 5
-3 13 -25 19 -49 6 -24 23 -60 37 -81 37 -54 59 -19 -194 -315 -69 -80 -126
-148 -128 -150 -2 -3 -22 6 -45 19 -49 28 -161 38 -225 21 -80 -22 -182 -112
-205 -183 -4 -11 -263 43 -335 70 -7 2 -13 0 -13 -4 0 -7 143 -47 327 -91 18
-4 25 3 43 38 30 60 75 106 135 137 68 36 198 38 262 4 23 -12 47 -22 52 -22
8 0 344 385 364 417 4 6 -9 37 -28 69 -19 32 -35 69 -35 83 -1 59 10 57 -425
66 -159 3 -348 7 -420 10 -88 3 -119 2 -95 -4z M917 3467 c-102 -176 -132
-234 -110 -212 23 23 227 384 220 391 -2 2 -52 -78 -110 -179z M1892 3445 c-7
-14 -12 -32 -12 -39 0 -7 -8 -38 -19 -69 -10 -32 -15 -57 -10 -57 8 0 9 2 38
109 22 78 22 99 3 56z M1927 3433 c-2 -16 -12 -54 -21 -86 -9 -32 -16 -66 -16
-75 1 -22 23 43 55 166 4 12 2 22 -3 22 -5 0 -12 -12 -15 -27z M411 3226 c8
-8 99 -45 99 -41 0 7 -78 45 -91 45 -7 0 -10 -2 -8 -4z M400 3191 c0 -4 12
-13 28 -20 15 -8 35 -17 44 -22 24 -12 34 -11 21 2 -17 17 -93 49 -93 40z
M876 3097 c4 -10 34 -16 112 -21 59 -3 161 -10 227 -16 258 -20 310 -23 304
-16 -4 4 -147 18 -318 31 -172 14 -317 27 -322 30 -5 3 -6 0 -3 -8z M870 3052
c0 -5 46 -12 103 -15 56 -4 158 -11 227 -17 69 -6 169 -14 223 -18 53 -4 97
-4 97 0 0 5 -8 8 -18 8 -10 0 -65 4 -123 9 -57 6 -171 15 -254 21 -82 6 -174
13 -202 15 -29 3 -53 1 -53 -3z M455 2957 c-130 -92 -155 -111 -150 -115 2 -2
50 28 107 68 123 88 112 79 107 85 -3 2 -32 -15 -64 -38z M427 2888 c-53 -39
-95 -73 -93 -75 2 -3 53 29 112 71 59 42 101 76 93 75 -8 0 -58 -32 -112 -71z
M2067 2913 c-4 -4 50 -21 120 -39 238 -59 213 -47 213 -109 0 -102 62 -210
151 -262 37 -22 38 -11 -24 -198 -54 -160 -54 -160 -118 -165 -231 -18 -302
-304 -109 -435 41 -27 52 -30 125 -30 91 0 120 14 187 88 37 41 37 41 250 -30
117 -38 233 -76 258 -83 63 -19 67 -23 73 -83 3 -28 13 -67 24 -84 18 -33 18
-33 -98 -150 -63 -65 -141 -145 -172 -178 -56 -60 -56 -60 -89 -41 -73 44
-180 23 -249 -48 -35 -36 -35 -36 -149 8 -135 51 -429 165 -688 265 -178 69
-223 84 -172 57 24 -13 77 -34 475 -188 565 -219 502 -199 527 -165 52 71 170
97 264 57 30 -13 30 -13 201 161 94 96 174 177 178 181 4 4 -2 23 -14 43 -13
22 -21 53 -21 80 0 68 -2 70 -158 120 -81 26 -156 51 -167 55 -19 7 -161 53
-218 70 -18 6 -31 5 -37 -3 -5 -7 -22 -27 -36 -45 -41 -51 -98 -76 -174 -75
-164 1 -267 163 -199 313 38 83 94 120 199 129 65 6 65 6 123 181 57 175 57
175 35 190 -114 77 -154 139 -166 259 -7 75 -7 75 -152 111 -80 20 -154 40
-166 43 -11 4 -24 4 -27 0z M1380 2724 c-91 -69 -167 -131 -169 -137 -2 -7 4
-5 15 4 10 8 90 68 177 133 86 64 157 119 157 122 0 12 -28 -7 -180 -122z
M1410 2694 c-91 -69 -169 -130 -175 -136 -19 -21 48 25 189 130 78 57 147 107
154 109 13 5 17 23 5 22 -5 0 -82 -57 -173 -125z M780 2380 c-41 -15 -82 -29
-90 -33 -8 -3 -44 -15 -80 -27 -36 -12 -74 -25 -85 -30 -11 -5 -44 -17 -73
-26 -29 -9 -55 -21 -59 -27 -7 -12 5 -9 92 23 33 12 129 47 214 76 85 30 156
56 159 59 14 14 -10 9 -78 -15z M840 2358 c-37 -15 -232 -85 -337 -120 -51
-18 -93 -35 -93 -40 0 -4 71 18 158 48 86 31 190 67 230 81 39 14 72 29 72 34
0 5 -1 9 -2 8 -2 0 -14 -5 -28 -11z M1230 2344 c0 -5 10 -15 23 -23 23 -15 95
-66 234 -169 47 -35 88 -61 90 -58 3 3 -43 40 -103 83 -59 43 -126 92 -149
109 -66 49 -95 67 -95 58z M1210 2311 c0 -5 70 -60 156 -122 86 -62 163 -119
170 -127 8 -7 14 -9 14 -3 0 6 -48 45 -106 88 -59 43 -135 99 -170 125 -35 26
-64 43 -64 39z M405 2122 c-6 -6 122 -51 145 -52 8 0 2 7 -14 15 -15 8 -37 15
-47 15 -10 0 -20 4 -23 9 -7 10 -53 20 -61 13z M405 2080 c7 -11 135 -54 141
-47 3 3 -29 16 -71 30 -41 14 -73 22 -70 17z M546 1818 c-20 -23 -34 -43 -31
-46 4 -4 52 48 68 74 15 27 -2 14 -37 -28z M577 1793 c-21 -25 -36 -47 -33
-50 6 -7 75 70 76 85 0 17 0 16 -43 -35z M1540 1705 c-29 -36 -51 -68 -48 -70
2 -3 30 27 61 65 31 39 53 70 48 70 -5 0 -33 -29 -61 -65z M1571 1679 c-29
-39 -51 -72 -49 -74 5 -6 108 124 108 136 0 14 -2 12 -59 -62z M592 1614 c6
-5 21 -8 371 -68 239 -41 217 -39 217 -25 0 5 -3 8 -7 6 -5 -3 -38 1 -75 9
-37 8 -95 18 -130 23 -35 6 -130 21 -211 35 -156 27 -174 29 -165 20z M600
1571 c14 -5 57 -14 95 -20 39 -7 90 -16 115 -21 25 -4 79 -14 120 -20 41 -6
94 -16 117 -21 23 -5 55 -9 70 -9 16 0 34 -5 41 -12 9 -9 12 -8 12 5 0 12 -9
17 -31 17 -18 0 -48 4 -68 9 -20 5 -65 14 -101 20 -145 23 -207 33 -245 41
-59 13 -156 21 -125 11z M3149 1302 c-257 -264 -235 -234 -210 -286 34 -73 23
-177 -23 -216 -31 -25 -37 -16 213 -376 29 -42 29 -42 93 -37 75 6 120 -11
146 -58 10 -16 21 -29 26 -29 14 0 -19 43 -58 75 -35 27 -44 30 -107 29 -69
-1 -69 -1 -168 140 -167 240 -157 219 -127 259 47 61 51 169 10 232 -16 24
-14 26 134 177 83 84 159 164 170 178 20 25 20 25 58 5 48 -26 144 -26 193 0
35 17 35 17 95 -46 33 -35 141 -148 241 -250 311 -320 279 -282 261 -317 -22
-43 -19 -152 4 -152 5 0 4 16 -2 36 -10 38 -3 100 14 121 21 26 41 4 -429 485
-154 157 -154 157 -189 138 -46 -27 -132 -27 -183 -1 -38 20 -38 20 -162 -107z
M1560 1366 c0 -2 26 -14 58 -26 31 -12 66 -26 77 -30 11 -4 81 -31 155 -60 74
-29 144 -56 155 -60 23 -10 292 -113 435 -168 118 -45 117 -44 112 -87 -5 -42
-10 -45 -129 -76 -51 -13 -93 -27 -93 -31 0 -11 1 -11 119 23 125 36 113 28
117 82 5 57 12 52 -196 132 -167 64 -331 127 -615 236 -71 28 -138 55 -147 60
-18 9 -48 12 -48 5z M1394 1240 c3 -14 19 -95 36 -180 38 -197 50 -255 60
-305 5 -22 14 -67 21 -100 7 -33 15 -52 17 -41 2 10 -1 37 -6 60 -6 22 -16 68
-22 101 -6 33 -15 78 -20 100 -5 22 -14 69 -20 105 -6 36 -15 83 -20 105 -5
22 -14 67 -21 100 -7 33 -16 65 -21 70 -6 6 -7 0 -4 -15z M1434 1243 c11 -38
116 -580 116 -600 0 -12 5 -25 11 -28 7 -5 8 5 4 32 -12 69 -86 446 -101 518
-9 39 -16 76 -16 83 -1 6 -5 12 -10 12 -5 0 -7 -8 -4 -17z M2495 838 c-33 -10
-78 -24 -100 -30 -22 -6 -44 -16 -50 -21 -6 -6 -3 -7 10 -4 11 3 63 18 115 33
94 27 94 27 110 3 58 -88 143 -120 250 -96 40 9 21 32 206 -238 82 -120 82
-120 58 -160 -13 -22 -23 -53 -23 -70 1 -20 3 -23 6 -10 2 11 16 43 30 72 26
52 26 52 -43 150 -37 54 -94 136 -126 183 -68 98 -75 104 -118 89 -74 -26
-179 10 -220 76 -27 43 -34 45 -105 23z M3715 579 c-68 -21 -116 -89 -114
-164 l2 -50 6 50 c20 151 153 204 282 111 8 -6 0 3 -18 20 -45 42 -95 52 -158
33z M2115 523 c-3 -32 -8 -70 -10 -85 -3 -16 -1 -28 4 -28 9 0 26 159 18 167
-3 2 -8 -22 -12 -54z M2157 563 c-4 -3 -6 -40 -6 -82 2 -76 2 -76 10 -11 4 36
10 73 13 83 4 17 -5 23 -17 10z M3927 427 c17 -145 -162 -225 -276 -123 -24
21 -24 21 -13 -1 14 -27 88 -63 129 -63 61 0 130 46 162 107 13 26 15 109 2
117 -5 3 -6 -14 -4 -37z M3400 225 c0 -40 -37 -104 -73 -125 -71 -44 -187 -18
-222 50 -8 16 -20 30 -26 30 -14 0 16 -48 45 -73 82 -72 216 -52 264 39 17 32
31 104 21 104 -5 0 -9 -11 -9 -25z"/>
  </g>
</svg>
